M48
; DRILL file {KiCad 9.0.2} date 2025-08-09T23:41:37+0200
; FORMAT={-:-/ absolute / metric / decimal}
; #@! TF.CreationDate,2025-08-09T23:41:37+02:00
; #@! TF.GenerationSoftware,Kicad,Pcbnew,9.0.2
; #@! TF.FileFunction,Plated,1,2,PTH
FMAT,2
METRIC
; #@! TA.AperFunction,Plated,PTH,ViaDrill
T1C0.750
; #@! TA.AperFunction,Plated,PTH,ComponentDrill
T2C0.750
; #@! TA.AperFunction,Plated,PTH,ComponentDrill
T3C0.800
; #@! TA.AperFunction,Plated,PTH,ComponentDrill
T4C0.950
; #@! TA.AperFunction,Plated,PTH,ComponentDrill
T5C1.000
%
G90
G05
T1
X17.5Y-28.6
X27.0Y-7.7
X38.8Y-15.6
T2
X40.5Y-19.5
X41.77Y-18.23
X41.77Y-20.77
T3
X8.045Y-1.8
X8.045Y-4.8
X8.38Y-9.3
X8.38Y-11.84
X8.38Y-14.38
X8.38Y-16.92
X8.38Y-19.46
X8.38Y-22.0
X8.38Y-24.54
X16.0Y-9.3
X16.0Y-11.84
X16.0Y-14.38
X16.0Y-16.92
X16.0Y-19.46
X16.0Y-22.0
X16.0Y-24.54
X18.205Y-1.8
X18.205Y-4.8
X18.5Y-10.5
X18.5Y-24.5
X18.705Y-21.5
X19.205Y-13.3
X20.0Y-17.3
X20.3Y-1.8
X20.3Y-4.8
X22.54Y-17.3
X23.705Y-21.5
X24.205Y-13.3
X25.08Y-17.3
X28.66Y-10.5
X28.66Y-24.5
X29.5Y-7.0
X29.5Y-21.5
X30.46Y-1.8
X30.46Y-4.8
X33.0Y-2.5
X38.0Y-2.5
X38.0Y-7.0
X38.0Y-21.5
X40.42Y-25.3
X40.42Y-27.84
X40.42Y-30.38
X41.63Y-7.38
X41.63Y-9.92
X41.63Y-12.46
X41.63Y-15.0
X45.5Y-21.42
X45.5Y-31.58
X49.25Y-7.38
X49.25Y-9.92
X49.25Y-12.46
X49.25Y-15.0
X49.5Y-19.75
X49.5Y-24.75
X52.25Y-14.84
X52.25Y-25.0
T4
X3.0Y-11.5
X3.0Y-14.0
X3.0Y-16.5
X3.0Y-19.0
X3.0Y-21.5
X10.0Y-30.0
X12.5Y-30.0
X15.0Y-30.0
X21.0Y-30.0
X23.5Y-30.0
X26.0Y-30.0
T5
X32.0Y-30.0
X34.5Y-30.0
M30
