%TF.GenerationSoftware,KiCad,Pcbnew,9.0.2*%
%TF.CreationDate,2025-08-10T10:35:35+02:00*%
%TF.ProjectId,speed limiter,73706565-6420-46c6-996d-697465722e6b,rev?*%
%TF.SameCoordinates,PXb71b00PYb71b00*%
%TF.FileFunction,Copper,L1,Top*%
%TF.FilePolarity,Positive*%
%FSLAX46Y46*%
G04 Gerber Fmt 4.6, Leading zero omitted, Abs format (unit mm)*
G04 Created by KiCad (PCBNEW 9.0.2) date 2025-08-10 10:35:35*
%MOMM*%
%LPD*%
G01*
G04 APERTURE LIST*
G04 Aperture macros list*
%AMRoundRect*
0 Rectangle with rounded corners*
0 $1 Rounding radius*
0 $2 $3 $4 $5 $6 $7 $8 $9 X,Y pos of 4 corners*
0 Add a 4 corners polygon primitive as box body*
4,1,4,$2,$3,$4,$5,$6,$7,$8,$9,$2,$3,0*
0 Add four circle primitives for the rounded corners*
1,1,$1+$1,$2,$3*
1,1,$1+$1,$4,$5*
1,1,$1+$1,$6,$7*
1,1,$1+$1,$8,$9*
0 Add four rect primitives between the rounded corners*
20,1,$1+$1,$2,$3,$4,$5,0*
20,1,$1+$1,$4,$5,$6,$7,0*
20,1,$1+$1,$6,$7,$8,$9,0*
20,1,$1+$1,$8,$9,$2,$3,0*%
G04 Aperture macros list end*
%TA.AperFunction,ComponentPad*%
%ADD10RoundRect,0.275000X0.625000X-0.275000X0.625000X0.275000X-0.625000X0.275000X-0.625000X-0.275000X0*%
%TD*%
%TA.AperFunction,ComponentPad*%
%ADD11R,1.800000X1.100000*%
%TD*%
%TA.AperFunction,ComponentPad*%
%ADD12C,2.000000*%
%TD*%
%TA.AperFunction,ComponentPad*%
%ADD13C,1.600000*%
%TD*%
%TA.AperFunction,ComponentPad*%
%ADD14RoundRect,0.250000X0.600000X0.725000X-0.600000X0.725000X-0.600000X-0.725000X0.600000X-0.725000X0*%
%TD*%
%TA.AperFunction,ComponentPad*%
%ADD15O,1.700000X1.950000*%
%TD*%
%TA.AperFunction,ComponentPad*%
%ADD16RoundRect,0.250000X0.600000X0.750000X-0.600000X0.750000X-0.600000X-0.750000X0.600000X-0.750000X0*%
%TD*%
%TA.AperFunction,ComponentPad*%
%ADD17O,1.700000X2.000000*%
%TD*%
%TA.AperFunction,ComponentPad*%
%ADD18RoundRect,0.250000X0.950000X0.550000X-0.950000X0.550000X-0.950000X-0.550000X0.950000X-0.550000X0*%
%TD*%
%TA.AperFunction,ComponentPad*%
%ADD19O,2.400000X1.600000*%
%TD*%
%TA.AperFunction,ComponentPad*%
%ADD20RoundRect,0.250000X0.725000X-0.600000X0.725000X0.600000X-0.725000X0.600000X-0.725000X-0.600000X0*%
%TD*%
%TA.AperFunction,ComponentPad*%
%ADD21O,1.950000X1.700000*%
%TD*%
%TA.AperFunction,ComponentPad*%
%ADD22RoundRect,0.250000X0.470000X-0.470000X0.470000X0.470000X-0.470000X0.470000X-0.470000X-0.470000X0*%
%TD*%
%TA.AperFunction,ComponentPad*%
%ADD23C,1.440000*%
%TD*%
%TA.AperFunction,ComponentPad*%
%ADD24RoundRect,0.250000X-0.470000X-0.470000X0.470000X-0.470000X0.470000X0.470000X-0.470000X0.470000X0*%
%TD*%
%TA.AperFunction,ViaPad*%
%ADD25C,1.500000*%
%TD*%
%TA.AperFunction,Conductor*%
%ADD26C,0.500000*%
%TD*%
G04 APERTURE END LIST*
D10*
%TO.P,Q1,3,D*%
%TO.N,Net-(J1-Pin_4)*%
X42170000Y-18230000D03*
%TO.P,Q1,2,G*%
%TO.N,Net-(Q1-G)*%
X40100000Y-19500000D03*
D11*
%TO.P,Q1,1,S*%
%TO.N,Net-(Q1-S)*%
X42170000Y-20770000D03*
%TD*%
D12*
%TO.P,5V_buck1,1,IN-*%
%TO.N,Net-(5V_buck1-IN-)*%
X29500000Y-21500000D03*
%TO.P,5V_buck1,2,IN+*%
%TO.N,Net-(5V_buck1-IN+)*%
X38000000Y-21500000D03*
%TO.P,5V_buck1,3,OUT-*%
%TO.N,Net-(5V_buck1-IN-)*%
X29500000Y-7000000D03*
%TO.P,5V_buck1,4,OUT+*%
%TO.N,Net-(5V_buck1-OUT+)*%
X38000000Y-7000000D03*
%TD*%
D13*
%TO.P,R5,1*%
%TO.N,Net-(5V_buck1-IN-)*%
X8045000Y-1800000D03*
%TO.P,R5,2*%
%TO.N,Net-(U1A--)*%
X18205000Y-1800000D03*
%TD*%
D14*
%TO.P,J2,1,Pin_1*%
%TO.N,Net-(J1-Pin_4)*%
X15000000Y-30000000D03*
D15*
%TO.P,J2,2,Pin_2*%
%TO.N,Net-(5V_buck1-IN-)*%
X12500000Y-30000000D03*
%TO.P,J2,3,Pin_3*%
%TO.N,Net-(J2-Pin_3)*%
X10000000Y-30000000D03*
%TD*%
D16*
%TO.P,J4,1,Pin_1*%
%TO.N,Net-(5V_buck1-IN+)*%
X34500000Y-30000000D03*
D17*
%TO.P,J4,2,Pin_2*%
%TO.N,Net-(J2-Pin_3)*%
X32000000Y-30000000D03*
%TD*%
D13*
%TO.P,C4,1*%
%TO.N,Net-(J1-Pin_4)*%
X49500000Y-24750000D03*
%TO.P,C4,2*%
%TO.N,Net-(5V_buck1-IN-)*%
X49500000Y-19750000D03*
%TD*%
%TO.P,R7,1*%
%TO.N,Net-(Q1-G)*%
X45500000Y-31580000D03*
%TO.P,R7,2*%
%TO.N,Net-(J1-Pin_3)*%
X45500000Y-21420000D03*
%TD*%
%TO.P,C1,1*%
%TO.N,Net-(C1-Pad1)*%
X18705000Y-21500000D03*
%TO.P,C1,2*%
%TO.N,Net-(5V_buck1-IN-)*%
X23705000Y-21500000D03*
%TD*%
D18*
%TO.P,LM2917N-1,1*%
%TO.N,Net-(J1-Pin_1)*%
X16000000Y-24540000D03*
D19*
%TO.P,LM2917N-1,2*%
%TO.N,Net-(C1-Pad1)*%
X16000000Y-22000000D03*
%TO.P,LM2917N-1,3*%
%TO.N,Net-(C2-Pad1)*%
X16000000Y-19460000D03*
%TO.P,LM2917N-1,4*%
X16000000Y-16920000D03*
%TO.P,LM2917N-1,5*%
%TO.N,Net-(J1-Pin_2)*%
X16000000Y-14380000D03*
%TO.P,LM2917N-1,6*%
%TO.N,unconnected-(LM2917N-1-Pad6)*%
X16000000Y-11840000D03*
%TO.P,LM2917N-1,7*%
%TO.N,unconnected-(LM2917N-1-Pad7)*%
X16000000Y-9300000D03*
%TO.P,LM2917N-1,8*%
%TO.N,Net-(5V_buck1-OUT+)*%
X8380000Y-9300000D03*
%TO.P,LM2917N-1,9*%
X8380000Y-11840000D03*
%TO.P,LM2917N-1,10*%
%TO.N,Net-(J1-Pin_2)*%
X8380000Y-14380000D03*
%TO.P,LM2917N-1,11*%
%TO.N,Net-(LM2917N-1-Pad11)*%
X8380000Y-16920000D03*
%TO.P,LM2917N-1,12*%
%TO.N,Net-(5V_buck1-IN-)*%
X8380000Y-19460000D03*
%TO.P,LM2917N-1,13*%
%TO.N,unconnected-(LM2917N-1-Pad13)*%
X8380000Y-22000000D03*
%TO.P,LM2917N-1,14*%
%TO.N,unconnected-(LM2917N-1-Pad14)*%
X8380000Y-24540000D03*
%TD*%
D13*
%TO.P,C2,1*%
%TO.N,Net-(C2-Pad1)*%
X19205000Y-13300000D03*
%TO.P,C2,2*%
%TO.N,Net-(5V_buck1-IN-)*%
X24205000Y-13300000D03*
%TD*%
%TO.P,R6,1*%
%TO.N,Net-(U1A--)*%
X20300000Y-1800000D03*
%TO.P,R6,2*%
%TO.N,Net-(5V_buck1-OUT+)*%
X30460000Y-1800000D03*
%TD*%
D14*
%TO.P,J3,1,Pin_1*%
%TO.N,Net-(J1-Pin_1)*%
X26000000Y-30000000D03*
D15*
%TO.P,J3,2,Pin_2*%
%TO.N,Net-(5V_buck1-IN-)*%
X23500000Y-30000000D03*
%TO.P,J3,3,Pin_3*%
%TO.N,Net-(5V_buck1-OUT+)*%
X21000000Y-30000000D03*
%TD*%
D20*
%TO.P,J1,1,Pin_1*%
%TO.N,Net-(J1-Pin_1)*%
X3000000Y-21500000D03*
D21*
%TO.P,J1,2,Pin_2*%
%TO.N,Net-(J1-Pin_2)*%
X3000000Y-19000000D03*
%TO.P,J1,3,Pin_3*%
%TO.N,Net-(J1-Pin_3)*%
X3000000Y-16500000D03*
%TO.P,J1,4,Pin_4*%
%TO.N,Net-(J1-Pin_4)*%
X3000000Y-14000000D03*
%TO.P,J1,5,Pin_5*%
%TO.N,Net-(5V_buck1-IN-)*%
X3000000Y-11500000D03*
%TD*%
D13*
%TO.P,R1,1*%
%TO.N,Net-(J1-Pin_1)*%
X18500000Y-24500000D03*
%TO.P,R1,2*%
%TO.N,Net-(5V_buck1-OUT+)*%
X28660000Y-24500000D03*
%TD*%
D22*
%TO.P,RV1,1,1*%
%TO.N,Net-(C2-Pad1)*%
X20000000Y-17300000D03*
D23*
%TO.P,RV1,2,2*%
%TO.N,Net-(5V_buck1-IN-)*%
X22540000Y-17300000D03*
%TO.P,RV1,3,3*%
X25080000Y-17300000D03*
%TD*%
D13*
%TO.P,C3,1*%
%TO.N,Net-(5V_buck1-OUT+)*%
X33000000Y-2500000D03*
%TO.P,C3,2*%
%TO.N,Net-(5V_buck1-IN-)*%
X38000000Y-2500000D03*
%TD*%
%TO.P,R3,1*%
%TO.N,Net-(5V_buck1-IN-)*%
X8045000Y-4800000D03*
%TO.P,R3,2*%
%TO.N,Net-(LM2917N-1-Pad11)*%
X18205000Y-4800000D03*
%TD*%
%TO.P,R4,1*%
%TO.N,Net-(LM2917N-1-Pad11)*%
X20300000Y-4800000D03*
%TO.P,R4,2*%
%TO.N,Net-(5V_buck1-OUT+)*%
X30460000Y-4800000D03*
%TD*%
D24*
%TO.P,RV2,1,1*%
%TO.N,Net-(Q1-S)*%
X40420000Y-25300000D03*
D23*
%TO.P,RV2,2,2*%
%TO.N,Net-(5V_buck1-IN-)*%
X40420000Y-27840000D03*
%TO.P,RV2,3,3*%
X40420000Y-30380000D03*
%TD*%
D13*
%TO.P,R2,1*%
%TO.N,Net-(J1-Pin_2)*%
X18500000Y-10500000D03*
%TO.P,R2,2*%
%TO.N,Net-(5V_buck1-IN-)*%
X28660000Y-10500000D03*
%TD*%
D18*
%TO.P,U1,1*%
%TO.N,Net-(J1-Pin_3)*%
X49250000Y-15000000D03*
D19*
%TO.P,U1,2,-*%
%TO.N,Net-(U1A--)*%
X49250000Y-12460000D03*
%TO.P,U1,3,+*%
%TO.N,Net-(J1-Pin_2)*%
X49250000Y-9920000D03*
%TO.P,U1,4,V-*%
%TO.N,Net-(5V_buck1-IN-)*%
X49250000Y-7380000D03*
%TO.P,U1,5,+*%
X41630000Y-7380000D03*
%TO.P,U1,6,-*%
X41630000Y-9920000D03*
%TO.P,U1,7*%
X41630000Y-12460000D03*
%TO.P,U1,8,V+*%
%TO.N,Net-(5V_buck1-OUT+)*%
X41630000Y-15000000D03*
%TD*%
D13*
%TO.P,R8,1*%
%TO.N,Net-(Q1-G)*%
X52250000Y-25000000D03*
%TO.P,R8,2*%
%TO.N,Net-(5V_buck1-IN-)*%
X52250000Y-14840000D03*
%TD*%
D25*
%TO.N,Net-(J1-Pin_3)*%
X27000000Y-7700000D03*
X38800000Y-15600000D03*
%TO.N,Net-(J1-Pin_1)*%
X17500000Y-28600000D03*
%TD*%
D26*
%TO.N,Net-(C2-Pad1)*%
X19205000Y-13715000D02*
X19205000Y-13300000D01*
X16000000Y-16920000D02*
X19205000Y-13715000D01*
X17840000Y-19460000D02*
X20000000Y-17300000D01*
X16000000Y-19460000D02*
X17840000Y-19460000D01*
%TO.N,Net-(J1-Pin_2)*%
X18500000Y-11880000D02*
X18500000Y-10500000D01*
X16000000Y-14380000D02*
X18500000Y-11880000D01*
%TO.N,Net-(C2-Pad1)*%
X19620000Y-16920000D02*
X20000000Y-17300000D01*
%TO.N,Net-(C1-Pad1)*%
X16000000Y-22000000D02*
X18205000Y-22000000D01*
X18205000Y-22000000D02*
X18705000Y-21500000D01*
%TO.N,Net-(J1-Pin_1)*%
X18460000Y-24540000D02*
X18500000Y-24500000D01*
X16000000Y-24540000D02*
X18460000Y-24540000D01*
%TO.N,Net-(Q1-S)*%
X41770000Y-20770000D02*
X40420000Y-22120000D01*
X40420000Y-22120000D02*
X40420000Y-25300000D01*
%TO.N,Net-(C2-Pad1)*%
X20000000Y-17505000D02*
X20000000Y-17300000D01*
%TO.N,Net-(5V_buck1-OUT+)*%
X28660000Y-24500000D02*
X29000000Y-24500000D01*
X26500000Y-24500000D02*
X21000000Y-30000000D01*
X28660000Y-24500000D02*
X26500000Y-24500000D01*
%TO.N,Net-(J1-Pin_1)*%
X18705000Y-24500000D02*
X18500000Y-24500000D01*
X18840000Y-24635000D02*
X18705000Y-24500000D01*
%TO.N,Net-(J1-Pin_2)*%
X18625000Y-10625000D02*
X18500000Y-10500000D01*
X24250000Y-10500000D02*
X30750000Y-17000000D01*
X30750000Y-17000000D02*
X42170000Y-17000000D01*
X18500000Y-10500000D02*
X24250000Y-10500000D01*
X42170000Y-17000000D02*
X49250000Y-9920000D01*
%TO.N,Net-(J1-Pin_3)*%
X31851000Y-8651000D02*
X27951000Y-8651000D01*
X38800000Y-15600000D02*
X31851000Y-8651000D01*
X27951000Y-8651000D02*
X27000000Y-7700000D01*
%TO.N,Net-(5V_buck1-OUT+)*%
X38000000Y-11370000D02*
X41630000Y-15000000D01*
X38000000Y-7000000D02*
X38000000Y-11370000D01*
X32300000Y-1800000D02*
X33000000Y-2500000D01*
X30460000Y-1800000D02*
X32300000Y-1800000D01*
X30460000Y-1800000D02*
X30460000Y-4800000D01*
X30705000Y-1800000D02*
X30460000Y-1800000D01*
X30905000Y-2000000D02*
X30705000Y-1800000D01*
X30460000Y-4800000D02*
X30660000Y-4800000D01*
X30660000Y-4800000D02*
X30705000Y-4755000D01*
%TO.N,Net-(U1A--)*%
X20300000Y-1800000D02*
X18205000Y-1800000D01*
%TO.N,Net-(5V_buck1-OUT+)*%
X27450000Y-4800000D02*
X30460000Y-4800000D01*
X24750000Y-7500000D02*
X27450000Y-4800000D01*
X10180000Y-7500000D02*
X24750000Y-7500000D01*
X33000000Y-4800000D02*
X30460000Y-4800000D01*
%TO.N,Net-(LM2917N-1-Pad11)*%
X20300000Y-4800000D02*
X18205000Y-4800000D01*
%TO.N,Net-(5V_buck1-OUT+)*%
X8380000Y-9300000D02*
X10180000Y-7500000D01*
%TO.N,Net-(5V_buck1-IN-)*%
X49500000Y-17750000D02*
X49500000Y-19750000D01*
X52250000Y-15000000D02*
X49500000Y-17750000D01*
X52250000Y-14840000D02*
X52250000Y-15000000D01*
%TO.N,Net-(Q1-G)*%
X48549000Y-26201000D02*
X45500000Y-29250000D01*
X45500000Y-29250000D02*
X45500000Y-31580000D01*
X51049000Y-26201000D02*
X48549000Y-26201000D01*
X52250000Y-25000000D02*
X51049000Y-26201000D01*
X46750000Y-19500000D02*
X52250000Y-25000000D01*
X40500000Y-19500000D02*
X46750000Y-19500000D01*
%TO.N,Net-(J1-Pin_4)*%
X18665133Y-30000000D02*
X15000000Y-30000000D01*
X30435133Y-18230000D02*
X18665133Y-30000000D01*
X41770000Y-18230000D02*
X30435133Y-18230000D01*
%TO.N,Net-(5V_buck1-IN-)*%
X52250000Y-10380000D02*
X52250000Y-14840000D01*
X49250000Y-7380000D02*
X52250000Y-10380000D01*
X41630000Y-9920000D02*
X41630000Y-12460000D01*
X41630000Y-7380000D02*
X41630000Y-9920000D01*
X41630000Y-7380000D02*
X45380000Y-7380000D01*
X45380000Y-7380000D02*
X40500000Y-2500000D01*
X49250000Y-7380000D02*
X45380000Y-7380000D01*
%TO.N,Net-(5V_buck1-IN+)*%
X34500000Y-25000000D02*
X34500000Y-30000000D01*
X38000000Y-21500000D02*
X34500000Y-25000000D01*
%TO.N,Net-(5V_buck1-OUT+)*%
X33000000Y-2500000D02*
X33000000Y-4800000D01*
X38000000Y-7000000D02*
X37500000Y-7000000D01*
X37500000Y-7000000D02*
X35300000Y-4800000D01*
X35300000Y-4800000D02*
X33000000Y-4800000D01*
%TO.N,Net-(5V_buck1-IN-)*%
X40500000Y-2500000D02*
X38000000Y-2500000D01*
X8045000Y-4800000D02*
X8045000Y-1800000D01*
%TO.N,Net-(C2-Pad1)*%
X16000000Y-19460000D02*
X16000000Y-16920000D01*
%TO.N,Net-(J1-Pin_2)*%
X8380000Y-14380000D02*
X7620000Y-14380000D01*
X7620000Y-14380000D02*
X3000000Y-19000000D01*
X8380000Y-14380000D02*
X16000000Y-14380000D01*
%TO.N,Net-(J1-Pin_4)*%
X1374000Y-22480134D02*
X7267866Y-28374000D01*
X1374000Y-15626000D02*
X1374000Y-22480134D01*
X7267866Y-28374000D02*
X13374000Y-28374000D01*
X3000000Y-14000000D02*
X1374000Y-15626000D01*
X13374000Y-28374000D02*
X15000000Y-30000000D01*
%TO.N,Net-(5V_buck1-OUT+)*%
X8380000Y-11840000D02*
X8380000Y-9300000D01*
%TO.N,Net-(J1-Pin_1)*%
X17500000Y-28600000D02*
X17500000Y-26040000D01*
X7378976Y-25991000D02*
X14549000Y-25991000D01*
X14549000Y-25991000D02*
X16000000Y-24540000D01*
X3000000Y-21612024D02*
X7378976Y-25991000D01*
X3000000Y-21500000D02*
X3000000Y-21612024D01*
X17500000Y-26040000D02*
X16000000Y-24540000D01*
%TO.N,Net-(J2-Pin_3)*%
X30374000Y-31626000D02*
X32000000Y-30000000D01*
X11626000Y-31626000D02*
X30374000Y-31626000D01*
X10000000Y-30000000D02*
X11626000Y-31626000D01*
%TO.N,Net-(J1-Pin_1)*%
X16040000Y-24500000D02*
X16000000Y-24540000D01*
%TD*%
M02*
