%TF.GenerationSoftware,KiCad,Pcbnew,9.0.2*%
%TF.CreationDate,2025-08-10T10:35:35+02:00*%
%TF.ProjectId,speed limiter,73706565-6420-46c6-996d-697465722e6b,rev?*%
%TF.SameCoordinates,PXb71b00PYb71b00*%
%TF.FileFunction,Soldermask,Bot*%
%TF.FilePolarity,Negative*%
%FSLAX46Y46*%
G04 Gerber Fmt 4.6, Leading zero omitted, Abs format (unit mm)*
G04 Created by KiCad (PCBNEW 9.0.2) date 2025-08-10 10:35:35*
%MOMM*%
%LPD*%
G01*
G04 APERTURE LIST*
G04 Aperture macros list*
%AMRoundRect*
0 Rectangle with rounded corners*
0 $1 Rounding radius*
0 $2 $3 $4 $5 $6 $7 $8 $9 X,Y pos of 4 corners*
0 Add a 4 corners polygon primitive as box body*
4,1,4,$2,$3,$4,$5,$6,$7,$8,$9,$2,$3,0*
0 Add four circle primitives for the rounded corners*
1,1,$1+$1,$2,$3*
1,1,$1+$1,$4,$5*
1,1,$1+$1,$6,$7*
1,1,$1+$1,$8,$9*
0 Add four rect primitives between the rounded corners*
20,1,$1+$1,$2,$3,$4,$5,0*
20,1,$1+$1,$4,$5,$6,$7,0*
20,1,$1+$1,$6,$7,$8,$9,0*
20,1,$1+$1,$8,$9,$2,$3,0*%
G04 Aperture macros list end*
%ADD10RoundRect,0.275000X0.625000X-0.275000X0.625000X0.275000X-0.625000X0.275000X-0.625000X-0.275000X0*%
%ADD11R,1.800000X1.100000*%
%ADD12C,2.000000*%
%ADD13C,1.600000*%
%ADD14RoundRect,0.250000X0.600000X0.725000X-0.600000X0.725000X-0.600000X-0.725000X0.600000X-0.725000X0*%
%ADD15O,1.700000X1.950000*%
%ADD16RoundRect,0.250000X0.600000X0.750000X-0.600000X0.750000X-0.600000X-0.750000X0.600000X-0.750000X0*%
%ADD17O,1.700000X2.000000*%
%ADD18C,3.200000*%
%ADD19RoundRect,0.250000X0.950000X0.550000X-0.950000X0.550000X-0.950000X-0.550000X0.950000X-0.550000X0*%
%ADD20O,2.400000X1.600000*%
%ADD21RoundRect,0.250000X0.725000X-0.600000X0.725000X0.600000X-0.725000X0.600000X-0.725000X-0.600000X0*%
%ADD22O,1.950000X1.700000*%
%ADD23RoundRect,0.250000X0.470000X-0.470000X0.470000X0.470000X-0.470000X0.470000X-0.470000X-0.470000X0*%
%ADD24C,1.440000*%
%ADD25RoundRect,0.250000X-0.470000X-0.470000X0.470000X-0.470000X0.470000X0.470000X-0.470000X0.470000X0*%
G04 APERTURE END LIST*
D10*
%TO.C,Q1*%
X42170000Y-18230000D03*
X40100000Y-19500000D03*
D11*
X42170000Y-20770000D03*
%TD*%
D12*
%TO.C,5V_buck1*%
X29500000Y-21500000D03*
X38000000Y-21500000D03*
X29500000Y-7000000D03*
X38000000Y-7000000D03*
%TD*%
D13*
%TO.C,R5*%
X8045000Y-1800000D03*
X18205000Y-1800000D03*
%TD*%
D14*
%TO.C,J2*%
X15000000Y-30000000D03*
D15*
X12500000Y-30000000D03*
X10000000Y-30000000D03*
%TD*%
D16*
%TO.C,J4*%
X34500000Y-30000000D03*
D17*
X32000000Y-30000000D03*
%TD*%
D18*
%TO.C,REF\u002A\u002A*%
X3500000Y-29500000D03*
%TD*%
%TO.C,REF\u002A\u002A*%
X50500000Y-3500000D03*
%TD*%
D13*
%TO.C,C4*%
X49500000Y-24750000D03*
X49500000Y-19750000D03*
%TD*%
%TO.C,R7*%
X45500000Y-31580000D03*
X45500000Y-21420000D03*
%TD*%
%TO.C,C1*%
X18705000Y-21500000D03*
X23705000Y-21500000D03*
%TD*%
D19*
%TO.C,LM2917N-1*%
X16000000Y-24540000D03*
D20*
X16000000Y-22000000D03*
X16000000Y-19460000D03*
X16000000Y-16920000D03*
X16000000Y-14380000D03*
X16000000Y-11840000D03*
X16000000Y-9300000D03*
X8380000Y-9300000D03*
X8380000Y-11840000D03*
X8380000Y-14380000D03*
X8380000Y-16920000D03*
X8380000Y-19460000D03*
X8380000Y-22000000D03*
X8380000Y-24540000D03*
%TD*%
D13*
%TO.C,C2*%
X19205000Y-13300000D03*
X24205000Y-13300000D03*
%TD*%
%TO.C,R6*%
X20300000Y-1800000D03*
X30460000Y-1800000D03*
%TD*%
D14*
%TO.C,J3*%
X26000000Y-30000000D03*
D15*
X23500000Y-30000000D03*
X21000000Y-30000000D03*
%TD*%
D21*
%TO.C,J1*%
X3000000Y-21500000D03*
D22*
X3000000Y-19000000D03*
X3000000Y-16500000D03*
X3000000Y-14000000D03*
X3000000Y-11500000D03*
%TD*%
D18*
%TO.C,REF\u002A\u002A*%
X50500000Y-29500000D03*
%TD*%
D13*
%TO.C,R1*%
X18500000Y-24500000D03*
X28660000Y-24500000D03*
%TD*%
D18*
%TO.C,REF\u002A\u002A*%
X3500000Y-3500000D03*
%TD*%
D23*
%TO.C,RV1*%
X20000000Y-17300000D03*
D24*
X22540000Y-17300000D03*
X25080000Y-17300000D03*
%TD*%
D13*
%TO.C,C3*%
X33000000Y-2500000D03*
X38000000Y-2500000D03*
%TD*%
%TO.C,R3*%
X8045000Y-4800000D03*
X18205000Y-4800000D03*
%TD*%
%TO.C,R4*%
X20300000Y-4800000D03*
X30460000Y-4800000D03*
%TD*%
D25*
%TO.C,RV2*%
X40420000Y-25300000D03*
D24*
X40420000Y-27840000D03*
X40420000Y-30380000D03*
%TD*%
D13*
%TO.C,R2*%
X18500000Y-10500000D03*
X28660000Y-10500000D03*
%TD*%
D19*
%TO.C,U1*%
X49250000Y-15000000D03*
D20*
X49250000Y-12460000D03*
X49250000Y-9920000D03*
X49250000Y-7380000D03*
X41630000Y-7380000D03*
X41630000Y-9920000D03*
X41630000Y-12460000D03*
X41630000Y-15000000D03*
%TD*%
D13*
%TO.C,R8*%
X52250000Y-25000000D03*
X52250000Y-14840000D03*
%TD*%
M02*
