<svg xmlns="http://www.w3.org/2000/svg" viewBox="0 0 8 6">
	<style>
		svg { background-color: white; }
	</style>
	<!-- 8 6 1 -->
	<path d="M 7 5 h 1 v 1 h -1 z" fill="#ff0000" fill-opacity="0.15" />
	<path d="M 7.5 6 v -0.5" fill="white" fill-opacity="0" stroke="black" stroke-width="0.05" stroke-linecap="round" />
	<path d="M 7 6 h 1 v 1 h -1 z" fill="#ff0000" fill-opacity="0.15" />
	<path d="M 7.5 6 v 0.5" fill="white" fill-opacity="0" stroke="black" stroke-width="0.05" stroke-linecap="round" />
	<!-- 1 4 7 -->
	<path d="M 0 3 h 1 v 1 h -1 z" fill="#ff0000" fill-opacity="0.15" />
	<path d="M 0.5 3.8 v -0.6 l -0.2 0.2 l 0.2 -0.2 l 0.2 0.2" fill="white" fill-opacity="0" stroke="black" stroke-width="0.05" stroke-linecap="round" />
	<!-- 7 5 3 -->
	<path d="M 6 4 h 1 v 1 h -1 z" fill="#000000" fill-opacity="1" />
	<!-- 6 4 3 -->
	<path d="M 5 3 h 1 v 1 h -1 z" fill="#000000" fill-opacity="1" />
	<!-- 4 4 3 -->
	<path d="M 3 3 h 1 v 1 h -1 z" fill="#000000" fill-opacity="1" />
	<!-- 5 4 2 -->
	<path d="M 4 3 h 1 v 1 h -1 z" fill="#dddddd" fill-opacity="1" />
	<!-- 3 4 2 -->
	<path d="M 2 3 h 1 v 1 h -1 z" fill="#dddddd" fill-opacity="1" />
	<!-- 2 4 3 -->
	<path d="M 1 3 h 1 v 1 h -1 z" fill="#000000" fill-opacity="1" />
	<!-- 7 1 6 -->
	<path d="M 6 0 h 1 v 1 h -1 z" fill="#ff0000" fill-opacity="0.15" />
	<path d="M 6.2 0.5 h 0.6 l -0.2 -0.2 l 0.2 0.2 l -0.2 0.2" fill="white" fill-opacity="0" stroke="black" stroke-width="0.05" stroke-linecap="round" />
	<!--1-->
	<!--2-->
	<path fill="transparent" stroke="gray" stroke-width="0.02" d="M 0.01 0 v 6" />
	<path fill="transparent" stroke="gray" stroke-width="0.02" d="M 1 0 v 6" />
	<path fill="transparent" stroke="gray" stroke-width="0.02" d="M 2 0 v 6" />
	<path fill="transparent" stroke="gray" stroke-width="0.02" d="M 3 0 v 6" />
	<path fill="transparent" stroke="gray" stroke-width="0.02" d="M 4 0 v 6" />
	<path fill="transparent" stroke="gray" stroke-width="0.02" d="M 5 0 v 6" />
	<path fill="transparent" stroke="gray" stroke-width="0.02" d="M 6 0 v 6" />
	<path fill="transparent" stroke="gray" stroke-width="0.02" d="M 7 0 v 6" />
	<path fill="transparent" stroke="gray" stroke-width="0.02" d="M 7.99 0 v 6" />
	<path fill="transparent" stroke="gray" stroke-width="0.02" d="M 0 0.01 h 8" />
	<path fill="transparent" stroke="gray" stroke-width="0.02" d="M 0 1 h 8" />
	<path fill="transparent" stroke="gray" stroke-width="0.02" d="M 0 2 h 8" />
	<path fill="transparent" stroke="gray" stroke-width="0.02" d="M 0 3 h 8" />
	<path fill="transparent" stroke="gray" stroke-width="0.02" d="M 0 4 h 8" />
	<path fill="transparent" stroke="gray" stroke-width="0.02" d="M 0 5 h 8" />
	<path fill="transparent" stroke="gray" stroke-width="0.02" d="M 0 5.99 h 8" />

	<!--3-->
	<!-- 3 5 9 -->
	<path d="M 2.5 4.5
L 2.5 4
A 0.5 0.5 0 0 0 2 3.5
A 0.5 0.5 0 0 1 1.5 3
L 1.5 2.5
" fill="white" fill-opacity="0" stroke="white" stroke-width="0.1" stroke-linecap="round" />
<path d="M 2.5 4.5
L 2.5 4
A 0.5 0.5 0 0 0 2 3.5
A 0.5 0.5 0 0 1 1.5 3
L 1.5 2.5
" fill="white" fill-opacity="0" stroke="blue" stroke-width="0.05" stroke-linecap="round" />
	<!-- 5 5 9 -->
	<path d="M 4.5 4.5
L 4.5 4
A 0.5 0.5 0 0 0 4 3.5
A 0.5 0.5 0 0 1 3.5 3
L 3.5 2.5
" fill="white" fill-opacity="0" stroke="white" stroke-width="0.1" stroke-linecap="round" />
<path d="M 4.5 4.5
L 4.5 4
A 0.5 0.5 0 0 0 4 3.5
A 0.5 0.5 0 0 1 3.5 3
L 3.5 2.5
" fill="white" fill-opacity="0" stroke="blue" stroke-width="0.05" stroke-linecap="round" />
</svg>