<svg xmlns="http://www.w3.org/2000/svg" viewBox="0 0 21 21">
	<path d="M0,0 h21 v21 h-21 z" fill="#dddddd" />
	<rect x="11.25" y="3.25" width="0.5" height="0.5" fill="black" fill-opacity="0.5"  />
	<rect x="13.25" y="3.25" width="0.5" height="0.5" fill="black" fill-opacity="0.5"  />
	<rect x="15.25" y="3.25" width="0.5" height="0.5" fill="black" fill-opacity="0.5"  />
	<rect x="10.25" y="4.25" width="0.5" height="0.5" fill="black" fill-opacity="0.5"  />
	<rect x="12.25" y="4.25" width="0.5" height="0.5" fill="black" fill-opacity="0.5"  />
	<rect x="14.25" y="4.25" width="0.5" height="0.5" fill="black" fill-opacity="0.5"  />
	<rect x="11.25" y="5.25" width="0.5" height="0.5" fill="black" fill-opacity="0.5"  />
	<rect x="13.25" y="5.25" width="0.5" height="0.5" fill="black" fill-opacity="0.5"  />
	<rect x="15.25" y="5.25" width="0.5" height="0.5" fill="black" fill-opacity="0.5"  />
	<rect x="12.25" y="6.25" width="0.5" height="0.5" fill="black" fill-opacity="0.5"  />
	<rect x="14.25" y="6.25" width="0.5" height="0.5" fill="black" fill-opacity="0.5"  />
	<rect x="11.25" y="7.25" width="0.5" height="0.5" fill="black" fill-opacity="0.5"  />
	<rect x="13.25" y="7.25" width="0.5" height="0.5" fill="black" fill-opacity="0.5"  />
	<rect x="15.25" y="7.25" width="0.5" height="0.5" fill="black" fill-opacity="0.5"  />
	<rect x="10.25" y="8.25" width="0.5" height="0.5" fill="black" fill-opacity="0.5"  />
	<rect x="12.25" y="8.25" width="0.5" height="0.5" fill="black" fill-opacity="0.5"  />
	<rect x="14.25" y="8.25" width="0.5" height="0.5" fill="black" fill-opacity="0.5"  />
	<rect x="9.25" y="9.25" width="0.5" height="0.5" fill="black" fill-opacity="0.5"  />
	<rect x="11.25" y="9.25" width="0.5" height="0.5" fill="black" fill-opacity="0.5"  />
	<rect x="13.25" y="9.25" width="0.5" height="0.5" fill="black" fill-opacity="0.5"  />
	<rect x="15.25" y="9.25" width="0.5" height="0.5" fill="black" fill-opacity="0.5"  />
	<rect x="10.25" y="10.25" width="0.5" height="0.5" fill="black" fill-opacity="0.5"  />
	<rect x="12.25" y="10.25" width="0.5" height="0.5" fill="black" fill-opacity="0.5"  />
	<rect x="14.25" y="10.25" width="0.5" height="0.5" fill="black" fill-opacity="0.5"  />
	<rect x="9.25" y="11.25" width="0.5" height="0.5" fill="black" fill-opacity="0.5"  />
	<rect x="11.25" y="11.25" width="0.5" height="0.5" fill="black" fill-opacity="0.5"  />
	<rect x="13.25" y="11.25" width="0.5" height="0.5" fill="black" fill-opacity="0.5"  />
	<rect x="15.25" y="11.25" width="0.5" height="0.5" fill="black" fill-opacity="0.5"  />
	<rect x="8.25" y="12.25" width="0.5" height="0.5" fill="black" fill-opacity="0.5"  />
	<rect x="10.25" y="12.25" width="0.5" height="0.5" fill="black" fill-opacity="0.5"  />
	<rect x="12.25" y="12.25" width="0.5" height="0.5" fill="black" fill-opacity="0.5"  />
	<rect x="14.25" y="12.25" width="0.5" height="0.5" fill="black" fill-opacity="0.5"  />
	<rect x="9.25" y="13.25" width="0.5" height="0.5" fill="black" fill-opacity="0.5"  />
	<rect x="11.25" y="13.25" width="0.5" height="0.5" fill="black" fill-opacity="0.5"  />
	<rect x="13.25" y="13.25" width="0.5" height="0.5" fill="black" fill-opacity="0.5"  />
	<rect x="15.25" y="13.25" width="0.5" height="0.5" fill="black" fill-opacity="0.5"  />
	<rect x="10.25" y="14.25" width="0.5" height="0.5" fill="black" fill-opacity="0.5"  />
	<rect x="12.25" y="14.25" width="0.5" height="0.5" fill="black" fill-opacity="0.5"  />
	<rect x="14.25" y="14.25" width="0.5" height="0.5" fill="black" fill-opacity="0.5"  />
	<rect width="1" height="1" x="0" y="0" fill="#e2bcbc" fill-opacity="1" />
	<rect width="1" height="1" x="0" y="1" fill="#e2bcbc" fill-opacity="1" />
	<rect width="1" height="1" x="0" y="2" fill="#e2bcbc" fill-opacity="1" />
	<rect width="1" height="1" x="0" y="3" fill="#e2bcbc" fill-opacity="1" />
	<rect width="1" height="1" x="0" y="4" fill="#e2bcbc" fill-opacity="1" />
	<rect width="1" height="1" x="0" y="5" fill="#e2bcbc" fill-opacity="1" />
	<rect width="1" height="1" x="1" y="5" fill="#e2bcbc" fill-opacity="1" />
	<rect width="1" height="1" x="2" y="5" fill="#e2bcbc" fill-opacity="1" />
	<rect width="1" height="1" x="3" y="5" fill="#e2bcbc" fill-opacity="1" />
	<rect width="1" height="1" x="4" y="5" fill="#e2bcbc" fill-opacity="1" />
	<rect width="1" height="1" x="5" y="5" fill="#e2bcbc" fill-opacity="1" />
	<rect width="1" height="1" x="5" y="4" fill="#e2bcbc" fill-opacity="1" />
	<rect width="1" height="1" x="6" y="4" fill="#e2bcbc" fill-opacity="1" />
	<rect width="1" height="1" x="6" y="3" fill="#e2bcbc" fill-opacity="1" />
	<rect width="1" height="1" x="6" y="2" fill="#e2bcbc" fill-opacity="1" />
	<rect width="1" height="1" x="7" y="2" fill="#e2bcbc" fill-opacity="1" />
	<rect width="1" height="1" x="8" y="2" fill="#e2bcbc" fill-opacity="1" />
	<rect width="1" height="1" x="9" y="2" fill="#e2bcbc" fill-opacity="1" />
	<rect width="1" height="1" x="10" y="2" fill="#e2bcbc" fill-opacity="1" />
	<rect width="1" height="1" x="11" y="2" fill="#e2bcbc" fill-opacity="1" />
	<rect width="1" height="1" x="12" y="2" fill="#e2bcbc" fill-opacity="1" />
	<rect width="1" height="1" x="13" y="2" fill="#e2bcbc" fill-opacity="1" />
	<rect width="1" height="1" x="14" y="2" fill="#e2bcbc" fill-opacity="1" />
	<rect width="1" height="1" x="15" y="2" fill="#e2bcbc" fill-opacity="1" />
	<rect width="1" height="1" x="16" y="2" fill="#e2bcbc" fill-opacity="1" />
	<rect width="1" height="1" x="16" y="3" fill="#e2bcbc" fill-opacity="1" />
	<rect width="1" height="1" x="16" y="4" fill="#e2bcbc" fill-opacity="1" />
	<rect width="1" height="1" x="16" y="5" fill="#e2bcbc" fill-opacity="1" />
	<rect width="1" height="1" x="16" y="6" fill="#e2bcbc" fill-opacity="1" />
	<rect width="1" height="1" x="16" y="7" fill="#e2bcbc" fill-opacity="1" />
	<rect width="1" height="1" x="16" y="8" fill="#e2bcbc" fill-opacity="1" />
	<rect width="1" height="1" x="16" y="9" fill="#e2bcbc" fill-opacity="1" />
	<rect width="1" height="1" x="16" y="10" fill="#e2bcbc" fill-opacity="1" />
	<rect width="1" height="1" x="16" y="11" fill="#e2bcbc" fill-opacity="1" />
	<rect width="1" height="1" x="16" y="12" fill="#e2bcbc" fill-opacity="1" />
	<rect width="1" height="1" x="16" y="13" fill="#e2bcbc" fill-opacity="1" />
	<rect width="1" height="1" x="16" y="14" fill="#e2bcbc" fill-opacity="1" />
	<rect width="1" height="1" x="16" y="15" fill="#e2bcbc" fill-opacity="1" />
	<rect width="1" height="1" x="15" y="15" fill="#e2bcbc" fill-opacity="1" />
	<rect width="1" height="1" x="14" y="15" fill="#e2bcbc" fill-opacity="1" />
	<rect width="1" height="1" x="13" y="15" fill="#e2bcbc" fill-opacity="1" />
	<rect width="1" height="1" x="12" y="15" fill="#e2bcbc" fill-opacity="1" />
	<rect width="1" height="1" x="11" y="15" fill="#e2bcbc" fill-opacity="1" />
	<rect width="1" height="1" x="10" y="15" fill="#e2bcbc" fill-opacity="1" />
	<rect width="1" height="1" x="9" y="15" fill="#e2bcbc" fill-opacity="1" />
	<rect width="1" height="1" x="8" y="15" fill="#e2bcbc" fill-opacity="1" />
	<rect width="1" height="1" x="8" y="14" fill="#e2bcbc" fill-opacity="1" />
	<rect width="1" height="1" x="7" y="14" fill="#e2bcbc" fill-opacity="1" />
	<rect width="1" height="1" x="7" y="13" fill="#e2bcbc" fill-opacity="1" />
	<rect width="1" height="1" x="6" y="13" fill="#e2bcbc" fill-opacity="1" />
	<rect width="1" height="1" x="5" y="13" fill="#e2bcbc" fill-opacity="1" />
	<rect width="1" height="1" x="5" y="12" fill="#e2bcbc" fill-opacity="1" />
	<rect width="1" height="1" x="4" y="12" fill="#e2bcbc" fill-opacity="1" />
	<rect width="1" height="1" x="4" y="11" fill="#e2bcbc" fill-opacity="1" />
	<rect width="1" height="1" x="4" y="10" fill="#e2bcbc" fill-opacity="1" />
	<rect width="1" height="1" x="4" y="9" fill="#e2bcbc" fill-opacity="1" />
	<rect width="1" height="1" x="4" y="8" fill="#e2bcbc" fill-opacity="1" />
	<rect width="1" height="1" x="5" y="8" fill="#e2bcbc" fill-opacity="1" />
	<rect width="1" height="1" x="5" y="9" fill="#e2bcbc" fill-opacity="1" />
	<rect width="1" height="1" x="5" y="10" fill="#e2bcbc" fill-opacity="1" />
	<rect width="1" height="1" x="5" y="11" fill="#e2bcbc" fill-opacity="1" />
	<rect width="1" height="1" x="6" y="11" fill="#e2bcbc" fill-opacity="1" />
	<rect width="1" height="1" x="6" y="12" fill="#e2bcbc" fill-opacity="1" />
	<rect width="1" height="1" x="7" y="12" fill="#e2bcbc" fill-opacity="1" />
	<rect width="1" height="1" x="7" y="11" fill="#e2bcbc" fill-opacity="1" />
	<rect width="1" height="1" x="8" y="11" fill="#e2bcbc" fill-opacity="1" />
	<rect width="1" height="1" x="8" y="10" fill="#e2bcbc" fill-opacity="1" />
	<rect width="1" height="1" x="8" y="9" fill="#e2bcbc" fill-opacity="1" />
	<rect width="1" height="1" x="8" y="8" fill="#e2bcbc" fill-opacity="1" />
	<rect width="1" height="1" x="9" y="8" fill="#e2bcbc" fill-opacity="1" />
	<rect width="1" height="1" x="9" y="7" fill="#e2bcbc" fill-opacity="1" />
	<rect width="1" height="1" x="10" y="7" fill="#e2bcbc" fill-opacity="1" />
	<rect width="1" height="1" x="10" y="6" fill="#e2bcbc" fill-opacity="1" />
	<rect width="1" height="1" x="9" y="6" fill="#000000" fill-opacity="0.1" />
	<rect width="0.25" height="1" x="10" y="4" fill="#FF4000" fill-opacity="0.25" />
	<path d="M 10 6 v -1 h 0.25 v 0.75 h 0.75 v 0.25 z" fill="#FF4000" fill-opacity="0.25" />
	<rect width="0.25" height="0.25" x="11" y="5.75" fill="#FF4000" fill-opacity="0.25" />
	<rect width="0.25" height="1" x="11" y="6" fill="#FF4000" fill-opacity="0.25" />
	<rect width="0.25" height="1" x="11" y="7" fill="#FF4000" fill-opacity="0.25" />
	<rect width="0.25" height="0.25" x="11" y="8" fill="#FF4000" fill-opacity="0.25" />
	<path d="M 10 8 h 1 v 0.25 h -0.75 v 0.75 h -0.25 z" fill="#FF4000" fill-opacity="0.25" />
	<rect width="0.25" height="0.25" x="10" y="9" fill="#FF4000" fill-opacity="0.25" />
	<path d="M 9 9 h 1 v 0.25 h -0.75 v 0.75 h -0.25 z" fill="#FF4000" fill-opacity="0.25" />
	<rect width="0.25" height="1" x="9" y="10" fill="#FF4000" fill-opacity="0.25" />
	<rect width="0.25" height="1" x="9" y="11" fill="#FF4000" fill-opacity="0.25" />
	<rect width="0.25" height="0.25" x="9" y="12" fill="#FF4000" fill-opacity="0.25" />
	<path d="M 8 12 h 1 v 0.25 h -0.75 v 0.75 h -0.25 z" fill="#FF4000" fill-opacity="0.25" />
	<path d="M 8 14 v -1 h 0.25 v 0.75 h 0.75 v 0.25 z" fill="#FF4000" fill-opacity="0.25" />
	<rect width="0.25" height="0.25" x="9" y="13.75" fill="#FF4000" fill-opacity="0.25" />
	<path d="M 9 15 v -1 h 0.25 v 0.75 h 0.75 v 0.25 z" fill="#FF4000" fill-opacity="0.25" />
	<rect width="1" height="0.25" x="10" y="14.75" fill="#FF4000" fill-opacity="0.25" />
	<rect width="1" height="0.25" x="11" y="14.75" fill="#FF4000" fill-opacity="0.25" />
	<rect width="1" height="0.25" x="12" y="14.75" fill="#FF4000" fill-opacity="0.25" />
	<rect width="1" height="0.25" x="13" y="14.75" fill="#FF4000" fill-opacity="0.25" />
	<rect width="1" height="0.25" x="14" y="14.75" fill="#FF4000" fill-opacity="0.25" />
	<path d="M 16 15 h -1 v -0.25 h 0.75 v -0.75 h 0.25 z" fill="#FF4000" fill-opacity="0.25" />
	<rect width="0.25" height="1" x="15.75" y="13" fill="#FF4000" fill-opacity="0.25" />
	<rect width="0.25" height="1" x="15.75" y="12" fill="#FF4000" fill-opacity="0.25" />
	<rect width="0.25" height="1" x="15.75" y="11" fill="#FF4000" fill-opacity="0.25" />
	<rect width="0.25" height="1" x="15.75" y="10" fill="#FF4000" fill-opacity="0.25" />
	<rect width="0.25" height="1" x="15.75" y="9" fill="#FF4000" fill-opacity="0.25" />
	<rect width="0.25" height="1" x="15.75" y="8" fill="#FF4000" fill-opacity="0.25" />
	<rect width="0.25" height="1" x="15.75" y="7" fill="#FF4000" fill-opacity="0.25" />
	<rect width="0.25" height="1" x="15.75" y="6" fill="#FF4000" fill-opacity="0.25" />
	<rect width="0.25" height="1" x="15.75" y="5" fill="#FF4000" fill-opacity="0.25" />
	<rect width="0.25" height="1" x="15.75" y="4" fill="#FF4000" fill-opacity="0.25" />
	<path d="M 16 3 v 1 h -0.25 v -0.75 h -0.75 v -0.25 z" fill="#FF4000" fill-opacity="0.25" />
	<rect width="1" height="0.25" x="14" y="3" fill="#FF4000" fill-opacity="0.25" />
	<rect width="1" height="0.25" x="13" y="3" fill="#FF4000" fill-opacity="0.25" />
	<rect width="1" height="0.25" x="12" y="3" fill="#FF4000" fill-opacity="0.25" />
	<rect width="1" height="0.25" x="11" y="3" fill="#FF4000" fill-opacity="0.25" />
	<path d="M 10 3 h 1 v 0.25 h -0.75 v 0.75 h -0.25 z" fill="#FF4000" fill-opacity="0.25" />
	<path fill="transparent" stroke="gray" stroke-width="0.02" d="M 0.01 0 v 21" />
	<path fill="transparent" stroke="gray" stroke-width="0.02" d="M 0 0.01 h 21" />
	<path fill="transparent" stroke="gray" stroke-width="0.02" d="M 1 0 v 21" />
	<path fill="transparent" stroke="gray" stroke-width="0.02" d="M 0 1 h 21" />
	<path fill="transparent" stroke="gray" stroke-width="0.02" d="M 2 0 v 21" />
	<path fill="transparent" stroke="gray" stroke-width="0.02" d="M 0 2 h 21" />
	<path fill="transparent" stroke="gray" stroke-width="0.02" d="M 3 0 v 21" />
	<path fill="transparent" stroke="gray" stroke-width="0.02" d="M 0 3 h 21" />
	<path fill="transparent" stroke="gray" stroke-width="0.02" d="M 4 0 v 21" />
	<path fill="transparent" stroke="gray" stroke-width="0.02" d="M 0 4 h 21" />
	<path fill="transparent" stroke="gray" stroke-width="0.02" d="M 5 0 v 21" />
	<path fill="transparent" stroke="gray" stroke-width="0.02" d="M 0 5 h 21" />
	<path fill="transparent" stroke="gray" stroke-width="0.02" d="M 6 0 v 21" />
	<path fill="transparent" stroke="gray" stroke-width="0.02" d="M 0 6 h 21" />
	<path fill="transparent" stroke="gray" stroke-width="0.02" d="M 7 0 v 21" />
	<path fill="transparent" stroke="gray" stroke-width="0.02" d="M 0 7 h 21" />
	<path fill="transparent" stroke="gray" stroke-width="0.02" d="M 8 0 v 21" />
	<path fill="transparent" stroke="gray" stroke-width="0.02" d="M 0 8 h 21" />
	<path fill="transparent" stroke="gray" stroke-width="0.02" d="M 9 0 v 21" />
	<path fill="transparent" stroke="gray" stroke-width="0.02" d="M 0 9 h 21" />
	<path fill="transparent" stroke="gray" stroke-width="0.02" d="M 10 0 v 21" />
	<path fill="transparent" stroke="gray" stroke-width="0.02" d="M 0 10 h 21" />
	<path fill="transparent" stroke="gray" stroke-width="0.02" d="M 11 0 v 21" />
	<path fill="transparent" stroke="gray" stroke-width="0.02" d="M 0 11 h 21" />
	<path fill="transparent" stroke="gray" stroke-width="0.02" d="M 12 0 v 21" />
	<path fill="transparent" stroke="gray" stroke-width="0.02" d="M 0 12 h 21" />
	<path fill="transparent" stroke="gray" stroke-width="0.02" d="M 13 0 v 21" />
	<path fill="transparent" stroke="gray" stroke-width="0.02" d="M 0 13 h 21" />
	<path fill="transparent" stroke="gray" stroke-width="0.02" d="M 14 0 v 21" />
	<path fill="transparent" stroke="gray" stroke-width="0.02" d="M 0 14 h 21" />
	<path fill="transparent" stroke="gray" stroke-width="0.02" d="M 15 0 v 21" />
	<path fill="transparent" stroke="gray" stroke-width="0.02" d="M 0 15 h 21" />
	<path fill="transparent" stroke="gray" stroke-width="0.02" d="M 16 0 v 21" />
	<path fill="transparent" stroke="gray" stroke-width="0.02" d="M 0 16 h 21" />
	<path fill="transparent" stroke="gray" stroke-width="0.02" d="M 17 0 v 21" />
	<path fill="transparent" stroke="gray" stroke-width="0.02" d="M 0 17 h 21" />
	<path fill="transparent" stroke="gray" stroke-width="0.02" d="M 18 0 v 21" />
	<path fill="transparent" stroke="gray" stroke-width="0.02" d="M 0 18 h 21" />
	<path fill="transparent" stroke="gray" stroke-width="0.02" d="M 19 0 v 21" />
	<path fill="transparent" stroke="gray" stroke-width="0.02" d="M 0 19 h 21" />
	<path fill="transparent" stroke="gray" stroke-width="0.02" d="M 20 0 v 21" />
	<path fill="transparent" stroke="gray" stroke-width="0.02" d="M 0 20 h 21" />
	<path fill="transparent" stroke="gray" stroke-width="0.02" d="M 20.99 0 v 21" />
	<path fill="transparent" stroke="gray" stroke-width="0.02" d="M 0 20.99 h 21" />
	<path d="M 0.5 0.5
L 0.5 1
L 0.5 2
L 0.5 3
L 0.5 4
L 0.5 5
A 0.5 0.5 0 0 0 1 5.5
L 2 5.5
L 3 5.5
L 4 5.5
L 5 5.5
A 0.5 0.5 0 0 0 5.5 5
A 0.5 0.5 0 0 1 6 4.5
A 0.5 0.5 0 0 0 6.5 4
L 6.5 3
A 0.5 0.5 0 0 1 7 2.5
L 8 2.5
L 9 2.5
L 10 2.5
L 11 2.5
L 12 2.5
L 13 2.5
L 14 2.5
L 15 2.5
L 16 2.5
A 0.5 0.5 0 0 1 16.5 3
L 16.5 4
L 16.5 5
L 16.5 6
L 16.5 7
L 16.5 8
L 16.5 9
L 16.5 10
L 16.5 11
L 16.5 12
L 16.5 13
L 16.5 14
L 16.5 15
A 0.5 0.5 0 0 1 16 15.5
L 15 15.5
L 14 15.5
L 13 15.5
L 12 15.5
L 11 15.5
L 10 15.5
L 9 15.5
A 0.5 0.5 0 0 1 8.5 15
A 0.5 0.5 0 0 0 8 14.5
A 0.5 0.5 0 0 1 7.5 14
A 0.5 0.5 0 0 0 7 13.5
L 6 13.5
A 0.5 0.5 0 0 1 5.5 13
A 0.5 0.5 0 0 0 5 12.5
A 0.5 0.5 0 0 1 4.5 12
L 4.5 11
L 4.5 10
L 4.5 9
A 0.5 0.5 0 0 1 5 8.5
A 0.5 0.5 0 0 1 5.5 9
L 5.5 10
L 5.5 11
A 0.5 0.5 0 0 0 6 11.5
A 0.5 0.5 0 0 1 6.5 12
A 0.5 0.5 0 0 0 7 12.5
A 0.5 0.5 0 0 0 7.5 12
A 0.5 0.5 0 0 1 8 11.5
A 0.5 0.5 0 0 0 8.5 11
L 8.5 10
L 8.5 9
A 0.5 0.5 0 0 1 9 8.5
A 0.5 0.5 0 0 0 9.5 8
A 0.5 0.5 0 0 1 10 7.5
A 0.5 0.5 0 0 0 10.5 7
L 10.5 6.5" fill="white" fill-opacity="0" stroke="black" stroke-width="0.05" stroke-linecap="round" />
</svg>