<svg xmlns="http://www.w3.org/2000/svg" viewBox="0 0 6 6">
	<style>
		svg { background-color: white; }
	</style>
	<!-- 6 5 1 -->
	<path d="M 5 4 h 1 v 1 h -1 z" fill="#ff0000" fill-opacity="0.15" />
	<path d="M 5.5 5 v -0.5" fill="white" fill-opacity="0" stroke="black" stroke-width="0.05" stroke-linecap="round" />
	<path d="M 5 5 h 1 v 1 h -1 z" fill="#ff0000" fill-opacity="0.15" />
	<path d="M 5.5 5 v 0.5" fill="white" fill-opacity="0" stroke="black" stroke-width="0.05" stroke-linecap="round" />
	<!-- 5 6 4 -->
	<path d="M 4 5 h 1 v 1 h -1 z" fill="#ff0000" fill-opacity="0.15" />
	<path d="M 4.3 5.5 h 0.4 M 4.5 5.3 v 0.4" fill="white" fill-opacity="0" stroke="black" stroke-width="0.05" stroke-linecap="round" />
	<!-- 3 2 6 -->
	<path d="M 2 1 h 1 v 1 h -1 z" fill="#ff0000" fill-opacity="0.15" />
	<path d="M 2.2 1.5 h 0.6 m -0.2 -0.2 l 0.2 0.2 m 0 0 l -0.2 0.2" fill="white" fill-opacity="0" stroke="black" stroke-width="0.05" stroke-linecap="round" />
	<!-- 2 3 6 -->
	<path d="M 1 2 h 1 v 1 h -1 z" fill="#ff0000" fill-opacity="0.15" />
	<path d="M 1.2 2.5 h 0.6 m -0.2 -0.2 l 0.2 0.2 m 0 0 l -0.2 0.2" fill="white" fill-opacity="0" stroke="black" stroke-width="0.05" stroke-linecap="round" />
	<!-- 4 1 4 -->
	<path d="M 3 0 h 1 v 1 h -1 z" fill="#ff0000" fill-opacity="0.15" />
	<path d="M 3.3 0.5 h 0.4 M 3.5 0.3 v 0.4" fill="white" fill-opacity="0" stroke="black" stroke-width="0.05" stroke-linecap="round" />
	<!-- 1 4 4 -->
	<path d="M 0 3 h 1 v 1 h -1 z" fill="#ff0000" fill-opacity="0.15" />
	<path d="M 0.3 3.5 h 0.4 M 0.5 3.3 v 0.4" fill="white" fill-opacity="0" stroke="black" stroke-width="0.05" stroke-linecap="round" />
	<!--1-->
	<!--2-->
	<path fill="transparent" stroke="gray" stroke-width="0.02" d="M 0.01 0 v 6" />
	<path fill="transparent" stroke="gray" stroke-width="0.02" d="M 1 0 v 6" />
	<path fill="transparent" stroke="gray" stroke-width="0.02" d="M 2 0 v 6" />
	<path fill="transparent" stroke="gray" stroke-width="0.02" d="M 3 0 v 6" />
	<path fill="transparent" stroke="gray" stroke-width="0.02" d="M 4 0 v 6" />
	<path fill="transparent" stroke="gray" stroke-width="0.02" d="M 5 0 v 6" />
	<path fill="transparent" stroke="gray" stroke-width="0.02" d="M 5.99 0 v 6" />
	<path fill="transparent" stroke="gray" stroke-width="0.02" d="M 0 0.01 h 6" />
	<path fill="transparent" stroke="gray" stroke-width="0.02" d="M 0 1 h 6" />
	<path fill="transparent" stroke="gray" stroke-width="0.02" d="M 0 2 h 6" />
	<path fill="transparent" stroke="gray" stroke-width="0.02" d="M 0 3 h 6" />
	<path fill="transparent" stroke="gray" stroke-width="0.02" d="M 0 4 h 6" />
	<path fill="transparent" stroke="gray" stroke-width="0.02" d="M 0 5 h 6" />
	<path fill="transparent" stroke="gray" stroke-width="0.02" d="M 0 5.99 h 6" />
	<!--3-->
	<!-- 5 4 10 -->
	<path d="M 4.5 3.5
L 4.5 4
A 0.5 0.5 0 0 1 4 4.5
L 3.5 4.5
l -0.3 0 m 0.2 -0.2 l -0.2 0.2 m 0 0 l 0.2 0.2
" fill="white" fill-opacity="0" stroke="white" stroke-width="0.15" stroke-linecap="round" />
<path d="M 4.5 3.5
L 4.5 4
A 0.5 0.5 0 0 1 4 4.5
L 3.5 4.5
l -0.3 0 m 0.2 -0.2 l -0.2 0.2 m 0 0 l 0.2 0.2
" fill="white" fill-opacity="0" stroke="blue" stroke-width="0.05" stroke-linecap="round" />
	<!-- 5 2 10 -->
	<path d="M 4.5 1.5
L 4 1.5
A 0.5 0.5 0 0 0 3.5 2
A 0.5 0.5 0 0 1 3 2.5
A 0.5 0.5 0 0 0 2.5 3
A 0.5 0.5 0 0 1 2 3.5
A 0.5 0.5 0 0 0 1.5 4
L 1.5 4.5
l 0 0.3 m -0.2 -0.2 l 0.2 0.2 m 0 0 l 0.2 -0.2
" fill="white" fill-opacity="0" stroke="white" stroke-width="0.15" stroke-linecap="round" />
<path d="M 4.5 1.5
L 4 1.5
A 0.5 0.5 0 0 0 3.5 2
A 0.5 0.5 0 0 1 3 2.5
A 0.5 0.5 0 0 0 2.5 3
A 0.5 0.5 0 0 1 2 3.5
A 0.5 0.5 0 0 0 1.5 4
L 1.5 4.5
l 0 0.3 m -0.2 -0.2 l 0.2 0.2 m 0 0 l 0.2 -0.2
" fill="white" fill-opacity="0" stroke="blue" stroke-width="0.05" stroke-linecap="round" />
</svg>