<svg xmlns="http://www.w3.org/2000/svg" viewBox="0 0 8 7">
	<style>
		svg { background-color: white; }
	</style>
	<!-- 1 5 8 -->
	<path d="M 0 4 h 1 v 1 h -1 z" fill="#ff0000" fill-opacity="0.15" />
	<path d="M 0.5 4.2 v 0.6 m -0.2 -0.2 l 0.2 0.2 m 0 0 l 0.2 -0.2" fill="white" fill-opacity="0" stroke="black" stroke-width="0.05" stroke-linecap="round" />
	<!-- 4 1 5 -->
	<path d="M 3 0 h 1 v 1 h -1 z" fill="#ff0000" fill-opacity="0.15" />
	<path d="M 3.8 0.5 h -0.6 m 0.2 -0.2 l -0.2 0.2 m 0 0 l 0.2 0.2" fill="white" fill-opacity="0" stroke="black" stroke-width="0.05" stroke-linecap="round" />
	<!-- 4 4 3 -->
	<path d="M 3 3 h 1 v 1 h -1 z" fill="#000000" fill-opacity="1" />
	<!-- 2 4 3 -->
	<path d="M 1 3 h 1 v 1 h -1 z" fill="#000000" fill-opacity="1" />
	<!-- 1 2 5 -->
	<path d="M 0 1 h 1 v 1 h -1 z" fill="#ff0000" fill-opacity="0.15" />
	<path d="M 0.8 1.5 h -0.6 m 0.2 -0.2 l -0.2 0.2 m 0 0 l 0.2 0.2" fill="white" fill-opacity="0" stroke="black" stroke-width="0.05" stroke-linecap="round" />
	<!-- 6 6 3 -->
	<path d="M 5 5 h 1 v 1 h -1 z" fill="#000000" fill-opacity="1" />
	<!-- 5 5 3 -->
	<path d="M 4 4 h 1 v 1 h -1 z" fill="#000000" fill-opacity="1" />
	<!-- 3 4 2 -->
	<path d="M 2 3 h 1 v 1 h -1 z" fill="#dddddd" fill-opacity="1" />
	<!-- 7 7 1 -->
	<path d="M 6 6 h 1 v 1 h -1 z" fill="#ff0000" fill-opacity="0.15" />
	<path d="M 6.5 7 v -0.5" fill="white" fill-opacity="0" stroke="black" stroke-width="0.05" stroke-linecap="round" />
	<path d="M 6 7 h 1 v 1 h -1 z" fill="#ff0000" fill-opacity="0.15" />
	<path d="M 6.5 7 v 0.5" fill="white" fill-opacity="0" stroke="black" stroke-width="0.05" stroke-linecap="round" />
	<!-- 7 3 8 -->
	<path d="M 6 2 h 1 v 1 h -1 z" fill="#ff0000" fill-opacity="0.15" />
	<path d="M 6.5 2.2 v 0.6 m -0.2 -0.2 l 0.2 0.2 m 0 0 l 0.2 -0.2" fill="white" fill-opacity="0" stroke="black" stroke-width="0.05" stroke-linecap="round" />
	<!--1-->
	<!--2-->
	<path fill="transparent" stroke="gray" stroke-width="0.02" d="M 0.01 0 v 7" />
	<path fill="transparent" stroke="gray" stroke-width="0.02" d="M 1 0 v 7" />
	<path fill="transparent" stroke="gray" stroke-width="0.02" d="M 2 0 v 7" />
	<path fill="transparent" stroke="gray" stroke-width="0.02" d="M 3 0 v 7" />
	<path fill="transparent" stroke="gray" stroke-width="0.02" d="M 4 0 v 7" />
	<path fill="transparent" stroke="gray" stroke-width="0.02" d="M 5 0 v 7" />
	<path fill="transparent" stroke="gray" stroke-width="0.02" d="M 6 0 v 7" />
	<path fill="transparent" stroke="gray" stroke-width="0.02" d="M 7 0 v 7" />
	<path fill="transparent" stroke="gray" stroke-width="0.02" d="M 7.99 0 v 7" />
	<path fill="transparent" stroke="gray" stroke-width="0.02" d="M 0 0.01 h 8" />
	<path fill="transparent" stroke="gray" stroke-width="0.02" d="M 0 1 h 8" />
	<path fill="transparent" stroke="gray" stroke-width="0.02" d="M 0 2 h 8" />
	<path fill="transparent" stroke="gray" stroke-width="0.02" d="M 0 3 h 8" />
	<path fill="transparent" stroke="gray" stroke-width="0.02" d="M 0 4 h 8" />
	<path fill="transparent" stroke="gray" stroke-width="0.02" d="M 0 5 h 8" />
	<path fill="transparent" stroke="gray" stroke-width="0.02" d="M 0 6 h 8" />
	<path fill="transparent" stroke="gray" stroke-width="0.02" d="M 0 6.99 h 8" />
<!--3-->
											<!-- 7 7 10 -->
	<path d="M 6.5 6.5
L 6.5 6
L 6.5 5
A 0.5 0.5 0 0 0 6 4.5
A 0.5 0.5 0 0 1 5.5 4
A 0.5 0.5 0 0 0 5 3.5
A 0.5 0.5 0 0 1 4.5 3
L 4.5 2.5
l 0 -0.3 m -0.2 0.2 l 0.2 -0.2 m 0 0 l 0.2 0.2
" fill="white" fill-opacity="0" stroke="white" stroke-width="0.15" stroke-linecap="round" />
<path d="M 6.5 6.5
L 6.5 6
L 6.5 5
A 0.5 0.5 0 0 0 6 4.5
A 0.5 0.5 0 0 1 5.5 4
A 0.5 0.5 0 0 0 5 3.5
A 0.5 0.5 0 0 1 4.5 3
L 4.5 2.5
l 0 -0.3 m -0.2 0.2 l 0.2 -0.2 m 0 0 l 0.2 0.2
" fill="white" fill-opacity="0" stroke="blue" stroke-width="0.05" stroke-linecap="round" />
</svg>