<svg xmlns="http://www.w3.org/2000/svg" viewBox="0 0 7 5">
	<style>
		svg { background-color: white; }
	</style>
	<!-- 7 5 1 -->
	<path d="M 6 4 h 1 v 1 h -1 z" fill="#ff0000" fill-opacity="0.15" />
	<path d="M 6.5 5 v -0.5" fill="white" fill-opacity="0" stroke="black" stroke-width="0.05" stroke-linecap="round" />
	<path d="M 6 5 h 1 v 1 h -1 z" fill="#ff0000" fill-opacity="0.15" />
	<path d="M 6.5 5 v 0.5" fill="white" fill-opacity="0" stroke="black" stroke-width="0.05" stroke-linecap="round" />
	<!-- 6 4 3 -->
	<path d="M 5 3 h 1 v 1 h -1 z" fill="#000000" fill-opacity="1" />
	<!-- 5 3 3 -->
	<path d="M 4 2 h 1 v 1 h -1 z" fill="#000000" fill-opacity="1" />
	<!-- 4 3 2 -->
	<path d="M 3 2 h 1 v 1 h -1 z" fill="#dddddd" fill-opacity="1" />
	<!-- 3 3 3 -->
	<path d="M 2 2 h 1 v 1 h -1 z" fill="#000000" fill-opacity="1" />
	<!-- 2 3 2 -->
	<path d="M 1 2 h 1 v 1 h -1 z" fill="#dddddd" fill-opacity="1" />
	<!-- 1 4 7 -->
	<path d="M 0 3 h 1 v 1 h -1 z" fill="#ff0000" fill-opacity="0.15" />
	<path d="M 0.5 3.8 v -0.6 m -0.2 0.2 l 0.2 -0.2 m 0 0 l 0.2 0.2" fill="white" fill-opacity="0" stroke="black" stroke-width="0.05" stroke-linecap="round" />
	<!-- 1 1 5 -->
	<path d="M 0 0 h 1 v 1 h -1 z" fill="#ff0000" fill-opacity="0.15" />
	<path d="M 0.8 0.5 h -0.6 m 0.2 -0.2 l -0.2 0.2 m 0 0 l 0.2 0.2" fill="white" fill-opacity="0" stroke="black" stroke-width="0.05" stroke-linecap="round" />
	<!-- 5 1 5 -->
	<path d="M 4 0 h 1 v 1 h -1 z" fill="#ff0000" fill-opacity="0.15" />
	<path d="M 4.8 0.5 h -0.6 m 0.2 -0.2 l -0.2 0.2 m 0 0 l 0.2 0.2" fill="white" fill-opacity="0" stroke="black" stroke-width="0.05" stroke-linecap="round" />
	<!--1-->
	<!--2-->
	<path fill="transparent" stroke="gray" stroke-width="0.02" d="M 0.01 0 v 5" />
	<path fill="transparent" stroke="gray" stroke-width="0.02" d="M 1 0 v 5" />
	<path fill="transparent" stroke="gray" stroke-width="0.02" d="M 2 0 v 5" />
	<path fill="transparent" stroke="gray" stroke-width="0.02" d="M 3 0 v 5" />
	<path fill="transparent" stroke="gray" stroke-width="0.02" d="M 4 0 v 5" />
	<path fill="transparent" stroke="gray" stroke-width="0.02" d="M 5 0 v 5" />
	<path fill="transparent" stroke="gray" stroke-width="0.02" d="M 6 0 v 5" />
	<path fill="transparent" stroke="gray" stroke-width="0.02" d="M 6.99 0 v 5" />
	<path fill="transparent" stroke="gray" stroke-width="0.02" d="M 0 0.01 h 7" />
	<path fill="transparent" stroke="gray" stroke-width="0.02" d="M 0 1 h 7" />
	<path fill="transparent" stroke="gray" stroke-width="0.02" d="M 0 2 h 7" />
	<path fill="transparent" stroke="gray" stroke-width="0.02" d="M 0 3 h 7" />
	<path fill="transparent" stroke="gray" stroke-width="0.02" d="M 0 4 h 7" />
	<path fill="transparent" stroke="gray" stroke-width="0.02" d="M 0 4.99 h 7" />
<!--3-->
	<!-- 5 5 10 -->
	<path d="M 4.5 4.5
L 4.5 4
A 0.5 0.5 0 0 0 4 3.5
A 0.5 0.5 0 0 1 3.5 3
A 0.5 0.5 0 0 0 3 2.5
A 0.5 0.5 0 0 1 2.5 2
L 2.5 1.5
l 0 -0.3 m -0.2 0.2 l 0.2 -0.2 m 0 0 l 0.2 0.2
" fill="white" fill-opacity="0" stroke="white" stroke-width="0.15" stroke-linecap="round" />
<path d="M 4.5 4.5
L 4.5 4
A 0.5 0.5 0 0 0 4 3.5
A 0.5 0.5 0 0 1 3.5 3
A 0.5 0.5 0 0 0 3 2.5
A 0.5 0.5 0 0 1 2.5 2
L 2.5 1.5
l 0 -0.3 m -0.2 0.2 l 0.2 -0.2 m 0 0 l 0.2 0.2
" fill="white" fill-opacity="0" stroke="blue" stroke-width="0.05" stroke-linecap="round" />
</svg>