<svg xmlns="http://www.w3.org/2000/svg" viewBox="0 0 3 5">
	<style>
		svg { background-color: white; }
	</style>
	<!-- 3 1 5 -->
	<path d="M 2 0 h 1 v 1 h -1 z" fill="#ff0000" fill-opacity="0.15" />
	<path d="M 2.8 0.5 h -0.6 l 0.2 -0.2 l -0.2 0.2 l 0.2 0.2" fill="white" fill-opacity="0" stroke="black" stroke-width="0.05" stroke-linecap="round" />
	<!-- 3 4 1 -->
	<path d="M 2 3 h 1 v 1 h -1 z" fill="#ff0000" fill-opacity="0.15" />
	<path d="M 2.5 4 v -0.5" fill="white" fill-opacity="0" stroke="black" stroke-width="0.05" stroke-linecap="round" />
	<path d="M 2 4 h 1 v 1 h -1 z" fill="#ff0000" fill-opacity="0.15" />
	<path d="M 2.5 4 v 0.5" fill="white" fill-opacity="0" stroke="black" stroke-width="0.05" stroke-linecap="round" />
	<!-- 2 5 4 -->
	<path d="M 1 4 h 1 v 1 h -1 z" fill="#ff0000" fill-opacity="0.15" />
	<path d="M 1.3 4.5 h 0.4 M 1.5 4.3 v 0.4" fill="white" fill-opacity="0" stroke="black" stroke-width="0.05" stroke-linecap="round" />
	<!--1-->
	<!--2-->
	<path fill="transparent" stroke="gray" stroke-width="0.02" d="M 0.01 0 v 5" />
	<path fill="transparent" stroke="gray" stroke-width="0.02" d="M 1 0 v 5" />
	<path fill="transparent" stroke="gray" stroke-width="0.02" d="M 2 0 v 5" />
	<path fill="transparent" stroke="gray" stroke-width="0.02" d="M 2.99 0 v 5" />
	<path fill="transparent" stroke="gray" stroke-width="0.02" d="M 0 0.01 h 3" />
	<path fill="transparent" stroke="gray" stroke-width="0.02" d="M 0 1 h 3" />
	<path fill="transparent" stroke="gray" stroke-width="0.02" d="M 0 2 h 3" />
	<path fill="transparent" stroke="gray" stroke-width="0.02" d="M 0 3 h 3" />
	<path fill="transparent" stroke="gray" stroke-width="0.02" d="M 0 4 h 3" />
	<path fill="transparent" stroke="gray" stroke-width="0.02" d="M 0 4.99 h 3" />
<!--3-->
	<!-- 3 4 9 -->
	<!--4--><path d="M 2.5 3.5
L 2.5 3
A 0.5 0.5 0 0 0 2 2.5
A 0.5 0.5 0 0 0 1.5 3
A 0.5 0.5 0 0 1 1 3.5
L 0.5 3.5
" fill="white" fill-opacity="0" stroke="white" stroke-width="0.1" stroke-linecap="round" />
<path d="M 2.5 3.5
L 2.5 3
A 0.5 0.5 0 0 0 2 2.5
A 0.5 0.5 0 0 0 1.5 3
A 0.5 0.5 0 0 1 1 3.5
L 0.5 3.5
" fill="white" fill-opacity="0" stroke="blue" stroke-width="0.05" stroke-linecap="round" /><!--5-->
</svg>