<svg xmlns="http://www.w3.org/2000/svg" viewBox="0 0 8 8">
	<style>
		svg { background-color: white; }
	</style>
	<!-- 4 8 1 -->
	<path d="M 3 7 h 1 v 1 h -1 z" fill="#ff0000" fill-opacity="0.15" />
	<path d="M 3.5 8 v -0.5" fill="white" fill-opacity="0" stroke="black" stroke-width="0.05" stroke-linecap="round" />
	<path d="M 3 8 h 1 v 1 h -1 z" fill="#ff0000" fill-opacity="0.15" />
	<path d="M 3.5 8 v 0.5" fill="white" fill-opacity="0" stroke="black" stroke-width="0.05" stroke-linecap="round" />
	<!-- 5 7 3 -->
	<path d="M 4 6 h 1 v 1 h -1 z" fill="#000000" fill-opacity="1" />
	<!-- 5 6 2 -->
	<path d="M 4 5 h 1 v 1 h -1 z" fill="#dddddd" fill-opacity="1" />
	<!-- 5 5 3 -->
	<path d="M 4 4 h 1 v 1 h -1 z" fill="#000000" fill-opacity="1" />
	<!-- 4 4 3 -->
	<path d="M 3 3 h 1 v 1 h -1 z" fill="#000000" fill-opacity="1" />
	<!-- 3 3 3 -->
	<path d="M 2 2 h 1 v 1 h -1 z" fill="#000000" fill-opacity="1" />
	<!-- 2 2 3 -->
	<path d="M 1 1 h 1 v 1 h -1 z" fill="#000000" fill-opacity="1" />
	<!-- 1 2 4 -->
	<path d="M 0 1 h 1 v 1 h -1 z" fill="#ff0000" fill-opacity="0.15" />
	<path d="M 0.3 1.5 h 0.4 M 0.5 1.3 v 0.4" fill="white" fill-opacity="0" stroke="black" stroke-width="0.05" stroke-linecap="round" />
	<!-- 7 6 8 -->
	<path d="M 6 5 h 1 v 1 h -1 z" fill="#ff0000" fill-opacity="0.15" />
	<path d="M 6.5 5.2 v 0.6 l -0.2 -0.2 l 0.2 0.2 l 0.2 -0.2" fill="white" fill-opacity="0" stroke="black" stroke-width="0.05" stroke-linecap="round" />
	<!-- 6 1 4 -->
	<path d="M 5 0 h 1 v 1 h -1 z" fill="#ff0000" fill-opacity="0.15" />
	<path d="M 5.3 0.5 h 0.4 M 5.5 0.3 v 0.4" fill="white" fill-opacity="0" stroke="black" stroke-width="0.05" stroke-linecap="round" />
	<!-- 8 3 4 -->
	<path d="M 7 2 h 1 v 1 h -1 z" fill="#ff0000" fill-opacity="0.15" />
	<path d="M 7.3 2.5 h 0.4 M 7.5 2.3 v 0.4" fill="white" fill-opacity="0" stroke="black" stroke-width="0.05" stroke-linecap="round" />
	<!-- 8 4 4 -->
	<path d="M 7 3 h 1 v 1 h -1 z" fill="#ff0000" fill-opacity="0.15" />
	<path d="M 7.3 3.5 h 0.4 M 7.5 3.3 v 0.4" fill="white" fill-opacity="0" stroke="black" stroke-width="0.05" stroke-linecap="round" />
	<!-- 8 5 4 -->
	<path d="M 7 4 h 1 v 1 h -1 z" fill="#ff0000" fill-opacity="0.15" />
	<path d="M 7.3 4.5 h 0.4 M 7.5 4.3 v 0.4" fill="white" fill-opacity="0" stroke="black" stroke-width="0.05" stroke-linecap="round" />
	<!-- 7 2 4 -->
	<path d="M 6 1 h 1 v 1 h -1 z" fill="#ff0000" fill-opacity="0.15" />
	<path d="M 6.3 1.5 h 0.4 M 6.5 1.3 v 0.4" fill="white" fill-opacity="0" stroke="black" stroke-width="0.05" stroke-linecap="round" />
	<!-- 2 1 6 -->
	<path d="M 1 0 h 1 v 1 h -1 z" fill="#ff0000" fill-opacity="0.15" />
	<path d="M 1.2 0.5 h 0.6 l -0.2 -0.2 l 0.2 0.2 l -0.2 0.2" fill="white" fill-opacity="0" stroke="black" stroke-width="0.05" stroke-linecap="round" />
	<!--1-->
	<!--2-->
	<path fill="transparent" stroke="gray" stroke-width="0.02" d="M 0.01 0 v 8" />
	<path fill="transparent" stroke="gray" stroke-width="0.02" d="M 1 0 v 8" />
	<path fill="transparent" stroke="gray" stroke-width="0.02" d="M 2 0 v 8" />
	<path fill="transparent" stroke="gray" stroke-width="0.02" d="M 3 0 v 8" />
	<path fill="transparent" stroke="gray" stroke-width="0.02" d="M 4 0 v 8" />
	<path fill="transparent" stroke="gray" stroke-width="0.02" d="M 5 0 v 8" />
	<path fill="transparent" stroke="gray" stroke-width="0.02" d="M 6 0 v 8" />
	<path fill="transparent" stroke="gray" stroke-width="0.02" d="M 7 0 v 8" />
	<path fill="transparent" stroke="gray" stroke-width="0.02" d="M 7.99 0 v 8" />
	<path fill="transparent" stroke="gray" stroke-width="0.02" d="M 0 0.01 h 8" />
	<path fill="transparent" stroke="gray" stroke-width="0.02" d="M 0 1 h 8" />
	<path fill="transparent" stroke="gray" stroke-width="0.02" d="M 0 2 h 8" />
	<path fill="transparent" stroke="gray" stroke-width="0.02" d="M 0 3 h 8" />
	<path fill="transparent" stroke="gray" stroke-width="0.02" d="M 0 4 h 8" />
	<path fill="transparent" stroke="gray" stroke-width="0.02" d="M 0 5 h 8" />
	<path fill="transparent" stroke="gray" stroke-width="0.02" d="M 0 6 h 8" />
	<path fill="transparent" stroke="gray" stroke-width="0.02" d="M 0 7 h 8" />
	<path fill="transparent" stroke="gray" stroke-width="0.02" d="M 0 7.99 h 8" />
<!--3-->
	<!-- 5 4 9 -->
	<path d="M 4.5 3.5
L 5 3.5
A 0.5 0.5 0 0 1 5.5 4
A 0.5 0.5 0 0 0 6 4.5
A 0.5 0.5 0 0 0 6.5 4
L 6.5 3
A 0.5 0.5 0 0 0 6 2.5
A 0.5 0.5 0 0 1 5.5 2
A 0.5 0.5 0 0 0 5 1.5
L 4.5 1.5
" fill="white" fill-opacity="0" stroke="white" stroke-width="0.1" stroke-linecap="round" />
<path d="M 4.5 3.5
L 5 3.5
A 0.5 0.5 0 0 1 5.5 4
A 0.5 0.5 0 0 0 6 4.5
A 0.5 0.5 0 0 0 6.5 4
L 6.5 3
A 0.5 0.5 0 0 0 6 2.5
A 0.5 0.5 0 0 1 5.5 2
A 0.5 0.5 0 0 0 5 1.5
L 4.5 1.5
" fill="white" fill-opacity="0" stroke="blue" stroke-width="0.05" stroke-linecap="round" />
	<!-- 4 7 9 -->
	<path d="M 3.5 6.5
L 4 6.5
A 0.5 0.5 0 0 0 4.5 6
L 4.5 5
A 0.5 0.5 0 0 0 4 4.5
A 0.5 0.5 0 0 1 3.5 4
A 0.5 0.5 0 0 0 3 3.5
A 0.5 0.5 0 0 1 2.5 3
A 0.5 0.5 0 0 0 2 2.5
A 0.5 0.5 0 0 1 1.5 2
A 0.5 0.5 0 0 1 2 1.5
L 2.5 1.5
" fill="white" fill-opacity="0" stroke="white" stroke-width="0.1" stroke-linecap="round" />
<path d="M 3.5 6.5
L 4 6.5
A 0.5 0.5 0 0 0 4.5 6
L 4.5 5
A 0.5 0.5 0 0 0 4 4.5
A 0.5 0.5 0 0 1 3.5 4
A 0.5 0.5 0 0 0 3 3.5
A 0.5 0.5 0 0 1 2.5 3
A 0.5 0.5 0 0 0 2 2.5
A 0.5 0.5 0 0 1 1.5 2
A 0.5 0.5 0 0 1 2 1.5
L 2.5 1.5
" fill="white" fill-opacity="0" stroke="blue" stroke-width="0.05" stroke-linecap="round" />
	</svg>