M48
; DRILL file {KiCad 9.0.5} date 2026-02-18T20:18:15+0100
; FORMAT={-:-/ absolute / metric / decimal}
; #@! TF.CreationDate,2026-02-18T20:18:15+01:00
; #@! TF.GenerationSoftware,Kicad,Pcbnew,9.0.5
; #@! TF.FileFunction,Plated,1,2,PTH
FMAT,2
METRIC
; #@! TA.AperFunction,Plated,PTH,ViaDrill
T1C0.300
; #@! TA.AperFunction,Plated,PTH,ViaDrill
T2C0.500
; #@! TA.AperFunction,Plated,PTH,ComponentDrill
T3C0.800
; #@! TA.AperFunction,Plated,PTH,ComponentDrill
T4C0.900
; #@! TA.AperFunction,Plated,PTH,ComponentDrill
T5C1.000
; #@! TA.AperFunction,Plated,PTH,ComponentDrill
T6C1.400
; #@! TA.AperFunction,Plated,PTH,ComponentDrill
T7C2.300
; #@! TA.AperFunction,Plated,PTH,ComponentDrill
T8C2.600
%
G90
G05
T1
X24.9Y-23.2
X24.9Y-24.0
X24.9Y-24.8
X25.7Y-23.2
X25.7Y-24.0
X25.7Y-24.8
X26.5Y-23.2
X26.5Y-24.0
X26.5Y-24.8
T2
X24.389Y-30.031
X25.158Y-31.201
X25.2Y-32.6
X25.556Y-34.956
X26.7Y-33.805
X28.7Y-41.7
X33.27Y-31.971
X41.787Y-38.887
X41.803Y-30.024
T3
X19.3Y-19.2
X21.0Y-52.7
X22.0Y-48.3
X24.54Y-48.3
X26.8Y-41.9
X27.08Y-48.3
X28.62Y-52.7
X29.46Y-19.2
X30.7Y-48.9
X30.72Y-52.4
X32.9Y-19.2
X36.96Y-41.9
X40.86Y-48.9
X40.88Y-52.4
X43.06Y-19.2
X47.8Y-27.52
X47.8Y-37.68
T4
X14.8Y-42.7
X14.8Y-45.24
X14.8Y-47.78
X21.2Y-41.2
X23.74Y-41.2
T5
X34.9Y-22.5
X34.9Y-25.04
X34.9Y-27.58
X34.9Y-30.12
X34.9Y-32.66
X34.9Y-35.2
X37.44Y-22.5
X37.44Y-25.04
X37.44Y-27.58
X37.44Y-30.12
X37.44Y-32.66
X37.44Y-35.2
T6
X21.0Y-17.0
X41.0Y-17.0
T7
X15.1Y-33.3
X15.1Y-38.3
T8
X15.1Y-22.1
X15.1Y-27.1
M30
