%TF.GenerationSoftware,KiCad,Pcbnew,9.0.5*%
%TF.CreationDate,2026-02-18T20:18:17+01:00*%
%TF.ProjectId,capacity tester,63617061-6369-4747-9920-746573746572,rev?*%
%TF.SameCoordinates,Original*%
%TF.FileFunction,Copper,L2,Bot*%
%TF.FilePolarity,Positive*%
%FSLAX46Y46*%
G04 Gerber Fmt 4.6, Leading zero omitted, Abs format (unit mm)*
G04 Created by KiCad (PCBNEW 9.0.5) date 2026-02-18 20:18:17*
%MOMM*%
%LPD*%
G01*
G04 APERTURE LIST*
G04 Aperture macros list*
%AMRoundRect*
0 Rectangle with rounded corners*
0 $1 Rounding radius*
0 $2 $3 $4 $5 $6 $7 $8 $9 X,Y pos of 4 corners*
0 Add a 4 corners polygon primitive as box body*
4,1,4,$2,$3,$4,$5,$6,$7,$8,$9,$2,$3,0*
0 Add four circle primitives for the rounded corners*
1,1,$1+$1,$2,$3*
1,1,$1+$1,$4,$5*
1,1,$1+$1,$6,$7*
1,1,$1+$1,$8,$9*
0 Add four rect primitives between the rounded corners*
20,1,$1+$1,$2,$3,$4,$5,0*
20,1,$1+$1,$4,$5,$6,$7,0*
20,1,$1+$1,$6,$7,$8,$9,0*
20,1,$1+$1,$8,$9,$2,$3,0*%
G04 Aperture macros list end*
%TA.AperFunction,ComponentPad*%
%ADD10C,1.600000*%
%TD*%
%TA.AperFunction,ComponentPad*%
%ADD11RoundRect,0.760000X1.140000X-1.140000X1.140000X1.140000X-1.140000X1.140000X-1.140000X-1.140000X0*%
%TD*%
%TA.AperFunction,ComponentPad*%
%ADD12C,3.800000*%
%TD*%
%TA.AperFunction,ComponentPad*%
%ADD13C,4.000000*%
%TD*%
%TA.AperFunction,ComponentPad*%
%ADD14RoundRect,0.250000X0.470000X-0.470000X0.470000X0.470000X-0.470000X0.470000X-0.470000X-0.470000X0*%
%TD*%
%TA.AperFunction,ComponentPad*%
%ADD15C,1.440000*%
%TD*%
%TA.AperFunction,ComponentPad*%
%ADD16C,3.000000*%
%TD*%
%TA.AperFunction,ComponentPad*%
%ADD17R,1.800000X1.800000*%
%TD*%
%TA.AperFunction,ComponentPad*%
%ADD18C,1.800000*%
%TD*%
%TA.AperFunction,ComponentPad*%
%ADD19RoundRect,0.250000X0.550000X0.550000X-0.550000X0.550000X-0.550000X-0.550000X0.550000X-0.550000X0*%
%TD*%
%TA.AperFunction,ComponentPad*%
%ADD20R,1.700000X1.700000*%
%TD*%
%TA.AperFunction,ComponentPad*%
%ADD21C,1.700000*%
%TD*%
%TA.AperFunction,ViaPad*%
%ADD22C,0.600000*%
%TD*%
%TA.AperFunction,ViaPad*%
%ADD23C,1.000000*%
%TD*%
%TA.AperFunction,Conductor*%
%ADD24C,2.000000*%
%TD*%
%TA.AperFunction,Conductor*%
%ADD25C,0.500000*%
%TD*%
G04 APERTURE END LIST*
D10*
%TO.P,R6,1*%
%TO.N,Net-(U1B-+)*%
X30700000Y-48900000D03*
%TO.P,R6,2*%
%TO.N,Net-(J3-Pin_1)*%
X40860000Y-48900000D03*
%TD*%
%TO.P,R7,1*%
%TO.N,Net-(D2-K)*%
X30720000Y-52400000D03*
%TO.P,R7,2*%
%TO.N,Net-(J3-Pin_1)*%
X40880000Y-52400000D03*
%TD*%
D11*
%TO.P,J1,1,Pin_1*%
%TO.N,Net-(D1-K)*%
X15100000Y-27100000D03*
D12*
%TO.P,J1,2,Pin_2*%
%TO.N,Net-(J1-Pin_2)*%
X15100000Y-22100000D03*
%TD*%
D11*
%TO.P,J2,1,Pin_1*%
%TO.N,Net-(J2-Pin_1)*%
X15100000Y-38300000D03*
D13*
%TO.P,J2,2,Pin_2*%
%TO.N,Net-(J1-Pin_2)*%
X15100000Y-33300000D03*
%TD*%
D14*
%TO.P,RV1,1,1*%
%TO.N,Net-(D1-K)*%
X22000000Y-48300000D03*
D15*
%TO.P,RV1,2,2*%
%TO.N,Net-(U1B-+)*%
X24540000Y-48300000D03*
%TO.P,RV1,3,3*%
X27080000Y-48300000D03*
%TD*%
D16*
%TO.P,R1,1*%
%TO.N,Net-(D1-K)*%
X21000000Y-17000000D03*
%TO.P,R1,2*%
%TO.N,Net-(J3-Pin_2)*%
X41000000Y-17000000D03*
%TD*%
D17*
%TO.P,D1,1,K*%
%TO.N,Net-(D1-K)*%
X21200000Y-41200000D03*
D18*
%TO.P,D1,2,A*%
%TO.N,Net-(D1-A)*%
X23740000Y-41200000D03*
%TD*%
D10*
%TO.P,R2,1*%
%TO.N,Net-(D1-K)*%
X19300000Y-19200000D03*
%TO.P,R2,2*%
%TO.N,Net-(J4-Pin_11)*%
X29460000Y-19200000D03*
%TD*%
%TO.P,R3,1*%
%TO.N,Net-(J4-Pin_11)*%
X32900000Y-19200000D03*
%TO.P,R3,2*%
%TO.N,Net-(J4-Pin_3)*%
X43060000Y-19200000D03*
%TD*%
%TO.P,R5,1*%
%TO.N,Net-(D1-A)*%
X26800000Y-41900000D03*
%TO.P,R5,2*%
%TO.N,Net-(J3-Pin_1)*%
X36960000Y-41900000D03*
%TD*%
D19*
%TO.P,D2,1,K*%
%TO.N,Net-(D2-K)*%
X28620000Y-52700000D03*
D10*
%TO.P,D2,2,A*%
%TO.N,Net-(D1-K)*%
X21000000Y-52700000D03*
%TD*%
D20*
%TO.P,J3,1,Pin_1*%
%TO.N,Net-(J3-Pin_1)*%
X14800000Y-42700000D03*
D21*
%TO.P,J3,2,Pin_2*%
%TO.N,Net-(J3-Pin_2)*%
X14800000Y-45240000D03*
%TO.P,J3,3,Pin_3*%
%TO.N,Net-(D1-K)*%
X14800000Y-47780000D03*
%TD*%
D20*
%TO.P,J4,1,Pin_1*%
%TO.N,Net-(J4-Pin_1)*%
X34900000Y-22500000D03*
D21*
%TO.P,J4,2,Pin_2*%
%TO.N,Net-(J1-Pin_2)*%
X37440000Y-22500000D03*
%TO.P,J4,3,Pin_3*%
%TO.N,Net-(J4-Pin_3)*%
X34900000Y-25040000D03*
%TO.P,J4,4,Pin_4*%
%TO.N,Net-(J1-Pin_2)*%
X37440000Y-25040000D03*
%TO.P,J4,5,Pin_5*%
%TO.N,Net-(J4-Pin_11)*%
X34900000Y-27580000D03*
%TO.P,J4,6,Pin_6*%
%TO.N,Net-(J1-Pin_2)*%
X37440000Y-27580000D03*
%TO.P,J4,7,Pin_7*%
%TO.N,Net-(J2-Pin_1)*%
X34900000Y-30120000D03*
%TO.P,J4,8,Pin_8*%
%TO.N,Net-(J3-Pin_2)*%
X37440000Y-30120000D03*
%TO.P,J4,9,Pin_9*%
%TO.N,Net-(J4-Pin_9)*%
X34900000Y-32660000D03*
%TO.P,J4,10,Pin_10*%
%TO.N,Net-(J3-Pin_1)*%
X37440000Y-32660000D03*
%TO.P,J4,11,Pin_11*%
%TO.N,Net-(J4-Pin_11)*%
X34900000Y-35200000D03*
%TO.P,J4,12,Pin_12*%
%TO.N,Net-(J3-Pin_1)*%
X37440000Y-35200000D03*
%TD*%
D10*
%TO.P,R4,1*%
%TO.N,Net-(J4-Pin_3)*%
X47800000Y-27520000D03*
%TO.P,R4,2*%
%TO.N,Net-(J4-Pin_1)*%
X47800000Y-37680000D03*
%TD*%
D22*
%TO.N,Net-(D1-K)*%
X25700000Y-24000000D03*
X26500000Y-24000000D03*
X24900000Y-23200000D03*
X26500000Y-24800000D03*
X25700000Y-23200000D03*
X24900000Y-24800000D03*
X26500000Y-23200000D03*
X24900000Y-24000000D03*
X25700000Y-24800000D03*
D23*
%TO.N,Net-(D2-K)*%
X25158197Y-31200622D03*
%TO.N,Net-(Q1-G)*%
X41786827Y-38886827D03*
X28700000Y-41700000D03*
X24388820Y-30030978D03*
X41802673Y-30023673D03*
%TO.N,Net-(U1B-+)*%
X25200000Y-32600000D03*
%TO.N,Net-(J4-Pin_11)*%
X25556497Y-34956497D03*
X33270225Y-31971237D03*
%TO.N,Net-(J4-Pin_9)*%
X26700000Y-33805000D03*
%TD*%
D24*
%TO.N,Net-(D1-K)*%
X19300000Y-22900000D02*
X19300000Y-19200000D01*
D25*
X21200000Y-41200000D02*
X21200000Y-41380000D01*
X21200000Y-41200000D02*
X21200000Y-33200000D01*
D24*
X19300000Y-19200000D02*
X19300000Y-18700000D01*
X15100000Y-27100000D02*
X19300000Y-22900000D01*
D25*
X21200000Y-33200000D02*
X15100000Y-27100000D01*
X21200000Y-41380000D02*
X14800000Y-47780000D01*
D24*
X19300000Y-18700000D02*
X21000000Y-17000000D01*
D25*
%TO.N,Net-(D2-K)*%
X29851000Y-44654544D02*
X29851000Y-41223240D01*
X30720000Y-52400000D02*
X28676760Y-50356760D01*
X24971618Y-31200622D02*
X25158197Y-31200622D01*
X27000000Y-39548000D02*
X23504497Y-36052497D01*
X29851000Y-41223240D02*
X28175760Y-39548000D01*
X23504497Y-36052497D02*
X23504497Y-32667743D01*
X28676760Y-45828784D02*
X29851000Y-44654544D01*
X28175760Y-39548000D02*
X27000000Y-39548000D01*
X28676760Y-50356760D02*
X28676760Y-45828784D01*
X23504497Y-32667743D02*
X24971618Y-31200622D01*
%TO.N,Net-(J4-Pin_1)*%
X36401000Y-20999000D02*
X34900000Y-22500000D01*
X46349000Y-36229000D02*
X46349000Y-26474000D01*
X46349000Y-26474000D02*
X40874000Y-20999000D01*
X47800000Y-37680000D02*
X46349000Y-36229000D01*
X40874000Y-20999000D02*
X36401000Y-20999000D01*
%TO.N,Net-(J4-Pin_3)*%
X47800000Y-23940000D02*
X43060000Y-19200000D01*
X33399000Y-24741081D02*
X33399000Y-20999000D01*
X47800000Y-27520000D02*
X47800000Y-23940000D01*
X33697919Y-25040000D02*
X33399000Y-24741081D01*
X33735103Y-20662897D02*
X35462897Y-20662897D01*
X33399000Y-20999000D02*
X33735103Y-20662897D01*
X35462897Y-20662897D02*
X36925794Y-19200000D01*
X36925794Y-19200000D02*
X43060000Y-19200000D01*
X34900000Y-25040000D02*
X33697919Y-25040000D01*
%TO.N,Net-(J1-Pin_2)*%
X15100000Y-33300000D02*
X12549000Y-30749000D01*
X12549000Y-24651000D02*
X15100000Y-22100000D01*
X12549000Y-30749000D02*
X12549000Y-24651000D01*
%TO.N,Net-(J3-Pin_1)*%
X40860000Y-45840000D02*
X40880000Y-45820000D01*
X37440000Y-41420000D02*
X36960000Y-41900000D01*
X40860000Y-48900000D02*
X40860000Y-45840000D01*
X37440000Y-35200000D02*
X37440000Y-41420000D01*
X40880000Y-45820000D02*
X36960000Y-41900000D01*
X36960000Y-41860000D02*
X36960000Y-41900000D01*
X37440000Y-35200000D02*
X37440000Y-32660000D01*
X37260000Y-35380000D02*
X37440000Y-35200000D01*
%TO.N,Net-(Q1-G)*%
X26600000Y-40427760D02*
X22603498Y-36431258D01*
X22603498Y-31816300D02*
X24388820Y-30030978D01*
X22603498Y-31816300D02*
X22603498Y-36431258D01*
X26600000Y-40449000D02*
X26600000Y-40427760D01*
X41786827Y-38886827D02*
X41802673Y-38870981D01*
X28700000Y-41700000D02*
X27449000Y-40449000D01*
X41802673Y-38870981D02*
X41802673Y-30023673D01*
X27449000Y-40449000D02*
X26600000Y-40449000D01*
%TO.N,Net-(J3-Pin_2)*%
X14991000Y-45049000D02*
X14800000Y-45240000D01*
%TO.N,Net-(U1B-+)*%
X24405497Y-35679291D02*
X27326206Y-38600000D01*
X30700000Y-48900000D02*
X30752000Y-48848000D01*
X28501966Y-38600000D02*
X30752000Y-40850034D01*
X30752000Y-48848000D02*
X30752000Y-40850034D01*
X25200000Y-32600000D02*
X24405497Y-33394503D01*
X30752000Y-49048000D02*
X30700000Y-49100000D01*
X27326206Y-38600000D02*
X28501966Y-38600000D01*
X24405497Y-35679291D02*
X24405497Y-33394503D01*
X30752000Y-49368000D02*
X30720000Y-49400000D01*
%TO.N,Net-(J4-Pin_11)*%
X34900000Y-27580000D02*
X34900000Y-27516287D01*
X34900000Y-27580000D02*
X29460000Y-22140000D01*
X33271225Y-31970237D02*
X33271225Y-29626040D01*
X33856497Y-34956497D02*
X34656497Y-34956497D01*
X32843503Y-34956497D02*
X33856497Y-34956497D01*
X29460000Y-22140000D02*
X29460000Y-19200000D01*
X25556497Y-34956497D02*
X32843503Y-34956497D01*
X33271225Y-29626040D02*
X34900000Y-27997265D01*
X34656497Y-34956497D02*
X34900000Y-35200000D01*
X34900000Y-27997265D02*
X34900000Y-27580000D01*
%TO.N,Net-(J4-Pin_9)*%
X34900000Y-32660000D02*
X33755000Y-33805000D01*
X33755000Y-33805000D02*
X26700000Y-33805000D01*
%TD*%
%TA.AperFunction,Conductor*%
%TO.N,Net-(D1-K)*%
G36*
X45433474Y-12270185D02*
G01*
X45479229Y-12322989D01*
X45489173Y-12392147D01*
X45460148Y-12455703D01*
X45407390Y-12491541D01*
X45273288Y-12538465D01*
X44949420Y-12694432D01*
X44645045Y-12885684D01*
X44363997Y-13109811D01*
X44109811Y-13363997D01*
X43885684Y-13645045D01*
X43694432Y-13949420D01*
X43538465Y-14273288D01*
X43419741Y-14612580D01*
X43419737Y-14612592D01*
X43339748Y-14963048D01*
X43339746Y-14963064D01*
X43299500Y-15320259D01*
X43299500Y-15679740D01*
X43339746Y-16036935D01*
X43339748Y-16036951D01*
X43419737Y-16387407D01*
X43419741Y-16387419D01*
X43538465Y-16726711D01*
X43694432Y-17050579D01*
X43694434Y-17050582D01*
X43885685Y-17354956D01*
X44109812Y-17636003D01*
X44363997Y-17890188D01*
X44645044Y-18114315D01*
X44949418Y-18305566D01*
X45273292Y-18461536D01*
X45523776Y-18549184D01*
X45612580Y-18580258D01*
X45612592Y-18580262D01*
X45963052Y-18660252D01*
X46320260Y-18700499D01*
X46320261Y-18700500D01*
X46320264Y-18700500D01*
X46679739Y-18700500D01*
X46679739Y-18700499D01*
X47036948Y-18660252D01*
X47387408Y-18580262D01*
X47726708Y-18461536D01*
X48050582Y-18305566D01*
X48354956Y-18114315D01*
X48636003Y-17890188D01*
X48890188Y-17636003D01*
X49114315Y-17354956D01*
X49305566Y-17050582D01*
X49461536Y-16726708D01*
X49508459Y-16592610D01*
X49549180Y-16535834D01*
X49614133Y-16510087D01*
X49682695Y-16523543D01*
X49733097Y-16571931D01*
X49749500Y-16633565D01*
X49749500Y-51366434D01*
X49729815Y-51433473D01*
X49677011Y-51479228D01*
X49607853Y-51489172D01*
X49544297Y-51460147D01*
X49508459Y-51407389D01*
X49466491Y-51287453D01*
X49461536Y-51273292D01*
X49305566Y-50949418D01*
X49114315Y-50645044D01*
X48890188Y-50363997D01*
X48636003Y-50109812D01*
X48354956Y-49885685D01*
X48050582Y-49694434D01*
X48050579Y-49694432D01*
X47726711Y-49538465D01*
X47387419Y-49419741D01*
X47387407Y-49419737D01*
X47036951Y-49339748D01*
X47036935Y-49339746D01*
X46679740Y-49299500D01*
X46679736Y-49299500D01*
X46320264Y-49299500D01*
X46320259Y-49299500D01*
X45963064Y-49339746D01*
X45963048Y-49339748D01*
X45612592Y-49419737D01*
X45612580Y-49419741D01*
X45273288Y-49538465D01*
X44949420Y-49694432D01*
X44645045Y-49885684D01*
X44363997Y-50109811D01*
X44109811Y-50363997D01*
X43885684Y-50645045D01*
X43694432Y-50949420D01*
X43538465Y-51273288D01*
X43419741Y-51612580D01*
X43419737Y-51612592D01*
X43339748Y-51963048D01*
X43339746Y-51963064D01*
X43299500Y-52320259D01*
X43299500Y-52679740D01*
X43339746Y-53036935D01*
X43339748Y-53036951D01*
X43419737Y-53387407D01*
X43419741Y-53387419D01*
X43538465Y-53726711D01*
X43694432Y-54050579D01*
X43694434Y-54050582D01*
X43885685Y-54354956D01*
X44109812Y-54636003D01*
X44363997Y-54890188D01*
X44645044Y-55114315D01*
X44949418Y-55305566D01*
X45273292Y-55461536D01*
X45378980Y-55498517D01*
X45407390Y-55508459D01*
X45464166Y-55549180D01*
X45489913Y-55614133D01*
X45476457Y-55682695D01*
X45428069Y-55733097D01*
X45366435Y-55749500D01*
X16633565Y-55749500D01*
X16566526Y-55729815D01*
X16520771Y-55677011D01*
X16510827Y-55607853D01*
X16539852Y-55544297D01*
X16592610Y-55508459D01*
X16612076Y-55501647D01*
X16726708Y-55461536D01*
X17050582Y-55305566D01*
X17354956Y-55114315D01*
X17636003Y-54890188D01*
X17890188Y-54636003D01*
X18114315Y-54354956D01*
X18305566Y-54050582D01*
X18461536Y-53726708D01*
X18580262Y-53387408D01*
X18660252Y-53036948D01*
X18700500Y-52679736D01*
X18700500Y-52320264D01*
X18660252Y-51963052D01*
X18580262Y-51612592D01*
X18461536Y-51273292D01*
X18305566Y-50949418D01*
X18114315Y-50645044D01*
X17890188Y-50363997D01*
X17636003Y-50109812D01*
X17354956Y-49885685D01*
X17050582Y-49694434D01*
X17050579Y-49694432D01*
X16726711Y-49538465D01*
X16387419Y-49419741D01*
X16387407Y-49419737D01*
X16036951Y-49339748D01*
X16036935Y-49339746D01*
X15679740Y-49299500D01*
X15679736Y-49299500D01*
X15320264Y-49299500D01*
X15320259Y-49299500D01*
X14963064Y-49339746D01*
X14963048Y-49339748D01*
X14612592Y-49419737D01*
X14612580Y-49419741D01*
X14273288Y-49538465D01*
X13949420Y-49694432D01*
X13645045Y-49885684D01*
X13363997Y-50109811D01*
X13109811Y-50363997D01*
X12885684Y-50645045D01*
X12694432Y-50949420D01*
X12538465Y-51273288D01*
X12491541Y-51407389D01*
X12450819Y-51464165D01*
X12385867Y-51489912D01*
X12317305Y-51476456D01*
X12266902Y-51428068D01*
X12250500Y-51366434D01*
X12250500Y-48211809D01*
X23419500Y-48211809D01*
X23419500Y-48388190D01*
X23447089Y-48562384D01*
X23501593Y-48730127D01*
X23581662Y-48887270D01*
X23685330Y-49029957D01*
X23810043Y-49154670D01*
X23952730Y-49258338D01*
X24026975Y-49296167D01*
X24109872Y-49338406D01*
X24109874Y-49338406D01*
X24109877Y-49338408D01*
X24178891Y-49360832D01*
X24277615Y-49392910D01*
X24451810Y-49420500D01*
X24451815Y-49420500D01*
X24628190Y-49420500D01*
X24802384Y-49392910D01*
X24970123Y-49338408D01*
X25127270Y-49258338D01*
X25269957Y-49154670D01*
X25394670Y-49029957D01*
X25498338Y-48887270D01*
X25578408Y-48730123D01*
X25632910Y-48562384D01*
X25639451Y-48521086D01*
X25660500Y-48388190D01*
X25660500Y-48211809D01*
X25632910Y-48037615D01*
X25584320Y-47888072D01*
X25578408Y-47869877D01*
X25578406Y-47869874D01*
X25578406Y-47869872D01*
X25498337Y-47712729D01*
X25486260Y-47696106D01*
X25394670Y-47570043D01*
X25269957Y-47445330D01*
X25127270Y-47341662D01*
X24970127Y-47261593D01*
X24802384Y-47207089D01*
X24628190Y-47179500D01*
X24628185Y-47179500D01*
X24451815Y-47179500D01*
X24451810Y-47179500D01*
X24277615Y-47207089D01*
X24109872Y-47261593D01*
X23952729Y-47341662D01*
X23810040Y-47445332D01*
X23685332Y-47570040D01*
X23581662Y-47712729D01*
X23501593Y-47869872D01*
X23447089Y-48037615D01*
X23419500Y-48211809D01*
X12250500Y-48211809D01*
X12250500Y-41818475D01*
X13549500Y-41818475D01*
X13549500Y-43581517D01*
X13560292Y-43649657D01*
X13564354Y-43675304D01*
X13621950Y-43788342D01*
X13621952Y-43788344D01*
X13621954Y-43788347D01*
X13711652Y-43878045D01*
X13711654Y-43878046D01*
X13711658Y-43878050D01*
X13824694Y-43935645D01*
X13824698Y-43935647D01*
X13918475Y-43950499D01*
X13918481Y-43950500D01*
X14065735Y-43950499D01*
X14132772Y-43970183D01*
X14178527Y-44022987D01*
X14188471Y-44092145D01*
X14159446Y-44155701D01*
X14138619Y-44174816D01*
X13985360Y-44286167D01*
X13985351Y-44286174D01*
X13846174Y-44425351D01*
X13846174Y-44425352D01*
X13846172Y-44425354D01*
X13796485Y-44493741D01*
X13730476Y-44584594D01*
X13641117Y-44759970D01*
X13580290Y-44947173D01*
X13549500Y-45141577D01*
X13549500Y-45338422D01*
X13580290Y-45532826D01*
X13641117Y-45720029D01*
X13730476Y-45895405D01*
X13846172Y-46054646D01*
X13985354Y-46193828D01*
X14144595Y-46309524D01*
X14227455Y-46351743D01*
X14319970Y-46398882D01*
X14319972Y-46398882D01*
X14319975Y-46398884D01*
X14420317Y-46431487D01*
X14507173Y-46459709D01*
X14701578Y-46490500D01*
X14701583Y-46490500D01*
X14898422Y-46490500D01*
X15092826Y-46459709D01*
X15280025Y-46398884D01*
X15455405Y-46309524D01*
X15614646Y-46193828D01*
X15753828Y-46054646D01*
X15869524Y-45895405D01*
X15958884Y-45720025D01*
X16019709Y-45532826D01*
X16024562Y-45502185D01*
X16050500Y-45338422D01*
X16050500Y-45141577D01*
X16019709Y-44947173D01*
X15958882Y-44759970D01*
X15869523Y-44584594D01*
X15753828Y-44425354D01*
X15614646Y-44286172D01*
X15461377Y-44174815D01*
X15418714Y-44119487D01*
X15412735Y-44049873D01*
X15445341Y-43988078D01*
X15506180Y-43953721D01*
X15534264Y-43950499D01*
X15681518Y-43950499D01*
X15775304Y-43935646D01*
X15888342Y-43878050D01*
X15978050Y-43788342D01*
X16035646Y-43675304D01*
X16035646Y-43675302D01*
X16035647Y-43675301D01*
X16050499Y-43581524D01*
X16050500Y-43581519D01*
X16050499Y-41818482D01*
X16035646Y-41724696D01*
X15978050Y-41611658D01*
X15978046Y-41611654D01*
X15978045Y-41611652D01*
X15888347Y-41521954D01*
X15888344Y-41521952D01*
X15888342Y-41521950D01*
X15795770Y-41474782D01*
X15775301Y-41464352D01*
X15681524Y-41449500D01*
X13918482Y-41449500D01*
X13837519Y-41462323D01*
X13824696Y-41464354D01*
X13711658Y-41521950D01*
X13711657Y-41521951D01*
X13711652Y-41521954D01*
X13621954Y-41611652D01*
X13621951Y-41611657D01*
X13621950Y-41611658D01*
X13618268Y-41618885D01*
X13564352Y-41724698D01*
X13549500Y-41818475D01*
X12250500Y-41818475D01*
X12250500Y-41097648D01*
X22439500Y-41097648D01*
X22439500Y-41302351D01*
X22471522Y-41504534D01*
X22534781Y-41699223D01*
X22627715Y-41881613D01*
X22748028Y-42047213D01*
X22892786Y-42191971D01*
X23005740Y-42274035D01*
X23058390Y-42312287D01*
X23125178Y-42346317D01*
X23240776Y-42405218D01*
X23240778Y-42405218D01*
X23240781Y-42405220D01*
X23345137Y-42439127D01*
X23435465Y-42468477D01*
X23536557Y-42484488D01*
X23637648Y-42500500D01*
X23637649Y-42500500D01*
X23842351Y-42500500D01*
X23842352Y-42500500D01*
X24044534Y-42468477D01*
X24239219Y-42405220D01*
X24421610Y-42312287D01*
X24514590Y-42244732D01*
X24587213Y-42191971D01*
X24587215Y-42191968D01*
X24587219Y-42191966D01*
X24731966Y-42047219D01*
X24731968Y-42047215D01*
X24731971Y-42047213D01*
X24784732Y-41974590D01*
X24852287Y-41881610D01*
X24945220Y-41699219D01*
X25008477Y-41504534D01*
X25040500Y-41302352D01*
X25040500Y-41097648D01*
X25022549Y-40984310D01*
X25008477Y-40895465D01*
X24954408Y-40729059D01*
X24945220Y-40700781D01*
X24945218Y-40700778D01*
X24945218Y-40700776D01*
X24894124Y-40600500D01*
X24852287Y-40518390D01*
X24808544Y-40458182D01*
X24731971Y-40352786D01*
X24587213Y-40208028D01*
X24421613Y-40087715D01*
X24421612Y-40087714D01*
X24421610Y-40087713D01*
X24364653Y-40058691D01*
X24239223Y-39994781D01*
X24044534Y-39931522D01*
X23869995Y-39903878D01*
X23842352Y-39899500D01*
X23637648Y-39899500D01*
X23613329Y-39903351D01*
X23435465Y-39931522D01*
X23240776Y-39994781D01*
X23058386Y-40087715D01*
X22892786Y-40208028D01*
X22748028Y-40352786D01*
X22627715Y-40518386D01*
X22534781Y-40700776D01*
X22471522Y-40895465D01*
X22439500Y-41097648D01*
X12250500Y-41097648D01*
X12250500Y-37088362D01*
X12799500Y-37088362D01*
X12799500Y-39511637D01*
X12805703Y-39601011D01*
X12805705Y-39601027D01*
X12854942Y-39810368D01*
X12854947Y-39810383D01*
X12941813Y-40007115D01*
X12941817Y-40007123D01*
X12941818Y-40007124D01*
X13063363Y-40184558D01*
X13215442Y-40336637D01*
X13359567Y-40435365D01*
X13392876Y-40458182D01*
X13392884Y-40458186D01*
X13589616Y-40545052D01*
X13589623Y-40545055D01*
X13589629Y-40545056D01*
X13589631Y-40545057D01*
X13798972Y-40594294D01*
X13798977Y-40594294D01*
X13798983Y-40594296D01*
X13848640Y-40597742D01*
X13888362Y-40600500D01*
X13888366Y-40600500D01*
X16311638Y-40600500D01*
X16347387Y-40598018D01*
X16401017Y-40594296D01*
X16401023Y-40594294D01*
X16401027Y-40594294D01*
X16610368Y-40545057D01*
X16610366Y-40545057D01*
X16610377Y-40545055D01*
X16807124Y-40458182D01*
X16984558Y-40336637D01*
X17136637Y-40184558D01*
X17258182Y-40007124D01*
X17345055Y-39810377D01*
X17394296Y-39601017D01*
X17400500Y-39511634D01*
X17400500Y-37088366D01*
X17394296Y-36998983D01*
X17394294Y-36998977D01*
X17394294Y-36998972D01*
X17345057Y-36789631D01*
X17345056Y-36789629D01*
X17345055Y-36789623D01*
X17280612Y-36643674D01*
X17258186Y-36592884D01*
X17258182Y-36592876D01*
X17191361Y-36495329D01*
X21952997Y-36495329D01*
X21972402Y-36592876D01*
X21972402Y-36592877D01*
X21977994Y-36620995D01*
X21977996Y-36621000D01*
X21987388Y-36643673D01*
X22027033Y-36739385D01*
X22060606Y-36789631D01*
X22098224Y-36845931D01*
X22098225Y-36845932D01*
X26041921Y-40789627D01*
X26075406Y-40850950D01*
X26070422Y-40920642D01*
X26028550Y-40976575D01*
X26027132Y-40977622D01*
X26017924Y-40984312D01*
X25884312Y-41117924D01*
X25884312Y-41117925D01*
X25884310Y-41117927D01*
X25836610Y-41183579D01*
X25773240Y-41270800D01*
X25687454Y-41439163D01*
X25629059Y-41618881D01*
X25599500Y-41805513D01*
X25599500Y-41994486D01*
X25629059Y-42181118D01*
X25687454Y-42360836D01*
X25758617Y-42500500D01*
X25773240Y-42529199D01*
X25884310Y-42682073D01*
X26017927Y-42815690D01*
X26170801Y-42926760D01*
X26250347Y-42967290D01*
X26339163Y-43012545D01*
X26339165Y-43012545D01*
X26339168Y-43012547D01*
X26435497Y-43043846D01*
X26518881Y-43070940D01*
X26705514Y-43100500D01*
X26705519Y-43100500D01*
X26894486Y-43100500D01*
X27081118Y-43070940D01*
X27260832Y-43012547D01*
X27429199Y-42926760D01*
X27582073Y-42815690D01*
X27715690Y-42682073D01*
X27826760Y-42529199D01*
X27894061Y-42397113D01*
X27942036Y-42346317D01*
X28009857Y-42329522D01*
X28075991Y-42352059D01*
X28092227Y-42365727D01*
X28125961Y-42399461D01*
X28125965Y-42399464D01*
X28273446Y-42498009D01*
X28273459Y-42498016D01*
X28348743Y-42529199D01*
X28437334Y-42565894D01*
X28437336Y-42565894D01*
X28437341Y-42565896D01*
X28611304Y-42600499D01*
X28611307Y-42600500D01*
X28611309Y-42600500D01*
X28788693Y-42600500D01*
X28788694Y-42600499D01*
X28846682Y-42588964D01*
X28962658Y-42565896D01*
X28962661Y-42565894D01*
X28962666Y-42565894D01*
X29029048Y-42538398D01*
X29098517Y-42530929D01*
X29160996Y-42562205D01*
X29196648Y-42622294D01*
X29200500Y-42652959D01*
X29200500Y-44333736D01*
X29180815Y-44400775D01*
X29164181Y-44421417D01*
X28171483Y-45414114D01*
X28154873Y-45438973D01*
X28138373Y-45463669D01*
X28100294Y-45520657D01*
X28051259Y-45639039D01*
X28051257Y-45639045D01*
X28026260Y-45764712D01*
X28026260Y-47362271D01*
X28006575Y-47429310D01*
X27953771Y-47475065D01*
X27884613Y-47485009D01*
X27821057Y-47455984D01*
X27814579Y-47449952D01*
X27809959Y-47445332D01*
X27809957Y-47445330D01*
X27667270Y-47341662D01*
X27510127Y-47261593D01*
X27342384Y-47207089D01*
X27168190Y-47179500D01*
X27168185Y-47179500D01*
X26991815Y-47179500D01*
X26991810Y-47179500D01*
X26817615Y-47207089D01*
X26649872Y-47261593D01*
X26492729Y-47341662D01*
X26350040Y-47445332D01*
X26225332Y-47570040D01*
X26121662Y-47712729D01*
X26041593Y-47869872D01*
X25987089Y-48037615D01*
X25959500Y-48211809D01*
X25959500Y-48388190D01*
X25987089Y-48562384D01*
X26041593Y-48730127D01*
X26121662Y-48887270D01*
X26225330Y-49029957D01*
X26350043Y-49154670D01*
X26492730Y-49258338D01*
X26566975Y-49296167D01*
X26649872Y-49338406D01*
X26649874Y-49338406D01*
X26649877Y-49338408D01*
X26718891Y-49360832D01*
X26817615Y-49392910D01*
X26991810Y-49420500D01*
X26991815Y-49420500D01*
X27168190Y-49420500D01*
X27342384Y-49392910D01*
X27510123Y-49338408D01*
X27667270Y-49258338D01*
X27809957Y-49154670D01*
X27814579Y-49150048D01*
X27875902Y-49116563D01*
X27945594Y-49121547D01*
X28001527Y-49163419D01*
X28025944Y-49228883D01*
X28026260Y-49237729D01*
X28026260Y-50420829D01*
X28026260Y-50420831D01*
X28026259Y-50420831D01*
X28051257Y-50546498D01*
X28051259Y-50546504D01*
X28100294Y-50664885D01*
X28171486Y-50771433D01*
X28171487Y-50771434D01*
X28687873Y-51287819D01*
X28721358Y-51349142D01*
X28716374Y-51418833D01*
X28674503Y-51474767D01*
X28609038Y-51499184D01*
X28600192Y-51499500D01*
X28004298Y-51499500D01*
X27967432Y-51502401D01*
X27967426Y-51502402D01*
X27809606Y-51548254D01*
X27809603Y-51548255D01*
X27668137Y-51631917D01*
X27668129Y-51631923D01*
X27551923Y-51748129D01*
X27551917Y-51748137D01*
X27468255Y-51889603D01*
X27468254Y-51889606D01*
X27422402Y-52047426D01*
X27422401Y-52047432D01*
X27419500Y-52084298D01*
X27419500Y-53315701D01*
X27422401Y-53352567D01*
X27422402Y-53352573D01*
X27468254Y-53510393D01*
X27468255Y-53510396D01*
X27551917Y-53651862D01*
X27551923Y-53651870D01*
X27668129Y-53768076D01*
X27668133Y-53768079D01*
X27668135Y-53768081D01*
X27809602Y-53851744D01*
X27851224Y-53863836D01*
X27967426Y-53897597D01*
X27967429Y-53897597D01*
X27967431Y-53897598D01*
X28004306Y-53900500D01*
X28004314Y-53900500D01*
X29235686Y-53900500D01*
X29235694Y-53900500D01*
X29272569Y-53897598D01*
X29272571Y-53897597D01*
X29272573Y-53897597D01*
X29314191Y-53885505D01*
X29430398Y-53851744D01*
X29571865Y-53768081D01*
X29688081Y-53651865D01*
X29771744Y-53510398D01*
X29798194Y-53419356D01*
X29835798Y-53360474D01*
X29899270Y-53331267D01*
X29968457Y-53341013D01*
X29990154Y-53353635D01*
X30090801Y-53426760D01*
X30170347Y-53467290D01*
X30259163Y-53512545D01*
X30259165Y-53512545D01*
X30259168Y-53512547D01*
X30330838Y-53535834D01*
X30438881Y-53570940D01*
X30625514Y-53600500D01*
X30625519Y-53600500D01*
X30814486Y-53600500D01*
X31001118Y-53570940D01*
X31014703Y-53566526D01*
X31180832Y-53512547D01*
X31185060Y-53510393D01*
X31187014Y-53509396D01*
X31349199Y-53426760D01*
X31502073Y-53315690D01*
X31635690Y-53182073D01*
X31746760Y-53029199D01*
X31832547Y-52860832D01*
X31890940Y-52681118D01*
X31891159Y-52679736D01*
X31920500Y-52494486D01*
X31920500Y-52305513D01*
X39679500Y-52305513D01*
X39679500Y-52494486D01*
X39709059Y-52681118D01*
X39767454Y-52860836D01*
X39853240Y-53029199D01*
X39964310Y-53182073D01*
X40097927Y-53315690D01*
X40250801Y-53426760D01*
X40330347Y-53467290D01*
X40419163Y-53512545D01*
X40419165Y-53512545D01*
X40419168Y-53512547D01*
X40490838Y-53535834D01*
X40598881Y-53570940D01*
X40785514Y-53600500D01*
X40785519Y-53600500D01*
X40974486Y-53600500D01*
X41161118Y-53570940D01*
X41174703Y-53566526D01*
X41340832Y-53512547D01*
X41345060Y-53510393D01*
X41347014Y-53509396D01*
X41509199Y-53426760D01*
X41662073Y-53315690D01*
X41795690Y-53182073D01*
X41906760Y-53029199D01*
X41992547Y-52860832D01*
X42050940Y-52681118D01*
X42051159Y-52679736D01*
X42080500Y-52494486D01*
X42080500Y-52305513D01*
X42050940Y-52118881D01*
X41992545Y-51939163D01*
X41906759Y-51770800D01*
X41795690Y-51617927D01*
X41662073Y-51484310D01*
X41509199Y-51373240D01*
X41340836Y-51287454D01*
X41161118Y-51229059D01*
X40974486Y-51199500D01*
X40974481Y-51199500D01*
X40785519Y-51199500D01*
X40785514Y-51199500D01*
X40598881Y-51229059D01*
X40419163Y-51287454D01*
X40250800Y-51373240D01*
X40203799Y-51407389D01*
X40097927Y-51484310D01*
X40097925Y-51484312D01*
X40097924Y-51484312D01*
X39964312Y-51617924D01*
X39964312Y-51617925D01*
X39964310Y-51617927D01*
X39916610Y-51683579D01*
X39853240Y-51770800D01*
X39767454Y-51939163D01*
X39709059Y-52118881D01*
X39679500Y-52305513D01*
X31920500Y-52305513D01*
X31890940Y-52118881D01*
X31832545Y-51939163D01*
X31746759Y-51770800D01*
X31635690Y-51617927D01*
X31502073Y-51484310D01*
X31349199Y-51373240D01*
X31180836Y-51287454D01*
X31001118Y-51229059D01*
X30814486Y-51199500D01*
X30814481Y-51199500D01*
X30625519Y-51199500D01*
X30625514Y-51199500D01*
X30527290Y-51215057D01*
X30457996Y-51206102D01*
X30420211Y-51180265D01*
X29363579Y-50123633D01*
X29330094Y-50062310D01*
X29327260Y-50035952D01*
X29327260Y-49342945D01*
X29346945Y-49275906D01*
X29399749Y-49230151D01*
X29468907Y-49220207D01*
X29532463Y-49249232D01*
X29569190Y-49304626D01*
X29580602Y-49339748D01*
X29587454Y-49360834D01*
X29617467Y-49419738D01*
X29673240Y-49529199D01*
X29784310Y-49682073D01*
X29917927Y-49815690D01*
X30070801Y-49926760D01*
X30150347Y-49967290D01*
X30239163Y-50012545D01*
X30239165Y-50012545D01*
X30239168Y-50012547D01*
X30311201Y-50035952D01*
X30418881Y-50070940D01*
X30605514Y-50100500D01*
X30605519Y-50100500D01*
X30794486Y-50100500D01*
X30981118Y-50070940D01*
X31007678Y-50062310D01*
X31160832Y-50012547D01*
X31329199Y-49926760D01*
X31482073Y-49815690D01*
X31615690Y-49682073D01*
X31726760Y-49529199D01*
X31812547Y-49360832D01*
X31870940Y-49181118D01*
X31880375Y-49121547D01*
X31900500Y-48994486D01*
X31900500Y-48805513D01*
X31870940Y-48618881D01*
X31830809Y-48495373D01*
X31812547Y-48439168D01*
X31812545Y-48439165D01*
X31812545Y-48439163D01*
X31726759Y-48270800D01*
X31615690Y-48117927D01*
X31482073Y-47984310D01*
X31453613Y-47963632D01*
X31410948Y-47908301D01*
X31402500Y-47863315D01*
X31402500Y-40785962D01*
X31377502Y-40660295D01*
X31377501Y-40660294D01*
X31377501Y-40660290D01*
X31352735Y-40600500D01*
X31350165Y-40594296D01*
X31328469Y-40541915D01*
X31328468Y-40541914D01*
X31328466Y-40541908D01*
X31312749Y-40518386D01*
X31257278Y-40435366D01*
X31257272Y-40435359D01*
X28916639Y-38094726D01*
X28916635Y-38094723D01*
X28810093Y-38023535D01*
X28691710Y-37974499D01*
X28691704Y-37974497D01*
X28566037Y-37949500D01*
X28566035Y-37949500D01*
X27647014Y-37949500D01*
X27579975Y-37929815D01*
X27559333Y-37913181D01*
X25690754Y-36044602D01*
X25657269Y-35983279D01*
X25662253Y-35913587D01*
X25704125Y-35857654D01*
X25754240Y-35835304D01*
X25819163Y-35822391D01*
X25983044Y-35754510D01*
X26130532Y-35655961D01*
X26130535Y-35655958D01*
X26143178Y-35643316D01*
X26204501Y-35609831D01*
X26230859Y-35606997D01*
X32779434Y-35606997D01*
X33628012Y-35606997D01*
X33695051Y-35626682D01*
X33737938Y-35676176D01*
X33738904Y-35675684D01*
X33741116Y-35680025D01*
X33830476Y-35855405D01*
X33946172Y-36014646D01*
X34085354Y-36153828D01*
X34244595Y-36269524D01*
X34287294Y-36291280D01*
X34419970Y-36358882D01*
X34419972Y-36358882D01*
X34419975Y-36358884D01*
X34520317Y-36391487D01*
X34607173Y-36419709D01*
X34801578Y-36450500D01*
X34801583Y-36450500D01*
X34998422Y-36450500D01*
X35192826Y-36419709D01*
X35205974Y-36415437D01*
X35380025Y-36358884D01*
X35555405Y-36269524D01*
X35714646Y-36153828D01*
X35853828Y-36014646D01*
X35969524Y-35855405D01*
X36058884Y-35680025D01*
X36059515Y-35678787D01*
X36107489Y-35627990D01*
X36175310Y-35611195D01*
X36241445Y-35633732D01*
X36280485Y-35678787D01*
X36370474Y-35855403D01*
X36405234Y-35903246D01*
X36486172Y-36014646D01*
X36625354Y-36153828D01*
X36625357Y-36153830D01*
X36738385Y-36235950D01*
X36781051Y-36291280D01*
X36789500Y-36336268D01*
X36789500Y-40605634D01*
X36769815Y-40672673D01*
X36717011Y-40718428D01*
X36684898Y-40728107D01*
X36678885Y-40729059D01*
X36499165Y-40787454D01*
X36330800Y-40873240D01*
X36265558Y-40920642D01*
X36177927Y-40984310D01*
X36177925Y-40984312D01*
X36177924Y-40984312D01*
X36044312Y-41117924D01*
X36044312Y-41117925D01*
X36044310Y-41117927D01*
X35996610Y-41183579D01*
X35933240Y-41270800D01*
X35847454Y-41439163D01*
X35789059Y-41618881D01*
X35759500Y-41805513D01*
X35759500Y-41994486D01*
X35789059Y-42181118D01*
X35847454Y-42360836D01*
X35918617Y-42500500D01*
X35933240Y-42529199D01*
X36044310Y-42682073D01*
X36177927Y-42815690D01*
X36330801Y-42926760D01*
X36410347Y-42967290D01*
X36499163Y-43012545D01*
X36499165Y-43012545D01*
X36499168Y-43012547D01*
X36595497Y-43043846D01*
X36678881Y-43070940D01*
X36865514Y-43100500D01*
X36865519Y-43100500D01*
X37054479Y-43100500D01*
X37054481Y-43100500D01*
X37152711Y-43084941D01*
X37222000Y-43093895D01*
X37259787Y-43119733D01*
X40173181Y-46033126D01*
X40206666Y-46094449D01*
X40209500Y-46120807D01*
X40209500Y-47825534D01*
X40189815Y-47892573D01*
X40158387Y-47925851D01*
X40077927Y-47984309D01*
X39944312Y-48117924D01*
X39944312Y-48117925D01*
X39944310Y-48117927D01*
X39896610Y-48183579D01*
X39833240Y-48270800D01*
X39747454Y-48439163D01*
X39689059Y-48618881D01*
X39659500Y-48805513D01*
X39659500Y-48994486D01*
X39689059Y-49181118D01*
X39747454Y-49360836D01*
X39777855Y-49420500D01*
X39833240Y-49529199D01*
X39944310Y-49682073D01*
X40077927Y-49815690D01*
X40230801Y-49926760D01*
X40310347Y-49967290D01*
X40399163Y-50012545D01*
X40399165Y-50012545D01*
X40399168Y-50012547D01*
X40471201Y-50035952D01*
X40578881Y-50070940D01*
X40765514Y-50100500D01*
X40765519Y-50100500D01*
X40954486Y-50100500D01*
X41141118Y-50070940D01*
X41167678Y-50062310D01*
X41320832Y-50012547D01*
X41489199Y-49926760D01*
X41642073Y-49815690D01*
X41775690Y-49682073D01*
X41886760Y-49529199D01*
X41972547Y-49360832D01*
X42030940Y-49181118D01*
X42040375Y-49121547D01*
X42060500Y-48994486D01*
X42060500Y-48805513D01*
X42030940Y-48618881D01*
X41990809Y-48495373D01*
X41972547Y-48439168D01*
X41972545Y-48439165D01*
X41972545Y-48439163D01*
X41886759Y-48270800D01*
X41775690Y-48117927D01*
X41642073Y-47984310D01*
X41642072Y-47984309D01*
X41561613Y-47925851D01*
X41518948Y-47870521D01*
X41510500Y-47825534D01*
X41510500Y-45996822D01*
X41512883Y-45972630D01*
X41530499Y-45884069D01*
X41530499Y-45755931D01*
X41509479Y-45650256D01*
X41505501Y-45630256D01*
X41465144Y-45532826D01*
X41456468Y-45511879D01*
X41456461Y-45511866D01*
X41385276Y-45405331D01*
X41385273Y-45405327D01*
X38179733Y-42199787D01*
X38146248Y-42138464D01*
X38144941Y-42092713D01*
X38160500Y-41994481D01*
X38160500Y-41805519D01*
X38160500Y-41805513D01*
X38130940Y-41618885D01*
X38130940Y-41618884D01*
X38130940Y-41618882D01*
X38109772Y-41553736D01*
X38096569Y-41513100D01*
X38090500Y-41474782D01*
X38090500Y-38798131D01*
X40886327Y-38798131D01*
X40886327Y-38975522D01*
X40920930Y-39149485D01*
X40920933Y-39149494D01*
X40988810Y-39313367D01*
X40988817Y-39313380D01*
X41087362Y-39460861D01*
X41087365Y-39460865D01*
X41212788Y-39586288D01*
X41212792Y-39586291D01*
X41360273Y-39684836D01*
X41360286Y-39684843D01*
X41483190Y-39735750D01*
X41524161Y-39752721D01*
X41524163Y-39752721D01*
X41524168Y-39752723D01*
X41698131Y-39787326D01*
X41698134Y-39787327D01*
X41698136Y-39787327D01*
X41875520Y-39787327D01*
X41875521Y-39787326D01*
X41933509Y-39775791D01*
X42049485Y-39752723D01*
X42049488Y-39752721D01*
X42049493Y-39752721D01*
X42213374Y-39684840D01*
X42360862Y-39586291D01*
X42486291Y-39460862D01*
X42584840Y-39313374D01*
X42652721Y-39149493D01*
X42687327Y-38975518D01*
X42687327Y-38798136D01*
X42687327Y-38798133D01*
X42687326Y-38798131D01*
X42652723Y-38624168D01*
X42652720Y-38624159D01*
X42584843Y-38460286D01*
X42584836Y-38460273D01*
X42486291Y-38312792D01*
X42482426Y-38308082D01*
X42484322Y-38306525D01*
X42456007Y-38254669D01*
X42453173Y-38228311D01*
X42453173Y-30698034D01*
X42472858Y-30630995D01*
X42489489Y-30610355D01*
X42502137Y-30597708D01*
X42600686Y-30450220D01*
X42668567Y-30286339D01*
X42703173Y-30112364D01*
X42703173Y-29934982D01*
X42703173Y-29934979D01*
X42703172Y-29934977D01*
X42668569Y-29761014D01*
X42668566Y-29761005D01*
X42600689Y-29597132D01*
X42600682Y-29597119D01*
X42502137Y-29449638D01*
X42502134Y-29449634D01*
X42376711Y-29324211D01*
X42376707Y-29324208D01*
X42229226Y-29225663D01*
X42229213Y-29225656D01*
X42065340Y-29157779D01*
X42065331Y-29157776D01*
X41891367Y-29123173D01*
X41891364Y-29123173D01*
X41713982Y-29123173D01*
X41713979Y-29123173D01*
X41540014Y-29157776D01*
X41540005Y-29157779D01*
X41376132Y-29225656D01*
X41376119Y-29225663D01*
X41228638Y-29324208D01*
X41228634Y-29324211D01*
X41103211Y-29449634D01*
X41103208Y-29449638D01*
X41004663Y-29597119D01*
X41004656Y-29597132D01*
X40936779Y-29761005D01*
X40936776Y-29761014D01*
X40902173Y-29934977D01*
X40902173Y-30112368D01*
X40936776Y-30286331D01*
X40936779Y-30286340D01*
X41004656Y-30450213D01*
X41004663Y-30450226D01*
X41103207Y-30597706D01*
X41103208Y-30597707D01*
X41103209Y-30597708D01*
X41115853Y-30610352D01*
X41149338Y-30671672D01*
X41152173Y-30698034D01*
X41152173Y-38196619D01*
X41132488Y-38263658D01*
X41115854Y-38284300D01*
X41087365Y-38312788D01*
X41087362Y-38312792D01*
X40988817Y-38460273D01*
X40988810Y-38460286D01*
X40920933Y-38624159D01*
X40920930Y-38624168D01*
X40886327Y-38798131D01*
X38090500Y-38798131D01*
X38090500Y-36336268D01*
X38110185Y-36269229D01*
X38141615Y-36235950D01*
X38254646Y-36153828D01*
X38393828Y-36014646D01*
X38509524Y-35855405D01*
X38598884Y-35680025D01*
X38659709Y-35492826D01*
X38690500Y-35298422D01*
X38690500Y-35101577D01*
X38659709Y-34907173D01*
X38598882Y-34719970D01*
X38509523Y-34544594D01*
X38393828Y-34385354D01*
X38254646Y-34246172D01*
X38141613Y-34164048D01*
X38098949Y-34108718D01*
X38090500Y-34063731D01*
X38090500Y-33796268D01*
X38110185Y-33729229D01*
X38141615Y-33695950D01*
X38155489Y-33685870D01*
X38254646Y-33613828D01*
X38393828Y-33474646D01*
X38509524Y-33315405D01*
X38598884Y-33140025D01*
X38659709Y-32952826D01*
X38661882Y-32939106D01*
X38690500Y-32758422D01*
X38690500Y-32561577D01*
X38659709Y-32367173D01*
X38598882Y-32179970D01*
X38509523Y-32004594D01*
X38393828Y-31845354D01*
X38254646Y-31706172D01*
X38145917Y-31627175D01*
X38095403Y-31590474D01*
X37918787Y-31500485D01*
X37867990Y-31452511D01*
X37851195Y-31384690D01*
X37873732Y-31318555D01*
X37918787Y-31279515D01*
X38095403Y-31189525D01*
X38095402Y-31189525D01*
X38095405Y-31189524D01*
X38254646Y-31073828D01*
X38393828Y-30934646D01*
X38509524Y-30775405D01*
X38598884Y-30600025D01*
X38659709Y-30412826D01*
X38661328Y-30402605D01*
X38690500Y-30218422D01*
X38690500Y-30021577D01*
X38659709Y-29827173D01*
X38598882Y-29639970D01*
X38509523Y-29464594D01*
X38503964Y-29456943D01*
X38393828Y-29305354D01*
X38254646Y-29166172D01*
X38175025Y-29108324D01*
X38095403Y-29050474D01*
X37918787Y-28960485D01*
X37867990Y-28912511D01*
X37851195Y-28844690D01*
X37873732Y-28778555D01*
X37918787Y-28739515D01*
X38095403Y-28649525D01*
X38095402Y-28649525D01*
X38095405Y-28649524D01*
X38254646Y-28533828D01*
X38393828Y-28394646D01*
X38509524Y-28235405D01*
X38598884Y-28060025D01*
X38659709Y-27872826D01*
X38690500Y-27678422D01*
X38690500Y-27481577D01*
X38659709Y-27287173D01*
X38598882Y-27099970D01*
X38509523Y-26924594D01*
X38484970Y-26890800D01*
X38393828Y-26765354D01*
X38254646Y-26626172D01*
X38175025Y-26568324D01*
X38095403Y-26510474D01*
X37918787Y-26420485D01*
X37867990Y-26372511D01*
X37851195Y-26304690D01*
X37873732Y-26238555D01*
X37918787Y-26199515D01*
X38095403Y-26109525D01*
X38095402Y-26109525D01*
X38095405Y-26109524D01*
X38254646Y-25993828D01*
X38393828Y-25854646D01*
X38509524Y-25695405D01*
X38598884Y-25520025D01*
X38659709Y-25332826D01*
X38690500Y-25138422D01*
X38690500Y-24941577D01*
X38659709Y-24747173D01*
X38598882Y-24559970D01*
X38509523Y-24384594D01*
X38471260Y-24331930D01*
X38393828Y-24225354D01*
X38254646Y-24086172D01*
X38159302Y-24016900D01*
X38095403Y-23970474D01*
X37918787Y-23880485D01*
X37867990Y-23832511D01*
X37851195Y-23764690D01*
X37873732Y-23698555D01*
X37918787Y-23659515D01*
X38095403Y-23569525D01*
X38095402Y-23569525D01*
X38095405Y-23569524D01*
X38254646Y-23453828D01*
X38393828Y-23314646D01*
X38509524Y-23155405D01*
X38598884Y-22980025D01*
X38659709Y-22792826D01*
X38690500Y-22598422D01*
X38690500Y-22401577D01*
X38659709Y-22207173D01*
X38598882Y-22019970D01*
X38541256Y-21906873D01*
X38509524Y-21844595D01*
X38509522Y-21844593D01*
X38509519Y-21844586D01*
X38506978Y-21840439D01*
X38508394Y-21839570D01*
X38487346Y-21780587D01*
X38503167Y-21712532D01*
X38553269Y-21663834D01*
X38611143Y-21649500D01*
X40553192Y-21649500D01*
X40620231Y-21669185D01*
X40640873Y-21685819D01*
X45662181Y-26707127D01*
X45695666Y-26768450D01*
X45698500Y-26794808D01*
X45698500Y-36293069D01*
X45705805Y-36329790D01*
X45705805Y-36329793D01*
X45711591Y-36358882D01*
X45723499Y-36418744D01*
X45772535Y-36537127D01*
X45828578Y-36621002D01*
X45843726Y-36643673D01*
X45843727Y-36643674D01*
X46580265Y-37380211D01*
X46613750Y-37441534D01*
X46615057Y-37487290D01*
X46599500Y-37585513D01*
X46599500Y-37774486D01*
X46629059Y-37961118D01*
X46687454Y-38140836D01*
X46758196Y-38279674D01*
X46773240Y-38309199D01*
X46884310Y-38462073D01*
X47017927Y-38595690D01*
X47170801Y-38706760D01*
X47250347Y-38747290D01*
X47339163Y-38792545D01*
X47339165Y-38792545D01*
X47339168Y-38792547D01*
X47435497Y-38823846D01*
X47518881Y-38850940D01*
X47705514Y-38880500D01*
X47705519Y-38880500D01*
X47894486Y-38880500D01*
X48081118Y-38850940D01*
X48260832Y-38792547D01*
X48429199Y-38706760D01*
X48582073Y-38595690D01*
X48715690Y-38462073D01*
X48826760Y-38309199D01*
X48912547Y-38140832D01*
X48970940Y-37961118D01*
X48975898Y-37929815D01*
X49000500Y-37774486D01*
X49000500Y-37585513D01*
X48970940Y-37398881D01*
X48912545Y-37219163D01*
X48826759Y-37050800D01*
X48789115Y-36998988D01*
X48715690Y-36897927D01*
X48582073Y-36764310D01*
X48429199Y-36653240D01*
X48410415Y-36643669D01*
X48260836Y-36567454D01*
X48081118Y-36509059D01*
X47894486Y-36479500D01*
X47894481Y-36479500D01*
X47705519Y-36479500D01*
X47705514Y-36479500D01*
X47607290Y-36495057D01*
X47537996Y-36486102D01*
X47500211Y-36460265D01*
X47035819Y-35995873D01*
X47002334Y-35934550D01*
X46999500Y-35908192D01*
X46999500Y-28661827D01*
X47019185Y-28594788D01*
X47071989Y-28549033D01*
X47141147Y-28539089D01*
X47179791Y-28551340D01*
X47265062Y-28594788D01*
X47339163Y-28632545D01*
X47339165Y-28632545D01*
X47339168Y-28632547D01*
X47391421Y-28649525D01*
X47518881Y-28690940D01*
X47705514Y-28720500D01*
X47705519Y-28720500D01*
X47894486Y-28720500D01*
X48081118Y-28690940D01*
X48260832Y-28632547D01*
X48429199Y-28546760D01*
X48582073Y-28435690D01*
X48715690Y-28302073D01*
X48826760Y-28149199D01*
X48912547Y-27980832D01*
X48970940Y-27801118D01*
X48990374Y-27678417D01*
X49000500Y-27614486D01*
X49000500Y-27425513D01*
X48970940Y-27238881D01*
X48912545Y-27059163D01*
X48826759Y-26890800D01*
X48715690Y-26737927D01*
X48582073Y-26604310D01*
X48582072Y-26604309D01*
X48501613Y-26545851D01*
X48458948Y-26490521D01*
X48450500Y-26445534D01*
X48450500Y-23875928D01*
X48425502Y-23750261D01*
X48425501Y-23750260D01*
X48425501Y-23750256D01*
X48376465Y-23631873D01*
X48334805Y-23569524D01*
X48305276Y-23525330D01*
X48305274Y-23525327D01*
X48305271Y-23525324D01*
X44279733Y-19499787D01*
X44246248Y-19438464D01*
X44244941Y-19392713D01*
X44260500Y-19294481D01*
X44260500Y-19105519D01*
X44260500Y-19105513D01*
X44230940Y-18918881D01*
X44172545Y-18739163D01*
X44113629Y-18623534D01*
X44086760Y-18570801D01*
X43975690Y-18417927D01*
X43842073Y-18284310D01*
X43689199Y-18173240D01*
X43520836Y-18087454D01*
X43341118Y-18029059D01*
X43154486Y-17999500D01*
X43154481Y-17999500D01*
X42965519Y-17999500D01*
X42965512Y-17999500D01*
X42838835Y-18019563D01*
X42769542Y-18010608D01*
X42716090Y-17965612D01*
X42695451Y-17898860D01*
X42707293Y-17846406D01*
X42706611Y-17846124D01*
X42793645Y-17636003D01*
X42803502Y-17612207D01*
X42867982Y-17371565D01*
X42900500Y-17124565D01*
X42900500Y-16875435D01*
X42867982Y-16628435D01*
X42803502Y-16387793D01*
X42708164Y-16157627D01*
X42583599Y-15941873D01*
X42431938Y-15744224D01*
X42431933Y-15744218D01*
X42255781Y-15568066D01*
X42255774Y-15568060D01*
X42058126Y-15416400D01*
X41842376Y-15291837D01*
X41842361Y-15291830D01*
X41612207Y-15196498D01*
X41371561Y-15132017D01*
X41124575Y-15099501D01*
X41124570Y-15099500D01*
X41124565Y-15099500D01*
X40875435Y-15099500D01*
X40875429Y-15099500D01*
X40875424Y-15099501D01*
X40628438Y-15132017D01*
X40387792Y-15196498D01*
X40157638Y-15291830D01*
X40157623Y-15291837D01*
X39941873Y-15416400D01*
X39744225Y-15568060D01*
X39744218Y-15568066D01*
X39568066Y-15744218D01*
X39568060Y-15744225D01*
X39416400Y-15941873D01*
X39291837Y-16157623D01*
X39291830Y-16157638D01*
X39196498Y-16387792D01*
X39132017Y-16628438D01*
X39099501Y-16875424D01*
X39099500Y-16875441D01*
X39099500Y-17124558D01*
X39099501Y-17124575D01*
X39132017Y-17371561D01*
X39196498Y-17612207D01*
X39291830Y-17842361D01*
X39291837Y-17842376D01*
X39416400Y-18058126D01*
X39568060Y-18255774D01*
X39568066Y-18255781D01*
X39650104Y-18337819D01*
X39683589Y-18399142D01*
X39678605Y-18468834D01*
X39636733Y-18524767D01*
X39571269Y-18549184D01*
X39562423Y-18549500D01*
X36861723Y-18549500D01*
X36736055Y-18574497D01*
X36736049Y-18574499D01*
X36617668Y-18623534D01*
X36511120Y-18694726D01*
X36511119Y-18694727D01*
X35229770Y-19976078D01*
X35168447Y-20009563D01*
X35142089Y-20012397D01*
X34035766Y-20012397D01*
X33968727Y-19992712D01*
X33922972Y-19939908D01*
X33913028Y-19870750D01*
X33925281Y-19832102D01*
X34012545Y-19660836D01*
X34012545Y-19660835D01*
X34012547Y-19660832D01*
X34070940Y-19481118D01*
X34084943Y-19392707D01*
X34100500Y-19294486D01*
X34100500Y-19105513D01*
X34070940Y-18918881D01*
X34012545Y-18739163D01*
X33953629Y-18623534D01*
X33926760Y-18570801D01*
X33815690Y-18417927D01*
X33682073Y-18284310D01*
X33529199Y-18173240D01*
X33360836Y-18087454D01*
X33181118Y-18029059D01*
X32994486Y-17999500D01*
X32994481Y-17999500D01*
X32805519Y-17999500D01*
X32805514Y-17999500D01*
X32618881Y-18029059D01*
X32439163Y-18087454D01*
X32270800Y-18173240D01*
X32183579Y-18236610D01*
X32117927Y-18284310D01*
X32117925Y-18284312D01*
X32117924Y-18284312D01*
X31984312Y-18417924D01*
X31984312Y-18417925D01*
X31984310Y-18417927D01*
X31952628Y-18461534D01*
X31873240Y-18570800D01*
X31787454Y-18739163D01*
X31729059Y-18918881D01*
X31699500Y-19105513D01*
X31699500Y-19294486D01*
X31729059Y-19481118D01*
X31787454Y-19660836D01*
X31858108Y-19799501D01*
X31873240Y-19829199D01*
X31984310Y-19982073D01*
X32117927Y-20115690D01*
X32270801Y-20226760D01*
X32276130Y-20229475D01*
X32439163Y-20312545D01*
X32439165Y-20312545D01*
X32439168Y-20312547D01*
X32535497Y-20343846D01*
X32618881Y-20370940D01*
X32805036Y-20400424D01*
X32805238Y-20400519D01*
X32805461Y-20400492D01*
X32836816Y-20415489D01*
X32868171Y-20430353D01*
X32868289Y-20430543D01*
X32868492Y-20430640D01*
X32886783Y-20460245D01*
X32905102Y-20489665D01*
X32905098Y-20489888D01*
X32905217Y-20490080D01*
X32904599Y-20524836D01*
X32904104Y-20559527D01*
X32903978Y-20559790D01*
X32903976Y-20559938D01*
X32888747Y-20591778D01*
X32884042Y-20598821D01*
X32884035Y-20598830D01*
X32822535Y-20690870D01*
X32773499Y-20809255D01*
X32773497Y-20809261D01*
X32748500Y-20934928D01*
X32748500Y-24209192D01*
X32728815Y-24276231D01*
X32676011Y-24321986D01*
X32606853Y-24331930D01*
X32543297Y-24302905D01*
X32536819Y-24296873D01*
X30146819Y-21906873D01*
X30113334Y-21845550D01*
X30110500Y-21819192D01*
X30110500Y-20274464D01*
X30130185Y-20207425D01*
X30161616Y-20174145D01*
X30242069Y-20115693D01*
X30242069Y-20115692D01*
X30242073Y-20115690D01*
X30375690Y-19982073D01*
X30486760Y-19829199D01*
X30572547Y-19660832D01*
X30630940Y-19481118D01*
X30644943Y-19392707D01*
X30660500Y-19294486D01*
X30660500Y-19105513D01*
X30630940Y-18918881D01*
X30572545Y-18739163D01*
X30513629Y-18623534D01*
X30486760Y-18570801D01*
X30375690Y-18417927D01*
X30242073Y-18284310D01*
X30089199Y-18173240D01*
X29920836Y-18087454D01*
X29741118Y-18029059D01*
X29554486Y-17999500D01*
X29554481Y-17999500D01*
X29365519Y-17999500D01*
X29365514Y-17999500D01*
X29178881Y-18029059D01*
X28999163Y-18087454D01*
X28830800Y-18173240D01*
X28743579Y-18236610D01*
X28677927Y-18284310D01*
X28677925Y-18284312D01*
X28677924Y-18284312D01*
X28544312Y-18417924D01*
X28544312Y-18417925D01*
X28544310Y-18417927D01*
X28512628Y-18461534D01*
X28433240Y-18570800D01*
X28347454Y-18739163D01*
X28289059Y-18918881D01*
X28259500Y-19105513D01*
X28259500Y-19294486D01*
X28289059Y-19481118D01*
X28347454Y-19660836D01*
X28418108Y-19799501D01*
X28433240Y-19829199D01*
X28544310Y-19982073D01*
X28544312Y-19982075D01*
X28677930Y-20115693D01*
X28758384Y-20174145D01*
X28801051Y-20229475D01*
X28809500Y-20274464D01*
X28809500Y-22204069D01*
X28809500Y-22204071D01*
X28809499Y-22204071D01*
X28834497Y-22329738D01*
X28834499Y-22329744D01*
X28883535Y-22448127D01*
X28954723Y-22554669D01*
X28954726Y-22554673D01*
X28954727Y-22554674D01*
X33636563Y-27236509D01*
X33670048Y-27297832D01*
X33671355Y-27343588D01*
X33649500Y-27481577D01*
X33649500Y-27678422D01*
X33680291Y-27872827D01*
X33680291Y-27872830D01*
X33741114Y-28060021D01*
X33741114Y-28060022D01*
X33759682Y-28096464D01*
X33772578Y-28165133D01*
X33746301Y-28229874D01*
X33736878Y-28240439D01*
X32765946Y-29211372D01*
X32756403Y-29225657D01*
X32756399Y-29225662D01*
X32694760Y-29317910D01*
X32645724Y-29436295D01*
X32645722Y-29436301D01*
X32620725Y-29561968D01*
X32620725Y-31295875D01*
X32601040Y-31362914D01*
X32584406Y-31383556D01*
X32570763Y-31397198D01*
X32570760Y-31397202D01*
X32472215Y-31544683D01*
X32472208Y-31544696D01*
X32404331Y-31708569D01*
X32404328Y-31708578D01*
X32369725Y-31882541D01*
X32369725Y-32059932D01*
X32404328Y-32233895D01*
X32404331Y-32233904D01*
X32472208Y-32397777D01*
X32472215Y-32397790D01*
X32570760Y-32545271D01*
X32570763Y-32545275D01*
X32696186Y-32670698D01*
X32696190Y-32670701D01*
X32843671Y-32769246D01*
X32843684Y-32769253D01*
X32886429Y-32786958D01*
X33007559Y-32837131D01*
X33007561Y-32837131D01*
X33007566Y-32837133D01*
X33181529Y-32871736D01*
X33181532Y-32871737D01*
X33181534Y-32871737D01*
X33358917Y-32871737D01*
X33392798Y-32864997D01*
X33469053Y-32849829D01*
X33538643Y-32856056D01*
X33593821Y-32898918D01*
X33617066Y-32964808D01*
X33600999Y-33032805D01*
X33580927Y-33059126D01*
X33565337Y-33074717D01*
X33521872Y-33118181D01*
X33460552Y-33151666D01*
X33434192Y-33154500D01*
X27374362Y-33154500D01*
X27307323Y-33134815D01*
X27286681Y-33118181D01*
X27274038Y-33105538D01*
X27274034Y-33105535D01*
X27126553Y-33006990D01*
X27126540Y-33006983D01*
X26962667Y-32939106D01*
X26962658Y-32939103D01*
X26788694Y-32904500D01*
X26788691Y-32904500D01*
X26611309Y-32904500D01*
X26611306Y-32904500D01*
X26437341Y-32939103D01*
X26437332Y-32939106D01*
X26273459Y-33006983D01*
X26273448Y-33006989D01*
X26243689Y-33026874D01*
X26177011Y-33047751D01*
X26109631Y-33029266D01*
X26062942Y-32977287D01*
X26051766Y-32908317D01*
X26060236Y-32876324D01*
X26065894Y-32862666D01*
X26068448Y-32849829D01*
X26100499Y-32688695D01*
X26100500Y-32688693D01*
X26100500Y-32511306D01*
X26100499Y-32511304D01*
X26065896Y-32337341D01*
X26065893Y-32337332D01*
X25998016Y-32173459D01*
X25998009Y-32173446D01*
X25899465Y-32025966D01*
X25878093Y-32004594D01*
X25840587Y-31967088D01*
X25807104Y-31905768D01*
X25812088Y-31836076D01*
X25840589Y-31791728D01*
X25857661Y-31774657D01*
X25956210Y-31627169D01*
X26024091Y-31463288D01*
X26028666Y-31440292D01*
X26052880Y-31318555D01*
X26058697Y-31289313D01*
X26058697Y-31111931D01*
X26058697Y-31111928D01*
X26058696Y-31111926D01*
X26024093Y-30937963D01*
X26024090Y-30937954D01*
X25956213Y-30774081D01*
X25956206Y-30774068D01*
X25857661Y-30626587D01*
X25857658Y-30626583D01*
X25732235Y-30501160D01*
X25732231Y-30501157D01*
X25584750Y-30402612D01*
X25584737Y-30402605D01*
X25420864Y-30334728D01*
X25420858Y-30334726D01*
X25374792Y-30325563D01*
X25312881Y-30293177D01*
X25278308Y-30232461D01*
X25277368Y-30179753D01*
X25289320Y-30119670D01*
X25289320Y-29942284D01*
X25289319Y-29942282D01*
X25254716Y-29768319D01*
X25254713Y-29768310D01*
X25186836Y-29604437D01*
X25186829Y-29604424D01*
X25088284Y-29456943D01*
X25088281Y-29456939D01*
X24962858Y-29331516D01*
X24962854Y-29331513D01*
X24815373Y-29232968D01*
X24815360Y-29232961D01*
X24651487Y-29165084D01*
X24651478Y-29165081D01*
X24477514Y-29130478D01*
X24477511Y-29130478D01*
X24300129Y-29130478D01*
X24300126Y-29130478D01*
X24126161Y-29165081D01*
X24126152Y-29165084D01*
X23962279Y-29232961D01*
X23962266Y-29232968D01*
X23814785Y-29331513D01*
X23814781Y-29331516D01*
X23689358Y-29456939D01*
X23689355Y-29456943D01*
X23590810Y-29604424D01*
X23590803Y-29604437D01*
X23522926Y-29768310D01*
X23522923Y-29768319D01*
X23488320Y-29942282D01*
X23488320Y-29960170D01*
X23468635Y-30027209D01*
X23452001Y-30047851D01*
X22098220Y-31401631D01*
X22092963Y-31409500D01*
X22072390Y-31440291D01*
X22057029Y-31463280D01*
X22027032Y-31508173D01*
X21977997Y-31626555D01*
X21977995Y-31626561D01*
X21952998Y-31752228D01*
X21952998Y-31752231D01*
X21952998Y-36495327D01*
X21952998Y-36495329D01*
X21952997Y-36495329D01*
X17191361Y-36495329D01*
X17136637Y-36415442D01*
X16984558Y-36263363D01*
X16888710Y-36197706D01*
X16807123Y-36141817D01*
X16807115Y-36141813D01*
X16610383Y-36054947D01*
X16610368Y-36054942D01*
X16401027Y-36005705D01*
X16401011Y-36005703D01*
X16311638Y-35999500D01*
X16311634Y-35999500D01*
X13888366Y-35999500D01*
X13888362Y-35999500D01*
X13798988Y-36005703D01*
X13798972Y-36005705D01*
X13589631Y-36054942D01*
X13589616Y-36054947D01*
X13392884Y-36141813D01*
X13392876Y-36141817D01*
X13215443Y-36263362D01*
X13215437Y-36263367D01*
X13063367Y-36415437D01*
X13063362Y-36415443D01*
X12941817Y-36592876D01*
X12941813Y-36592884D01*
X12854947Y-36789616D01*
X12854942Y-36789631D01*
X12805705Y-36998972D01*
X12805703Y-36998988D01*
X12799500Y-37088362D01*
X12250500Y-37088362D01*
X12250500Y-31669808D01*
X12270185Y-31602769D01*
X12322989Y-31557014D01*
X12392147Y-31547070D01*
X12455703Y-31576095D01*
X12462181Y-31582127D01*
X12940439Y-32060385D01*
X12973924Y-32121708D01*
X12968940Y-32191400D01*
X12964478Y-32201867D01*
X12878737Y-32379909D01*
X12878734Y-32379917D01*
X12789687Y-32634397D01*
X12789684Y-32634405D01*
X12729688Y-32897268D01*
X12729686Y-32897280D01*
X12699500Y-33165186D01*
X12699500Y-33434813D01*
X12729686Y-33702719D01*
X12729687Y-33702728D01*
X12729688Y-33702732D01*
X12740769Y-33751280D01*
X12789684Y-33965594D01*
X12789687Y-33965602D01*
X12878734Y-34220082D01*
X12995714Y-34462994D01*
X12995716Y-34462997D01*
X13139162Y-34691289D01*
X13307266Y-34902085D01*
X13497915Y-35092734D01*
X13708711Y-35260838D01*
X13937003Y-35404284D01*
X14179921Y-35521267D01*
X14371049Y-35588145D01*
X14434397Y-35610312D01*
X14434405Y-35610315D01*
X14434408Y-35610315D01*
X14434409Y-35610316D01*
X14697268Y-35670312D01*
X14965187Y-35700499D01*
X14965188Y-35700500D01*
X14965191Y-35700500D01*
X15234812Y-35700500D01*
X15234812Y-35700499D01*
X15502732Y-35670312D01*
X15765591Y-35610316D01*
X16020079Y-35521267D01*
X16262997Y-35404284D01*
X16491289Y-35260838D01*
X16702085Y-35092734D01*
X16892734Y-34902085D01*
X17060838Y-34691289D01*
X17204284Y-34462997D01*
X17321267Y-34220079D01*
X17410316Y-33965591D01*
X17470312Y-33702732D01*
X17500500Y-33434809D01*
X17500500Y-33165191D01*
X17470312Y-32897268D01*
X17410316Y-32634409D01*
X17321267Y-32379921D01*
X17204284Y-32137003D01*
X17060838Y-31908711D01*
X16992845Y-31823451D01*
X16992845Y-31823449D01*
X16892740Y-31697921D01*
X16702084Y-31507265D01*
X16579490Y-31409500D01*
X16491289Y-31339162D01*
X16262997Y-31195716D01*
X16262994Y-31195714D01*
X16020082Y-31078734D01*
X15765602Y-30989687D01*
X15765594Y-30989684D01*
X15538956Y-30937956D01*
X15502732Y-30929688D01*
X15502728Y-30929687D01*
X15502719Y-30929686D01*
X15234813Y-30899500D01*
X15234809Y-30899500D01*
X14965191Y-30899500D01*
X14965186Y-30899500D01*
X14697280Y-30929686D01*
X14697268Y-30929688D01*
X14434405Y-30989684D01*
X14434397Y-30989687D01*
X14179917Y-31078734D01*
X14179909Y-31078737D01*
X14001867Y-31164478D01*
X13932926Y-31175830D01*
X13868792Y-31148108D01*
X13860385Y-31140439D01*
X13235819Y-30515873D01*
X13202334Y-30454550D01*
X13199500Y-30428192D01*
X13199500Y-24971807D01*
X13219185Y-24904768D01*
X13235815Y-24884130D01*
X13931860Y-24188084D01*
X13993181Y-24154601D01*
X14062872Y-24159585D01*
X14076606Y-24166056D01*
X14076690Y-24165887D01*
X14080326Y-24167679D01*
X14080332Y-24167683D01*
X14180544Y-24209192D01*
X14358939Y-24283086D01*
X14358940Y-24283086D01*
X14358942Y-24283087D01*
X14650232Y-24361138D01*
X14949217Y-24400500D01*
X14949224Y-24400500D01*
X15250776Y-24400500D01*
X15250783Y-24400500D01*
X15549768Y-24361138D01*
X15841058Y-24283087D01*
X16119668Y-24167683D01*
X16380832Y-24016900D01*
X16620080Y-23833319D01*
X16833319Y-23620080D01*
X17016900Y-23380832D01*
X17167683Y-23119668D01*
X17283087Y-22841058D01*
X17361138Y-22549768D01*
X17400500Y-22250783D01*
X17400500Y-21949217D01*
X17361138Y-21650232D01*
X17283087Y-21358942D01*
X17167683Y-21080332D01*
X17016900Y-20819168D01*
X16833319Y-20579920D01*
X16833314Y-20579914D01*
X16620085Y-20366685D01*
X16620078Y-20366679D01*
X16380831Y-20183099D01*
X16119671Y-20032318D01*
X16119661Y-20032314D01*
X15841060Y-19916913D01*
X15549766Y-19838861D01*
X15250793Y-19799501D01*
X15250788Y-19799500D01*
X15250783Y-19799500D01*
X14949217Y-19799500D01*
X14949211Y-19799500D01*
X14949206Y-19799501D01*
X14650233Y-19838861D01*
X14358939Y-19916913D01*
X14080338Y-20032314D01*
X14080328Y-20032318D01*
X13819168Y-20183099D01*
X13579921Y-20366679D01*
X13579914Y-20366685D01*
X13366685Y-20579914D01*
X13366679Y-20579921D01*
X13183099Y-20819168D01*
X13032318Y-21080328D01*
X13032314Y-21080338D01*
X12916913Y-21358939D01*
X12838861Y-21650233D01*
X12799501Y-21949206D01*
X12799500Y-21949223D01*
X12799500Y-22250776D01*
X12799501Y-22250793D01*
X12838861Y-22549766D01*
X12916913Y-22841060D01*
X13032314Y-23119661D01*
X13034110Y-23123303D01*
X13032942Y-23123878D01*
X13048089Y-23186397D01*
X13025216Y-23252417D01*
X13011912Y-23268140D01*
X12462181Y-23817872D01*
X12400858Y-23851357D01*
X12331167Y-23846373D01*
X12275233Y-23804502D01*
X12250816Y-23739037D01*
X12250500Y-23730191D01*
X12250500Y-16633565D01*
X12270185Y-16566526D01*
X12322989Y-16520771D01*
X12392147Y-16510827D01*
X12455703Y-16539852D01*
X12491541Y-16592610D01*
X12538465Y-16726711D01*
X12694432Y-17050579D01*
X12694434Y-17050582D01*
X12885685Y-17354956D01*
X13109812Y-17636003D01*
X13363997Y-17890188D01*
X13645044Y-18114315D01*
X13949418Y-18305566D01*
X14273292Y-18461536D01*
X14523776Y-18549184D01*
X14612580Y-18580258D01*
X14612592Y-18580262D01*
X14963052Y-18660252D01*
X15320260Y-18700499D01*
X15320261Y-18700500D01*
X15320264Y-18700500D01*
X15679739Y-18700500D01*
X15679739Y-18700499D01*
X16036948Y-18660252D01*
X16387408Y-18580262D01*
X16726708Y-18461536D01*
X17050582Y-18305566D01*
X17354956Y-18114315D01*
X17636003Y-17890188D01*
X17890188Y-17636003D01*
X18114315Y-17354956D01*
X18305566Y-17050582D01*
X18461536Y-16726708D01*
X18580262Y-16387408D01*
X18660252Y-16036948D01*
X18700500Y-15679736D01*
X18700500Y-15320264D01*
X18660252Y-14963052D01*
X18580262Y-14612592D01*
X18461536Y-14273292D01*
X18305566Y-13949418D01*
X18114315Y-13645044D01*
X17890188Y-13363997D01*
X17636003Y-13109812D01*
X17354956Y-12885685D01*
X17050582Y-12694434D01*
X17050579Y-12694432D01*
X16726711Y-12538465D01*
X16592610Y-12491541D01*
X16535834Y-12450820D01*
X16510087Y-12385867D01*
X16523543Y-12317305D01*
X16571931Y-12266903D01*
X16633565Y-12250500D01*
X45366435Y-12250500D01*
X45433474Y-12270185D01*
G37*
%TD.AperFunction*%
%TD*%
M02*
