%TF.GenerationSoftware,KiCad,Pcbnew,9.0.5*%
%TF.CreationDate,2026-01-30T22:33:53+01:00*%
%TF.ProjectId,pi hat,70692068-6174-42e6-9b69-6361645f7063,rev?*%
%TF.SameCoordinates,Original*%
%TF.FileFunction,Copper,L1,Top*%
%TF.FilePolarity,Positive*%
%FSLAX46Y46*%
G04 Gerber Fmt 4.6, Leading zero omitted, Abs format (unit mm)*
G04 Created by KiCad (PCBNEW 9.0.5) date 2026-01-30 22:33:53*
%MOMM*%
%LPD*%
G01*
G04 APERTURE LIST*
G04 Aperture macros list*
%AMRoundRect*
0 Rectangle with rounded corners*
0 $1 Rounding radius*
0 $2 $3 $4 $5 $6 $7 $8 $9 X,Y pos of 4 corners*
0 Add a 4 corners polygon primitive as box body*
4,1,4,$2,$3,$4,$5,$6,$7,$8,$9,$2,$3,0*
0 Add four circle primitives for the rounded corners*
1,1,$1+$1,$2,$3*
1,1,$1+$1,$4,$5*
1,1,$1+$1,$6,$7*
1,1,$1+$1,$8,$9*
0 Add four rect primitives between the rounded corners*
20,1,$1+$1,$2,$3,$4,$5,0*
20,1,$1+$1,$4,$5,$6,$7,0*
20,1,$1+$1,$6,$7,$8,$9,0*
20,1,$1+$1,$8,$9,$2,$3,0*%
G04 Aperture macros list end*
%TA.AperFunction,ComponentPad*%
%ADD10O,4.000000X2.500000*%
%TD*%
%TA.AperFunction,SMDPad,CuDef*%
%ADD11RoundRect,0.375000X-0.575000X0.375000X-0.575000X-0.375000X0.575000X-0.375000X0.575000X0.375000X0*%
%TD*%
%TA.AperFunction,SMDPad,CuDef*%
%ADD12RoundRect,0.250000X-0.650000X0.412500X-0.650000X-0.412500X0.650000X-0.412500X0.650000X0.412500X0*%
%TD*%
%TA.AperFunction,ComponentPad*%
%ADD13C,1.600000*%
%TD*%
%TA.AperFunction,ComponentPad*%
%ADD14RoundRect,0.250000X0.550000X0.550000X-0.550000X0.550000X-0.550000X-0.550000X0.550000X-0.550000X0*%
%TD*%
%TA.AperFunction,SMDPad,CuDef*%
%ADD15RoundRect,0.175000X-0.325000X-0.175000X0.325000X-0.175000X0.325000X0.175000X-0.325000X0.175000X0*%
%TD*%
%TA.AperFunction,SMDPad,CuDef*%
%ADD16R,4.500000X4.700000*%
%TD*%
%TA.AperFunction,SMDPad,CuDef*%
%ADD17RoundRect,0.162500X-0.437500X-0.162500X0.437500X-0.162500X0.437500X0.162500X-0.437500X0.162500X0*%
%TD*%
%TA.AperFunction,SMDPad,CuDef*%
%ADD18C,1.000000*%
%TD*%
%TA.AperFunction,SMDPad,CuDef*%
%ADD19RoundRect,0.250000X0.412500X0.650000X-0.412500X0.650000X-0.412500X-0.650000X0.412500X-0.650000X0*%
%TD*%
%TA.AperFunction,ComponentPad*%
%ADD20R,1.700000X1.700000*%
%TD*%
%TA.AperFunction,ComponentPad*%
%ADD21C,1.700000*%
%TD*%
%TA.AperFunction,SMDPad,CuDef*%
%ADD22R,1.800000X1.000000*%
%TD*%
%TA.AperFunction,SMDPad,CuDef*%
%ADD23RoundRect,0.250000X0.400000X0.625000X-0.400000X0.625000X-0.400000X-0.625000X0.400000X-0.625000X0*%
%TD*%
%TA.AperFunction,SMDPad,CuDef*%
%ADD24RoundRect,0.325000X0.325000X0.550000X-0.325000X0.550000X-0.325000X-0.550000X0.325000X-0.550000X0*%
%TD*%
%TA.AperFunction,HeatsinkPad*%
%ADD25O,1.200000X2.400000*%
%TD*%
%TA.AperFunction,SMDPad,CuDef*%
%ADD26RoundRect,0.250000X-0.625000X0.400000X-0.625000X-0.400000X0.625000X-0.400000X0.625000X0.400000X0*%
%TD*%
%TA.AperFunction,SMDPad,CuDef*%
%ADD27RoundRect,0.250000X-0.400000X-0.625000X0.400000X-0.625000X0.400000X0.625000X-0.400000X0.625000X0*%
%TD*%
%TA.AperFunction,SMDPad,CuDef*%
%ADD28RoundRect,0.162500X-0.617500X-0.162500X0.617500X-0.162500X0.617500X0.162500X-0.617500X0.162500X0*%
%TD*%
%TA.AperFunction,ComponentPad*%
%ADD29C,3.000000*%
%TD*%
%TA.AperFunction,SMDPad,CuDef*%
%ADD30RoundRect,0.150000X-0.825000X-0.150000X0.825000X-0.150000X0.825000X0.150000X-0.825000X0.150000X0*%
%TD*%
%TA.AperFunction,SMDPad,CuDef*%
%ADD31RoundRect,0.200000X-0.750000X-0.200000X0.750000X-0.200000X0.750000X0.200000X-0.750000X0.200000X0*%
%TD*%
%TA.AperFunction,SMDPad,CuDef*%
%ADD32RoundRect,0.250000X-0.300000X0.300000X-0.300000X-0.300000X0.300000X-0.300000X0.300000X0.300000X0*%
%TD*%
%TA.AperFunction,SMDPad,CuDef*%
%ADD33RoundRect,0.250000X-0.350000X-0.450000X0.350000X-0.450000X0.350000X0.450000X-0.350000X0.450000X0*%
%TD*%
%TA.AperFunction,SMDPad,CuDef*%
%ADD34RoundRect,0.250000X-0.300000X-0.300000X0.300000X-0.300000X0.300000X0.300000X-0.300000X0.300000X0*%
%TD*%
%TA.AperFunction,SMDPad,CuDef*%
%ADD35RoundRect,0.250000X0.625000X-0.400000X0.625000X0.400000X-0.625000X0.400000X-0.625000X-0.400000X0*%
%TD*%
%TA.AperFunction,SMDPad,CuDef*%
%ADD36RoundRect,0.250000X0.350000X0.450000X-0.350000X0.450000X-0.350000X-0.450000X0.350000X-0.450000X0*%
%TD*%
%TA.AperFunction,ComponentPad*%
%ADD37RoundRect,0.250000X0.550000X-0.550000X0.550000X0.550000X-0.550000X0.550000X-0.550000X-0.550000X0*%
%TD*%
%TA.AperFunction,SMDPad,CuDef*%
%ADD38RoundRect,0.150000X1.325000X0.150000X-1.325000X0.150000X-1.325000X-0.150000X1.325000X-0.150000X0*%
%TD*%
%TA.AperFunction,ComponentPad*%
%ADD39RoundRect,0.250000X-0.550000X-0.550000X0.550000X-0.550000X0.550000X0.550000X-0.550000X0.550000X0*%
%TD*%
%TA.AperFunction,ComponentPad*%
%ADD40C,2.500000*%
%TD*%
%TA.AperFunction,SMDPad,CuDef*%
%ADD41RoundRect,0.250000X-0.412500X-0.650000X0.412500X-0.650000X0.412500X0.650000X-0.412500X0.650000X0*%
%TD*%
%TA.AperFunction,ViaPad*%
%ADD42C,1.000000*%
%TD*%
%TA.AperFunction,Conductor*%
%ADD43C,0.500000*%
%TD*%
%TA.AperFunction,Conductor*%
%ADD44C,1.000000*%
%TD*%
%TA.AperFunction,Conductor*%
%ADD45C,2.000000*%
%TD*%
G04 APERTURE END LIST*
D10*
%TO.P,U1,1,IN+*%
%TO.N,Net-(D1-A)*%
X26000000Y-35600000D03*
%TO.P,U1,2,IN-*%
%TO.N,Net-(J1-Pin_2)*%
X32000000Y-35600000D03*
%TD*%
D11*
%TO.P,U4,4*%
%TO.N,Net-(R11-Pad1)*%
X27350000Y-44230000D03*
%TO.P,U4,3*%
%TO.N,Net-(J1-Pin_2)*%
X27350000Y-46770000D03*
%TO.P,U4,2*%
%TO.N,Net-(D3-A)*%
X19050000Y-46770000D03*
%TO.P,U4,1*%
%TO.N,Net-(J7-Pin_2)*%
X19050000Y-44230000D03*
%TD*%
D12*
%TO.P,C3,2*%
%TO.N,Net-(J1-Pin_2)*%
X29700000Y-47362500D03*
%TO.P,C3,1*%
%TO.N,Net-(D2-A)*%
X29700000Y-44237500D03*
%TD*%
D13*
%TO.P,C2,2*%
%TO.N,Net-(J1-Pin_2)*%
X28200000Y-40400000D03*
D14*
%TO.P,C2,1*%
%TO.N,Net-(D3-A)*%
X30200000Y-40400000D03*
%TD*%
D15*
%TO.P,Q1,5,D*%
%TO.N,Net-(Q1-D)*%
X28225000Y-63895000D03*
X28225000Y-62565000D03*
D16*
X25975000Y-61900000D03*
D15*
X28225000Y-61235000D03*
X28225000Y-59905000D03*
D17*
%TO.P,Q1,4,G*%
%TO.N,Net-(J8-Pin_4)*%
X22475000Y-63805000D03*
%TO.P,Q1,3,S*%
%TO.N,Net-(D1-A)*%
X22475000Y-62535000D03*
%TO.P,Q1,2,S*%
X22475000Y-61265000D03*
%TO.P,Q1,1,S*%
X22475000Y-59995000D03*
%TD*%
D18*
%TO.P,FID3,*%
%TO.N,*%
X21000000Y-35000000D03*
%TD*%
%TO.P,FID2,*%
%TO.N,*%
X32500000Y-68000000D03*
%TD*%
%TO.P,FID1,*%
%TO.N,*%
X54000000Y-20500000D03*
%TD*%
D19*
%TO.P,C7,2*%
%TO.N,Net-(J1-Pin_2)*%
X29937500Y-25600000D03*
%TO.P,C7,1*%
%TO.N,Net-(U7-OSCI)*%
X33062500Y-25600000D03*
%TD*%
D20*
%TO.P,J6,1,Pin_1*%
%TO.N,Net-(J2-Pin_4)*%
X42320000Y-28875000D03*
D21*
%TO.P,J6,2,Pin_2*%
%TO.N,Net-(J2-Pin_5)*%
X42320000Y-26335000D03*
%TO.P,J6,3,Pin_3*%
%TO.N,Net-(J5-Pin_2)*%
X44860000Y-28875000D03*
%TO.P,J6,4,Pin_4*%
%TO.N,Net-(J5-Pin_1)*%
X44860000Y-26335000D03*
%TO.P,J6,5,Pin_5*%
%TO.N,Net-(J5-Pin_4)*%
X47400000Y-28875000D03*
%TO.P,J6,6,Pin_6*%
%TO.N,Net-(J5-Pin_3)*%
X47400000Y-26335000D03*
%TO.P,J6,7,Pin_7*%
%TO.N,Net-(J5-Pin_6)*%
X49940000Y-28875000D03*
%TO.P,J6,8,Pin_8*%
%TO.N,Net-(J5-Pin_5)*%
X49940000Y-26335000D03*
%TO.P,J6,9,Pin_9*%
%TO.N,Net-(J5-Pin_8)*%
X52480000Y-28875000D03*
%TO.P,J6,10,Pin_10*%
%TO.N,Net-(J5-Pin_7)*%
X52480000Y-26335000D03*
%TD*%
D22*
%TO.P,Y1,1,1*%
%TO.N,Net-(U7-OSCI)*%
X31600000Y-27550000D03*
%TO.P,Y1,2,2*%
%TO.N,Net-(U7-OSCO)*%
X31600000Y-30050000D03*
%TD*%
D23*
%TO.P,R4,1*%
%TO.N,Net-(J8-Pin_2)*%
X44450000Y-51300000D03*
%TO.P,R4,2*%
%TO.N,Net-(U8-OUT1)*%
X41350000Y-51300000D03*
%TD*%
D24*
%TO.P,J4,1,VBUS*%
%TO.N,Net-(J3-Pin_1)*%
X32500000Y-22580000D03*
%TO.P,J4,2,D-*%
%TO.N,unconnected-(J4-D--Pad2)*%
X30000000Y-22580000D03*
%TO.P,J4,3,D+*%
%TO.N,unconnected-(J4-D+-Pad3)*%
X28000000Y-22580000D03*
%TO.P,J4,4,GND*%
%TO.N,Net-(J4-GND)*%
X25500000Y-22580000D03*
D25*
%TO.P,J4,5,Shield*%
%TO.N,Net-(J1-Pin_2)*%
X35400000Y-19500000D03*
X35400000Y-13500000D03*
X22600000Y-19500000D03*
X22600000Y-13500000D03*
%TD*%
D11*
%TO.P,U5,1*%
%TO.N,Net-(R9-Pad2)*%
X19050000Y-49530000D03*
%TO.P,U5,2*%
%TO.N,Net-(D3-A)*%
X19050000Y-52070000D03*
%TO.P,U5,3*%
%TO.N,Net-(R7-Pad1)*%
X27350000Y-52070000D03*
%TO.P,U5,4*%
%TO.N,Net-(D2-A)*%
X27350000Y-49530000D03*
%TD*%
D26*
%TO.P,R2,1*%
%TO.N,Net-(U3A--)*%
X38500000Y-49950000D03*
%TO.P,R2,2*%
%TO.N,Net-(J1-Pin_2)*%
X38500000Y-53050000D03*
%TD*%
D27*
%TO.P,R9,1*%
%TO.N,Net-(J2-Pin_2)*%
X13650000Y-39900000D03*
%TO.P,R9,2*%
%TO.N,Net-(R9-Pad2)*%
X16750000Y-39900000D03*
%TD*%
D28*
%TO.P,U6,1,IN*%
%TO.N,Net-(D1-A)*%
X35250000Y-35450000D03*
%TO.P,U6,2,GND*%
%TO.N,Net-(J1-Pin_2)*%
X35250000Y-36400000D03*
%TO.P,U6,3,EN*%
%TO.N,Net-(D1-A)*%
X35250000Y-37350000D03*
%TO.P,U6,4,NC*%
%TO.N,unconnected-(U6-NC-Pad4)*%
X37950000Y-37350000D03*
%TO.P,U6,5,OUT*%
%TO.N,Net-(U6-OUT)*%
X37950000Y-35450000D03*
%TD*%
D29*
%TO.P,R1,1*%
%TO.N,Net-(D2-A)*%
X25000000Y-57200000D03*
%TO.P,R1,2*%
%TO.N,Net-(J1-Pin_3)*%
X25000000Y-67200000D03*
%TD*%
D30*
%TO.P,U7,1,OSCI*%
%TO.N,Net-(U7-OSCI)*%
X34025000Y-27595000D03*
%TO.P,U7,2,OSCO*%
%TO.N,Net-(U7-OSCO)*%
X34025000Y-28865000D03*
%TO.P,U7,3,~{INT}*%
%TO.N,unconnected-(U7-~{INT}-Pad3)*%
X34025000Y-30135000D03*
%TO.P,U7,4,VSS*%
%TO.N,Net-(J1-Pin_2)*%
X34025000Y-31405000D03*
%TO.P,U7,5,SDA*%
%TO.N,Net-(J9-Pin_2)*%
X38975000Y-31405000D03*
%TO.P,U7,6,SCL*%
%TO.N,Net-(J9-Pin_1)*%
X38975000Y-30135000D03*
%TO.P,U7,7,CLKO*%
%TO.N,unconnected-(U7-CLKO-Pad7)*%
X38975000Y-28865000D03*
%TO.P,U7,8,VDD*%
%TO.N,Net-(U6-OUT)*%
X38975000Y-27595000D03*
%TD*%
D31*
%TO.P,Q2,1,G*%
%TO.N,Net-(J8-Pin_2)*%
X45000000Y-46750000D03*
%TO.P,Q2,2,S*%
%TO.N,Net-(J1-Pin_2)*%
X45000000Y-48650000D03*
%TO.P,Q2,3,D*%
%TO.N,Net-(Q2-D)*%
X48000000Y-47700000D03*
%TD*%
D20*
%TO.P,J7,1,Pin_1*%
%TO.N,Net-(J2-Pin_2)*%
X14600000Y-45500000D03*
D21*
%TO.P,J7,2,Pin_2*%
%TO.N,Net-(J7-Pin_2)*%
X14600000Y-48040000D03*
%TO.P,J7,3,Pin_3*%
%TO.N,Net-(D3-K)*%
X14600000Y-50580000D03*
%TD*%
D27*
%TO.P,R8,1*%
%TO.N,Net-(J2-Pin_2)*%
X13650000Y-42200000D03*
%TO.P,R8,2*%
%TO.N,Net-(J7-Pin_2)*%
X16750000Y-42200000D03*
%TD*%
D19*
%TO.P,C5,1*%
%TO.N,Net-(U6-OUT)*%
X38062500Y-25600000D03*
%TO.P,C5,2*%
%TO.N,Net-(J1-Pin_2)*%
X34937500Y-25600000D03*
%TD*%
D32*
%TO.P,D1,1,K*%
%TO.N,Net-(D1-K)*%
X24900000Y-30600000D03*
%TO.P,D1,2,A*%
%TO.N,Net-(D1-A)*%
X24900000Y-33400000D03*
%TD*%
D33*
%TO.P,R10,1*%
%TO.N,Net-(D3-A)*%
X19800000Y-39500000D03*
%TO.P,R10,2*%
%TO.N,Net-(J1-Pin_2)*%
X21800000Y-39500000D03*
%TD*%
D34*
%TO.P,D3,1,K*%
%TO.N,Net-(D3-K)*%
X19400000Y-41600000D03*
%TO.P,D3,2,A*%
%TO.N,Net-(D3-A)*%
X22200000Y-41600000D03*
%TD*%
D20*
%TO.P,J2,1,Pin_1*%
%TO.N,Net-(D1-K)*%
X14600000Y-26600000D03*
D21*
%TO.P,J2,2,Pin_2*%
%TO.N,Net-(J2-Pin_2)*%
X14600000Y-29140000D03*
%TO.P,J2,3,Pin_3*%
%TO.N,Net-(D3-K)*%
X14600000Y-31680000D03*
%TO.P,J2,4,Pin_4*%
%TO.N,Net-(J2-Pin_4)*%
X14600000Y-34220000D03*
%TO.P,J2,5,Pin_5*%
%TO.N,Net-(J2-Pin_5)*%
X14600000Y-36760000D03*
%TD*%
D35*
%TO.P,R13,1*%
%TO.N,Net-(J4-GND)*%
X22600000Y-28850000D03*
%TO.P,R13,2*%
%TO.N,Net-(J3-Pin_2)*%
X22600000Y-25750000D03*
%TD*%
D32*
%TO.P,D2,1,K*%
%TO.N,Net-(D1-K)*%
X27200000Y-30600000D03*
%TO.P,D2,2,A*%
%TO.N,Net-(D2-A)*%
X27200000Y-33400000D03*
%TD*%
D26*
%TO.P,R14,1*%
%TO.N,Net-(J3-Pin_2)*%
X20300000Y-25750000D03*
%TO.P,R14,2*%
%TO.N,Net-(J1-Pin_2)*%
X20300000Y-28850000D03*
%TD*%
D20*
%TO.P,J9,1,Pin_1*%
%TO.N,Net-(J9-Pin_1)*%
X53200000Y-40200000D03*
D21*
%TO.P,J9,2,Pin_2*%
%TO.N,Net-(J9-Pin_2)*%
X53200000Y-37660000D03*
%TD*%
D20*
%TO.P,J1,1,Pin_1*%
%TO.N,Net-(D1-A)*%
X14600000Y-54200000D03*
D21*
%TO.P,J1,2,Pin_2*%
%TO.N,Net-(J1-Pin_2)*%
X14600000Y-56740000D03*
%TO.P,J1,3,Pin_3*%
%TO.N,Net-(J1-Pin_3)*%
X14600000Y-59280000D03*
%TO.P,J1,4,Pin_4*%
%TO.N,Net-(J1-Pin_2)*%
X14600000Y-61820000D03*
%TD*%
D36*
%TO.P,R5,1*%
%TO.N,Net-(J8-Pin_3)*%
X52100000Y-48400000D03*
%TO.P,R5,2*%
%TO.N,Net-(Q2-D)*%
X50100000Y-48400000D03*
%TD*%
D19*
%TO.P,C6,1*%
%TO.N,Net-(U6-OUT)*%
X38162500Y-33400000D03*
%TO.P,C6,2*%
%TO.N,Net-(J1-Pin_2)*%
X35037500Y-33400000D03*
%TD*%
D37*
%TO.P,U8,1,OUT1*%
%TO.N,Net-(U8-OUT1)*%
X33990000Y-47905000D03*
D13*
%TO.P,U8,2,V1-*%
%TO.N,Net-(U3A--)*%
X36530000Y-47905000D03*
%TO.P,U8,3,V1+*%
%TO.N,Net-(J1-Pin_3)*%
X39070000Y-47905000D03*
%TO.P,U8,4,GND*%
%TO.N,Net-(J1-Pin_2)*%
X41610000Y-47905000D03*
%TO.P,U8,5,V2+*%
X41610000Y-40285000D03*
%TO.P,U8,6,V2-*%
X39070000Y-40285000D03*
%TO.P,U8,7,OUT2*%
X36530000Y-40285000D03*
%TO.P,U8,8,VDD*%
%TO.N,Net-(D2-A)*%
X33990000Y-40285000D03*
%TD*%
D20*
%TO.P,J8,1,Pin_1*%
%TO.N,Net-(J1-Pin_2)*%
X42600000Y-33700000D03*
D21*
%TO.P,J8,2,Pin_2*%
%TO.N,Net-(J8-Pin_2)*%
X45140000Y-33700000D03*
%TO.P,J8,3,Pin_3*%
%TO.N,Net-(J8-Pin_3)*%
X47680000Y-33700000D03*
%TO.P,J8,4,Pin_4*%
%TO.N,Net-(J8-Pin_4)*%
X50220000Y-33700000D03*
%TO.P,J8,5,Pin_5*%
%TO.N,Net-(D2-A)*%
X52760000Y-33700000D03*
%TD*%
D33*
%TO.P,R6,1*%
%TO.N,Net-(D2-A)*%
X50100000Y-46500000D03*
%TO.P,R6,2*%
%TO.N,Net-(J8-Pin_3)*%
X52100000Y-46500000D03*
%TD*%
D20*
%TO.P,J3,1,Pin_1*%
%TO.N,Net-(J3-Pin_1)*%
X14600000Y-20500000D03*
D21*
%TO.P,J3,2,Pin_2*%
%TO.N,Net-(J3-Pin_2)*%
X14600000Y-23040000D03*
%TD*%
D38*
%TO.P,U3,1*%
%TO.N,Net-(U8-OUT1)*%
X40775000Y-46005000D03*
%TO.P,U3,2,-*%
%TO.N,Net-(U3A--)*%
X40775000Y-44735000D03*
%TO.P,U3,3,+*%
%TO.N,Net-(J1-Pin_3)*%
X40775000Y-43465000D03*
%TO.P,U3,4,V-*%
%TO.N,Net-(J1-Pin_2)*%
X40775000Y-42195000D03*
%TO.P,U3,5,+*%
X34825000Y-42195000D03*
%TO.P,U3,6,-*%
X34825000Y-43465000D03*
%TO.P,U3,7*%
X34825000Y-44735000D03*
%TO.P,U3,8,V+*%
%TO.N,Net-(D2-A)*%
X34825000Y-46005000D03*
%TD*%
D27*
%TO.P,R7,1*%
%TO.N,Net-(R7-Pad1)*%
X48950000Y-51300000D03*
%TO.P,R7,2*%
%TO.N,Net-(J8-Pin_3)*%
X52050000Y-51300000D03*
%TD*%
D20*
%TO.P,J5,1,Pin_1*%
%TO.N,Net-(J5-Pin_1)*%
X40190000Y-22740000D03*
D21*
%TO.P,J5,2,Pin_2*%
%TO.N,Net-(J5-Pin_2)*%
X40190000Y-20200000D03*
%TO.P,J5,3,Pin_3*%
%TO.N,Net-(J5-Pin_3)*%
X42730000Y-22740000D03*
%TO.P,J5,4,Pin_4*%
%TO.N,Net-(J5-Pin_4)*%
X42730000Y-20200000D03*
%TO.P,J5,5,Pin_5*%
%TO.N,Net-(J5-Pin_5)*%
X45270000Y-22740000D03*
%TO.P,J5,6,Pin_6*%
%TO.N,Net-(J5-Pin_6)*%
X45270000Y-20200000D03*
%TO.P,J5,7,Pin_7*%
%TO.N,Net-(J5-Pin_7)*%
X47810000Y-22740000D03*
%TO.P,J5,8,Pin_8*%
%TO.N,Net-(J5-Pin_8)*%
X47810000Y-20200000D03*
%TD*%
D31*
%TO.P,Q3,1,G*%
%TO.N,Net-(J8-Pin_3)*%
X48800000Y-53250000D03*
%TO.P,Q3,2,S*%
%TO.N,Net-(J1-Pin_2)*%
X48800000Y-55150000D03*
%TO.P,Q3,3,D*%
%TO.N,Net-(J8-Pin_4)*%
X51800000Y-54200000D03*
%TD*%
D39*
%TO.P,C1,1*%
%TO.N,Net-(J8-Pin_3)*%
X45317621Y-39800000D03*
D13*
%TO.P,C1,2*%
%TO.N,Net-(J1-Pin_2)*%
X47817621Y-39800000D03*
%TD*%
D23*
%TO.P,R11,1*%
%TO.N,Net-(R11-Pad1)*%
X53850000Y-57100000D03*
%TO.P,R11,2*%
%TO.N,Net-(J8-Pin_4)*%
X50750000Y-57100000D03*
%TD*%
%TO.P,R12,1*%
%TO.N,Net-(J8-Pin_4)*%
X53850000Y-60200000D03*
%TO.P,R12,2*%
%TO.N,Net-(D1-A)*%
X50750000Y-60200000D03*
%TD*%
D40*
%TO.P,U2,1,IN+*%
%TO.N,Net-(Q1-D)*%
X29000000Y-57800000D03*
%TO.P,U2,2,IN-*%
%TO.N,Net-(J1-Pin_2)*%
X29000000Y-67800000D03*
%TO.P,U2,3,OUT+*%
%TO.N,Net-(D2-A)*%
X47000000Y-57800000D03*
%TO.P,U2,4,OUT-*%
%TO.N,Net-(J1-Pin_2)*%
X47000000Y-67800000D03*
%TD*%
D35*
%TO.P,R3,1*%
%TO.N,Net-(D2-A)*%
X35400000Y-53050000D03*
%TO.P,R3,2*%
%TO.N,Net-(U3A--)*%
X35400000Y-49950000D03*
%TD*%
D41*
%TO.P,C4,1*%
%TO.N,Net-(J8-Pin_2)*%
X45137500Y-44800000D03*
%TO.P,C4,2*%
%TO.N,Net-(J1-Pin_2)*%
X48262500Y-44800000D03*
%TD*%
D19*
%TO.P,C8,2*%
%TO.N,Net-(J1-Pin_2)*%
X26337500Y-27900000D03*
%TO.P,C8,1*%
%TO.N,Net-(U7-OSCI)*%
X29462500Y-27900000D03*
%TD*%
D42*
%TO.N,Net-(J8-Pin_2)*%
X43700000Y-38500000D03*
%TO.N,Net-(J1-Pin_2)*%
X26400000Y-26200000D03*
X28500000Y-26200000D03*
X28500000Y-24900000D03*
%TO.N,Net-(D2-A)*%
X31511212Y-37799000D03*
X37210508Y-41842857D03*
X50549001Y-38853010D03*
X49187219Y-46486383D03*
X47000000Y-54200000D03*
%TO.N,Net-(J1-Pin_2)*%
X38500000Y-51500000D03*
X45009845Y-49535216D03*
X29700000Y-45800000D03*
X32000000Y-31500000D03*
X18513173Y-28886827D03*
X30400000Y-31500000D03*
X49400000Y-58550000D03*
%TO.N,Net-(D1-A)*%
X30900000Y-59200000D03*
%TO.N,Net-(J1-Pin_3)*%
X39000000Y-43500000D03*
%TO.N,Net-(J2-Pin_4)*%
X16414951Y-20300000D03*
%TO.N,Net-(J2-Pin_5)*%
X37280121Y-23856697D03*
X17814954Y-20300000D03*
%TO.N,Net-(J7-Pin_2)*%
X17251000Y-46000000D03*
%TO.N,Net-(U8-OUT1)*%
X41388090Y-49590456D03*
X39000000Y-46000000D03*
%TO.N,Net-(J8-Pin_3)*%
X50005654Y-53232000D03*
X52100000Y-49700000D03*
%TO.N,Net-(J8-Pin_4)*%
X50800000Y-55700000D03*
%TD*%
D43*
%TO.N,Net-(D3-A)*%
X27100000Y-41851000D02*
X29549000Y-41851000D01*
%TO.N,Net-(R11-Pad1)*%
X27350000Y-44230000D02*
X28656000Y-42924000D01*
%TO.N,Net-(J1-Pin_2)*%
X26337500Y-26262500D02*
X26400000Y-26200000D01*
X26337500Y-27900000D02*
X26337500Y-26262500D01*
X28037500Y-26200000D02*
X26337500Y-27900000D01*
X28500000Y-26200000D02*
X28037500Y-26200000D01*
X29100000Y-25600000D02*
X28500000Y-26200000D01*
X29200000Y-25600000D02*
X29100000Y-25600000D01*
X29200000Y-25600000D02*
X28500000Y-24900000D01*
X29937500Y-25600000D02*
X29200000Y-25600000D01*
%TO.N,Net-(U7-OSCI)*%
X29812500Y-27550000D02*
X29462500Y-27900000D01*
X31600000Y-27550000D02*
X29812500Y-27550000D01*
D44*
%TO.N,Net-(J4-GND)*%
X25500000Y-24100000D02*
X25500000Y-22580000D01*
X24400000Y-25200000D02*
X25500000Y-24100000D01*
X24400000Y-27050000D02*
X24400000Y-25200000D01*
X22600000Y-28850000D02*
X24400000Y-27050000D01*
D43*
%TO.N,Net-(J1-Pin_2)*%
X27300000Y-39500000D02*
X28200000Y-40400000D01*
X21800000Y-39500000D02*
X27300000Y-39500000D01*
%TO.N,Net-(D3-A)*%
X25749000Y-43202000D02*
X27100000Y-41851000D01*
X25749000Y-44225206D02*
X25749000Y-43202000D01*
X22451000Y-41851000D02*
X27100000Y-41851000D01*
X30200000Y-41200000D02*
X30200000Y-40400000D01*
X22200000Y-41600000D02*
X22451000Y-41851000D01*
X29549000Y-41851000D02*
X30200000Y-41200000D01*
%TO.N,Net-(D2-A)*%
X30760580Y-37799000D02*
X29349000Y-36387420D01*
X31511212Y-37799000D02*
X30760580Y-37799000D01*
%TO.N,Net-(D1-A)*%
X31949000Y-38949000D02*
X29349000Y-38949000D01*
X31974385Y-38974385D02*
X31949000Y-38949000D01*
X33598770Y-37350000D02*
X31974385Y-38974385D01*
X29349000Y-38949000D02*
X26000000Y-35600000D01*
X35250000Y-37350000D02*
X33598770Y-37350000D01*
%TO.N,Net-(D3-A)*%
X30647976Y-39952024D02*
X30700000Y-39952024D01*
X30200000Y-40400000D02*
X30647976Y-39952024D01*
%TO.N,Net-(R11-Pad1)*%
X54301999Y-56648001D02*
X53850000Y-57100000D01*
X47418645Y-37349000D02*
X54301999Y-44232354D01*
X39744544Y-37349000D02*
X47418645Y-37349000D01*
X30076794Y-42924000D02*
X30076794Y-42904340D01*
X32539000Y-40442134D02*
X32539000Y-39683976D01*
X54301999Y-44232354D02*
X54301999Y-56648001D01*
X33388976Y-38834000D02*
X38259544Y-38834000D01*
X38259544Y-38834000D02*
X39744544Y-37349000D01*
X28656000Y-42924000D02*
X30076794Y-42924000D01*
X32539000Y-39683976D02*
X33388976Y-38834000D01*
X30076794Y-42904340D02*
X32539000Y-40442134D01*
%TO.N,Net-(D2-A)*%
X29349000Y-35510580D02*
X27238420Y-33400000D01*
X29349000Y-36387420D02*
X29349000Y-35510580D01*
X27238420Y-33400000D02*
X27200000Y-33400000D01*
%TO.N,Net-(D3-A)*%
X20749000Y-50371000D02*
X20749000Y-49225206D01*
X20749000Y-49225206D02*
X25749000Y-44225206D01*
X19050000Y-52070000D02*
X20749000Y-50371000D01*
%TO.N,Net-(D2-A)*%
X31549000Y-46021240D02*
X31549000Y-42726000D01*
X33990000Y-40285000D02*
X31549000Y-42726000D01*
X30037500Y-44237500D02*
X29700000Y-44237500D01*
X31549000Y-42726000D02*
X30037500Y-44237500D01*
X27350000Y-49530000D02*
X25000000Y-51880000D01*
D45*
X27051000Y-55149000D02*
X25000000Y-57200000D01*
D43*
X35400000Y-52256134D02*
X35400000Y-53050000D01*
X36166942Y-46005000D02*
X36948000Y-45223942D01*
X34825000Y-46005000D02*
X36166942Y-46005000D01*
X31549000Y-46021240D02*
X31549000Y-48405134D01*
X29700000Y-44237500D02*
X29765260Y-44237500D01*
X29100000Y-49530000D02*
X27350000Y-49530000D01*
X30424134Y-49530000D02*
X31549000Y-48405134D01*
D45*
X32749081Y-57800000D02*
X30098081Y-55149000D01*
D43*
X47000000Y-57800000D02*
X47000000Y-54200000D01*
X49200836Y-46500000D02*
X49187219Y-46486383D01*
X31549000Y-48405134D02*
X35400000Y-52256134D01*
X29100000Y-49530000D02*
X30424134Y-49530000D01*
X36948000Y-45223942D02*
X36948001Y-45150033D01*
X29765260Y-44237500D02*
X31549000Y-46021240D01*
X50549001Y-38853010D02*
X50549001Y-35910999D01*
X25000000Y-51880000D02*
X25000000Y-57200000D01*
X37210508Y-44887526D02*
X37210508Y-41842857D01*
D45*
X30098081Y-55149000D02*
X27051000Y-55149000D01*
D43*
X50549001Y-35910999D02*
X52760000Y-33700000D01*
X36948001Y-45150033D02*
X37210508Y-44887526D01*
D45*
X32749081Y-57800000D02*
X47000000Y-57800000D01*
D43*
X50100000Y-46500000D02*
X49200836Y-46500000D01*
%TO.N,Net-(J1-Pin_2)*%
X48262500Y-40244879D02*
X47817621Y-39800000D01*
X48262500Y-44800000D02*
X48262500Y-40244879D01*
X29107500Y-46770000D02*
X29700000Y-47362500D01*
X41610000Y-40285000D02*
X36530000Y-40285000D01*
X35721000Y-30550942D02*
X34866942Y-31405000D01*
X17106016Y-52549000D02*
X18099016Y-53542000D01*
X12949000Y-52849000D02*
X13249000Y-52549000D01*
X34825000Y-42195000D02*
X34825000Y-44735000D01*
X12949000Y-56291081D02*
X12949000Y-52849000D01*
X34937500Y-25600000D02*
X35721000Y-26383500D01*
X34825000Y-42195000D02*
X34825000Y-41990000D01*
X35037500Y-32417500D02*
X34025000Y-31405000D01*
X20263173Y-28886827D02*
X20300000Y-28850000D01*
X40775000Y-42195000D02*
X40775000Y-41120000D01*
X35721000Y-26383500D02*
X35721000Y-30550942D01*
X31651472Y-35600000D02*
X32000000Y-35600000D01*
X48800000Y-55150000D02*
X49400000Y-55750000D01*
X35250000Y-36400000D02*
X32800000Y-36400000D01*
X32005000Y-31405000D02*
X32000000Y-31400000D01*
X14600000Y-56740000D02*
X13397919Y-56740000D01*
X38500000Y-53050000D02*
X38500000Y-51500000D01*
X34866942Y-31405000D02*
X34025000Y-31405000D01*
X27350000Y-46770000D02*
X29107500Y-46770000D01*
X20578000Y-53542000D02*
X27350000Y-46770000D01*
X32000000Y-35600000D02*
X32837500Y-35600000D01*
X13397919Y-56740000D02*
X12949000Y-56291081D01*
X18099016Y-53542000D02*
X20578000Y-53542000D01*
X49400000Y-55750000D02*
X49400000Y-58550000D01*
X45009845Y-49535216D02*
X45009845Y-48659845D01*
X40775000Y-41120000D02*
X41610000Y-40285000D01*
X30998586Y-35600000D02*
X32000000Y-35600000D01*
X30400000Y-31500000D02*
X32000000Y-31500000D01*
X29700000Y-47362500D02*
X29700000Y-45800000D01*
X32025000Y-31375000D02*
X32000000Y-31400000D01*
X33930000Y-31500000D02*
X34025000Y-31405000D01*
X31918866Y-35600000D02*
X32000000Y-35600000D01*
X45009845Y-48659845D02*
X45000000Y-48650000D01*
X18513173Y-28886827D02*
X20263173Y-28886827D01*
X29937500Y-25600000D02*
X29650003Y-25600000D01*
X32000000Y-31500000D02*
X33930000Y-31500000D01*
X35037500Y-33400000D02*
X35037500Y-32417500D01*
X13249000Y-52549000D02*
X17106016Y-52549000D01*
X34825000Y-41990000D02*
X36530000Y-40285000D01*
X32800000Y-36400000D02*
X32000000Y-35600000D01*
X32837500Y-35600000D02*
X35037500Y-33400000D01*
%TO.N,Net-(Q2-D)*%
X48700000Y-48400000D02*
X50100000Y-48400000D01*
X48000000Y-47700000D02*
X48700000Y-48400000D01*
%TO.N,Net-(D3-A)*%
X17449000Y-48371000D02*
X17449000Y-50469000D01*
X19800000Y-39581134D02*
X21818866Y-41600000D01*
X17449000Y-50469000D02*
X19050000Y-52070000D01*
X19800000Y-39500000D02*
X19800000Y-39581134D01*
X19050000Y-46770000D02*
X17449000Y-48371000D01*
%TO.N,Net-(D1-K)*%
X24900000Y-30600000D02*
X18600000Y-30600000D01*
X14500000Y-26600000D02*
X14599000Y-26699000D01*
X27200000Y-30600000D02*
X24900000Y-30600000D01*
X18600000Y-30600000D02*
X14600000Y-26600000D01*
%TO.N,Net-(D1-A)*%
X26800000Y-34800000D02*
X26000000Y-35600000D01*
X36581000Y-35937456D02*
X36093544Y-35450000D01*
D44*
X22475000Y-62535000D02*
X21935000Y-62535000D01*
D45*
X21935000Y-60891605D02*
X21935000Y-62079000D01*
D43*
X36093544Y-35450000D02*
X35250000Y-35450000D01*
D45*
X21935000Y-59511840D02*
X21935000Y-60891605D01*
D43*
X50750000Y-60621137D02*
X50750000Y-60200000D01*
X36581000Y-36862544D02*
X36581000Y-35937456D01*
D45*
X21935000Y-60891605D02*
X15243395Y-54200000D01*
D43*
X25749000Y-35851000D02*
X26000000Y-35600000D01*
D44*
X22475000Y-62535000D02*
X22475000Y-59995000D01*
D43*
X35797000Y-64097000D02*
X47274137Y-64097000D01*
X30900000Y-59200000D02*
X35797000Y-64097000D01*
X24900000Y-34500000D02*
X26000000Y-35600000D01*
D45*
X15243395Y-54200000D02*
X14600000Y-54200000D01*
D43*
X47274137Y-64097000D02*
X50750000Y-60621137D01*
X36093544Y-37350000D02*
X36581000Y-36862544D01*
X24900000Y-33400000D02*
X24900000Y-34500000D01*
X26000000Y-35600000D02*
X25849000Y-35751000D01*
D44*
%TO.N,Net-(J3-Pin_2)*%
X17310000Y-25750000D02*
X14600000Y-23040000D01*
X22600000Y-25750000D02*
X20300000Y-25750000D01*
X20300000Y-25750000D02*
X17310000Y-25750000D01*
%TO.N,Net-(J3-Pin_1)*%
X32500000Y-21705001D02*
X32500000Y-22580000D01*
X23771174Y-21700000D02*
X24667174Y-20804000D01*
X31598999Y-20804000D02*
X32500000Y-21705001D01*
X32500000Y-22471174D02*
X32500000Y-22630000D01*
X24667174Y-20804000D02*
X31598999Y-20804000D01*
X15800000Y-21700000D02*
X23771174Y-21700000D01*
X14600000Y-20500000D02*
X15800000Y-21700000D01*
D43*
%TO.N,Net-(J5-Pin_3)*%
X44824000Y-24834000D02*
X45899000Y-24834000D01*
X45899000Y-24834000D02*
X47400000Y-26335000D01*
X42730000Y-22740000D02*
X44824000Y-24834000D01*
%TO.N,Net-(J5-Pin_7)*%
X47810000Y-22740000D02*
X48885000Y-22740000D01*
X48885000Y-22740000D02*
X52480000Y-26335000D01*
%TO.N,Net-(J5-Pin_5)*%
X45270000Y-22740000D02*
X46771000Y-24241000D01*
X46771000Y-24241000D02*
X47846000Y-24241000D01*
X47846000Y-24241000D02*
X49940000Y-26335000D01*
%TO.N,Net-(J5-Pin_1)*%
X42766000Y-24241000D02*
X44860000Y-26335000D01*
X40190000Y-22740000D02*
X41691000Y-24241000D01*
X41691000Y-24241000D02*
X42766000Y-24241000D01*
%TO.N,Net-(J5-Pin_4)*%
X42730000Y-20200000D02*
X44231000Y-18699000D01*
X53101735Y-30376000D02*
X48901000Y-30376000D01*
X44231000Y-18699000D02*
X48431735Y-18699000D01*
X48431735Y-18699000D02*
X54881999Y-25149264D01*
X54881999Y-28595736D02*
X53101735Y-30376000D01*
X48901000Y-30376000D02*
X47400000Y-28875000D01*
X54881999Y-25149264D02*
X54881999Y-28595736D01*
%TO.N,Net-(J5-Pin_8)*%
X48467735Y-20200000D02*
X53981000Y-25713265D01*
X47810000Y-20200000D02*
X48467735Y-20200000D01*
X53981000Y-27374000D02*
X52480000Y-28875000D01*
X53981000Y-25713265D02*
X53981000Y-27374000D01*
%TO.N,Net-(J2-Pin_2)*%
X12999000Y-39249000D02*
X12999000Y-30741000D01*
X14600000Y-45500000D02*
X13650000Y-44550000D01*
X12999000Y-30741000D02*
X14600000Y-29140000D01*
X13650000Y-44550000D02*
X13650000Y-42200000D01*
X13650000Y-39900000D02*
X13650000Y-42200000D01*
X12999000Y-39249000D02*
X13650000Y-39900000D01*
%TO.N,Net-(J4-GND)*%
X25500000Y-22830000D02*
X25500000Y-22850000D01*
%TO.N,Net-(U6-OUT)*%
X37950000Y-33612500D02*
X38162500Y-33400000D01*
X38133058Y-27595000D02*
X38975000Y-27595000D01*
X38062500Y-26582500D02*
X39045000Y-27565000D01*
X37349000Y-32586500D02*
X37349000Y-28379058D01*
X38062500Y-25600000D02*
X38062500Y-26582500D01*
X38162500Y-33400000D02*
X37349000Y-32586500D01*
X37349000Y-28379058D02*
X38133058Y-27595000D01*
X37950000Y-35450000D02*
X37950000Y-33612500D01*
%TO.N,Net-(D3-K)*%
X16101000Y-49079000D02*
X16101000Y-43857134D01*
X15449000Y-38033735D02*
X16101000Y-37381735D01*
X14600000Y-32097265D02*
X16101000Y-33598265D01*
X14600000Y-31680000D02*
X14600000Y-32097265D01*
X14600000Y-50580000D02*
X16101000Y-49079000D01*
X14600000Y-31680000D02*
X14600000Y-31725247D01*
X15449000Y-43205134D02*
X15449000Y-38033735D01*
X19400000Y-41181134D02*
X18525000Y-40306134D01*
X16101000Y-33598265D02*
X16101000Y-37381735D01*
X16931735Y-37381735D02*
X18525000Y-38975000D01*
X16101000Y-43857134D02*
X15449000Y-43205134D01*
X16931735Y-37381735D02*
X16101000Y-37381735D01*
X18525000Y-40306134D02*
X18525000Y-38975000D01*
X19400000Y-41600000D02*
X19400000Y-41181134D01*
%TO.N,Net-(U7-OSCI)*%
X31645000Y-27595000D02*
X31600000Y-27550000D01*
X33137500Y-25812500D02*
X33137500Y-25600000D01*
X33062500Y-25600000D02*
X33062500Y-26087500D01*
X34025000Y-27595000D02*
X31645000Y-27595000D01*
D45*
%TO.N,Net-(J1-Pin_3)*%
X20474000Y-64795320D02*
X22878680Y-67200000D01*
D43*
X50251000Y-50294866D02*
X50251000Y-51851000D01*
X25100000Y-67300000D02*
X25000000Y-67200000D01*
D45*
X20474000Y-64510605D02*
X20474000Y-64795320D01*
D43*
X27101000Y-65899000D02*
X25700000Y-67300000D01*
X49730134Y-49774000D02*
X50251000Y-50294866D01*
X47649000Y-50294866D02*
X48169866Y-49774000D01*
X39070000Y-47905000D02*
X40026000Y-48861000D01*
X52549000Y-56094866D02*
X52549000Y-58105134D01*
X52549000Y-58105134D02*
X53117866Y-58674000D01*
X50251000Y-51851000D02*
X51226000Y-52826000D01*
X40026000Y-48861000D02*
X40026000Y-52282134D01*
X50919549Y-63000000D02*
X48020549Y-65899000D01*
X48020549Y-65899000D02*
X27101000Y-65899000D01*
X39088544Y-47905000D02*
X39070000Y-47905000D01*
X45184201Y-52871933D02*
X47649000Y-50407134D01*
X53117866Y-58674000D02*
X54630134Y-58674000D01*
X24800000Y-67500000D02*
X25000000Y-67300000D01*
D45*
X22878680Y-67200000D02*
X25000000Y-67200000D01*
X15243395Y-59280000D02*
X20474000Y-64510605D01*
D43*
X40026000Y-52282134D02*
X40615799Y-52871933D01*
X25700000Y-67300000D02*
X25100000Y-67300000D01*
X52585038Y-52826000D02*
X53401000Y-53641962D01*
X53356134Y-63000000D02*
X50919549Y-63000000D01*
X54630134Y-58674000D02*
X55151000Y-59194866D01*
X53401000Y-53641962D02*
X53401000Y-55242866D01*
X25000000Y-67300000D02*
X25000000Y-67200000D01*
D45*
X15243395Y-59280000D02*
X14600000Y-59280000D01*
D43*
X40615799Y-52871933D02*
X45184201Y-52871933D01*
X48169866Y-49774000D02*
X49730134Y-49774000D01*
X53401000Y-55242866D02*
X52549000Y-56094866D01*
X51226000Y-52826000D02*
X52585038Y-52826000D01*
X55151000Y-59194866D02*
X55151000Y-61205134D01*
X47649000Y-50407134D02*
X47649000Y-50294866D01*
X55151000Y-61205134D02*
X53356134Y-63000000D01*
%TO.N,Net-(J2-Pin_4)*%
X16414951Y-20300000D02*
X16414951Y-20072243D01*
X16414951Y-20072243D02*
X19787194Y-16700000D01*
X38400000Y-18856611D02*
X38400000Y-23593866D01*
X36243389Y-16700000D02*
X38400000Y-18856611D01*
X40601000Y-27156000D02*
X42320000Y-28875000D01*
X42048794Y-28875000D02*
X42320000Y-28875000D01*
X40601000Y-25794866D02*
X40601000Y-27156000D01*
X41847240Y-28875000D02*
X42320000Y-28875000D01*
X38400000Y-23593866D02*
X40601000Y-25794866D01*
X19787194Y-16700000D02*
X36243389Y-16700000D01*
%TO.N,Net-(J2-Pin_5)*%
X42320000Y-26335000D02*
X42320000Y-26161000D01*
X17814954Y-20300000D02*
X20465954Y-17649000D01*
X37280121Y-19010940D02*
X37280121Y-23856697D01*
X20465954Y-17649000D02*
X35500000Y-17649000D01*
X36184590Y-17915410D02*
X36651000Y-18381819D01*
X36651000Y-18381819D02*
X37280121Y-19010940D01*
X35918181Y-17649000D02*
X36184590Y-17915410D01*
X35500000Y-17649000D02*
X35918181Y-17649000D01*
%TO.N,Net-(J7-Pin_2)*%
X19050000Y-44230000D02*
X18780000Y-44230000D01*
X19050000Y-44230000D02*
X19021000Y-44230000D01*
X18780000Y-44230000D02*
X16750000Y-42200000D01*
X19050000Y-44130000D02*
X18967630Y-44130000D01*
X19021000Y-44230000D02*
X17251000Y-46000000D01*
X19050000Y-44130000D02*
X18680000Y-44130000D01*
X14500000Y-48040000D02*
X14038000Y-48040000D01*
%TO.N,Net-(Q1-D)*%
X25975000Y-61216974D02*
X25975000Y-61900000D01*
D45*
X25975000Y-60825000D02*
X29000000Y-57800000D01*
X25975000Y-61900000D02*
X25975000Y-60825000D01*
D43*
%TO.N,Net-(U8-OUT1)*%
X41350000Y-51300000D02*
X41350000Y-49628546D01*
X41350000Y-49628546D02*
X41388090Y-49590456D01*
%TO.N,Net-(J8-Pin_3)*%
X49987654Y-53250000D02*
X50005654Y-53232000D01*
X52100000Y-46500000D02*
X52100000Y-48400000D01*
X52050000Y-51300000D02*
X52050000Y-51811712D01*
X52100000Y-48400000D02*
X52100000Y-49700000D01*
X52100000Y-49700000D02*
X52100000Y-51250000D01*
X48800000Y-53250000D02*
X49987654Y-53250000D01*
X52100000Y-51250000D02*
X52050000Y-51300000D01*
%TO.N,Net-(J9-Pin_2)*%
X54261000Y-36599000D02*
X54261000Y-33078265D01*
X53200000Y-37660000D02*
X54261000Y-36599000D01*
X40718792Y-32177999D02*
X39945793Y-31405000D01*
X53360734Y-32177999D02*
X40718792Y-32177999D01*
X39945793Y-31405000D02*
X38975000Y-31405000D01*
X54261000Y-33078265D02*
X53360734Y-32177999D01*
%TO.N,Net-(J9-Pin_1)*%
X53733941Y-31277000D02*
X55162000Y-32705059D01*
X41091999Y-31277000D02*
X39949999Y-30135000D01*
X55162000Y-38238000D02*
X55162000Y-32705059D01*
X41091999Y-31277000D02*
X53733941Y-31277000D01*
X39949999Y-30135000D02*
X38975000Y-30135000D01*
X55162000Y-38238000D02*
X53200000Y-40200000D01*
%TO.N,Net-(R7-Pad1)*%
X40083201Y-53772933D02*
X40989006Y-53772932D01*
X32113866Y-52070000D02*
X34394866Y-54351000D01*
X48030340Y-51300000D02*
X48950000Y-51300000D01*
X27350000Y-52070000D02*
X32113866Y-52070000D01*
X34394866Y-54351000D02*
X39505134Y-54351000D01*
X39505134Y-54351000D02*
X40083201Y-53772933D01*
X40989006Y-53772932D02*
X45557408Y-53772932D01*
X45557408Y-53772932D02*
X48030340Y-51300000D01*
%TO.N,Net-(U7-OSCO)*%
X34025000Y-28865000D02*
X32785000Y-28865000D01*
X32785000Y-28865000D02*
X31600000Y-30050000D01*
%TO.N,Net-(R9-Pad2)*%
X16750000Y-39900000D02*
X16756134Y-39900000D01*
X21300000Y-44079016D02*
X21300000Y-47280000D01*
X18658820Y-42829000D02*
X20049984Y-42829000D01*
X21300000Y-47280000D02*
X19050000Y-49530000D01*
X18051000Y-41194866D02*
X18051000Y-42221180D01*
X18051000Y-42221180D02*
X18658820Y-42829000D01*
X16756134Y-39900000D02*
X18051000Y-41194866D01*
X20049984Y-42829000D02*
X21300000Y-44079016D01*
%TO.N,Net-(J8-Pin_2)*%
X43399000Y-48091962D02*
X43399000Y-50249000D01*
X45000000Y-46750000D02*
X44740962Y-46750000D01*
X45000000Y-46750000D02*
X45000000Y-44937500D01*
X45000000Y-44937500D02*
X45137500Y-44800000D01*
X44740962Y-46750000D02*
X43399000Y-48091962D01*
X43399000Y-50249000D02*
X44450000Y-51300000D01*
%TO.N,Net-(J8-Pin_4)*%
X22475000Y-64302000D02*
X23171000Y-64998000D01*
X50750000Y-57100000D02*
X50750000Y-55750000D01*
X47647343Y-64998000D02*
X50546343Y-62099000D01*
X50750000Y-57893866D02*
X53056134Y-60200000D01*
X23171000Y-64998000D02*
X47647343Y-64998000D01*
X50750000Y-55750000D02*
X50800000Y-55700000D01*
X53850000Y-61231928D02*
X53850000Y-60200000D01*
X50546343Y-62099000D02*
X52982927Y-62099001D01*
X50750000Y-57100000D02*
X50750000Y-57893866D01*
X50800000Y-55200000D02*
X51800000Y-54200000D01*
X53056134Y-60200000D02*
X53850000Y-60200000D01*
X22475000Y-63805000D02*
X22475000Y-64302000D01*
X52982927Y-62099001D02*
X53850000Y-61231928D01*
X50800000Y-55700000D02*
X50800000Y-55200000D01*
%TO.N,Net-(U3A--)*%
X36530000Y-47980000D02*
X38500000Y-49950000D01*
X40775000Y-44735000D02*
X38637240Y-44735000D01*
X36530000Y-47905000D02*
X36530000Y-48820000D01*
X36530000Y-48820000D02*
X35400000Y-49950000D01*
X38637240Y-44735000D02*
X37849000Y-45523240D01*
X37849000Y-45523240D02*
X37849000Y-46586000D01*
X37849000Y-46586000D02*
X36530000Y-47905000D01*
X35400000Y-49950000D02*
X38500000Y-49950000D01*
%TO.N,Net-(D3-A)*%
X21818866Y-41600000D02*
X22200000Y-41600000D01*
%TO.N,Net-(U7-OSCI)*%
X33062500Y-25600000D02*
X33062500Y-26632500D01*
X33062500Y-26087500D02*
X31600000Y-27550000D01*
X33062500Y-26632500D02*
X34025000Y-27595000D01*
%TO.N,Net-(J8-Pin_2)*%
X43700000Y-43362500D02*
X45137500Y-44800000D01*
X43700000Y-38500000D02*
X43700000Y-43362500D01*
%TD*%
%TA.AperFunction,Conductor*%
%TO.N,Net-(D1-A)*%
G36*
X16852747Y-53219685D02*
G01*
X16873389Y-53236319D01*
X17684341Y-54047272D01*
X17684344Y-54047275D01*
X17684347Y-54047277D01*
X17734456Y-54080758D01*
X17790889Y-54118465D01*
X17909272Y-54167501D01*
X17909276Y-54167501D01*
X17909277Y-54167502D01*
X18034944Y-54192500D01*
X18034947Y-54192500D01*
X20642071Y-54192500D01*
X20726615Y-54175682D01*
X20767744Y-54167501D01*
X20886127Y-54118465D01*
X20942560Y-54080758D01*
X20992669Y-54047277D01*
X21803627Y-53236319D01*
X21864950Y-53202834D01*
X21891308Y-53200000D01*
X22976000Y-53200000D01*
X23043039Y-53219685D01*
X23088794Y-53272489D01*
X23100000Y-53324000D01*
X23100000Y-57063747D01*
X23099735Y-57071856D01*
X23099500Y-57075441D01*
X23099500Y-57324559D01*
X23099735Y-57328145D01*
X23100000Y-57336254D01*
X23100000Y-62957931D01*
X23080315Y-63024970D01*
X23027511Y-63070725D01*
X22959821Y-63080871D01*
X22949411Y-63079501D01*
X22949406Y-63079500D01*
X22949401Y-63079500D01*
X22949394Y-63079500D01*
X22000596Y-63079500D01*
X21890536Y-63093988D01*
X21883876Y-63095774D01*
X21851778Y-63100000D01*
X21095363Y-63100000D01*
X21065922Y-63091355D01*
X21035936Y-63084832D01*
X21030920Y-63081077D01*
X21028324Y-63080315D01*
X21007682Y-63063681D01*
X20936319Y-62992318D01*
X20902834Y-62930995D01*
X20900000Y-62904637D01*
X20900000Y-61300000D01*
X19300000Y-59700000D01*
X17600001Y-58000000D01*
X17600000Y-58000000D01*
X15853962Y-58003968D01*
X15797385Y-57990453D01*
X15781001Y-57982104D01*
X15780998Y-57982103D01*
X15571347Y-57913985D01*
X15486382Y-57900527D01*
X15423247Y-57870597D01*
X15386317Y-57811285D01*
X15387315Y-57741422D01*
X15418096Y-57690377D01*
X15553828Y-57554646D01*
X15669524Y-57395405D01*
X15758884Y-57220025D01*
X15819709Y-57032826D01*
X15850500Y-56838422D01*
X15850500Y-56641577D01*
X15819709Y-56447173D01*
X15758882Y-56259970D01*
X15669523Y-56084594D01*
X15553828Y-55925354D01*
X15414646Y-55786172D01*
X15255405Y-55670476D01*
X15080029Y-55581117D01*
X14892826Y-55520290D01*
X14698422Y-55489500D01*
X14698417Y-55489500D01*
X14501583Y-55489500D01*
X14501578Y-55489500D01*
X14307173Y-55520290D01*
X14119970Y-55581117D01*
X13944594Y-55670476D01*
X13796386Y-55778157D01*
X13730579Y-55801637D01*
X13662526Y-55785812D01*
X13613831Y-55735706D01*
X13599500Y-55677839D01*
X13599500Y-53324000D01*
X13619185Y-53256961D01*
X13671989Y-53211206D01*
X13723500Y-53200000D01*
X16785708Y-53200000D01*
X16852747Y-53219685D01*
G37*
%TD.AperFunction*%
%TD*%
%TA.AperFunction,Conductor*%
%TO.N,Net-(D2-A)*%
G36*
X25955090Y-52557757D02*
G01*
X26006584Y-52604981D01*
X26017463Y-52628100D01*
X26071878Y-52783606D01*
X26164853Y-52931576D01*
X26288424Y-53055147D01*
X26436394Y-53148122D01*
X26601343Y-53205841D01*
X26601349Y-53205841D01*
X26601351Y-53205842D01*
X26642750Y-53210506D01*
X26731442Y-53220499D01*
X26731445Y-53220500D01*
X26731448Y-53220500D01*
X27968555Y-53220500D01*
X27968556Y-53220499D01*
X28098657Y-53205841D01*
X28263606Y-53148122D01*
X28411576Y-53055147D01*
X28535147Y-52931576D01*
X28628122Y-52783606D01*
X28628122Y-52783605D01*
X28631312Y-52778529D01*
X28683646Y-52732237D01*
X28736306Y-52720500D01*
X31793058Y-52720500D01*
X31860097Y-52740185D01*
X31880739Y-52756819D01*
X32901505Y-53777584D01*
X33889590Y-54765669D01*
X33958027Y-54834106D01*
X33980198Y-54856277D01*
X34086732Y-54927461D01*
X34086738Y-54927464D01*
X34086739Y-54927465D01*
X34205122Y-54976501D01*
X34205126Y-54976501D01*
X34205127Y-54976502D01*
X34330794Y-55001500D01*
X34330797Y-55001500D01*
X39569205Y-55001500D01*
X39653749Y-54984682D01*
X39694878Y-54976501D01*
X39813261Y-54927465D01*
X39919803Y-54856277D01*
X40293888Y-54482189D01*
X40355209Y-54448706D01*
X40381568Y-54445872D01*
X47428470Y-54445872D01*
X47495509Y-54465557D01*
X47541264Y-54518361D01*
X47551208Y-54587519D01*
X47529145Y-54639897D01*
X47529528Y-54640119D01*
X47527767Y-54643168D01*
X47526844Y-54645361D01*
X47525463Y-54647159D01*
X47464956Y-54793237D01*
X47464955Y-54793239D01*
X47449500Y-54910638D01*
X47449500Y-55389363D01*
X47464953Y-55506753D01*
X47464956Y-55506762D01*
X47525464Y-55652841D01*
X47621718Y-55778282D01*
X47747159Y-55874536D01*
X47893238Y-55935044D01*
X48010639Y-55950500D01*
X48625500Y-55950499D01*
X48692539Y-55970183D01*
X48738294Y-56022987D01*
X48749500Y-56074499D01*
X48749500Y-57875638D01*
X48729815Y-57942677D01*
X48713181Y-57963319D01*
X48700538Y-57975961D01*
X48700535Y-57975965D01*
X48601990Y-58123446D01*
X48601983Y-58123459D01*
X48534106Y-58287332D01*
X48534103Y-58287341D01*
X48499500Y-58461304D01*
X48499500Y-58638695D01*
X48534103Y-58812658D01*
X48534106Y-58812667D01*
X48601983Y-58976540D01*
X48601990Y-58976553D01*
X48700534Y-59124033D01*
X48700535Y-59124034D01*
X48700536Y-59124035D01*
X48763682Y-59187181D01*
X48797166Y-59248502D01*
X48800000Y-59274861D01*
X48800000Y-61599829D01*
X48780315Y-61666868D01*
X48763681Y-61687510D01*
X47041010Y-63410181D01*
X46979687Y-63443666D01*
X46953329Y-63446500D01*
X36117808Y-63446500D01*
X36050769Y-63426815D01*
X36030127Y-63410181D01*
X31836819Y-59216873D01*
X31803334Y-59155550D01*
X31800500Y-59129192D01*
X31800500Y-59111306D01*
X31800499Y-59111304D01*
X31765896Y-58937341D01*
X31765893Y-58937332D01*
X31765755Y-58937000D01*
X31714256Y-58812667D01*
X31698016Y-58773459D01*
X31698009Y-58773446D01*
X31599464Y-58625965D01*
X31599461Y-58625961D01*
X31474038Y-58500538D01*
X31474034Y-58500535D01*
X31326553Y-58401990D01*
X31326540Y-58401983D01*
X31162667Y-58334106D01*
X31162658Y-58334103D01*
X30988694Y-58299500D01*
X30988691Y-58299500D01*
X30811309Y-58299500D01*
X30811304Y-58299500D01*
X30759322Y-58309840D01*
X30689730Y-58303613D01*
X30634553Y-58260750D01*
X30611309Y-58194860D01*
X30612658Y-58168825D01*
X30650500Y-57929902D01*
X30650500Y-57670097D01*
X30612823Y-57432217D01*
X30609860Y-57413507D01*
X30529579Y-57166428D01*
X30529577Y-57166425D01*
X30529577Y-57166423D01*
X30483228Y-57075460D01*
X30411634Y-56934949D01*
X30258931Y-56724771D01*
X30075229Y-56541069D01*
X29902577Y-56415630D01*
X29865054Y-56388368D01*
X29865053Y-56388367D01*
X29865051Y-56388366D01*
X29751701Y-56330611D01*
X29633576Y-56270422D01*
X29386493Y-56190140D01*
X29129902Y-56149500D01*
X29129897Y-56149500D01*
X28870103Y-56149500D01*
X28870098Y-56149500D01*
X28613506Y-56190140D01*
X28366423Y-56270422D01*
X28134945Y-56388368D01*
X27924774Y-56541066D01*
X27924768Y-56541071D01*
X27741071Y-56724768D01*
X27741066Y-56724774D01*
X27588368Y-56934945D01*
X27470422Y-57166423D01*
X27391760Y-57408520D01*
X27361510Y-57457882D01*
X25706211Y-59113181D01*
X25644888Y-59146666D01*
X25618530Y-59149500D01*
X23693481Y-59149500D01*
X23648896Y-59156562D01*
X23579603Y-59147606D01*
X23526152Y-59102609D01*
X23505513Y-59035857D01*
X23505500Y-59034088D01*
X23505500Y-57336283D01*
X23505283Y-57322978D01*
X23505066Y-57316330D01*
X23505000Y-57312284D01*
X23505000Y-57087699D01*
X23505065Y-57083681D01*
X23505284Y-57076992D01*
X23505500Y-57063747D01*
X23505500Y-54527464D01*
X23525185Y-54460425D01*
X23550966Y-54431503D01*
X25821895Y-52573090D01*
X25886239Y-52545870D01*
X25955090Y-52557757D01*
G37*
%TD.AperFunction*%
%TD*%
%TA.AperFunction,Conductor*%
%TO.N,Net-(J1-Pin_3)*%
G36*
X12453649Y-56719685D02*
G01*
X12474291Y-56736319D01*
X12845860Y-57107887D01*
X12859571Y-57132998D01*
X12875872Y-57156525D01*
X12876106Y-57163279D01*
X12879345Y-57169210D01*
X12877303Y-57197752D01*
X12878297Y-57226353D01*
X12874626Y-57235189D01*
X12874361Y-57238901D01*
X12867537Y-57252254D01*
X12864758Y-57258947D01*
X12863108Y-57261720D01*
X12862111Y-57263216D01*
X12861743Y-57264014D01*
X12861725Y-57264046D01*
X12852714Y-57283641D01*
X12852711Y-57283647D01*
X12837585Y-57316531D01*
X12837515Y-57316692D01*
X12832897Y-57326737D01*
X12831988Y-57329645D01*
X12830752Y-57332542D01*
X12830616Y-57332830D01*
X12830586Y-57332931D01*
X12830583Y-57332939D01*
X12824891Y-57352319D01*
X12824286Y-57354317D01*
X12801939Y-57425910D01*
X12801938Y-57425913D01*
X12801367Y-57459466D01*
X12800124Y-57474992D01*
X12794500Y-57514120D01*
X12794500Y-57885722D01*
X12798748Y-57925022D01*
X12802497Y-57959709D01*
X12803866Y-57972369D01*
X12815183Y-58024113D01*
X12815186Y-58024123D01*
X12815188Y-58024130D01*
X12838167Y-58096183D01*
X12839563Y-58098413D01*
X12905471Y-58203728D01*
X12951348Y-58256429D01*
X13029076Y-58325433D01*
X13029077Y-58325433D01*
X13029078Y-58325434D01*
X13143841Y-58379518D01*
X13210925Y-58399050D01*
X13325204Y-58415216D01*
X13838104Y-58414050D01*
X13883862Y-58411355D01*
X13911665Y-58408133D01*
X13945512Y-58402753D01*
X14064381Y-58358417D01*
X14125220Y-58324060D01*
X14208432Y-58261769D01*
X14284461Y-58160206D01*
X14317067Y-58098411D01*
X14329930Y-58063924D01*
X14371800Y-58007992D01*
X14437264Y-57983575D01*
X14465506Y-57984785D01*
X14501583Y-57990500D01*
X14501585Y-57990500D01*
X14698422Y-57990500D01*
X14812937Y-57972362D01*
X14892826Y-57959709D01*
X14892837Y-57959705D01*
X14897561Y-57958572D01*
X14897906Y-57960009D01*
X14961155Y-57958187D01*
X15020996Y-57994254D01*
X15038727Y-58021860D01*
X15039842Y-58021282D01*
X15042087Y-58025611D01*
X15079015Y-58084922D01*
X15144820Y-58165399D01*
X15193246Y-58198513D01*
X15249544Y-58237009D01*
X15249545Y-58237009D01*
X15249546Y-58237010D01*
X15312680Y-58266940D01*
X15422937Y-58301032D01*
X15422938Y-58301032D01*
X15422944Y-58301034D01*
X15466761Y-58307974D01*
X15485669Y-58312513D01*
X15655695Y-58367757D01*
X15655695Y-58367756D01*
X15662295Y-58369901D01*
X15666797Y-58371460D01*
X15703171Y-58384856D01*
X15759748Y-58398371D01*
X15854884Y-58409467D01*
X17380891Y-58405998D01*
X17447975Y-58425530D01*
X17468854Y-58442317D01*
X20458181Y-61431644D01*
X20491666Y-61492967D01*
X20494500Y-61519325D01*
X20494500Y-62904637D01*
X20496824Y-62947995D01*
X20499658Y-62974350D01*
X20504299Y-63005836D01*
X20504301Y-63005841D01*
X20546935Y-63125331D01*
X20546936Y-63125334D01*
X20546937Y-63125335D01*
X20580416Y-63186648D01*
X20580421Y-63186656D01*
X20649580Y-63279042D01*
X20649586Y-63279048D01*
X20649587Y-63279050D01*
X20720950Y-63350413D01*
X20720968Y-63350429D01*
X20720986Y-63350446D01*
X20752397Y-63378659D01*
X20753247Y-63379423D01*
X20773889Y-63396057D01*
X20773903Y-63396067D01*
X20773910Y-63396073D01*
X20799469Y-63415063D01*
X20799472Y-63415065D01*
X20806217Y-63418261D01*
X20831517Y-63435037D01*
X20888063Y-63457052D01*
X20914117Y-63469400D01*
X20916713Y-63470162D01*
X20916713Y-63470161D01*
X20932029Y-63474657D01*
X20932047Y-63474663D01*
X20937139Y-63476158D01*
X20949741Y-63481065D01*
X20965573Y-63484509D01*
X20981116Y-63489073D01*
X21095363Y-63505500D01*
X21330538Y-63505500D01*
X21361240Y-63514515D01*
X21392367Y-63522014D01*
X21395714Y-63524638D01*
X21397577Y-63525185D01*
X21420145Y-63543788D01*
X21440107Y-63564657D01*
X21472222Y-63626708D01*
X21474500Y-63650369D01*
X21474500Y-64004403D01*
X21488988Y-64114463D01*
X21488991Y-64114472D01*
X21545721Y-64251429D01*
X21635964Y-64369036D01*
X21753571Y-64459279D01*
X21753572Y-64459279D01*
X21753573Y-64459280D01*
X21805680Y-64480863D01*
X21860084Y-64524703D01*
X21872789Y-64547971D01*
X21898535Y-64610127D01*
X21921865Y-64645044D01*
X21969726Y-64716673D01*
X22756325Y-65503272D01*
X22756330Y-65503276D01*
X22756331Y-65503277D01*
X22862874Y-65574466D01*
X22932221Y-65603189D01*
X22981256Y-65623501D01*
X22981259Y-65623501D01*
X22981260Y-65623502D01*
X23106928Y-65648500D01*
X26876000Y-65648500D01*
X26943039Y-65668185D01*
X26988794Y-65720989D01*
X27000000Y-65772500D01*
X27000000Y-69675500D01*
X26980315Y-69742539D01*
X26927511Y-69788294D01*
X26876000Y-69799500D01*
X16590674Y-69799500D01*
X16523635Y-69779815D01*
X16477880Y-69727011D01*
X16467936Y-69657853D01*
X16496961Y-69594297D01*
X16549719Y-69558459D01*
X16648204Y-69523997D01*
X16826708Y-69461536D01*
X17150582Y-69305566D01*
X17454956Y-69114315D01*
X17736003Y-68890188D01*
X17990188Y-68636003D01*
X18214315Y-68354956D01*
X18405566Y-68050582D01*
X18561536Y-67726708D01*
X18680262Y-67387408D01*
X18760252Y-67036948D01*
X18800500Y-66679736D01*
X18800500Y-66320264D01*
X18760252Y-65963052D01*
X18680262Y-65612592D01*
X18561536Y-65273292D01*
X18405566Y-64949418D01*
X18214315Y-64645044D01*
X17990188Y-64363997D01*
X17736003Y-64109812D01*
X17454956Y-63885685D01*
X17150582Y-63694434D01*
X17150579Y-63694432D01*
X16826711Y-63538465D01*
X16487419Y-63419741D01*
X16487407Y-63419737D01*
X16136951Y-63339748D01*
X16136935Y-63339746D01*
X15779740Y-63299500D01*
X15779736Y-63299500D01*
X15420264Y-63299500D01*
X15420259Y-63299500D01*
X15063064Y-63339746D01*
X15063048Y-63339748D01*
X14712592Y-63419737D01*
X14712580Y-63419741D01*
X14373288Y-63538465D01*
X14049420Y-63694432D01*
X13745045Y-63885684D01*
X13463997Y-64109811D01*
X13209811Y-64363997D01*
X12985684Y-64645045D01*
X12794432Y-64949420D01*
X12638465Y-65273288D01*
X12519741Y-65612580D01*
X12519737Y-65612592D01*
X12445391Y-65938328D01*
X12411282Y-65999307D01*
X12349621Y-66032165D01*
X12279984Y-66026470D01*
X12224480Y-65984030D01*
X12200732Y-65918320D01*
X12200500Y-65910736D01*
X12200500Y-61721577D01*
X13349500Y-61721577D01*
X13349500Y-61918422D01*
X13380290Y-62112826D01*
X13441117Y-62300029D01*
X13530476Y-62475405D01*
X13646172Y-62634646D01*
X13785354Y-62773828D01*
X13944595Y-62889524D01*
X14027455Y-62931743D01*
X14119970Y-62978882D01*
X14119972Y-62978882D01*
X14119975Y-62978884D01*
X14202924Y-63005836D01*
X14307173Y-63039709D01*
X14501578Y-63070500D01*
X14501583Y-63070500D01*
X14698422Y-63070500D01*
X14892826Y-63039709D01*
X14921990Y-63030233D01*
X15080025Y-62978884D01*
X15255405Y-62889524D01*
X15414646Y-62773828D01*
X15553828Y-62634646D01*
X15669524Y-62475405D01*
X15758884Y-62300025D01*
X15819709Y-62112826D01*
X15840818Y-61979549D01*
X15850500Y-61918422D01*
X15850500Y-61721577D01*
X15819709Y-61527173D01*
X15758882Y-61339970D01*
X15669523Y-61164594D01*
X15553828Y-61005354D01*
X15414646Y-60866172D01*
X15255405Y-60750476D01*
X15080029Y-60661117D01*
X14892826Y-60600290D01*
X14698422Y-60569500D01*
X14698417Y-60569500D01*
X14501583Y-60569500D01*
X14501578Y-60569500D01*
X14307173Y-60600290D01*
X14119970Y-60661117D01*
X13944594Y-60750476D01*
X13918043Y-60769767D01*
X13785354Y-60866172D01*
X13785352Y-60866174D01*
X13785351Y-60866174D01*
X13646174Y-61005351D01*
X13646174Y-61005352D01*
X13646172Y-61005354D01*
X13596485Y-61073741D01*
X13530476Y-61164594D01*
X13441117Y-61339970D01*
X13380290Y-61527173D01*
X13349500Y-61721577D01*
X12200500Y-61721577D01*
X12200500Y-56824000D01*
X12203050Y-56815314D01*
X12201762Y-56806353D01*
X12212740Y-56782312D01*
X12220185Y-56756961D01*
X12227025Y-56751033D01*
X12230787Y-56742797D01*
X12253021Y-56728507D01*
X12272989Y-56711206D01*
X12283503Y-56708918D01*
X12289565Y-56705023D01*
X12324500Y-56700000D01*
X12386610Y-56700000D01*
X12453649Y-56719685D01*
G37*
%TD.AperFunction*%
%TD*%
M02*
