M48
; DRILL file {KiCad 9.0.5} date 2026-01-30T22:33:49+0100
; FORMAT={-:-/ absolute / metric / decimal}
; #@! TF.CreationDate,2026-01-30T22:33:49+01:00
; #@! TF.GenerationSoftware,Kicad,Pcbnew,9.0.5
; #@! TF.FileFunction,Plated,1,2,PTH
FMAT,2
METRIC
; #@! TA.AperFunction,Plated,PTH,ViaDrill
T1C0.500
; #@! TA.AperFunction,Plated,PTH,ComponentDrill
T2C0.600
; #@! TA.AperFunction,Plated,PTH,ComponentDrill
T3C0.800
; #@! TA.AperFunction,Plated,PTH,ComponentDrill
T4C0.900
; #@! TA.AperFunction,Plated,PTH,ComponentDrill
T5C1.000
; #@! TA.AperFunction,Plated,PTH,ComponentDrill
T6C1.300
; #@! TA.AperFunction,Plated,PTH,ComponentDrill
T7C1.400
%
G90
G05
T1
X16.415Y-20.3
X17.251Y-46.0
X17.815Y-20.3
X18.513Y-28.887
X26.4Y-26.2
X28.5Y-24.9
X28.5Y-26.2
X29.7Y-45.8
X30.4Y-31.5
X30.9Y-59.2
X31.511Y-37.799
X32.0Y-31.5
X37.211Y-41.843
X37.28Y-23.857
X38.5Y-51.5
X39.0Y-43.5
X39.0Y-46.0
X41.388Y-49.59
X43.7Y-38.5
X45.01Y-49.535
X47.0Y-54.2
X49.187Y-46.486
X49.4Y-58.55
X50.006Y-53.232
X50.549Y-38.853
X50.8Y-55.7
X52.1Y-49.7
T3
X28.2Y-40.4
X30.2Y-40.4
X33.99Y-40.285
X33.99Y-47.905
X36.53Y-40.285
X36.53Y-47.905
X39.07Y-40.285
X39.07Y-47.905
X41.61Y-40.285
X41.61Y-47.905
X45.318Y-39.8
X47.818Y-39.8
T4
X14.6Y-20.5
X14.6Y-23.04
X14.6Y-26.6
X14.6Y-29.14
X14.6Y-31.68
X14.6Y-34.22
X14.6Y-36.76
X14.6Y-45.5
X14.6Y-48.04
X14.6Y-50.58
X14.6Y-54.2
X14.6Y-56.74
X14.6Y-59.28
X14.6Y-61.82
X42.6Y-33.7
X45.14Y-33.7
X47.68Y-33.7
X50.22Y-33.7
X52.76Y-33.7
X53.2Y-37.66
X53.2Y-40.2
T5
X29.0Y-57.8
X29.0Y-67.8
X40.19Y-20.2
X40.19Y-22.74
X42.32Y-26.335
X42.32Y-28.875
X42.73Y-20.2
X42.73Y-22.74
X44.86Y-26.335
X44.86Y-28.875
X45.27Y-20.2
X45.27Y-22.74
X47.0Y-57.8
X47.0Y-67.8
X47.4Y-26.335
X47.4Y-28.875
X47.81Y-20.2
X47.81Y-22.74
X49.94Y-26.335
X49.94Y-28.875
X52.48Y-26.335
X52.48Y-28.875
T6
X26.0Y-35.6
X32.0Y-35.6
T7
X25.0Y-57.2
X25.0Y-67.2
T2
G00X22.6Y-14.1
M15
G01X22.6Y-12.9
M16
G05
G00X22.6Y-20.1
M15
G01X22.6Y-18.9
M16
G05
G00X35.4Y-14.1
M15
G01X35.4Y-12.9
M16
G05
G00X35.4Y-20.1
M15
G01X35.4Y-18.9
M16
G05
M30
