%TF.GenerationSoftware,KiCad,Pcbnew,9.0.5*%
%TF.CreationDate,2026-01-30T22:33:53+01:00*%
%TF.ProjectId,pi hat,70692068-6174-42e6-9b69-6361645f7063,rev?*%
%TF.SameCoordinates,Original*%
%TF.FileFunction,Legend,Top*%
%TF.FilePolarity,Positive*%
%FSLAX46Y46*%
G04 Gerber Fmt 4.6, Leading zero omitted, Abs format (unit mm)*
G04 Created by KiCad (PCBNEW 9.0.5) date 2026-01-30 22:33:53*
%MOMM*%
%LPD*%
G01*
G04 APERTURE LIST*
%ADD10C,0.150000*%
%ADD11C,0.120000*%
%ADD12C,0.100000*%
G04 APERTURE END LIST*
D10*
X25238095Y-41654819D02*
X25238095Y-42464342D01*
X25238095Y-42464342D02*
X25285714Y-42559580D01*
X25285714Y-42559580D02*
X25333333Y-42607200D01*
X25333333Y-42607200D02*
X25428571Y-42654819D01*
X25428571Y-42654819D02*
X25619047Y-42654819D01*
X25619047Y-42654819D02*
X25714285Y-42607200D01*
X25714285Y-42607200D02*
X25761904Y-42559580D01*
X25761904Y-42559580D02*
X25809523Y-42464342D01*
X25809523Y-42464342D02*
X25809523Y-41654819D01*
X26714285Y-41988152D02*
X26714285Y-42654819D01*
X26476190Y-41607200D02*
X26238095Y-42321485D01*
X26238095Y-42321485D02*
X26857142Y-42321485D01*
X29933333Y-49359580D02*
X29885714Y-49407200D01*
X29885714Y-49407200D02*
X29742857Y-49454819D01*
X29742857Y-49454819D02*
X29647619Y-49454819D01*
X29647619Y-49454819D02*
X29504762Y-49407200D01*
X29504762Y-49407200D02*
X29409524Y-49311961D01*
X29409524Y-49311961D02*
X29361905Y-49216723D01*
X29361905Y-49216723D02*
X29314286Y-49026247D01*
X29314286Y-49026247D02*
X29314286Y-48883390D01*
X29314286Y-48883390D02*
X29361905Y-48692914D01*
X29361905Y-48692914D02*
X29409524Y-48597676D01*
X29409524Y-48597676D02*
X29504762Y-48502438D01*
X29504762Y-48502438D02*
X29647619Y-48454819D01*
X29647619Y-48454819D02*
X29742857Y-48454819D01*
X29742857Y-48454819D02*
X29885714Y-48502438D01*
X29885714Y-48502438D02*
X29933333Y-48550057D01*
X30266667Y-48454819D02*
X30885714Y-48454819D01*
X30885714Y-48454819D02*
X30552381Y-48835771D01*
X30552381Y-48835771D02*
X30695238Y-48835771D01*
X30695238Y-48835771D02*
X30790476Y-48883390D01*
X30790476Y-48883390D02*
X30838095Y-48931009D01*
X30838095Y-48931009D02*
X30885714Y-49026247D01*
X30885714Y-49026247D02*
X30885714Y-49264342D01*
X30885714Y-49264342D02*
X30838095Y-49359580D01*
X30838095Y-49359580D02*
X30790476Y-49407200D01*
X30790476Y-49407200D02*
X30695238Y-49454819D01*
X30695238Y-49454819D02*
X30409524Y-49454819D01*
X30409524Y-49454819D02*
X30314286Y-49407200D01*
X30314286Y-49407200D02*
X30266667Y-49359580D01*
X25933333Y-38259580D02*
X25885714Y-38307200D01*
X25885714Y-38307200D02*
X25742857Y-38354819D01*
X25742857Y-38354819D02*
X25647619Y-38354819D01*
X25647619Y-38354819D02*
X25504762Y-38307200D01*
X25504762Y-38307200D02*
X25409524Y-38211961D01*
X25409524Y-38211961D02*
X25361905Y-38116723D01*
X25361905Y-38116723D02*
X25314286Y-37926247D01*
X25314286Y-37926247D02*
X25314286Y-37783390D01*
X25314286Y-37783390D02*
X25361905Y-37592914D01*
X25361905Y-37592914D02*
X25409524Y-37497676D01*
X25409524Y-37497676D02*
X25504762Y-37402438D01*
X25504762Y-37402438D02*
X25647619Y-37354819D01*
X25647619Y-37354819D02*
X25742857Y-37354819D01*
X25742857Y-37354819D02*
X25885714Y-37402438D01*
X25885714Y-37402438D02*
X25933333Y-37450057D01*
X26314286Y-37450057D02*
X26361905Y-37402438D01*
X26361905Y-37402438D02*
X26457143Y-37354819D01*
X26457143Y-37354819D02*
X26695238Y-37354819D01*
X26695238Y-37354819D02*
X26790476Y-37402438D01*
X26790476Y-37402438D02*
X26838095Y-37450057D01*
X26838095Y-37450057D02*
X26885714Y-37545295D01*
X26885714Y-37545295D02*
X26885714Y-37640533D01*
X26885714Y-37640533D02*
X26838095Y-37783390D01*
X26838095Y-37783390D02*
X26266667Y-38354819D01*
X26266667Y-38354819D02*
X26885714Y-38354819D01*
X20404761Y-62450057D02*
X20309523Y-62402438D01*
X20309523Y-62402438D02*
X20214285Y-62307200D01*
X20214285Y-62307200D02*
X20071428Y-62164342D01*
X20071428Y-62164342D02*
X19976190Y-62116723D01*
X19976190Y-62116723D02*
X19880952Y-62116723D01*
X19928571Y-62354819D02*
X19833333Y-62307200D01*
X19833333Y-62307200D02*
X19738095Y-62211961D01*
X19738095Y-62211961D02*
X19690476Y-62021485D01*
X19690476Y-62021485D02*
X19690476Y-61688152D01*
X19690476Y-61688152D02*
X19738095Y-61497676D01*
X19738095Y-61497676D02*
X19833333Y-61402438D01*
X19833333Y-61402438D02*
X19928571Y-61354819D01*
X19928571Y-61354819D02*
X20119047Y-61354819D01*
X20119047Y-61354819D02*
X20214285Y-61402438D01*
X20214285Y-61402438D02*
X20309523Y-61497676D01*
X20309523Y-61497676D02*
X20357142Y-61688152D01*
X20357142Y-61688152D02*
X20357142Y-62021485D01*
X20357142Y-62021485D02*
X20309523Y-62211961D01*
X20309523Y-62211961D02*
X20214285Y-62307200D01*
X20214285Y-62307200D02*
X20119047Y-62354819D01*
X20119047Y-62354819D02*
X19928571Y-62354819D01*
X21309523Y-62354819D02*
X20738095Y-62354819D01*
X21023809Y-62354819D02*
X21023809Y-61354819D01*
X21023809Y-61354819D02*
X20928571Y-61497676D01*
X20928571Y-61497676D02*
X20833333Y-61592914D01*
X20833333Y-61592914D02*
X20738095Y-61640533D01*
X27133333Y-25959580D02*
X27085714Y-26007200D01*
X27085714Y-26007200D02*
X26942857Y-26054819D01*
X26942857Y-26054819D02*
X26847619Y-26054819D01*
X26847619Y-26054819D02*
X26704762Y-26007200D01*
X26704762Y-26007200D02*
X26609524Y-25911961D01*
X26609524Y-25911961D02*
X26561905Y-25816723D01*
X26561905Y-25816723D02*
X26514286Y-25626247D01*
X26514286Y-25626247D02*
X26514286Y-25483390D01*
X26514286Y-25483390D02*
X26561905Y-25292914D01*
X26561905Y-25292914D02*
X26609524Y-25197676D01*
X26609524Y-25197676D02*
X26704762Y-25102438D01*
X26704762Y-25102438D02*
X26847619Y-25054819D01*
X26847619Y-25054819D02*
X26942857Y-25054819D01*
X26942857Y-25054819D02*
X27085714Y-25102438D01*
X27085714Y-25102438D02*
X27133333Y-25150057D01*
X27466667Y-25054819D02*
X28133333Y-25054819D01*
X28133333Y-25054819D02*
X27704762Y-26054819D01*
X53066666Y-23054819D02*
X53066666Y-23769104D01*
X53066666Y-23769104D02*
X53019047Y-23911961D01*
X53019047Y-23911961D02*
X52923809Y-24007200D01*
X52923809Y-24007200D02*
X52780952Y-24054819D01*
X52780952Y-24054819D02*
X52685714Y-24054819D01*
X53971428Y-23054819D02*
X53780952Y-23054819D01*
X53780952Y-23054819D02*
X53685714Y-23102438D01*
X53685714Y-23102438D02*
X53638095Y-23150057D01*
X53638095Y-23150057D02*
X53542857Y-23292914D01*
X53542857Y-23292914D02*
X53495238Y-23483390D01*
X53495238Y-23483390D02*
X53495238Y-23864342D01*
X53495238Y-23864342D02*
X53542857Y-23959580D01*
X53542857Y-23959580D02*
X53590476Y-24007200D01*
X53590476Y-24007200D02*
X53685714Y-24054819D01*
X53685714Y-24054819D02*
X53876190Y-24054819D01*
X53876190Y-24054819D02*
X53971428Y-24007200D01*
X53971428Y-24007200D02*
X54019047Y-23959580D01*
X54019047Y-23959580D02*
X54066666Y-23864342D01*
X54066666Y-23864342D02*
X54066666Y-23626247D01*
X54066666Y-23626247D02*
X54019047Y-23531009D01*
X54019047Y-23531009D02*
X53971428Y-23483390D01*
X53971428Y-23483390D02*
X53876190Y-23435771D01*
X53876190Y-23435771D02*
X53685714Y-23435771D01*
X53685714Y-23435771D02*
X53590476Y-23483390D01*
X53590476Y-23483390D02*
X53542857Y-23531009D01*
X53542857Y-23531009D02*
X53495238Y-23626247D01*
X28923809Y-29978628D02*
X28923809Y-30454819D01*
X28590476Y-29454819D02*
X28923809Y-29978628D01*
X28923809Y-29978628D02*
X29257142Y-29454819D01*
X30114285Y-30454819D02*
X29542857Y-30454819D01*
X29828571Y-30454819D02*
X29828571Y-29454819D01*
X29828571Y-29454819D02*
X29733333Y-29597676D01*
X29733333Y-29597676D02*
X29638095Y-29692914D01*
X29638095Y-29692914D02*
X29542857Y-29740533D01*
X42733333Y-53754819D02*
X42400000Y-53278628D01*
X42161905Y-53754819D02*
X42161905Y-52754819D01*
X42161905Y-52754819D02*
X42542857Y-52754819D01*
X42542857Y-52754819D02*
X42638095Y-52802438D01*
X42638095Y-52802438D02*
X42685714Y-52850057D01*
X42685714Y-52850057D02*
X42733333Y-52945295D01*
X42733333Y-52945295D02*
X42733333Y-53088152D01*
X42733333Y-53088152D02*
X42685714Y-53183390D01*
X42685714Y-53183390D02*
X42638095Y-53231009D01*
X42638095Y-53231009D02*
X42542857Y-53278628D01*
X42542857Y-53278628D02*
X42161905Y-53278628D01*
X43590476Y-53088152D02*
X43590476Y-53754819D01*
X43352381Y-52707200D02*
X43114286Y-53421485D01*
X43114286Y-53421485D02*
X43733333Y-53421485D01*
X28666666Y-16754819D02*
X28666666Y-17469104D01*
X28666666Y-17469104D02*
X28619047Y-17611961D01*
X28619047Y-17611961D02*
X28523809Y-17707200D01*
X28523809Y-17707200D02*
X28380952Y-17754819D01*
X28380952Y-17754819D02*
X28285714Y-17754819D01*
X29571428Y-17088152D02*
X29571428Y-17754819D01*
X29333333Y-16707200D02*
X29095238Y-17421485D01*
X29095238Y-17421485D02*
X29714285Y-17421485D01*
X22438095Y-53854819D02*
X22438095Y-54664342D01*
X22438095Y-54664342D02*
X22485714Y-54759580D01*
X22485714Y-54759580D02*
X22533333Y-54807200D01*
X22533333Y-54807200D02*
X22628571Y-54854819D01*
X22628571Y-54854819D02*
X22819047Y-54854819D01*
X22819047Y-54854819D02*
X22914285Y-54807200D01*
X22914285Y-54807200D02*
X22961904Y-54759580D01*
X22961904Y-54759580D02*
X23009523Y-54664342D01*
X23009523Y-54664342D02*
X23009523Y-53854819D01*
X23961904Y-53854819D02*
X23485714Y-53854819D01*
X23485714Y-53854819D02*
X23438095Y-54331009D01*
X23438095Y-54331009D02*
X23485714Y-54283390D01*
X23485714Y-54283390D02*
X23580952Y-54235771D01*
X23580952Y-54235771D02*
X23819047Y-54235771D01*
X23819047Y-54235771D02*
X23914285Y-54283390D01*
X23914285Y-54283390D02*
X23961904Y-54331009D01*
X23961904Y-54331009D02*
X24009523Y-54426247D01*
X24009523Y-54426247D02*
X24009523Y-54664342D01*
X24009523Y-54664342D02*
X23961904Y-54759580D01*
X23961904Y-54759580D02*
X23914285Y-54807200D01*
X23914285Y-54807200D02*
X23819047Y-54854819D01*
X23819047Y-54854819D02*
X23580952Y-54854819D01*
X23580952Y-54854819D02*
X23485714Y-54807200D01*
X23485714Y-54807200D02*
X23438095Y-54759580D01*
X38333333Y-55354819D02*
X38000000Y-54878628D01*
X37761905Y-55354819D02*
X37761905Y-54354819D01*
X37761905Y-54354819D02*
X38142857Y-54354819D01*
X38142857Y-54354819D02*
X38238095Y-54402438D01*
X38238095Y-54402438D02*
X38285714Y-54450057D01*
X38285714Y-54450057D02*
X38333333Y-54545295D01*
X38333333Y-54545295D02*
X38333333Y-54688152D01*
X38333333Y-54688152D02*
X38285714Y-54783390D01*
X38285714Y-54783390D02*
X38238095Y-54831009D01*
X38238095Y-54831009D02*
X38142857Y-54878628D01*
X38142857Y-54878628D02*
X37761905Y-54878628D01*
X38714286Y-54450057D02*
X38761905Y-54402438D01*
X38761905Y-54402438D02*
X38857143Y-54354819D01*
X38857143Y-54354819D02*
X39095238Y-54354819D01*
X39095238Y-54354819D02*
X39190476Y-54402438D01*
X39190476Y-54402438D02*
X39238095Y-54450057D01*
X39238095Y-54450057D02*
X39285714Y-54545295D01*
X39285714Y-54545295D02*
X39285714Y-54640533D01*
X39285714Y-54640533D02*
X39238095Y-54783390D01*
X39238095Y-54783390D02*
X38666667Y-55354819D01*
X38666667Y-55354819D02*
X39285714Y-55354819D01*
X18833333Y-38354819D02*
X18500000Y-37878628D01*
X18261905Y-38354819D02*
X18261905Y-37354819D01*
X18261905Y-37354819D02*
X18642857Y-37354819D01*
X18642857Y-37354819D02*
X18738095Y-37402438D01*
X18738095Y-37402438D02*
X18785714Y-37450057D01*
X18785714Y-37450057D02*
X18833333Y-37545295D01*
X18833333Y-37545295D02*
X18833333Y-37688152D01*
X18833333Y-37688152D02*
X18785714Y-37783390D01*
X18785714Y-37783390D02*
X18738095Y-37831009D01*
X18738095Y-37831009D02*
X18642857Y-37878628D01*
X18642857Y-37878628D02*
X18261905Y-37878628D01*
X19309524Y-38354819D02*
X19500000Y-38354819D01*
X19500000Y-38354819D02*
X19595238Y-38307200D01*
X19595238Y-38307200D02*
X19642857Y-38259580D01*
X19642857Y-38259580D02*
X19738095Y-38116723D01*
X19738095Y-38116723D02*
X19785714Y-37926247D01*
X19785714Y-37926247D02*
X19785714Y-37545295D01*
X19785714Y-37545295D02*
X19738095Y-37450057D01*
X19738095Y-37450057D02*
X19690476Y-37402438D01*
X19690476Y-37402438D02*
X19595238Y-37354819D01*
X19595238Y-37354819D02*
X19404762Y-37354819D01*
X19404762Y-37354819D02*
X19309524Y-37402438D01*
X19309524Y-37402438D02*
X19261905Y-37450057D01*
X19261905Y-37450057D02*
X19214286Y-37545295D01*
X19214286Y-37545295D02*
X19214286Y-37783390D01*
X19214286Y-37783390D02*
X19261905Y-37878628D01*
X19261905Y-37878628D02*
X19309524Y-37926247D01*
X19309524Y-37926247D02*
X19404762Y-37973866D01*
X19404762Y-37973866D02*
X19595238Y-37973866D01*
X19595238Y-37973866D02*
X19690476Y-37926247D01*
X19690476Y-37926247D02*
X19738095Y-37878628D01*
X19738095Y-37878628D02*
X19785714Y-37783390D01*
X39438095Y-35854819D02*
X39438095Y-36664342D01*
X39438095Y-36664342D02*
X39485714Y-36759580D01*
X39485714Y-36759580D02*
X39533333Y-36807200D01*
X39533333Y-36807200D02*
X39628571Y-36854819D01*
X39628571Y-36854819D02*
X39819047Y-36854819D01*
X39819047Y-36854819D02*
X39914285Y-36807200D01*
X39914285Y-36807200D02*
X39961904Y-36759580D01*
X39961904Y-36759580D02*
X40009523Y-36664342D01*
X40009523Y-36664342D02*
X40009523Y-35854819D01*
X40914285Y-35854819D02*
X40723809Y-35854819D01*
X40723809Y-35854819D02*
X40628571Y-35902438D01*
X40628571Y-35902438D02*
X40580952Y-35950057D01*
X40580952Y-35950057D02*
X40485714Y-36092914D01*
X40485714Y-36092914D02*
X40438095Y-36283390D01*
X40438095Y-36283390D02*
X40438095Y-36664342D01*
X40438095Y-36664342D02*
X40485714Y-36759580D01*
X40485714Y-36759580D02*
X40533333Y-36807200D01*
X40533333Y-36807200D02*
X40628571Y-36854819D01*
X40628571Y-36854819D02*
X40819047Y-36854819D01*
X40819047Y-36854819D02*
X40914285Y-36807200D01*
X40914285Y-36807200D02*
X40961904Y-36759580D01*
X40961904Y-36759580D02*
X41009523Y-36664342D01*
X41009523Y-36664342D02*
X41009523Y-36426247D01*
X41009523Y-36426247D02*
X40961904Y-36331009D01*
X40961904Y-36331009D02*
X40914285Y-36283390D01*
X40914285Y-36283390D02*
X40819047Y-36235771D01*
X40819047Y-36235771D02*
X40628571Y-36235771D01*
X40628571Y-36235771D02*
X40533333Y-36283390D01*
X40533333Y-36283390D02*
X40485714Y-36331009D01*
X40485714Y-36331009D02*
X40438095Y-36426247D01*
X21833333Y-67654819D02*
X21500000Y-67178628D01*
X21261905Y-67654819D02*
X21261905Y-66654819D01*
X21261905Y-66654819D02*
X21642857Y-66654819D01*
X21642857Y-66654819D02*
X21738095Y-66702438D01*
X21738095Y-66702438D02*
X21785714Y-66750057D01*
X21785714Y-66750057D02*
X21833333Y-66845295D01*
X21833333Y-66845295D02*
X21833333Y-66988152D01*
X21833333Y-66988152D02*
X21785714Y-67083390D01*
X21785714Y-67083390D02*
X21738095Y-67131009D01*
X21738095Y-67131009D02*
X21642857Y-67178628D01*
X21642857Y-67178628D02*
X21261905Y-67178628D01*
X22785714Y-67654819D02*
X22214286Y-67654819D01*
X22500000Y-67654819D02*
X22500000Y-66654819D01*
X22500000Y-66654819D02*
X22404762Y-66797676D01*
X22404762Y-66797676D02*
X22309524Y-66892914D01*
X22309524Y-66892914D02*
X22214286Y-66940533D01*
X39038095Y-25454819D02*
X39038095Y-26264342D01*
X39038095Y-26264342D02*
X39085714Y-26359580D01*
X39085714Y-26359580D02*
X39133333Y-26407200D01*
X39133333Y-26407200D02*
X39228571Y-26454819D01*
X39228571Y-26454819D02*
X39419047Y-26454819D01*
X39419047Y-26454819D02*
X39514285Y-26407200D01*
X39514285Y-26407200D02*
X39561904Y-26359580D01*
X39561904Y-26359580D02*
X39609523Y-26264342D01*
X39609523Y-26264342D02*
X39609523Y-25454819D01*
X39990476Y-25454819D02*
X40657142Y-25454819D01*
X40657142Y-25454819D02*
X40228571Y-26454819D01*
X46204761Y-50750057D02*
X46109523Y-50702438D01*
X46109523Y-50702438D02*
X46014285Y-50607200D01*
X46014285Y-50607200D02*
X45871428Y-50464342D01*
X45871428Y-50464342D02*
X45776190Y-50416723D01*
X45776190Y-50416723D02*
X45680952Y-50416723D01*
X45728571Y-50654819D02*
X45633333Y-50607200D01*
X45633333Y-50607200D02*
X45538095Y-50511961D01*
X45538095Y-50511961D02*
X45490476Y-50321485D01*
X45490476Y-50321485D02*
X45490476Y-49988152D01*
X45490476Y-49988152D02*
X45538095Y-49797676D01*
X45538095Y-49797676D02*
X45633333Y-49702438D01*
X45633333Y-49702438D02*
X45728571Y-49654819D01*
X45728571Y-49654819D02*
X45919047Y-49654819D01*
X45919047Y-49654819D02*
X46014285Y-49702438D01*
X46014285Y-49702438D02*
X46109523Y-49797676D01*
X46109523Y-49797676D02*
X46157142Y-49988152D01*
X46157142Y-49988152D02*
X46157142Y-50321485D01*
X46157142Y-50321485D02*
X46109523Y-50511961D01*
X46109523Y-50511961D02*
X46014285Y-50607200D01*
X46014285Y-50607200D02*
X45919047Y-50654819D01*
X45919047Y-50654819D02*
X45728571Y-50654819D01*
X46538095Y-49750057D02*
X46585714Y-49702438D01*
X46585714Y-49702438D02*
X46680952Y-49654819D01*
X46680952Y-49654819D02*
X46919047Y-49654819D01*
X46919047Y-49654819D02*
X47014285Y-49702438D01*
X47014285Y-49702438D02*
X47061904Y-49750057D01*
X47061904Y-49750057D02*
X47109523Y-49845295D01*
X47109523Y-49845295D02*
X47109523Y-49940533D01*
X47109523Y-49940533D02*
X47061904Y-50083390D01*
X47061904Y-50083390D02*
X46490476Y-50654819D01*
X46490476Y-50654819D02*
X47109523Y-50654819D01*
X18666666Y-53754819D02*
X18666666Y-54469104D01*
X18666666Y-54469104D02*
X18619047Y-54611961D01*
X18619047Y-54611961D02*
X18523809Y-54707200D01*
X18523809Y-54707200D02*
X18380952Y-54754819D01*
X18380952Y-54754819D02*
X18285714Y-54754819D01*
X19047619Y-53754819D02*
X19714285Y-53754819D01*
X19714285Y-53754819D02*
X19285714Y-54754819D01*
X21333333Y-38354819D02*
X21000000Y-37878628D01*
X20761905Y-38354819D02*
X20761905Y-37354819D01*
X20761905Y-37354819D02*
X21142857Y-37354819D01*
X21142857Y-37354819D02*
X21238095Y-37402438D01*
X21238095Y-37402438D02*
X21285714Y-37450057D01*
X21285714Y-37450057D02*
X21333333Y-37545295D01*
X21333333Y-37545295D02*
X21333333Y-37688152D01*
X21333333Y-37688152D02*
X21285714Y-37783390D01*
X21285714Y-37783390D02*
X21238095Y-37831009D01*
X21238095Y-37831009D02*
X21142857Y-37878628D01*
X21142857Y-37878628D02*
X20761905Y-37878628D01*
X21904762Y-37783390D02*
X21809524Y-37735771D01*
X21809524Y-37735771D02*
X21761905Y-37688152D01*
X21761905Y-37688152D02*
X21714286Y-37592914D01*
X21714286Y-37592914D02*
X21714286Y-37545295D01*
X21714286Y-37545295D02*
X21761905Y-37450057D01*
X21761905Y-37450057D02*
X21809524Y-37402438D01*
X21809524Y-37402438D02*
X21904762Y-37354819D01*
X21904762Y-37354819D02*
X22095238Y-37354819D01*
X22095238Y-37354819D02*
X22190476Y-37402438D01*
X22190476Y-37402438D02*
X22238095Y-37450057D01*
X22238095Y-37450057D02*
X22285714Y-37545295D01*
X22285714Y-37545295D02*
X22285714Y-37592914D01*
X22285714Y-37592914D02*
X22238095Y-37688152D01*
X22238095Y-37688152D02*
X22190476Y-37735771D01*
X22190476Y-37735771D02*
X22095238Y-37783390D01*
X22095238Y-37783390D02*
X21904762Y-37783390D01*
X21904762Y-37783390D02*
X21809524Y-37831009D01*
X21809524Y-37831009D02*
X21761905Y-37878628D01*
X21761905Y-37878628D02*
X21714286Y-37973866D01*
X21714286Y-37973866D02*
X21714286Y-38164342D01*
X21714286Y-38164342D02*
X21761905Y-38259580D01*
X21761905Y-38259580D02*
X21809524Y-38307200D01*
X21809524Y-38307200D02*
X21904762Y-38354819D01*
X21904762Y-38354819D02*
X22095238Y-38354819D01*
X22095238Y-38354819D02*
X22190476Y-38307200D01*
X22190476Y-38307200D02*
X22238095Y-38259580D01*
X22238095Y-38259580D02*
X22285714Y-38164342D01*
X22285714Y-38164342D02*
X22285714Y-37973866D01*
X22285714Y-37973866D02*
X22238095Y-37878628D01*
X22238095Y-37878628D02*
X22190476Y-37831009D01*
X22190476Y-37831009D02*
X22095238Y-37783390D01*
X35533333Y-24159580D02*
X35485714Y-24207200D01*
X35485714Y-24207200D02*
X35342857Y-24254819D01*
X35342857Y-24254819D02*
X35247619Y-24254819D01*
X35247619Y-24254819D02*
X35104762Y-24207200D01*
X35104762Y-24207200D02*
X35009524Y-24111961D01*
X35009524Y-24111961D02*
X34961905Y-24016723D01*
X34961905Y-24016723D02*
X34914286Y-23826247D01*
X34914286Y-23826247D02*
X34914286Y-23683390D01*
X34914286Y-23683390D02*
X34961905Y-23492914D01*
X34961905Y-23492914D02*
X35009524Y-23397676D01*
X35009524Y-23397676D02*
X35104762Y-23302438D01*
X35104762Y-23302438D02*
X35247619Y-23254819D01*
X35247619Y-23254819D02*
X35342857Y-23254819D01*
X35342857Y-23254819D02*
X35485714Y-23302438D01*
X35485714Y-23302438D02*
X35533333Y-23350057D01*
X36438095Y-23254819D02*
X35961905Y-23254819D01*
X35961905Y-23254819D02*
X35914286Y-23731009D01*
X35914286Y-23731009D02*
X35961905Y-23683390D01*
X35961905Y-23683390D02*
X36057143Y-23635771D01*
X36057143Y-23635771D02*
X36295238Y-23635771D01*
X36295238Y-23635771D02*
X36390476Y-23683390D01*
X36390476Y-23683390D02*
X36438095Y-23731009D01*
X36438095Y-23731009D02*
X36485714Y-23826247D01*
X36485714Y-23826247D02*
X36485714Y-24064342D01*
X36485714Y-24064342D02*
X36438095Y-24159580D01*
X36438095Y-24159580D02*
X36390476Y-24207200D01*
X36390476Y-24207200D02*
X36295238Y-24254819D01*
X36295238Y-24254819D02*
X36057143Y-24254819D01*
X36057143Y-24254819D02*
X35961905Y-24207200D01*
X35961905Y-24207200D02*
X35914286Y-24159580D01*
X21961905Y-32454819D02*
X21961905Y-31454819D01*
X21961905Y-31454819D02*
X22200000Y-31454819D01*
X22200000Y-31454819D02*
X22342857Y-31502438D01*
X22342857Y-31502438D02*
X22438095Y-31597676D01*
X22438095Y-31597676D02*
X22485714Y-31692914D01*
X22485714Y-31692914D02*
X22533333Y-31883390D01*
X22533333Y-31883390D02*
X22533333Y-32026247D01*
X22533333Y-32026247D02*
X22485714Y-32216723D01*
X22485714Y-32216723D02*
X22438095Y-32311961D01*
X22438095Y-32311961D02*
X22342857Y-32407200D01*
X22342857Y-32407200D02*
X22200000Y-32454819D01*
X22200000Y-32454819D02*
X21961905Y-32454819D01*
X23485714Y-32454819D02*
X22914286Y-32454819D01*
X23200000Y-32454819D02*
X23200000Y-31454819D01*
X23200000Y-31454819D02*
X23104762Y-31597676D01*
X23104762Y-31597676D02*
X23009524Y-31692914D01*
X23009524Y-31692914D02*
X22914286Y-31740533D01*
X23657142Y-39954819D02*
X23323809Y-39478628D01*
X23085714Y-39954819D02*
X23085714Y-38954819D01*
X23085714Y-38954819D02*
X23466666Y-38954819D01*
X23466666Y-38954819D02*
X23561904Y-39002438D01*
X23561904Y-39002438D02*
X23609523Y-39050057D01*
X23609523Y-39050057D02*
X23657142Y-39145295D01*
X23657142Y-39145295D02*
X23657142Y-39288152D01*
X23657142Y-39288152D02*
X23609523Y-39383390D01*
X23609523Y-39383390D02*
X23561904Y-39431009D01*
X23561904Y-39431009D02*
X23466666Y-39478628D01*
X23466666Y-39478628D02*
X23085714Y-39478628D01*
X24609523Y-39954819D02*
X24038095Y-39954819D01*
X24323809Y-39954819D02*
X24323809Y-38954819D01*
X24323809Y-38954819D02*
X24228571Y-39097676D01*
X24228571Y-39097676D02*
X24133333Y-39192914D01*
X24133333Y-39192914D02*
X24038095Y-39240533D01*
X25228571Y-38954819D02*
X25323809Y-38954819D01*
X25323809Y-38954819D02*
X25419047Y-39002438D01*
X25419047Y-39002438D02*
X25466666Y-39050057D01*
X25466666Y-39050057D02*
X25514285Y-39145295D01*
X25514285Y-39145295D02*
X25561904Y-39335771D01*
X25561904Y-39335771D02*
X25561904Y-39573866D01*
X25561904Y-39573866D02*
X25514285Y-39764342D01*
X25514285Y-39764342D02*
X25466666Y-39859580D01*
X25466666Y-39859580D02*
X25419047Y-39907200D01*
X25419047Y-39907200D02*
X25323809Y-39954819D01*
X25323809Y-39954819D02*
X25228571Y-39954819D01*
X25228571Y-39954819D02*
X25133333Y-39907200D01*
X25133333Y-39907200D02*
X25085714Y-39859580D01*
X25085714Y-39859580D02*
X25038095Y-39764342D01*
X25038095Y-39764342D02*
X24990476Y-39573866D01*
X24990476Y-39573866D02*
X24990476Y-39335771D01*
X24990476Y-39335771D02*
X25038095Y-39145295D01*
X25038095Y-39145295D02*
X25085714Y-39050057D01*
X25085714Y-39050057D02*
X25133333Y-39002438D01*
X25133333Y-39002438D02*
X25228571Y-38954819D01*
X23161905Y-42054819D02*
X23161905Y-41054819D01*
X23161905Y-41054819D02*
X23400000Y-41054819D01*
X23400000Y-41054819D02*
X23542857Y-41102438D01*
X23542857Y-41102438D02*
X23638095Y-41197676D01*
X23638095Y-41197676D02*
X23685714Y-41292914D01*
X23685714Y-41292914D02*
X23733333Y-41483390D01*
X23733333Y-41483390D02*
X23733333Y-41626247D01*
X23733333Y-41626247D02*
X23685714Y-41816723D01*
X23685714Y-41816723D02*
X23638095Y-41911961D01*
X23638095Y-41911961D02*
X23542857Y-42007200D01*
X23542857Y-42007200D02*
X23400000Y-42054819D01*
X23400000Y-42054819D02*
X23161905Y-42054819D01*
X24066667Y-41054819D02*
X24685714Y-41054819D01*
X24685714Y-41054819D02*
X24352381Y-41435771D01*
X24352381Y-41435771D02*
X24495238Y-41435771D01*
X24495238Y-41435771D02*
X24590476Y-41483390D01*
X24590476Y-41483390D02*
X24638095Y-41531009D01*
X24638095Y-41531009D02*
X24685714Y-41626247D01*
X24685714Y-41626247D02*
X24685714Y-41864342D01*
X24685714Y-41864342D02*
X24638095Y-41959580D01*
X24638095Y-41959580D02*
X24590476Y-42007200D01*
X24590476Y-42007200D02*
X24495238Y-42054819D01*
X24495238Y-42054819D02*
X24209524Y-42054819D01*
X24209524Y-42054819D02*
X24114286Y-42007200D01*
X24114286Y-42007200D02*
X24066667Y-41959580D01*
X18666666Y-30754819D02*
X18666666Y-31469104D01*
X18666666Y-31469104D02*
X18619047Y-31611961D01*
X18619047Y-31611961D02*
X18523809Y-31707200D01*
X18523809Y-31707200D02*
X18380952Y-31754819D01*
X18380952Y-31754819D02*
X18285714Y-31754819D01*
X19095238Y-30850057D02*
X19142857Y-30802438D01*
X19142857Y-30802438D02*
X19238095Y-30754819D01*
X19238095Y-30754819D02*
X19476190Y-30754819D01*
X19476190Y-30754819D02*
X19571428Y-30802438D01*
X19571428Y-30802438D02*
X19619047Y-30850057D01*
X19619047Y-30850057D02*
X19666666Y-30945295D01*
X19666666Y-30945295D02*
X19666666Y-31040533D01*
X19666666Y-31040533D02*
X19619047Y-31183390D01*
X19619047Y-31183390D02*
X19047619Y-31754819D01*
X19047619Y-31754819D02*
X19666666Y-31754819D01*
X22157142Y-24454819D02*
X21823809Y-23978628D01*
X21585714Y-24454819D02*
X21585714Y-23454819D01*
X21585714Y-23454819D02*
X21966666Y-23454819D01*
X21966666Y-23454819D02*
X22061904Y-23502438D01*
X22061904Y-23502438D02*
X22109523Y-23550057D01*
X22109523Y-23550057D02*
X22157142Y-23645295D01*
X22157142Y-23645295D02*
X22157142Y-23788152D01*
X22157142Y-23788152D02*
X22109523Y-23883390D01*
X22109523Y-23883390D02*
X22061904Y-23931009D01*
X22061904Y-23931009D02*
X21966666Y-23978628D01*
X21966666Y-23978628D02*
X21585714Y-23978628D01*
X23109523Y-24454819D02*
X22538095Y-24454819D01*
X22823809Y-24454819D02*
X22823809Y-23454819D01*
X22823809Y-23454819D02*
X22728571Y-23597676D01*
X22728571Y-23597676D02*
X22633333Y-23692914D01*
X22633333Y-23692914D02*
X22538095Y-23740533D01*
X23442857Y-23454819D02*
X24061904Y-23454819D01*
X24061904Y-23454819D02*
X23728571Y-23835771D01*
X23728571Y-23835771D02*
X23871428Y-23835771D01*
X23871428Y-23835771D02*
X23966666Y-23883390D01*
X23966666Y-23883390D02*
X24014285Y-23931009D01*
X24014285Y-23931009D02*
X24061904Y-24026247D01*
X24061904Y-24026247D02*
X24061904Y-24264342D01*
X24061904Y-24264342D02*
X24014285Y-24359580D01*
X24014285Y-24359580D02*
X23966666Y-24407200D01*
X23966666Y-24407200D02*
X23871428Y-24454819D01*
X23871428Y-24454819D02*
X23585714Y-24454819D01*
X23585714Y-24454819D02*
X23490476Y-24407200D01*
X23490476Y-24407200D02*
X23442857Y-24359580D01*
X28661905Y-32754819D02*
X28661905Y-31754819D01*
X28661905Y-31754819D02*
X28900000Y-31754819D01*
X28900000Y-31754819D02*
X29042857Y-31802438D01*
X29042857Y-31802438D02*
X29138095Y-31897676D01*
X29138095Y-31897676D02*
X29185714Y-31992914D01*
X29185714Y-31992914D02*
X29233333Y-32183390D01*
X29233333Y-32183390D02*
X29233333Y-32326247D01*
X29233333Y-32326247D02*
X29185714Y-32516723D01*
X29185714Y-32516723D02*
X29138095Y-32611961D01*
X29138095Y-32611961D02*
X29042857Y-32707200D01*
X29042857Y-32707200D02*
X28900000Y-32754819D01*
X28900000Y-32754819D02*
X28661905Y-32754819D01*
X29614286Y-31850057D02*
X29661905Y-31802438D01*
X29661905Y-31802438D02*
X29757143Y-31754819D01*
X29757143Y-31754819D02*
X29995238Y-31754819D01*
X29995238Y-31754819D02*
X30090476Y-31802438D01*
X30090476Y-31802438D02*
X30138095Y-31850057D01*
X30138095Y-31850057D02*
X30185714Y-31945295D01*
X30185714Y-31945295D02*
X30185714Y-32040533D01*
X30185714Y-32040533D02*
X30138095Y-32183390D01*
X30138095Y-32183390D02*
X29566667Y-32754819D01*
X29566667Y-32754819D02*
X30185714Y-32754819D01*
X18857142Y-24454819D02*
X18523809Y-23978628D01*
X18285714Y-24454819D02*
X18285714Y-23454819D01*
X18285714Y-23454819D02*
X18666666Y-23454819D01*
X18666666Y-23454819D02*
X18761904Y-23502438D01*
X18761904Y-23502438D02*
X18809523Y-23550057D01*
X18809523Y-23550057D02*
X18857142Y-23645295D01*
X18857142Y-23645295D02*
X18857142Y-23788152D01*
X18857142Y-23788152D02*
X18809523Y-23883390D01*
X18809523Y-23883390D02*
X18761904Y-23931009D01*
X18761904Y-23931009D02*
X18666666Y-23978628D01*
X18666666Y-23978628D02*
X18285714Y-23978628D01*
X19809523Y-24454819D02*
X19238095Y-24454819D01*
X19523809Y-24454819D02*
X19523809Y-23454819D01*
X19523809Y-23454819D02*
X19428571Y-23597676D01*
X19428571Y-23597676D02*
X19333333Y-23692914D01*
X19333333Y-23692914D02*
X19238095Y-23740533D01*
X20666666Y-23788152D02*
X20666666Y-24454819D01*
X20428571Y-23407200D02*
X20190476Y-24121485D01*
X20190476Y-24121485D02*
X20809523Y-24121485D01*
X51766666Y-42054819D02*
X51766666Y-42769104D01*
X51766666Y-42769104D02*
X51719047Y-42911961D01*
X51719047Y-42911961D02*
X51623809Y-43007200D01*
X51623809Y-43007200D02*
X51480952Y-43054819D01*
X51480952Y-43054819D02*
X51385714Y-43054819D01*
X52290476Y-43054819D02*
X52480952Y-43054819D01*
X52480952Y-43054819D02*
X52576190Y-43007200D01*
X52576190Y-43007200D02*
X52623809Y-42959580D01*
X52623809Y-42959580D02*
X52719047Y-42816723D01*
X52719047Y-42816723D02*
X52766666Y-42626247D01*
X52766666Y-42626247D02*
X52766666Y-42245295D01*
X52766666Y-42245295D02*
X52719047Y-42150057D01*
X52719047Y-42150057D02*
X52671428Y-42102438D01*
X52671428Y-42102438D02*
X52576190Y-42054819D01*
X52576190Y-42054819D02*
X52385714Y-42054819D01*
X52385714Y-42054819D02*
X52290476Y-42102438D01*
X52290476Y-42102438D02*
X52242857Y-42150057D01*
X52242857Y-42150057D02*
X52195238Y-42245295D01*
X52195238Y-42245295D02*
X52195238Y-42483390D01*
X52195238Y-42483390D02*
X52242857Y-42578628D01*
X52242857Y-42578628D02*
X52290476Y-42626247D01*
X52290476Y-42626247D02*
X52385714Y-42673866D01*
X52385714Y-42673866D02*
X52576190Y-42673866D01*
X52576190Y-42673866D02*
X52671428Y-42626247D01*
X52671428Y-42626247D02*
X52719047Y-42578628D01*
X52719047Y-42578628D02*
X52766666Y-42483390D01*
X18666666Y-57464819D02*
X18666666Y-58179104D01*
X18666666Y-58179104D02*
X18619047Y-58321961D01*
X18619047Y-58321961D02*
X18523809Y-58417200D01*
X18523809Y-58417200D02*
X18380952Y-58464819D01*
X18380952Y-58464819D02*
X18285714Y-58464819D01*
X19666666Y-58464819D02*
X19095238Y-58464819D01*
X19380952Y-58464819D02*
X19380952Y-57464819D01*
X19380952Y-57464819D02*
X19285714Y-57607676D01*
X19285714Y-57607676D02*
X19190476Y-57702914D01*
X19190476Y-57702914D02*
X19095238Y-57750533D01*
X53933333Y-48854819D02*
X53600000Y-48378628D01*
X53361905Y-48854819D02*
X53361905Y-47854819D01*
X53361905Y-47854819D02*
X53742857Y-47854819D01*
X53742857Y-47854819D02*
X53838095Y-47902438D01*
X53838095Y-47902438D02*
X53885714Y-47950057D01*
X53885714Y-47950057D02*
X53933333Y-48045295D01*
X53933333Y-48045295D02*
X53933333Y-48188152D01*
X53933333Y-48188152D02*
X53885714Y-48283390D01*
X53885714Y-48283390D02*
X53838095Y-48331009D01*
X53838095Y-48331009D02*
X53742857Y-48378628D01*
X53742857Y-48378628D02*
X53361905Y-48378628D01*
X54838095Y-47854819D02*
X54361905Y-47854819D01*
X54361905Y-47854819D02*
X54314286Y-48331009D01*
X54314286Y-48331009D02*
X54361905Y-48283390D01*
X54361905Y-48283390D02*
X54457143Y-48235771D01*
X54457143Y-48235771D02*
X54695238Y-48235771D01*
X54695238Y-48235771D02*
X54790476Y-48283390D01*
X54790476Y-48283390D02*
X54838095Y-48331009D01*
X54838095Y-48331009D02*
X54885714Y-48426247D01*
X54885714Y-48426247D02*
X54885714Y-48664342D01*
X54885714Y-48664342D02*
X54838095Y-48759580D01*
X54838095Y-48759580D02*
X54790476Y-48807200D01*
X54790476Y-48807200D02*
X54695238Y-48854819D01*
X54695238Y-48854819D02*
X54457143Y-48854819D01*
X54457143Y-48854819D02*
X54361905Y-48807200D01*
X54361905Y-48807200D02*
X54314286Y-48759580D01*
X33033333Y-33559580D02*
X32985714Y-33607200D01*
X32985714Y-33607200D02*
X32842857Y-33654819D01*
X32842857Y-33654819D02*
X32747619Y-33654819D01*
X32747619Y-33654819D02*
X32604762Y-33607200D01*
X32604762Y-33607200D02*
X32509524Y-33511961D01*
X32509524Y-33511961D02*
X32461905Y-33416723D01*
X32461905Y-33416723D02*
X32414286Y-33226247D01*
X32414286Y-33226247D02*
X32414286Y-33083390D01*
X32414286Y-33083390D02*
X32461905Y-32892914D01*
X32461905Y-32892914D02*
X32509524Y-32797676D01*
X32509524Y-32797676D02*
X32604762Y-32702438D01*
X32604762Y-32702438D02*
X32747619Y-32654819D01*
X32747619Y-32654819D02*
X32842857Y-32654819D01*
X32842857Y-32654819D02*
X32985714Y-32702438D01*
X32985714Y-32702438D02*
X33033333Y-32750057D01*
X33890476Y-32654819D02*
X33700000Y-32654819D01*
X33700000Y-32654819D02*
X33604762Y-32702438D01*
X33604762Y-32702438D02*
X33557143Y-32750057D01*
X33557143Y-32750057D02*
X33461905Y-32892914D01*
X33461905Y-32892914D02*
X33414286Y-33083390D01*
X33414286Y-33083390D02*
X33414286Y-33464342D01*
X33414286Y-33464342D02*
X33461905Y-33559580D01*
X33461905Y-33559580D02*
X33509524Y-33607200D01*
X33509524Y-33607200D02*
X33604762Y-33654819D01*
X33604762Y-33654819D02*
X33795238Y-33654819D01*
X33795238Y-33654819D02*
X33890476Y-33607200D01*
X33890476Y-33607200D02*
X33938095Y-33559580D01*
X33938095Y-33559580D02*
X33985714Y-33464342D01*
X33985714Y-33464342D02*
X33985714Y-33226247D01*
X33985714Y-33226247D02*
X33938095Y-33131009D01*
X33938095Y-33131009D02*
X33890476Y-33083390D01*
X33890476Y-33083390D02*
X33795238Y-33035771D01*
X33795238Y-33035771D02*
X33604762Y-33035771D01*
X33604762Y-33035771D02*
X33509524Y-33083390D01*
X33509524Y-33083390D02*
X33461905Y-33131009D01*
X33461905Y-33131009D02*
X33414286Y-33226247D01*
X41766666Y-36654819D02*
X41766666Y-37369104D01*
X41766666Y-37369104D02*
X41719047Y-37511961D01*
X41719047Y-37511961D02*
X41623809Y-37607200D01*
X41623809Y-37607200D02*
X41480952Y-37654819D01*
X41480952Y-37654819D02*
X41385714Y-37654819D01*
X42385714Y-37083390D02*
X42290476Y-37035771D01*
X42290476Y-37035771D02*
X42242857Y-36988152D01*
X42242857Y-36988152D02*
X42195238Y-36892914D01*
X42195238Y-36892914D02*
X42195238Y-36845295D01*
X42195238Y-36845295D02*
X42242857Y-36750057D01*
X42242857Y-36750057D02*
X42290476Y-36702438D01*
X42290476Y-36702438D02*
X42385714Y-36654819D01*
X42385714Y-36654819D02*
X42576190Y-36654819D01*
X42576190Y-36654819D02*
X42671428Y-36702438D01*
X42671428Y-36702438D02*
X42719047Y-36750057D01*
X42719047Y-36750057D02*
X42766666Y-36845295D01*
X42766666Y-36845295D02*
X42766666Y-36892914D01*
X42766666Y-36892914D02*
X42719047Y-36988152D01*
X42719047Y-36988152D02*
X42671428Y-37035771D01*
X42671428Y-37035771D02*
X42576190Y-37083390D01*
X42576190Y-37083390D02*
X42385714Y-37083390D01*
X42385714Y-37083390D02*
X42290476Y-37131009D01*
X42290476Y-37131009D02*
X42242857Y-37178628D01*
X42242857Y-37178628D02*
X42195238Y-37273866D01*
X42195238Y-37273866D02*
X42195238Y-37464342D01*
X42195238Y-37464342D02*
X42242857Y-37559580D01*
X42242857Y-37559580D02*
X42290476Y-37607200D01*
X42290476Y-37607200D02*
X42385714Y-37654819D01*
X42385714Y-37654819D02*
X42576190Y-37654819D01*
X42576190Y-37654819D02*
X42671428Y-37607200D01*
X42671428Y-37607200D02*
X42719047Y-37559580D01*
X42719047Y-37559580D02*
X42766666Y-37464342D01*
X42766666Y-37464342D02*
X42766666Y-37273866D01*
X42766666Y-37273866D02*
X42719047Y-37178628D01*
X42719047Y-37178628D02*
X42671428Y-37131009D01*
X42671428Y-37131009D02*
X42576190Y-37083390D01*
X53933333Y-46954819D02*
X53600000Y-46478628D01*
X53361905Y-46954819D02*
X53361905Y-45954819D01*
X53361905Y-45954819D02*
X53742857Y-45954819D01*
X53742857Y-45954819D02*
X53838095Y-46002438D01*
X53838095Y-46002438D02*
X53885714Y-46050057D01*
X53885714Y-46050057D02*
X53933333Y-46145295D01*
X53933333Y-46145295D02*
X53933333Y-46288152D01*
X53933333Y-46288152D02*
X53885714Y-46383390D01*
X53885714Y-46383390D02*
X53838095Y-46431009D01*
X53838095Y-46431009D02*
X53742857Y-46478628D01*
X53742857Y-46478628D02*
X53361905Y-46478628D01*
X54790476Y-45954819D02*
X54600000Y-45954819D01*
X54600000Y-45954819D02*
X54504762Y-46002438D01*
X54504762Y-46002438D02*
X54457143Y-46050057D01*
X54457143Y-46050057D02*
X54361905Y-46192914D01*
X54361905Y-46192914D02*
X54314286Y-46383390D01*
X54314286Y-46383390D02*
X54314286Y-46764342D01*
X54314286Y-46764342D02*
X54361905Y-46859580D01*
X54361905Y-46859580D02*
X54409524Y-46907200D01*
X54409524Y-46907200D02*
X54504762Y-46954819D01*
X54504762Y-46954819D02*
X54695238Y-46954819D01*
X54695238Y-46954819D02*
X54790476Y-46907200D01*
X54790476Y-46907200D02*
X54838095Y-46859580D01*
X54838095Y-46859580D02*
X54885714Y-46764342D01*
X54885714Y-46764342D02*
X54885714Y-46526247D01*
X54885714Y-46526247D02*
X54838095Y-46431009D01*
X54838095Y-46431009D02*
X54790476Y-46383390D01*
X54790476Y-46383390D02*
X54695238Y-46335771D01*
X54695238Y-46335771D02*
X54504762Y-46335771D01*
X54504762Y-46335771D02*
X54409524Y-46383390D01*
X54409524Y-46383390D02*
X54361905Y-46431009D01*
X54361905Y-46431009D02*
X54314286Y-46526247D01*
X18666666Y-19954819D02*
X18666666Y-20669104D01*
X18666666Y-20669104D02*
X18619047Y-20811961D01*
X18619047Y-20811961D02*
X18523809Y-20907200D01*
X18523809Y-20907200D02*
X18380952Y-20954819D01*
X18380952Y-20954819D02*
X18285714Y-20954819D01*
X19047619Y-19954819D02*
X19666666Y-19954819D01*
X19666666Y-19954819D02*
X19333333Y-20335771D01*
X19333333Y-20335771D02*
X19476190Y-20335771D01*
X19476190Y-20335771D02*
X19571428Y-20383390D01*
X19571428Y-20383390D02*
X19619047Y-20431009D01*
X19619047Y-20431009D02*
X19666666Y-20526247D01*
X19666666Y-20526247D02*
X19666666Y-20764342D01*
X19666666Y-20764342D02*
X19619047Y-20859580D01*
X19619047Y-20859580D02*
X19571428Y-20907200D01*
X19571428Y-20907200D02*
X19476190Y-20954819D01*
X19476190Y-20954819D02*
X19190476Y-20954819D01*
X19190476Y-20954819D02*
X19095238Y-20907200D01*
X19095238Y-20907200D02*
X19047619Y-20859580D01*
X31138095Y-43654819D02*
X31138095Y-44464342D01*
X31138095Y-44464342D02*
X31185714Y-44559580D01*
X31185714Y-44559580D02*
X31233333Y-44607200D01*
X31233333Y-44607200D02*
X31328571Y-44654819D01*
X31328571Y-44654819D02*
X31519047Y-44654819D01*
X31519047Y-44654819D02*
X31614285Y-44607200D01*
X31614285Y-44607200D02*
X31661904Y-44559580D01*
X31661904Y-44559580D02*
X31709523Y-44464342D01*
X31709523Y-44464342D02*
X31709523Y-43654819D01*
X32090476Y-43654819D02*
X32709523Y-43654819D01*
X32709523Y-43654819D02*
X32376190Y-44035771D01*
X32376190Y-44035771D02*
X32519047Y-44035771D01*
X32519047Y-44035771D02*
X32614285Y-44083390D01*
X32614285Y-44083390D02*
X32661904Y-44131009D01*
X32661904Y-44131009D02*
X32709523Y-44226247D01*
X32709523Y-44226247D02*
X32709523Y-44464342D01*
X32709523Y-44464342D02*
X32661904Y-44559580D01*
X32661904Y-44559580D02*
X32614285Y-44607200D01*
X32614285Y-44607200D02*
X32519047Y-44654819D01*
X32519047Y-44654819D02*
X32233333Y-44654819D01*
X32233333Y-44654819D02*
X32138095Y-44607200D01*
X32138095Y-44607200D02*
X32090476Y-44559580D01*
X53933333Y-51754819D02*
X53600000Y-51278628D01*
X53361905Y-51754819D02*
X53361905Y-50754819D01*
X53361905Y-50754819D02*
X53742857Y-50754819D01*
X53742857Y-50754819D02*
X53838095Y-50802438D01*
X53838095Y-50802438D02*
X53885714Y-50850057D01*
X53885714Y-50850057D02*
X53933333Y-50945295D01*
X53933333Y-50945295D02*
X53933333Y-51088152D01*
X53933333Y-51088152D02*
X53885714Y-51183390D01*
X53885714Y-51183390D02*
X53838095Y-51231009D01*
X53838095Y-51231009D02*
X53742857Y-51278628D01*
X53742857Y-51278628D02*
X53361905Y-51278628D01*
X54266667Y-50754819D02*
X54933333Y-50754819D01*
X54933333Y-50754819D02*
X54504762Y-51754819D01*
X50466666Y-20954819D02*
X50466666Y-21669104D01*
X50466666Y-21669104D02*
X50419047Y-21811961D01*
X50419047Y-21811961D02*
X50323809Y-21907200D01*
X50323809Y-21907200D02*
X50180952Y-21954819D01*
X50180952Y-21954819D02*
X50085714Y-21954819D01*
X51419047Y-20954819D02*
X50942857Y-20954819D01*
X50942857Y-20954819D02*
X50895238Y-21431009D01*
X50895238Y-21431009D02*
X50942857Y-21383390D01*
X50942857Y-21383390D02*
X51038095Y-21335771D01*
X51038095Y-21335771D02*
X51276190Y-21335771D01*
X51276190Y-21335771D02*
X51371428Y-21383390D01*
X51371428Y-21383390D02*
X51419047Y-21431009D01*
X51419047Y-21431009D02*
X51466666Y-21526247D01*
X51466666Y-21526247D02*
X51466666Y-21764342D01*
X51466666Y-21764342D02*
X51419047Y-21859580D01*
X51419047Y-21859580D02*
X51371428Y-21907200D01*
X51371428Y-21907200D02*
X51276190Y-21954819D01*
X51276190Y-21954819D02*
X51038095Y-21954819D01*
X51038095Y-21954819D02*
X50942857Y-21907200D01*
X50942857Y-21907200D02*
X50895238Y-21859580D01*
X45804761Y-55550057D02*
X45709523Y-55502438D01*
X45709523Y-55502438D02*
X45614285Y-55407200D01*
X45614285Y-55407200D02*
X45471428Y-55264342D01*
X45471428Y-55264342D02*
X45376190Y-55216723D01*
X45376190Y-55216723D02*
X45280952Y-55216723D01*
X45328571Y-55454819D02*
X45233333Y-55407200D01*
X45233333Y-55407200D02*
X45138095Y-55311961D01*
X45138095Y-55311961D02*
X45090476Y-55121485D01*
X45090476Y-55121485D02*
X45090476Y-54788152D01*
X45090476Y-54788152D02*
X45138095Y-54597676D01*
X45138095Y-54597676D02*
X45233333Y-54502438D01*
X45233333Y-54502438D02*
X45328571Y-54454819D01*
X45328571Y-54454819D02*
X45519047Y-54454819D01*
X45519047Y-54454819D02*
X45614285Y-54502438D01*
X45614285Y-54502438D02*
X45709523Y-54597676D01*
X45709523Y-54597676D02*
X45757142Y-54788152D01*
X45757142Y-54788152D02*
X45757142Y-55121485D01*
X45757142Y-55121485D02*
X45709523Y-55311961D01*
X45709523Y-55311961D02*
X45614285Y-55407200D01*
X45614285Y-55407200D02*
X45519047Y-55454819D01*
X45519047Y-55454819D02*
X45328571Y-55454819D01*
X46090476Y-54454819D02*
X46709523Y-54454819D01*
X46709523Y-54454819D02*
X46376190Y-54835771D01*
X46376190Y-54835771D02*
X46519047Y-54835771D01*
X46519047Y-54835771D02*
X46614285Y-54883390D01*
X46614285Y-54883390D02*
X46661904Y-54931009D01*
X46661904Y-54931009D02*
X46709523Y-55026247D01*
X46709523Y-55026247D02*
X46709523Y-55264342D01*
X46709523Y-55264342D02*
X46661904Y-55359580D01*
X46661904Y-55359580D02*
X46614285Y-55407200D01*
X46614285Y-55407200D02*
X46519047Y-55454819D01*
X46519047Y-55454819D02*
X46233333Y-55454819D01*
X46233333Y-55454819D02*
X46138095Y-55407200D01*
X46138095Y-55407200D02*
X46090476Y-55359580D01*
X41933333Y-39059580D02*
X41885714Y-39107200D01*
X41885714Y-39107200D02*
X41742857Y-39154819D01*
X41742857Y-39154819D02*
X41647619Y-39154819D01*
X41647619Y-39154819D02*
X41504762Y-39107200D01*
X41504762Y-39107200D02*
X41409524Y-39011961D01*
X41409524Y-39011961D02*
X41361905Y-38916723D01*
X41361905Y-38916723D02*
X41314286Y-38726247D01*
X41314286Y-38726247D02*
X41314286Y-38583390D01*
X41314286Y-38583390D02*
X41361905Y-38392914D01*
X41361905Y-38392914D02*
X41409524Y-38297676D01*
X41409524Y-38297676D02*
X41504762Y-38202438D01*
X41504762Y-38202438D02*
X41647619Y-38154819D01*
X41647619Y-38154819D02*
X41742857Y-38154819D01*
X41742857Y-38154819D02*
X41885714Y-38202438D01*
X41885714Y-38202438D02*
X41933333Y-38250057D01*
X42885714Y-39154819D02*
X42314286Y-39154819D01*
X42600000Y-39154819D02*
X42600000Y-38154819D01*
X42600000Y-38154819D02*
X42504762Y-38297676D01*
X42504762Y-38297676D02*
X42409524Y-38392914D01*
X42409524Y-38392914D02*
X42314286Y-38440533D01*
X52857142Y-55854819D02*
X52523809Y-55378628D01*
X52285714Y-55854819D02*
X52285714Y-54854819D01*
X52285714Y-54854819D02*
X52666666Y-54854819D01*
X52666666Y-54854819D02*
X52761904Y-54902438D01*
X52761904Y-54902438D02*
X52809523Y-54950057D01*
X52809523Y-54950057D02*
X52857142Y-55045295D01*
X52857142Y-55045295D02*
X52857142Y-55188152D01*
X52857142Y-55188152D02*
X52809523Y-55283390D01*
X52809523Y-55283390D02*
X52761904Y-55331009D01*
X52761904Y-55331009D02*
X52666666Y-55378628D01*
X52666666Y-55378628D02*
X52285714Y-55378628D01*
X53809523Y-55854819D02*
X53238095Y-55854819D01*
X53523809Y-55854819D02*
X53523809Y-54854819D01*
X53523809Y-54854819D02*
X53428571Y-54997676D01*
X53428571Y-54997676D02*
X53333333Y-55092914D01*
X53333333Y-55092914D02*
X53238095Y-55140533D01*
X54761904Y-55854819D02*
X54190476Y-55854819D01*
X54476190Y-55854819D02*
X54476190Y-54854819D01*
X54476190Y-54854819D02*
X54380952Y-54997676D01*
X54380952Y-54997676D02*
X54285714Y-55092914D01*
X54285714Y-55092914D02*
X54190476Y-55140533D01*
X51657142Y-62654819D02*
X51323809Y-62178628D01*
X51085714Y-62654819D02*
X51085714Y-61654819D01*
X51085714Y-61654819D02*
X51466666Y-61654819D01*
X51466666Y-61654819D02*
X51561904Y-61702438D01*
X51561904Y-61702438D02*
X51609523Y-61750057D01*
X51609523Y-61750057D02*
X51657142Y-61845295D01*
X51657142Y-61845295D02*
X51657142Y-61988152D01*
X51657142Y-61988152D02*
X51609523Y-62083390D01*
X51609523Y-62083390D02*
X51561904Y-62131009D01*
X51561904Y-62131009D02*
X51466666Y-62178628D01*
X51466666Y-62178628D02*
X51085714Y-62178628D01*
X52609523Y-62654819D02*
X52038095Y-62654819D01*
X52323809Y-62654819D02*
X52323809Y-61654819D01*
X52323809Y-61654819D02*
X52228571Y-61797676D01*
X52228571Y-61797676D02*
X52133333Y-61892914D01*
X52133333Y-61892914D02*
X52038095Y-61940533D01*
X52990476Y-61750057D02*
X53038095Y-61702438D01*
X53038095Y-61702438D02*
X53133333Y-61654819D01*
X53133333Y-61654819D02*
X53371428Y-61654819D01*
X53371428Y-61654819D02*
X53466666Y-61702438D01*
X53466666Y-61702438D02*
X53514285Y-61750057D01*
X53514285Y-61750057D02*
X53561904Y-61845295D01*
X53561904Y-61845295D02*
X53561904Y-61940533D01*
X53561904Y-61940533D02*
X53514285Y-62083390D01*
X53514285Y-62083390D02*
X52942857Y-62654819D01*
X52942857Y-62654819D02*
X53561904Y-62654819D01*
X37238095Y-61754819D02*
X37238095Y-62564342D01*
X37238095Y-62564342D02*
X37285714Y-62659580D01*
X37285714Y-62659580D02*
X37333333Y-62707200D01*
X37333333Y-62707200D02*
X37428571Y-62754819D01*
X37428571Y-62754819D02*
X37619047Y-62754819D01*
X37619047Y-62754819D02*
X37714285Y-62707200D01*
X37714285Y-62707200D02*
X37761904Y-62659580D01*
X37761904Y-62659580D02*
X37809523Y-62564342D01*
X37809523Y-62564342D02*
X37809523Y-61754819D01*
X38238095Y-61850057D02*
X38285714Y-61802438D01*
X38285714Y-61802438D02*
X38380952Y-61754819D01*
X38380952Y-61754819D02*
X38619047Y-61754819D01*
X38619047Y-61754819D02*
X38714285Y-61802438D01*
X38714285Y-61802438D02*
X38761904Y-61850057D01*
X38761904Y-61850057D02*
X38809523Y-61945295D01*
X38809523Y-61945295D02*
X38809523Y-62040533D01*
X38809523Y-62040533D02*
X38761904Y-62183390D01*
X38761904Y-62183390D02*
X38190476Y-62754819D01*
X38190476Y-62754819D02*
X38809523Y-62754819D01*
X35233333Y-55354819D02*
X34900000Y-54878628D01*
X34661905Y-55354819D02*
X34661905Y-54354819D01*
X34661905Y-54354819D02*
X35042857Y-54354819D01*
X35042857Y-54354819D02*
X35138095Y-54402438D01*
X35138095Y-54402438D02*
X35185714Y-54450057D01*
X35185714Y-54450057D02*
X35233333Y-54545295D01*
X35233333Y-54545295D02*
X35233333Y-54688152D01*
X35233333Y-54688152D02*
X35185714Y-54783390D01*
X35185714Y-54783390D02*
X35138095Y-54831009D01*
X35138095Y-54831009D02*
X35042857Y-54878628D01*
X35042857Y-54878628D02*
X34661905Y-54878628D01*
X35566667Y-54354819D02*
X36185714Y-54354819D01*
X36185714Y-54354819D02*
X35852381Y-54735771D01*
X35852381Y-54735771D02*
X35995238Y-54735771D01*
X35995238Y-54735771D02*
X36090476Y-54783390D01*
X36090476Y-54783390D02*
X36138095Y-54831009D01*
X36138095Y-54831009D02*
X36185714Y-54926247D01*
X36185714Y-54926247D02*
X36185714Y-55164342D01*
X36185714Y-55164342D02*
X36138095Y-55259580D01*
X36138095Y-55259580D02*
X36090476Y-55307200D01*
X36090476Y-55307200D02*
X35995238Y-55354819D01*
X35995238Y-55354819D02*
X35709524Y-55354819D01*
X35709524Y-55354819D02*
X35614286Y-55307200D01*
X35614286Y-55307200D02*
X35566667Y-55259580D01*
X50133333Y-44617580D02*
X50085714Y-44665200D01*
X50085714Y-44665200D02*
X49942857Y-44712819D01*
X49942857Y-44712819D02*
X49847619Y-44712819D01*
X49847619Y-44712819D02*
X49704762Y-44665200D01*
X49704762Y-44665200D02*
X49609524Y-44569961D01*
X49609524Y-44569961D02*
X49561905Y-44474723D01*
X49561905Y-44474723D02*
X49514286Y-44284247D01*
X49514286Y-44284247D02*
X49514286Y-44141390D01*
X49514286Y-44141390D02*
X49561905Y-43950914D01*
X49561905Y-43950914D02*
X49609524Y-43855676D01*
X49609524Y-43855676D02*
X49704762Y-43760438D01*
X49704762Y-43760438D02*
X49847619Y-43712819D01*
X49847619Y-43712819D02*
X49942857Y-43712819D01*
X49942857Y-43712819D02*
X50085714Y-43760438D01*
X50085714Y-43760438D02*
X50133333Y-43808057D01*
X50990476Y-44046152D02*
X50990476Y-44712819D01*
X50752381Y-43665200D02*
X50514286Y-44379485D01*
X50514286Y-44379485D02*
X51133333Y-44379485D01*
X24733333Y-25959580D02*
X24685714Y-26007200D01*
X24685714Y-26007200D02*
X24542857Y-26054819D01*
X24542857Y-26054819D02*
X24447619Y-26054819D01*
X24447619Y-26054819D02*
X24304762Y-26007200D01*
X24304762Y-26007200D02*
X24209524Y-25911961D01*
X24209524Y-25911961D02*
X24161905Y-25816723D01*
X24161905Y-25816723D02*
X24114286Y-25626247D01*
X24114286Y-25626247D02*
X24114286Y-25483390D01*
X24114286Y-25483390D02*
X24161905Y-25292914D01*
X24161905Y-25292914D02*
X24209524Y-25197676D01*
X24209524Y-25197676D02*
X24304762Y-25102438D01*
X24304762Y-25102438D02*
X24447619Y-25054819D01*
X24447619Y-25054819D02*
X24542857Y-25054819D01*
X24542857Y-25054819D02*
X24685714Y-25102438D01*
X24685714Y-25102438D02*
X24733333Y-25150057D01*
X25304762Y-25483390D02*
X25209524Y-25435771D01*
X25209524Y-25435771D02*
X25161905Y-25388152D01*
X25161905Y-25388152D02*
X25114286Y-25292914D01*
X25114286Y-25292914D02*
X25114286Y-25245295D01*
X25114286Y-25245295D02*
X25161905Y-25150057D01*
X25161905Y-25150057D02*
X25209524Y-25102438D01*
X25209524Y-25102438D02*
X25304762Y-25054819D01*
X25304762Y-25054819D02*
X25495238Y-25054819D01*
X25495238Y-25054819D02*
X25590476Y-25102438D01*
X25590476Y-25102438D02*
X25638095Y-25150057D01*
X25638095Y-25150057D02*
X25685714Y-25245295D01*
X25685714Y-25245295D02*
X25685714Y-25292914D01*
X25685714Y-25292914D02*
X25638095Y-25388152D01*
X25638095Y-25388152D02*
X25590476Y-25435771D01*
X25590476Y-25435771D02*
X25495238Y-25483390D01*
X25495238Y-25483390D02*
X25304762Y-25483390D01*
X25304762Y-25483390D02*
X25209524Y-25531009D01*
X25209524Y-25531009D02*
X25161905Y-25578628D01*
X25161905Y-25578628D02*
X25114286Y-25673866D01*
X25114286Y-25673866D02*
X25114286Y-25864342D01*
X25114286Y-25864342D02*
X25161905Y-25959580D01*
X25161905Y-25959580D02*
X25209524Y-26007200D01*
X25209524Y-26007200D02*
X25304762Y-26054819D01*
X25304762Y-26054819D02*
X25495238Y-26054819D01*
X25495238Y-26054819D02*
X25590476Y-26007200D01*
X25590476Y-26007200D02*
X25638095Y-25959580D01*
X25638095Y-25959580D02*
X25685714Y-25864342D01*
X25685714Y-25864342D02*
X25685714Y-25673866D01*
X25685714Y-25673866D02*
X25638095Y-25578628D01*
X25638095Y-25578628D02*
X25590476Y-25531009D01*
X25590476Y-25531009D02*
X25495238Y-25483390D01*
D11*
%TO.C,U4*%
X19050000Y-43280000D02*
X18810000Y-42950000D01*
X19290000Y-42950000D01*
X19050000Y-43280000D01*
G36*
X19050000Y-43280000D02*
G01*
X18810000Y-42950000D01*
X19290000Y-42950000D01*
X19050000Y-43280000D01*
G37*
X26510000Y-48000000D02*
X19890000Y-48000000D01*
X26510000Y-47770000D02*
X26510000Y-48000000D01*
X26510000Y-43000000D02*
X26510000Y-43230000D01*
X19890000Y-48000000D02*
X19890000Y-47770000D01*
X19890000Y-43230000D02*
X19890000Y-43000000D01*
X19890000Y-43000000D02*
X26510000Y-43000000D01*
%TO.C,C3*%
X30610000Y-45088748D02*
X30610000Y-46511252D01*
X28790000Y-45088748D02*
X28790000Y-46511252D01*
%TO.C,C2*%
X31820000Y-40400000D02*
G75*
G02*
X26580000Y-40400000I-2620000J0D01*
G01*
X26580000Y-40400000D02*
G75*
G02*
X31820000Y-40400000I2620000J0D01*
G01*
X26600000Y-40683000D02*
X26600000Y-40117000D01*
X26640000Y-40917000D02*
X26640000Y-39883000D01*
X26680000Y-41077000D02*
X26680000Y-39723000D01*
X26720000Y-41205000D02*
X26720000Y-39595000D01*
X26760000Y-41314000D02*
X26760000Y-39486000D01*
X26800000Y-41411000D02*
X26800000Y-39389000D01*
X26840000Y-41498000D02*
X26840000Y-39302000D01*
X26880000Y-41577000D02*
X26880000Y-39223000D01*
X26920000Y-41651000D02*
X26920000Y-39149000D01*
X26960000Y-41719000D02*
X26960000Y-39081000D01*
X27000000Y-41783000D02*
X27000000Y-39017000D01*
X27040000Y-41843000D02*
X27040000Y-38957000D01*
X27080000Y-41899000D02*
X27080000Y-38901000D01*
X27120000Y-41953000D02*
X27120000Y-38847000D01*
X27160000Y-42004000D02*
X27160000Y-38796000D01*
X27200000Y-39360000D02*
X27200000Y-38748000D01*
X27200000Y-42052000D02*
X27200000Y-41440000D01*
X27240000Y-39360000D02*
X27240000Y-38701000D01*
X27240000Y-42099000D02*
X27240000Y-41440000D01*
X27280000Y-39360000D02*
X27280000Y-38657000D01*
X27280000Y-42143000D02*
X27280000Y-41440000D01*
X27320000Y-39360000D02*
X27320000Y-38615000D01*
X27320000Y-42185000D02*
X27320000Y-41440000D01*
X27360000Y-39360000D02*
X27360000Y-38575000D01*
X27360000Y-42225000D02*
X27360000Y-41440000D01*
X27400000Y-39360000D02*
X27400000Y-38536000D01*
X27400000Y-42264000D02*
X27400000Y-41440000D01*
X27440000Y-39360000D02*
X27440000Y-38499000D01*
X27440000Y-42301000D02*
X27440000Y-41440000D01*
X27480000Y-39360000D02*
X27480000Y-38464000D01*
X27480000Y-42336000D02*
X27480000Y-41440000D01*
X27520000Y-39360000D02*
X27520000Y-38430000D01*
X27520000Y-42370000D02*
X27520000Y-41440000D01*
X27560000Y-39360000D02*
X27560000Y-38397000D01*
X27560000Y-42403000D02*
X27560000Y-41440000D01*
X27600000Y-39360000D02*
X27600000Y-38365000D01*
X27600000Y-42435000D02*
X27600000Y-41440000D01*
X27640000Y-39360000D02*
X27640000Y-38335000D01*
X27640000Y-42465000D02*
X27640000Y-41440000D01*
X27680000Y-39360000D02*
X27680000Y-38306000D01*
X27680000Y-42494000D02*
X27680000Y-41440000D01*
X27720000Y-39360000D02*
X27720000Y-38278000D01*
X27720000Y-42522000D02*
X27720000Y-41440000D01*
X27760000Y-39360000D02*
X27760000Y-38251000D01*
X27760000Y-42549000D02*
X27760000Y-41440000D01*
X27800000Y-39360000D02*
X27800000Y-38225000D01*
X27800000Y-42575000D02*
X27800000Y-41440000D01*
X27840000Y-39360000D02*
X27840000Y-38201000D01*
X27840000Y-42599000D02*
X27840000Y-41440000D01*
X27880000Y-39360000D02*
X27880000Y-38177000D01*
X27880000Y-42623000D02*
X27880000Y-41440000D01*
X27920000Y-39360000D02*
X27920000Y-38154000D01*
X27920000Y-42646000D02*
X27920000Y-41440000D01*
X27960000Y-39360000D02*
X27960000Y-38132000D01*
X27960000Y-42668000D02*
X27960000Y-41440000D01*
X28000000Y-39360000D02*
X28000000Y-38111000D01*
X28000000Y-42689000D02*
X28000000Y-41440000D01*
X28040000Y-39360000D02*
X28040000Y-38091000D01*
X28040000Y-42709000D02*
X28040000Y-41440000D01*
X28080000Y-39360000D02*
X28080000Y-38071000D01*
X28080000Y-42729000D02*
X28080000Y-41440000D01*
X28120000Y-39360000D02*
X28120000Y-38053000D01*
X28120000Y-42747000D02*
X28120000Y-41440000D01*
X28160000Y-39360000D02*
X28160000Y-38035000D01*
X28160000Y-42765000D02*
X28160000Y-41440000D01*
X28200000Y-39360000D02*
X28200000Y-38018000D01*
X28200000Y-42782000D02*
X28200000Y-41440000D01*
X28240000Y-39360000D02*
X28240000Y-38002000D01*
X28240000Y-42798000D02*
X28240000Y-41440000D01*
X28280000Y-39360000D02*
X28280000Y-37987000D01*
X28280000Y-42813000D02*
X28280000Y-41440000D01*
X28320000Y-39360000D02*
X28320000Y-37972000D01*
X28320000Y-42828000D02*
X28320000Y-41440000D01*
X28360000Y-39360000D02*
X28360000Y-37958000D01*
X28360000Y-42842000D02*
X28360000Y-41440000D01*
X28400000Y-39360000D02*
X28400000Y-37945000D01*
X28400000Y-42855000D02*
X28400000Y-41440000D01*
X28440000Y-39360000D02*
X28440000Y-37933000D01*
X28440000Y-42867000D02*
X28440000Y-41440000D01*
X28480000Y-39360000D02*
X28480000Y-37921000D01*
X28480000Y-42879000D02*
X28480000Y-41440000D01*
X28520000Y-39360000D02*
X28520000Y-37910000D01*
X28520000Y-42890000D02*
X28520000Y-41440000D01*
X28560000Y-39360000D02*
X28560000Y-37899000D01*
X28560000Y-42901000D02*
X28560000Y-41440000D01*
X28600000Y-39360000D02*
X28600000Y-37890000D01*
X28600000Y-42910000D02*
X28600000Y-41440000D01*
X28640000Y-39360000D02*
X28640000Y-37881000D01*
X28640000Y-42919000D02*
X28640000Y-41440000D01*
X28680000Y-39360000D02*
X28680000Y-37872000D01*
X28680000Y-42928000D02*
X28680000Y-41440000D01*
X28720000Y-39360000D02*
X28720000Y-37864000D01*
X28720000Y-42936000D02*
X28720000Y-41440000D01*
X28760000Y-39360000D02*
X28760000Y-37857000D01*
X28760000Y-42943000D02*
X28760000Y-41440000D01*
X28800000Y-39360000D02*
X28800000Y-37851000D01*
X28800000Y-42949000D02*
X28800000Y-41440000D01*
X28840000Y-39360000D02*
X28840000Y-37845000D01*
X28840000Y-42955000D02*
X28840000Y-41440000D01*
X28880000Y-39360000D02*
X28880000Y-37840000D01*
X28880000Y-42960000D02*
X28880000Y-41440000D01*
X28920000Y-39360000D02*
X28920000Y-37835000D01*
X28920000Y-42965000D02*
X28920000Y-41440000D01*
X28960000Y-39360000D02*
X28960000Y-37831000D01*
X28960000Y-42969000D02*
X28960000Y-41440000D01*
X29000000Y-39360000D02*
X29000000Y-37828000D01*
X29000000Y-42972000D02*
X29000000Y-41440000D01*
X29040000Y-39360000D02*
X29040000Y-37825000D01*
X29040000Y-42975000D02*
X29040000Y-41440000D01*
X29080000Y-39360000D02*
X29080000Y-37823000D01*
X29080000Y-42977000D02*
X29080000Y-41440000D01*
X29120000Y-39360000D02*
X29120000Y-37821000D01*
X29120000Y-42979000D02*
X29120000Y-41440000D01*
X29160000Y-39360000D02*
X29160000Y-37820000D01*
X29160000Y-42980000D02*
X29160000Y-41440000D01*
X29200000Y-39360000D02*
X29200000Y-37820000D01*
X29200000Y-42980000D02*
X29200000Y-41440000D01*
X31754775Y-42125000D02*
X31754775Y-41625000D01*
X32004775Y-41875000D02*
X31504775Y-41875000D01*
%TO.C,Q1*%
X21618173Y-59990000D02*
X21288173Y-60230000D01*
X21288173Y-59750000D01*
X21618173Y-59990000D01*
G36*
X21618173Y-59990000D02*
G01*
X21288173Y-60230000D01*
X21288173Y-59750000D01*
X21618173Y-59990000D01*
G37*
X28305000Y-64540000D02*
X22305000Y-64540000D01*
X28305000Y-59215000D02*
X22305000Y-59215000D01*
%TO.C,C7*%
X32211252Y-26510000D02*
X30788748Y-26510000D01*
X32211252Y-24690000D02*
X30788748Y-24690000D01*
%TO.C,J6*%
X40940000Y-24955000D02*
X53860000Y-24955000D01*
X40940000Y-27605000D02*
X40940000Y-24955000D01*
X40940000Y-30255000D02*
X40940000Y-28875000D01*
X42320000Y-30255000D02*
X40940000Y-30255000D01*
X43590000Y-27605000D02*
X40940000Y-27605000D01*
X43590000Y-30255000D02*
X43590000Y-27605000D01*
X43590000Y-30255000D02*
X53860000Y-30255000D01*
X53860000Y-30255000D02*
X53860000Y-24955000D01*
%TO.C,Y1*%
X30725000Y-29475000D02*
X30725000Y-28125000D01*
X32475000Y-29475000D02*
X32475000Y-28125000D01*
%TO.C,R4*%
X43627064Y-50390000D02*
X42172936Y-50390000D01*
X43627064Y-52210000D02*
X42172936Y-52210000D01*
D12*
%TO.C,J4*%
X22420000Y-11800000D02*
X22420000Y-10700000D01*
X22420000Y-17800000D02*
X22420000Y-15200000D01*
D11*
X22420000Y-22860000D02*
X22420000Y-21210000D01*
X24590000Y-22860000D02*
X22420000Y-22860000D01*
X24590000Y-22860000D02*
X24590000Y-24700000D01*
X33410000Y-22860000D02*
X33410000Y-24700000D01*
X33410000Y-22860000D02*
X35580000Y-22860000D01*
D12*
X35580000Y-10700000D02*
X35580000Y-11800000D01*
X35580000Y-17800000D02*
X35580000Y-15200000D01*
D11*
X35580000Y-22860000D02*
X35580000Y-21210000D01*
%TO.C,U5*%
X19890000Y-48300000D02*
X26510000Y-48300000D01*
X19890000Y-48530000D02*
X19890000Y-48300000D01*
X19890000Y-53300000D02*
X19890000Y-53070000D01*
X26510000Y-48300000D02*
X26510000Y-48530000D01*
X26510000Y-53070000D02*
X26510000Y-53300000D01*
X26510000Y-53300000D02*
X19890000Y-53300000D01*
X19050000Y-48580000D02*
X18810000Y-48250000D01*
X19290000Y-48250000D01*
X19050000Y-48580000D01*
G36*
X19050000Y-48580000D02*
G01*
X18810000Y-48250000D01*
X19290000Y-48250000D01*
X19050000Y-48580000D01*
G37*
%TO.C,R2*%
X37590000Y-50772936D02*
X37590000Y-52227064D01*
X39410000Y-50772936D02*
X39410000Y-52227064D01*
%TO.C,R9*%
X14472936Y-38990000D02*
X15927064Y-38990000D01*
X14472936Y-40810000D02*
X15927064Y-40810000D01*
%TO.C,U6*%
X35700000Y-38010000D02*
X37500000Y-38010000D01*
X36700000Y-34790000D02*
X35900000Y-34790000D01*
X36700000Y-34790000D02*
X37500000Y-34790000D01*
X35400000Y-34840000D02*
X35160000Y-34510000D01*
X35640000Y-34510000D01*
X35400000Y-34840000D01*
G36*
X35400000Y-34840000D02*
G01*
X35160000Y-34510000D01*
X35640000Y-34510000D01*
X35400000Y-34840000D01*
G37*
%TO.C,R1*%
X26660000Y-57200000D02*
G75*
G02*
X23340000Y-57200000I-1660000J0D01*
G01*
X23340000Y-57200000D02*
G75*
G02*
X26660000Y-57200000I1660000J0D01*
G01*
X26660000Y-67200000D02*
G75*
G02*
X23340000Y-67200000I-1660000J0D01*
G01*
X23340000Y-67200000D02*
G75*
G02*
X26660000Y-67200000I1660000J0D01*
G01*
%TO.C,U7*%
X34440000Y-26940000D02*
X38560000Y-26940000D01*
X34440000Y-27035000D02*
X34440000Y-26940000D01*
X34440000Y-32060000D02*
X34440000Y-31965000D01*
X38560000Y-26940000D02*
X38560000Y-27035000D01*
X38560000Y-31965000D02*
X38560000Y-32060000D01*
X38560000Y-32060000D02*
X34440000Y-32060000D01*
X33900000Y-27030000D02*
X33660000Y-26700000D01*
X34140000Y-26700000D01*
X33900000Y-27030000D01*
G36*
X33900000Y-27030000D02*
G01*
X33660000Y-26700000D01*
X34140000Y-26700000D01*
X33900000Y-27030000D01*
G37*
%TO.C,Q2*%
X46460000Y-46125502D02*
X45660000Y-46125502D01*
X46460000Y-46125502D02*
X47260000Y-46125502D01*
X47260000Y-46125502D02*
X47260000Y-47055502D01*
X47260000Y-49285502D02*
X45800000Y-49285502D01*
X47260000Y-49285502D02*
X47260000Y-48355502D01*
X45160000Y-46095502D02*
X44920000Y-45765502D01*
X45400000Y-45765502D01*
X45160000Y-46095502D01*
G36*
X45160000Y-46095502D02*
G01*
X44920000Y-45765502D01*
X45400000Y-45765502D01*
X45160000Y-46095502D01*
G37*
%TO.C,J7*%
X12060000Y-44290000D02*
X17740000Y-44290000D01*
X17740000Y-51790000D01*
X12060000Y-51790000D01*
X12060000Y-44290000D01*
%TO.C,R8*%
X14472936Y-41290000D02*
X15927064Y-41290000D01*
X14472936Y-43110000D02*
X15927064Y-43110000D01*
%TO.C,C5*%
X37211252Y-24690000D02*
X35788748Y-24690000D01*
X37211252Y-26510000D02*
X35788748Y-26510000D01*
%TO.C,D1*%
X23900000Y-29790000D02*
X23900000Y-33650000D01*
X25900000Y-29790000D02*
X23900000Y-29790000D01*
X25900000Y-29790000D02*
X25900000Y-33650000D01*
%TO.C,R10*%
X20572936Y-38765000D02*
X21027064Y-38765000D01*
X20572936Y-40235000D02*
X21027064Y-40235000D01*
%TO.C,D3*%
X18590000Y-40600000D02*
X18590000Y-42600000D01*
X18590000Y-40600000D02*
X22450000Y-40600000D01*
X18590000Y-42600000D02*
X22450000Y-42600000D01*
%TO.C,J2*%
X12060000Y-25390000D02*
X17740000Y-25390000D01*
X17740000Y-37970000D01*
X12060000Y-37970000D01*
X12060000Y-25390000D01*
%TO.C,R13*%
X21690000Y-28027064D02*
X21690000Y-26572936D01*
X23510000Y-28027064D02*
X23510000Y-26572936D01*
%TO.C,D2*%
X26200000Y-29790000D02*
X26200000Y-33650000D01*
X28200000Y-29790000D02*
X26200000Y-29790000D01*
X28200000Y-29790000D02*
X28200000Y-33650000D01*
%TO.C,R14*%
X19390000Y-26572936D02*
X19390000Y-28027064D01*
X21210000Y-26572936D02*
X21210000Y-28027064D01*
%TO.C,J9*%
X55740000Y-41410000D02*
X50060000Y-41410000D01*
X50060000Y-36450000D01*
X55740000Y-36450000D01*
X55740000Y-41410000D01*
%TO.C,J1*%
X12060000Y-52990000D02*
X17740000Y-52990000D01*
X17740000Y-63030000D01*
X12060000Y-63030000D01*
X12060000Y-52990000D01*
%TO.C,R5*%
X51327064Y-47665000D02*
X50872936Y-47665000D01*
X51327064Y-49135000D02*
X50872936Y-49135000D01*
%TO.C,C6*%
X37311252Y-32490000D02*
X35888748Y-32490000D01*
X37311252Y-34310000D02*
X35888748Y-34310000D01*
%TO.C,U8*%
X32660000Y-41445000D02*
X32660000Y-43095000D01*
X32660000Y-45095000D02*
X32660000Y-46745000D01*
X32660000Y-46745000D02*
X42940000Y-46745000D01*
X42940000Y-41445000D02*
X32660000Y-41445000D01*
X42940000Y-46745000D02*
X42940000Y-41445000D01*
X32660000Y-43095000D02*
G75*
G02*
X32660000Y-45095000I0J-1000000D01*
G01*
%TO.C,J8*%
X41390000Y-36240000D02*
X53970000Y-36240000D01*
X53970000Y-30560000D01*
X41390000Y-30560000D01*
X41390000Y-36240000D01*
%TO.C,R6*%
X50872936Y-45765000D02*
X51327064Y-45765000D01*
X50872936Y-47235000D02*
X51327064Y-47235000D01*
%TO.C,J3*%
X12060000Y-19290000D02*
X17740000Y-19290000D01*
X17740000Y-24250000D01*
X12060000Y-24250000D01*
X12060000Y-19290000D01*
%TO.C,U3*%
X35740000Y-41540000D02*
X39860000Y-41540000D01*
X35740000Y-41635000D02*
X35740000Y-41540000D01*
X35740000Y-46660000D02*
X35740000Y-46565000D01*
X39860000Y-41540000D02*
X39860000Y-41635000D01*
X39860000Y-46565000D02*
X39860000Y-46660000D01*
X39860000Y-46660000D02*
X35740000Y-46660000D01*
X40640000Y-46900000D02*
X40160000Y-46900000D01*
X40400000Y-46570000D01*
X40640000Y-46900000D01*
G36*
X40640000Y-46900000D02*
G01*
X40160000Y-46900000D01*
X40400000Y-46570000D01*
X40640000Y-46900000D01*
G37*
%TO.C,R7*%
X49772936Y-50390000D02*
X51227064Y-50390000D01*
X49772936Y-52210000D02*
X51227064Y-52210000D01*
%TO.C,J5*%
X38810000Y-16050000D02*
X38810000Y-18810000D01*
X38810000Y-18810000D02*
X49190000Y-18810000D01*
X38920000Y-24010000D02*
X38920000Y-22740000D01*
X39760000Y-19122642D02*
X39760000Y-18810000D01*
X39760000Y-21580000D02*
X39760000Y-21277358D01*
X40190000Y-24010000D02*
X38920000Y-24010000D01*
X40620000Y-19122642D02*
X40620000Y-18810000D01*
X40620000Y-21580000D02*
X40620000Y-21277358D01*
X41460000Y-18810000D02*
X41460000Y-16050000D01*
X42300000Y-10050000D02*
X43160000Y-10050000D01*
X42300000Y-16050000D02*
X42300000Y-10050000D01*
X42300000Y-19122642D02*
X42300000Y-18810000D01*
X42300000Y-21662642D02*
X42300000Y-21277358D01*
X43160000Y-10050000D02*
X43160000Y-16050000D01*
X43160000Y-19122642D02*
X43160000Y-18810000D01*
X43160000Y-21662642D02*
X43160000Y-21277358D01*
X44000000Y-18810000D02*
X44000000Y-16050000D01*
X44840000Y-10050000D02*
X45700000Y-10050000D01*
X44840000Y-16050000D02*
X44840000Y-10050000D01*
X44840000Y-19122642D02*
X44840000Y-18810000D01*
X44840000Y-21662642D02*
X44840000Y-21277358D01*
X45700000Y-10050000D02*
X45700000Y-16050000D01*
X45700000Y-19122642D02*
X45700000Y-18810000D01*
X45700000Y-21662642D02*
X45700000Y-21277358D01*
X46540000Y-18810000D02*
X46540000Y-16050000D01*
X47380000Y-10050000D02*
X48240000Y-10050000D01*
X47380000Y-16050000D02*
X47380000Y-10050000D01*
X47380000Y-19122642D02*
X47380000Y-18810000D01*
X47380000Y-21662642D02*
X47380000Y-21277358D01*
X48240000Y-10050000D02*
X48240000Y-16050000D01*
X48240000Y-19122642D02*
X48240000Y-18810000D01*
X48240000Y-21662642D02*
X48240000Y-21277358D01*
X49190000Y-16050000D02*
X38810000Y-16050000D01*
X49190000Y-18810000D02*
X49190000Y-16050000D01*
X39760000Y-16050000D02*
X40620000Y-16050000D01*
X40620000Y-10050000D01*
X39760000Y-10050000D01*
X39760000Y-16050000D01*
G36*
X39760000Y-16050000D02*
G01*
X40620000Y-16050000D01*
X40620000Y-10050000D01*
X39760000Y-10050000D01*
X39760000Y-16050000D01*
G37*
%TO.C,Q3*%
X50260000Y-52625502D02*
X49460000Y-52625502D01*
X50260000Y-52625502D02*
X51060000Y-52625502D01*
X51060000Y-52625502D02*
X51060000Y-53555502D01*
X51060000Y-55785502D02*
X49600000Y-55785502D01*
X51060000Y-55785502D02*
X51060000Y-54855502D01*
X48960000Y-52595502D02*
X48720000Y-52265502D01*
X49200000Y-52265502D01*
X48960000Y-52595502D01*
G36*
X48960000Y-52595502D02*
G01*
X48720000Y-52265502D01*
X49200000Y-52265502D01*
X48960000Y-52595502D01*
G37*
%TO.C,C1*%
X43067380Y-37961000D02*
X43697380Y-37961000D01*
X43382380Y-37646000D02*
X43382380Y-38276000D01*
X46567621Y-36570000D02*
X46567621Y-43030000D01*
X46607621Y-36570000D02*
X46607621Y-43030000D01*
X46647621Y-36571000D02*
X46647621Y-43029000D01*
X46687621Y-36572000D02*
X46687621Y-43028000D01*
X46727621Y-36574000D02*
X46727621Y-43026000D01*
X46767621Y-36576000D02*
X46767621Y-43024000D01*
X46807621Y-36579000D02*
X46807621Y-38760000D01*
X46807621Y-40840000D02*
X46807621Y-43021000D01*
X46847621Y-36582000D02*
X46847621Y-38760000D01*
X46847621Y-40840000D02*
X46847621Y-43018000D01*
X46887621Y-36586000D02*
X46887621Y-38760000D01*
X46887621Y-40840000D02*
X46887621Y-43014000D01*
X46927621Y-36590000D02*
X46927621Y-38760000D01*
X46927621Y-40840000D02*
X46927621Y-43010000D01*
X46967621Y-36595000D02*
X46967621Y-38760000D01*
X46967621Y-40840000D02*
X46967621Y-43005000D01*
X47007621Y-36600000D02*
X47007621Y-38760000D01*
X47007621Y-40840000D02*
X47007621Y-43000000D01*
X47047621Y-36605000D02*
X47047621Y-38760000D01*
X47047621Y-40840000D02*
X47047621Y-42995000D01*
X47087621Y-36612000D02*
X47087621Y-38760000D01*
X47087621Y-40840000D02*
X47087621Y-42988000D01*
X47127621Y-36618000D02*
X47127621Y-38760000D01*
X47127621Y-40840000D02*
X47127621Y-42982000D01*
X47167621Y-36626000D02*
X47167621Y-38760000D01*
X47167621Y-40840000D02*
X47167621Y-42974000D01*
X47207621Y-36633000D02*
X47207621Y-38760000D01*
X47207621Y-40840000D02*
X47207621Y-42967000D01*
X47247621Y-36641000D02*
X47247621Y-38760000D01*
X47247621Y-40840000D02*
X47247621Y-42959000D01*
X47287621Y-36650000D02*
X47287621Y-38760000D01*
X47287621Y-40840000D02*
X47287621Y-42950000D01*
X47327621Y-36660000D02*
X47327621Y-38760000D01*
X47327621Y-40840000D02*
X47327621Y-42940000D01*
X47367621Y-36669000D02*
X47367621Y-38760000D01*
X47367621Y-40840000D02*
X47367621Y-42931000D01*
X47407621Y-36680000D02*
X47407621Y-38760000D01*
X47407621Y-40840000D02*
X47407621Y-42920000D01*
X47447621Y-36691000D02*
X47447621Y-38760000D01*
X47447621Y-40840000D02*
X47447621Y-42909000D01*
X47487621Y-36702000D02*
X47487621Y-38760000D01*
X47487621Y-40840000D02*
X47487621Y-42898000D01*
X47527621Y-36714000D02*
X47527621Y-38760000D01*
X47527621Y-40840000D02*
X47527621Y-42886000D01*
X47567621Y-36727000D02*
X47567621Y-38760000D01*
X47567621Y-40840000D02*
X47567621Y-42873000D01*
X47607621Y-36740000D02*
X47607621Y-38760000D01*
X47607621Y-40840000D02*
X47607621Y-42860000D01*
X47647621Y-36753000D02*
X47647621Y-38760000D01*
X47647621Y-40840000D02*
X47647621Y-42847000D01*
X47687621Y-36768000D02*
X47687621Y-38760000D01*
X47687621Y-40840000D02*
X47687621Y-42832000D01*
X47727621Y-36783000D02*
X47727621Y-38760000D01*
X47727621Y-40840000D02*
X47727621Y-42817000D01*
X47767621Y-36798000D02*
X47767621Y-38760000D01*
X47767621Y-40840000D02*
X47767621Y-42802000D01*
X47807621Y-36814000D02*
X47807621Y-38760000D01*
X47807621Y-40840000D02*
X47807621Y-42786000D01*
X47847621Y-36831000D02*
X47847621Y-38760000D01*
X47847621Y-40840000D02*
X47847621Y-42769000D01*
X47887621Y-36848000D02*
X47887621Y-38760000D01*
X47887621Y-40840000D02*
X47887621Y-42752000D01*
X47927621Y-36866000D02*
X47927621Y-38760000D01*
X47927621Y-40840000D02*
X47927621Y-42734000D01*
X47967621Y-36885000D02*
X47967621Y-38760000D01*
X47967621Y-40840000D02*
X47967621Y-42715000D01*
X48007621Y-36904000D02*
X48007621Y-38760000D01*
X48007621Y-40840000D02*
X48007621Y-42696000D01*
X48047621Y-36924000D02*
X48047621Y-38760000D01*
X48047621Y-40840000D02*
X48047621Y-42676000D01*
X48087621Y-36945000D02*
X48087621Y-38760000D01*
X48087621Y-40840000D02*
X48087621Y-42655000D01*
X48127621Y-36966000D02*
X48127621Y-38760000D01*
X48127621Y-40840000D02*
X48127621Y-42634000D01*
X48167621Y-36988000D02*
X48167621Y-38760000D01*
X48167621Y-40840000D02*
X48167621Y-42612000D01*
X48207621Y-37011000D02*
X48207621Y-38760000D01*
X48207621Y-40840000D02*
X48207621Y-42589000D01*
X48247621Y-37035000D02*
X48247621Y-38760000D01*
X48247621Y-40840000D02*
X48247621Y-42565000D01*
X48287621Y-37059000D02*
X48287621Y-38760000D01*
X48287621Y-40840000D02*
X48287621Y-42541000D01*
X48327621Y-37084000D02*
X48327621Y-38760000D01*
X48327621Y-40840000D02*
X48327621Y-42516000D01*
X48367621Y-37110000D02*
X48367621Y-38760000D01*
X48367621Y-40840000D02*
X48367621Y-42490000D01*
X48407621Y-37137000D02*
X48407621Y-38760000D01*
X48407621Y-40840000D02*
X48407621Y-42463000D01*
X48447621Y-37164000D02*
X48447621Y-38760000D01*
X48447621Y-40840000D02*
X48447621Y-42436000D01*
X48487621Y-37193000D02*
X48487621Y-38760000D01*
X48487621Y-40840000D02*
X48487621Y-42407000D01*
X48527621Y-37223000D02*
X48527621Y-38760000D01*
X48527621Y-40840000D02*
X48527621Y-42377000D01*
X48567621Y-37253000D02*
X48567621Y-38760000D01*
X48567621Y-40840000D02*
X48567621Y-42347000D01*
X48607621Y-37284000D02*
X48607621Y-38760000D01*
X48607621Y-40840000D02*
X48607621Y-42316000D01*
X48647621Y-37317000D02*
X48647621Y-38760000D01*
X48647621Y-40840000D02*
X48647621Y-42283000D01*
X48687621Y-37350000D02*
X48687621Y-38760000D01*
X48687621Y-40840000D02*
X48687621Y-42250000D01*
X48727621Y-37385000D02*
X48727621Y-38760000D01*
X48727621Y-40840000D02*
X48727621Y-42215000D01*
X48767621Y-37421000D02*
X48767621Y-38760000D01*
X48767621Y-40840000D02*
X48767621Y-42179000D01*
X48807621Y-37458000D02*
X48807621Y-38760000D01*
X48807621Y-40840000D02*
X48807621Y-42142000D01*
X48847621Y-37496000D02*
X48847621Y-38760000D01*
X48847621Y-40840000D02*
X48847621Y-42104000D01*
X48887621Y-37536000D02*
X48887621Y-42064000D01*
X48927621Y-37577000D02*
X48927621Y-42023000D01*
X48967621Y-37619000D02*
X48967621Y-41981000D01*
X49007621Y-37663000D02*
X49007621Y-41937000D01*
X49047621Y-37709000D02*
X49047621Y-41891000D01*
X49087621Y-37756000D02*
X49087621Y-41844000D01*
X49127621Y-37805000D02*
X49127621Y-41795000D01*
X49167621Y-37857000D02*
X49167621Y-41743000D01*
X49207621Y-37910000D02*
X49207621Y-41690000D01*
X49247621Y-37966000D02*
X49247621Y-41634000D01*
X49287621Y-38025000D02*
X49287621Y-41575000D01*
X49327621Y-38086000D02*
X49327621Y-41514000D01*
X49367621Y-38151000D02*
X49367621Y-41449000D01*
X49407621Y-38219000D02*
X49407621Y-41381000D01*
X49447621Y-38291000D02*
X49447621Y-41309000D01*
X49487621Y-38368000D02*
X49487621Y-41232000D01*
X49527621Y-38450000D02*
X49527621Y-41150000D01*
X49567621Y-38539000D02*
X49567621Y-41061000D01*
X49607621Y-38635000D02*
X49607621Y-40965000D01*
X49647621Y-38742000D02*
X49647621Y-40858000D01*
X49687621Y-38861000D02*
X49687621Y-40739000D01*
X49727621Y-38999000D02*
X49727621Y-40601000D01*
X49767621Y-39167000D02*
X49767621Y-40433000D01*
X49807621Y-39398000D02*
X49807621Y-40202000D01*
X49837621Y-39800000D02*
G75*
G02*
X43297621Y-39800000I-3270000J0D01*
G01*
X43297621Y-39800000D02*
G75*
G02*
X49837621Y-39800000I3270000J0D01*
G01*
%TO.C,R11*%
X53027064Y-56190000D02*
X51572936Y-56190000D01*
X53027064Y-58010000D02*
X51572936Y-58010000D01*
%TO.C,R12*%
X53027064Y-59290000D02*
X51572936Y-59290000D01*
X53027064Y-61110000D02*
X51572936Y-61110000D01*
%TO.C,U2*%
X27060000Y-55860000D02*
X48940000Y-55860000D01*
X48940000Y-69740000D01*
X27060000Y-69740000D01*
X27060000Y-55860000D01*
%TO.C,R3*%
X34490000Y-52227064D02*
X34490000Y-50772936D01*
X36310000Y-52227064D02*
X36310000Y-50772936D01*
%TO.C,C4*%
X45988748Y-43890000D02*
X47411252Y-43890000D01*
X45988748Y-45710000D02*
X47411252Y-45710000D01*
%TO.C,C8*%
X28611252Y-26990000D02*
X27188748Y-26990000D01*
X28611252Y-28810000D02*
X27188748Y-28810000D01*
%TD*%
M02*
