%TF.GenerationSoftware,KiCad,Pcbnew,9.0.5*%
%TF.CreationDate,2026-01-30T22:33:53+01:00*%
%TF.ProjectId,pi hat,70692068-6174-42e6-9b69-6361645f7063,rev?*%
%TF.SameCoordinates,Original*%
%TF.FileFunction,Soldermask,Top*%
%TF.FilePolarity,Negative*%
%FSLAX46Y46*%
G04 Gerber Fmt 4.6, Leading zero omitted, Abs format (unit mm)*
G04 Created by KiCad (PCBNEW 9.0.5) date 2026-01-30 22:33:53*
%MOMM*%
%LPD*%
G01*
G04 APERTURE LIST*
G04 Aperture macros list*
%AMRoundRect*
0 Rectangle with rounded corners*
0 $1 Rounding radius*
0 $2 $3 $4 $5 $6 $7 $8 $9 X,Y pos of 4 corners*
0 Add a 4 corners polygon primitive as box body*
4,1,4,$2,$3,$4,$5,$6,$7,$8,$9,$2,$3,0*
0 Add four circle primitives for the rounded corners*
1,1,$1+$1,$2,$3*
1,1,$1+$1,$4,$5*
1,1,$1+$1,$6,$7*
1,1,$1+$1,$8,$9*
0 Add four rect primitives between the rounded corners*
20,1,$1+$1,$2,$3,$4,$5,0*
20,1,$1+$1,$4,$5,$6,$7,0*
20,1,$1+$1,$6,$7,$8,$9,0*
20,1,$1+$1,$8,$9,$2,$3,0*%
G04 Aperture macros list end*
%ADD10C,3.050000*%
%ADD11O,4.000000X2.500000*%
%ADD12RoundRect,0.375000X-0.575000X0.375000X-0.575000X-0.375000X0.575000X-0.375000X0.575000X0.375000X0*%
%ADD13RoundRect,0.250000X-0.650000X0.412500X-0.650000X-0.412500X0.650000X-0.412500X0.650000X0.412500X0*%
%ADD14C,1.600000*%
%ADD15RoundRect,0.250000X0.550000X0.550000X-0.550000X0.550000X-0.550000X-0.550000X0.550000X-0.550000X0*%
%ADD16RoundRect,0.175000X-0.325000X-0.175000X0.325000X-0.175000X0.325000X0.175000X-0.325000X0.175000X0*%
%ADD17R,4.500000X4.700000*%
%ADD18RoundRect,0.162500X-0.437500X-0.162500X0.437500X-0.162500X0.437500X0.162500X-0.437500X0.162500X0*%
%ADD19C,3.200000*%
%ADD20C,3.000000*%
%ADD21RoundRect,0.250000X0.412500X0.650000X-0.412500X0.650000X-0.412500X-0.650000X0.412500X-0.650000X0*%
%ADD22R,1.700000X1.700000*%
%ADD23C,1.700000*%
%ADD24R,1.800000X1.000000*%
%ADD25RoundRect,0.250000X0.400000X0.625000X-0.400000X0.625000X-0.400000X-0.625000X0.400000X-0.625000X0*%
%ADD26RoundRect,0.325000X0.325000X0.550000X-0.325000X0.550000X-0.325000X-0.550000X0.325000X-0.550000X0*%
%ADD27O,1.200000X2.400000*%
%ADD28RoundRect,0.250000X-0.625000X0.400000X-0.625000X-0.400000X0.625000X-0.400000X0.625000X0.400000X0*%
%ADD29RoundRect,0.250000X-0.400000X-0.625000X0.400000X-0.625000X0.400000X0.625000X-0.400000X0.625000X0*%
%ADD30RoundRect,0.162500X-0.617500X-0.162500X0.617500X-0.162500X0.617500X0.162500X-0.617500X0.162500X0*%
%ADD31RoundRect,0.150000X-0.825000X-0.150000X0.825000X-0.150000X0.825000X0.150000X-0.825000X0.150000X0*%
%ADD32RoundRect,0.200000X-0.750000X-0.200000X0.750000X-0.200000X0.750000X0.200000X-0.750000X0.200000X0*%
%ADD33RoundRect,0.250000X-0.300000X0.300000X-0.300000X-0.300000X0.300000X-0.300000X0.300000X0.300000X0*%
%ADD34RoundRect,0.250000X-0.350000X-0.450000X0.350000X-0.450000X0.350000X0.450000X-0.350000X0.450000X0*%
%ADD35RoundRect,0.250000X-0.300000X-0.300000X0.300000X-0.300000X0.300000X0.300000X-0.300000X0.300000X0*%
%ADD36RoundRect,0.250000X0.625000X-0.400000X0.625000X0.400000X-0.625000X0.400000X-0.625000X-0.400000X0*%
%ADD37RoundRect,0.250000X0.350000X0.450000X-0.350000X0.450000X-0.350000X-0.450000X0.350000X-0.450000X0*%
%ADD38RoundRect,0.250000X0.550000X-0.550000X0.550000X0.550000X-0.550000X0.550000X-0.550000X-0.550000X0*%
%ADD39RoundRect,0.150000X1.325000X0.150000X-1.325000X0.150000X-1.325000X-0.150000X1.325000X-0.150000X0*%
%ADD40RoundRect,0.250000X-0.550000X-0.550000X0.550000X-0.550000X0.550000X0.550000X-0.550000X0.550000X0*%
%ADD41C,2.500000*%
%ADD42RoundRect,0.250000X-0.412500X-0.650000X0.412500X-0.650000X0.412500X0.650000X-0.412500X0.650000X0*%
G04 APERTURE END LIST*
%TO.C,H4*%
D10*
X53825000Y-66500000D02*
G75*
G02*
X50775000Y-66500000I-1525000J0D01*
G01*
X50775000Y-66500000D02*
G75*
G02*
X53825000Y-66500000I1525000J0D01*
G01*
%TO.C,H3*%
X17125000Y-66500000D02*
G75*
G02*
X14075000Y-66500000I-1525000J0D01*
G01*
X14075000Y-66500000D02*
G75*
G02*
X17125000Y-66500000I1525000J0D01*
G01*
%TO.C,H2*%
X53825000Y-15500000D02*
G75*
G02*
X50775000Y-15500000I-1525000J0D01*
G01*
X50775000Y-15500000D02*
G75*
G02*
X53825000Y-15500000I1525000J0D01*
G01*
%TO.C,H1*%
X17025000Y-15500000D02*
G75*
G02*
X13975000Y-15500000I-1525000J0D01*
G01*
X13975000Y-15500000D02*
G75*
G02*
X17025000Y-15500000I1525000J0D01*
G01*
%TD*%
D11*
%TO.C,U1*%
X26000000Y-35600000D03*
X32000000Y-35600000D03*
%TD*%
D12*
%TO.C,U4*%
X27350000Y-44230000D03*
X27350000Y-46770000D03*
X19050000Y-46770000D03*
X19050000Y-44230000D03*
%TD*%
D13*
%TO.C,C3*%
X29700000Y-47362500D03*
X29700000Y-44237500D03*
%TD*%
D14*
%TO.C,C2*%
X28200000Y-40400000D03*
D15*
X30200000Y-40400000D03*
%TD*%
D16*
%TO.C,Q1*%
X28225000Y-63895000D03*
X28225000Y-62565000D03*
D17*
X25975000Y-61900000D03*
D16*
X28225000Y-61235000D03*
X28225000Y-59905000D03*
D18*
X22475000Y-63805000D03*
X22475000Y-62535000D03*
X22475000Y-61265000D03*
X22475000Y-59995000D03*
%TD*%
D19*
%TO.C,H4*%
X52300000Y-66500000D03*
%TD*%
%TO.C,H3*%
X15600000Y-66500000D03*
%TD*%
%TO.C,H2*%
X52300000Y-15500000D03*
%TD*%
%TO.C,H1*%
X15500000Y-15500000D03*
%TD*%
D20*
%TO.C,FID3*%
X21000000Y-35000000D03*
%TD*%
%TO.C,FID2*%
X32500000Y-68000000D03*
%TD*%
%TO.C,FID1*%
X54000000Y-20500000D03*
%TD*%
D21*
%TO.C,C7*%
X29937500Y-25600000D03*
X33062500Y-25600000D03*
%TD*%
D22*
%TO.C,J6*%
X42320000Y-28875000D03*
D23*
X42320000Y-26335000D03*
X44860000Y-28875000D03*
X44860000Y-26335000D03*
X47400000Y-28875000D03*
X47400000Y-26335000D03*
X49940000Y-28875000D03*
X49940000Y-26335000D03*
X52480000Y-28875000D03*
X52480000Y-26335000D03*
%TD*%
D24*
%TO.C,Y1*%
X31600000Y-27550000D03*
X31600000Y-30050000D03*
%TD*%
D25*
%TO.C,R4*%
X44450000Y-51300000D03*
X41350000Y-51300000D03*
%TD*%
D26*
%TO.C,J4*%
X32500000Y-22580000D03*
X30000000Y-22580000D03*
X28000000Y-22580000D03*
X25500000Y-22580000D03*
D27*
X35400000Y-19500000D03*
X35400000Y-13500000D03*
X22600000Y-19500000D03*
X22600000Y-13500000D03*
%TD*%
D12*
%TO.C,U5*%
X19050000Y-49530000D03*
X19050000Y-52070000D03*
X27350000Y-52070000D03*
X27350000Y-49530000D03*
%TD*%
D28*
%TO.C,R2*%
X38500000Y-49950000D03*
X38500000Y-53050000D03*
%TD*%
D29*
%TO.C,R9*%
X13650000Y-39900000D03*
X16750000Y-39900000D03*
%TD*%
D30*
%TO.C,U6*%
X35250000Y-35450000D03*
X35250000Y-36400000D03*
X35250000Y-37350000D03*
X37950000Y-37350000D03*
X37950000Y-35450000D03*
%TD*%
D20*
%TO.C,R1*%
X25000000Y-57200000D03*
X25000000Y-67200000D03*
%TD*%
D31*
%TO.C,U7*%
X34025000Y-27595000D03*
X34025000Y-28865000D03*
X34025000Y-30135000D03*
X34025000Y-31405000D03*
X38975000Y-31405000D03*
X38975000Y-30135000D03*
X38975000Y-28865000D03*
X38975000Y-27595000D03*
%TD*%
D32*
%TO.C,Q2*%
X45000000Y-46750000D03*
X45000000Y-48650000D03*
X48000000Y-47700000D03*
%TD*%
D22*
%TO.C,J7*%
X14600000Y-45500000D03*
D23*
X14600000Y-48040000D03*
X14600000Y-50580000D03*
%TD*%
D29*
%TO.C,R8*%
X13650000Y-42200000D03*
X16750000Y-42200000D03*
%TD*%
D21*
%TO.C,C5*%
X38062500Y-25600000D03*
X34937500Y-25600000D03*
%TD*%
D33*
%TO.C,D1*%
X24900000Y-30600000D03*
X24900000Y-33400000D03*
%TD*%
D34*
%TO.C,R10*%
X19800000Y-39500000D03*
X21800000Y-39500000D03*
%TD*%
D35*
%TO.C,D3*%
X19400000Y-41600000D03*
X22200000Y-41600000D03*
%TD*%
D22*
%TO.C,J2*%
X14600000Y-26600000D03*
D23*
X14600000Y-29140000D03*
X14600000Y-31680000D03*
X14600000Y-34220000D03*
X14600000Y-36760000D03*
%TD*%
D36*
%TO.C,R13*%
X22600000Y-28850000D03*
X22600000Y-25750000D03*
%TD*%
D33*
%TO.C,D2*%
X27200000Y-30600000D03*
X27200000Y-33400000D03*
%TD*%
D28*
%TO.C,R14*%
X20300000Y-25750000D03*
X20300000Y-28850000D03*
%TD*%
D22*
%TO.C,J9*%
X53200000Y-40200000D03*
D23*
X53200000Y-37660000D03*
%TD*%
D22*
%TO.C,J1*%
X14600000Y-54200000D03*
D23*
X14600000Y-56740000D03*
X14600000Y-59280000D03*
X14600000Y-61820000D03*
%TD*%
D37*
%TO.C,R5*%
X52100000Y-48400000D03*
X50100000Y-48400000D03*
%TD*%
D21*
%TO.C,C6*%
X38162500Y-33400000D03*
X35037500Y-33400000D03*
%TD*%
D38*
%TO.C,U8*%
X33990000Y-47905000D03*
D14*
X36530000Y-47905000D03*
X39070000Y-47905000D03*
X41610000Y-47905000D03*
X41610000Y-40285000D03*
X39070000Y-40285000D03*
X36530000Y-40285000D03*
X33990000Y-40285000D03*
%TD*%
D22*
%TO.C,J8*%
X42600000Y-33700000D03*
D23*
X45140000Y-33700000D03*
X47680000Y-33700000D03*
X50220000Y-33700000D03*
X52760000Y-33700000D03*
%TD*%
D34*
%TO.C,R6*%
X50100000Y-46500000D03*
X52100000Y-46500000D03*
%TD*%
D22*
%TO.C,J3*%
X14600000Y-20500000D03*
D23*
X14600000Y-23040000D03*
%TD*%
D39*
%TO.C,U3*%
X40775000Y-46005000D03*
X40775000Y-44735000D03*
X40775000Y-43465000D03*
X40775000Y-42195000D03*
X34825000Y-42195000D03*
X34825000Y-43465000D03*
X34825000Y-44735000D03*
X34825000Y-46005000D03*
%TD*%
D29*
%TO.C,R7*%
X48950000Y-51300000D03*
X52050000Y-51300000D03*
%TD*%
D22*
%TO.C,J5*%
X40190000Y-22740000D03*
D23*
X40190000Y-20200000D03*
X42730000Y-22740000D03*
X42730000Y-20200000D03*
X45270000Y-22740000D03*
X45270000Y-20200000D03*
X47810000Y-22740000D03*
X47810000Y-20200000D03*
%TD*%
D32*
%TO.C,Q3*%
X48800000Y-53250000D03*
X48800000Y-55150000D03*
X51800000Y-54200000D03*
%TD*%
D40*
%TO.C,C1*%
X45317621Y-39800000D03*
D14*
X47817621Y-39800000D03*
%TD*%
D25*
%TO.C,R11*%
X53850000Y-57100000D03*
X50750000Y-57100000D03*
%TD*%
%TO.C,R12*%
X53850000Y-60200000D03*
X50750000Y-60200000D03*
%TD*%
D41*
%TO.C,U2*%
X29000000Y-57800000D03*
X29000000Y-67800000D03*
X47000000Y-57800000D03*
X47000000Y-67800000D03*
%TD*%
D36*
%TO.C,R3*%
X35400000Y-53050000D03*
X35400000Y-49950000D03*
%TD*%
D42*
%TO.C,C4*%
X45137500Y-44800000D03*
X48262500Y-44800000D03*
%TD*%
D21*
%TO.C,C8*%
X26337500Y-27900000D03*
X29462500Y-27900000D03*
%TD*%
M02*
