%TF.GenerationSoftware,KiCad,Pcbnew,9.0.5*%
%TF.CreationDate,2026-01-30T22:33:53+01:00*%
%TF.ProjectId,pi hat,70692068-6174-42e6-9b69-6361645f7063,rev?*%
%TF.SameCoordinates,Original*%
%TF.FileFunction,Soldermask,Bot*%
%TF.FilePolarity,Negative*%
%FSLAX46Y46*%
G04 Gerber Fmt 4.6, Leading zero omitted, Abs format (unit mm)*
G04 Created by KiCad (PCBNEW 9.0.5) date 2026-01-30 22:33:53*
%MOMM*%
%LPD*%
G01*
G04 APERTURE LIST*
G04 Aperture macros list*
%AMRoundRect*
0 Rectangle with rounded corners*
0 $1 Rounding radius*
0 $2 $3 $4 $5 $6 $7 $8 $9 X,Y pos of 4 corners*
0 Add a 4 corners polygon primitive as box body*
4,1,4,$2,$3,$4,$5,$6,$7,$8,$9,$2,$3,0*
0 Add four circle primitives for the rounded corners*
1,1,$1+$1,$2,$3*
1,1,$1+$1,$4,$5*
1,1,$1+$1,$6,$7*
1,1,$1+$1,$8,$9*
0 Add four rect primitives between the rounded corners*
20,1,$1+$1,$2,$3,$4,$5,0*
20,1,$1+$1,$4,$5,$6,$7,0*
20,1,$1+$1,$6,$7,$8,$9,0*
20,1,$1+$1,$8,$9,$2,$3,0*%
G04 Aperture macros list end*
%ADD10C,3.050000*%
%ADD11O,4.000000X2.500000*%
%ADD12C,1.600000*%
%ADD13RoundRect,0.250000X0.550000X0.550000X-0.550000X0.550000X-0.550000X-0.550000X0.550000X-0.550000X0*%
%ADD14C,3.200000*%
%ADD15R,1.700000X1.700000*%
%ADD16C,1.700000*%
%ADD17O,1.200000X2.400000*%
%ADD18C,3.000000*%
%ADD19RoundRect,0.250000X0.550000X-0.550000X0.550000X0.550000X-0.550000X0.550000X-0.550000X-0.550000X0*%
%ADD20RoundRect,0.250000X-0.550000X-0.550000X0.550000X-0.550000X0.550000X0.550000X-0.550000X0.550000X0*%
%ADD21C,2.500000*%
G04 APERTURE END LIST*
%TO.C,H4*%
D10*
X53825000Y-66500000D02*
G75*
G02*
X50775000Y-66500000I-1525000J0D01*
G01*
X50775000Y-66500000D02*
G75*
G02*
X53825000Y-66500000I1525000J0D01*
G01*
%TO.C,H3*%
X17125000Y-66500000D02*
G75*
G02*
X14075000Y-66500000I-1525000J0D01*
G01*
X14075000Y-66500000D02*
G75*
G02*
X17125000Y-66500000I1525000J0D01*
G01*
%TO.C,H2*%
X53825000Y-15500000D02*
G75*
G02*
X50775000Y-15500000I-1525000J0D01*
G01*
X50775000Y-15500000D02*
G75*
G02*
X53825000Y-15500000I1525000J0D01*
G01*
%TO.C,H1*%
X17025000Y-15500000D02*
G75*
G02*
X13975000Y-15500000I-1525000J0D01*
G01*
X13975000Y-15500000D02*
G75*
G02*
X17025000Y-15500000I1525000J0D01*
G01*
%TD*%
D11*
%TO.C,U1*%
X26000000Y-35600000D03*
X32000000Y-35600000D03*
%TD*%
D12*
%TO.C,C2*%
X28200000Y-40400000D03*
D13*
X30200000Y-40400000D03*
%TD*%
D14*
%TO.C,H4*%
X52300000Y-66500000D03*
%TD*%
%TO.C,H3*%
X15600000Y-66500000D03*
%TD*%
%TO.C,H2*%
X52300000Y-15500000D03*
%TD*%
%TO.C,H1*%
X15500000Y-15500000D03*
%TD*%
D15*
%TO.C,J6*%
X42320000Y-28875000D03*
D16*
X42320000Y-26335000D03*
X44860000Y-28875000D03*
X44860000Y-26335000D03*
X47400000Y-28875000D03*
X47400000Y-26335000D03*
X49940000Y-28875000D03*
X49940000Y-26335000D03*
X52480000Y-28875000D03*
X52480000Y-26335000D03*
%TD*%
D17*
%TO.C,J4*%
X35400000Y-19500000D03*
X35400000Y-13500000D03*
X22600000Y-19500000D03*
X22600000Y-13500000D03*
%TD*%
D18*
%TO.C,R1*%
X25000000Y-57200000D03*
X25000000Y-67200000D03*
%TD*%
D15*
%TO.C,J7*%
X14600000Y-45500000D03*
D16*
X14600000Y-48040000D03*
X14600000Y-50580000D03*
%TD*%
D15*
%TO.C,J2*%
X14600000Y-26600000D03*
D16*
X14600000Y-29140000D03*
X14600000Y-31680000D03*
X14600000Y-34220000D03*
X14600000Y-36760000D03*
%TD*%
D15*
%TO.C,J9*%
X53200000Y-40200000D03*
D16*
X53200000Y-37660000D03*
%TD*%
D15*
%TO.C,J1*%
X14600000Y-54200000D03*
D16*
X14600000Y-56740000D03*
X14600000Y-59280000D03*
X14600000Y-61820000D03*
%TD*%
D19*
%TO.C,U8*%
X33990000Y-47905000D03*
D12*
X36530000Y-47905000D03*
X39070000Y-47905000D03*
X41610000Y-47905000D03*
X41610000Y-40285000D03*
X39070000Y-40285000D03*
X36530000Y-40285000D03*
X33990000Y-40285000D03*
%TD*%
D15*
%TO.C,J8*%
X42600000Y-33700000D03*
D16*
X45140000Y-33700000D03*
X47680000Y-33700000D03*
X50220000Y-33700000D03*
X52760000Y-33700000D03*
%TD*%
D15*
%TO.C,J3*%
X14600000Y-20500000D03*
D16*
X14600000Y-23040000D03*
%TD*%
D15*
%TO.C,J5*%
X40190000Y-22740000D03*
D16*
X40190000Y-20200000D03*
X42730000Y-22740000D03*
X42730000Y-20200000D03*
X45270000Y-22740000D03*
X45270000Y-20200000D03*
X47810000Y-22740000D03*
X47810000Y-20200000D03*
%TD*%
D20*
%TO.C,C1*%
X45317621Y-39800000D03*
D12*
X47817621Y-39800000D03*
%TD*%
D21*
%TO.C,U2*%
X29000000Y-57800000D03*
X29000000Y-67800000D03*
X47000000Y-57800000D03*
X47000000Y-67800000D03*
%TD*%
M02*
