<?xml version="1.0" encoding="UTF-8" standalone="no"?>
<svg
   xmlns="http://www.w3.org/2000/svg"
   viewBox="0 0 75 66.663"
   width="75mm"
   height="66.663mm"
   style="background-color: #bbbbbb;">
    <style>   
    .l {
      fill:#cccccc;
      stroke:#000000;
      stroke-width:0.02;
    }
    .l1 {
      fill:none;
      stroke:#000000;
      stroke-width:0.02;
    }
    .l2 {
      fill:none;
      stroke:#000000;
      stroke-width:0.08;
    }
    .l3 {
      fill:none;
      stroke:green;
      stroke-width:0.08;
    }
    </style> 
    <rect width="100%" height="100%" fill="#dddddd" />
    <path class="l2" transform="translate(-240.5, -59.653)" d=" M 307.5 80.617 A 2.4 2.4 0 0 1 307.5 85.417 A 2.4 2.4 0 0 1 307.5 80.617 M 252 65.253 A 2.4 2.4 0 0 1 252 70.053 A 2.4 2.4 0 0 1 252 65.253 M 248.5 115.916 A 2.4 2.4 0 0 1 248.5 120.716 A 2.4 2.4 0 0 1 248.5 115.916 M 309.634 75.307 L 254.134 59.943 A 8 8 0 0 0 244.019 67.102 L 240.519 117.764 A 8 8 0 0 0 252.607 125.181 L 311.607 89.882 A 8 8 0 0 0 309.634 75.307" />
</svg>