<?xml version="1.0" encoding="UTF-8" standalone="no"?>
<svg
   xmlns="http://www.w3.org/2000/svg"
   viewBox="0 0 174.2 60.2"
   width="174.2mm"
   height="60.2mm"
   style="background-color: #bbbbbb;">
    <style>   
    .l {
      fill:#cccccc;
      stroke:#000000;
      stroke-width:0.02;
    }
    .l1 {
      fill:none;
      stroke:#000000;
      stroke-width:0.02;
    }
    .l2 {
      fill:none;
      stroke:#000000;
      stroke-width:0.08;
    }
    .l3 {
      fill:none;
      stroke:green;
      stroke-width:0.08;
    }
    </style> 
    <rect width="100%" height="100%" fill="#dddddd" />
    <path class="l2" d=" M 0 10.1 L 0 50.1 A 10.1 10.1 0 0 0 10.1 60.2 L 14.1 60.2 A 10.1 10.1 0 0 0 23.872 52.653 L 23.886 52.598 A 9.9 9.9 0 0 1 33.465 45.2 L 140.735 45.2 A 9.9 9.9 0 0 1 150.314 52.598 L 150.328 52.653 A 10.1 10.1 0 0 0 160.1 60.2 L 164.1 60.2 A 10.1 10.1 0 0 0 174.2 50.1 L 174.2 10.1 A 10.1 10.1 0 0 0 164.1 0 L 160.1 0 A 10.1 10.1 0 0 0 150.328 7.547 L 150.314 7.602 A 9.9 9.9 0 0 1 140.735 15 L 33.465 15 A 9.9 9.9 0 0 1 23.886 7.602 L 23.872 7.547 A 10.1 10.1 0 0 0 14.1 0 L 10.1 0 A 10.1 10.1 0 0 0 0 10.1 M 8.1 19 L 8.1 41 A 3.9 3.9 0 0 0 15.9 41 L 15.9 19 A 3.9 3.9 0 0 0 8.1 19 M 158.1 19 L 158.1 41 A 3.9 3.9 0 0 0 165.9 41 L 165.9 19 A 3.9 3.9 0 0 0 158.1 19 M 37 34.9 L 137 34.9 A 4.9 4.9 0 0 0 137 25.1 L 37 25.1 A 4.9 4.9 0 0 0 37 34.9" />
</svg>