<?xml version="1.0" encoding="UTF-8" standalone="no"?>
<svg
   xmlns="http://www.w3.org/2000/svg"
   viewBox="0 0 58 58"
   width="58mm"
   height="58mm"
   style="background-color: #bbbbbb;">
    <style>   
    .l1 {
      fill:none;
      stroke:#000000;
      stroke-width:0.02;
    }
    .l2 {
      fill:none;
      stroke:#000000;
      stroke-width:0.2;
    }
    </style> 
    <rect width="100%" height="100%" fill="#dddddd" />
    
    <path class="l2" transform="translate(0, 0)" d=" M 29 26.1 A 2.9 2.9 0 0 1 29 31.9 A 2.9 2.9 0 0 1 29 26.1 M 29 0.9 A 28.1 28.1 0 0 1 29 57.1 A 28.1 28.1 0 0 1 29 0.9 M 18.75 27.1 A 1.9 1.9 0 0 1 18.75 30.9 A 1.9 1.9 0 0 1 18.75 27.1 M 29 37.35 A 1.9 1.9 0 0 1 29 41.15 A 1.9 1.9 0 0 1 29 37.35 M 39.25 27.1 A 1.9 1.9 0 0 1 39.25 30.9 A 1.9 1.9 0 0 1 39.25 27.1 M 29 16.85 A 1.9 1.9 0 0 1 29 20.65 A 1.9 1.9 0 0 1 29 16.85" />
</svg>