<?xml version="1.0" encoding="UTF-8" standalone="no"?>
<svg
   xmlns="http://www.w3.org/2000/svg"
   viewBox="0 0 300 200"
   width="300mm"
   height="200mm"
   style="background-color: #bbbbbb;">
    <style>   
    .l1 {
      fill:none;
      stroke:#000000;
      stroke-width:0.02;
    }
    .l2 {
      fill:none;
      stroke:#000000;
      stroke-width:0.2;
    }
    </style> 
    <rect width="100%" height="100%" fill="#dddddd" />
    
<!-- bearing 1 -->
    <path class="l2" transform="translate(6, 2)" d=" M 58 55.1 A 2.9 2.9 0 0 1 58 60.9 A 2.9 2.9 0 0 1 58 55.1 M 34.665 32.765 A 1.9 1.9 0 0 1 34.665 36.565 A 1.9 1.9 0 0 1 34.665 32.765 M 34.665 79.435 A 1.9 1.9 0 0 1 34.665 83.235 A 1.9 1.9 0 0 1 34.665 79.435 M 81.335 32.765 A 1.9 1.9 0 0 1 81.335 36.565 A 1.9 1.9 0 0 1 81.335 32.765 M 81.335 79.435 A 1.9 1.9 0 0 1 81.335 83.235 A 1.9 1.9 0 0 1 81.335 79.435 M 15.5 12.6 A 2.9 2.9 0 0 1 15.5 18.4 A 2.9 2.9 0 0 1 15.5 12.6 M 15.5 97.6 A 2.9 2.9 0 0 1 15.5 103.4 A 2.9 2.9 0 0 1 15.5 97.6 M 100.5 12.6 A 2.9 2.9 0 0 1 100.5 18.4 A 2.9 2.9 0 0 1 100.5 12.6 M 100.5 97.6 A 2.9 2.9 0 0 1 100.5 103.4 A 2.9 2.9 0 0 1 100.5 97.6 M 2.9 26.778 L 2.9 89.222 A 23.878 23.878 0 0 0 26.777 113.1 L 89.222 113.1 A 23.878 23.878 0 0 0 113.1 89.222 L 113.1 26.777 A 23.878 23.878 0 0 0 89.222 2.9 L 26.777 2.9 A 23.878 23.878 0 0 0 2.9 26.778" />
<!-- bearing 2 -->
    <path class="l2" transform="translate(64, 114.5)" d=" M 43 2.9 A 40.1 40.1 0 0 1 43 83.1 A 40.1 40.1 0 0 1 43 2.9 M 43 17.1 A 25.9 25.9 0 0 1 43 68.9 A 25.9 25.9 0 0 1 43 17.1 M 19.665 17.765 A 1.9 1.9 0 0 1 19.665 21.565 A 1.9 1.9 0 0 1 19.665 17.765 M 19.665 64.435 A 1.9 1.9 0 0 1 19.665 68.235 A 1.9 1.9 0 0 1 19.665 64.435 M 66.335 17.765 A 1.9 1.9 0 0 1 66.335 21.565 A 1.9 1.9 0 0 1 66.335 17.765 M 66.335 64.435 A 1.9 1.9 0 0 1 66.335 68.235 A 1.9 1.9 0 0 1 66.335 64.435" />
<!-- bearing 3 -->
    <path class="l2" transform="translate(209, 110.5)" d=" M 43 1.75 A 41.25 41.25 0 0 1 43 84.25 A 41.25 41.25 0 0 1 43 1.75 M 43 17.1 A 25.9 25.9 0 0 1 43 68.9 A 25.9 25.9 0 0 1 43 17.1 M 19.665 17.765 A 1.9 1.9 0 0 1 19.665 21.565 A 1.9 1.9 0 0 1 19.665 17.765 M 19.665 64.435 A 1.9 1.9 0 0 1 19.665 68.235 A 1.9 1.9 0 0 1 19.665 64.435 M 66.335 17.765 A 1.9 1.9 0 0 1 66.335 21.565 A 1.9 1.9 0 0 1 66.335 17.765 M 66.335 64.435 A 1.9 1.9 0 0 1 66.335 68.235 A 1.9 1.9 0 0 1 66.335 64.435" />
<!-- bearing 4 -->
    <path class="l2" transform="translate(121, 2)" d=" M 58 51.1 A 6.9 6.9 0 0 1 58 64.9 A 6.9 6.9 0 0 1 58 51.1 M 34.665 32.765 A 1.9 1.9 0 0 1 34.665 36.565 A 1.9 1.9 0 0 1 34.665 32.765 M 34.665 79.435 A 1.9 1.9 0 0 1 34.665 83.235 A 1.9 1.9 0 0 1 34.665 79.435 M 81.335 32.765 A 1.9 1.9 0 0 1 81.335 36.565 A 1.9 1.9 0 0 1 81.335 32.765 M 81.335 79.435 A 1.9 1.9 0 0 1 81.335 83.235 A 1.9 1.9 0 0 1 81.335 79.435 M 15.5 12.6 A 2.9 2.9 0 0 1 15.5 18.4 A 2.9 2.9 0 0 1 15.5 12.6 M 15.5 97.6 A 2.9 2.9 0 0 1 15.5 103.4 A 2.9 2.9 0 0 1 15.5 97.6 M 100.5 12.6 A 2.9 2.9 0 0 1 100.5 18.4 A 2.9 2.9 0 0 1 100.5 12.6 M 100.5 97.6 A 2.9 2.9 0 0 1 100.5 103.4 A 2.9 2.9 0 0 1 100.5 97.6 M 45.75 56.1 A 1.9 1.9 0 0 1 45.75 59.9 A 1.9 1.9 0 0 1 45.75 56.1 M 58 68.35 A 1.9 1.9 0 0 1 58 72.15 A 1.9 1.9 0 0 1 58 68.35 M 70.25 56.1 A 1.9 1.9 0 0 1 70.25 59.9 A 1.9 1.9 0 0 1 70.25 56.1 M 58 43.85 A 1.9 1.9 0 0 1 58 47.65 A 1.9 1.9 0 0 1 58 43.85 M 2.9 26.778 L 2.9 89.222 A 23.878 23.878 0 0 0 26.777 113.1 L 89.222 113.1 A 23.878 23.878 0 0 0 113.1 89.222 L 113.1 26.777 A 23.878 23.878 0 0 0 89.222 2.9 L 26.777 2.9 A 23.878 23.878 0 0 0 2.9 26.778" />
<!-- bearing 5 -->
    <path class="l2" transform="translate(86.5, 137)" d=" M 20.5 13.6 A 6.9 6.9 0 0 1 20.5 27.4 A 6.9 6.9 0 0 1 20.5 13.6 M 20.5 1.75 A 18.75 18.75 0 0 1 20.5 39.25 A 18.75 18.75 0 0 1 20.5 1.75 M 8.25 18.6 A 1.9 1.9 0 0 1 8.25 22.4 A 1.9 1.9 0 0 1 8.25 18.6 M 20.5 30.85 A 1.9 1.9 0 0 1 20.5 34.65 A 1.9 1.9 0 0 1 20.5 30.85 M 32.75 18.6 A 1.9 1.9 0 0 1 32.75 22.4 A 1.9 1.9 0 0 1 32.75 18.6 M 20.5 6.35 A 1.9 1.9 0 0 1 20.5 10.15 A 1.9 1.9 0 0 1 20.5 6.35" />
<!-- bearing 6 -->
    <path class="l2" transform="translate(231.5, 133)" d=" M 20.5 17.6 A 2.9 2.9 0 0 1 20.5 23.4 A 2.9 2.9 0 0 1 20.5 17.6 M 20.5 2.9 A 17.6 17.6 0 0 1 20.5 38.1 A 17.6 17.6 0 0 1 20.5 2.9 M 10.25 18.6 A 1.9 1.9 0 0 1 10.25 22.4 A 1.9 1.9 0 0 1 10.25 18.6 M 20.5 28.85 A 1.9 1.9 0 0 1 20.5 32.65 A 1.9 1.9 0 0 1 20.5 28.85 M 30.75 18.6 A 1.9 1.9 0 0 1 30.75 22.4 A 1.9 1.9 0 0 1 30.75 18.6 M 20.5 8.35 A 1.9 1.9 0 0 1 20.5 12.15 A 1.9 1.9 0 0 1 20.5 8.35" />
<!-- bearing 7 -->
    <path class="l2" transform="translate(150, 122)" d=" M 29 26.1 A 2.9 2.9 0 0 1 29 31.9 A 2.9 2.9 0 0 1 29 26.1 M 29 0.9 A 28.1 28.1 0 0 1 29 57.1 A 28.1 28.1 0 0 1 29 0.9 M 18.75 27.1 A 1.9 1.9 0 0 1 18.75 30.9 A 1.9 1.9 0 0 1 18.75 27.1 M 29 37.35 A 1.9 1.9 0 0 1 29 41.15 A 1.9 1.9 0 0 1 29 37.35 M 39.25 27.1 A 1.9 1.9 0 0 1 39.25 30.9 A 1.9 1.9 0 0 1 39.25 27.1 M 29 16.85 A 1.9 1.9 0 0 1 29 20.65 A 1.9 1.9 0 0 1 29 16.85" />
<!-- crankbox 1 -->
    <path class="l2" transform="translate(237, 5)" d=" M 28 15.1 A 14.9 14.9 0 0 1 28 44.9 A 14.9 14.9 0 0 1 28 15.1 M 12 11.1 A 2.9 2.9 0 0 1 12 16.9 A 2.9 2.9 0 0 1 12 11.1 M 12 43.1 A 2.9 2.9 0 0 1 12 48.9 A 2.9 2.9 0 0 1 12 43.1 M 44 11.1 A 2.9 2.9 0 0 1 44 16.9 A 2.9 2.9 0 0 1 44 11.1 M 44 43.1 A 2.9 2.9 0 0 1 44 48.9 A 2.9 2.9 0 0 1 44 43.1 M 8 27.6 A 2.4 2.4 0 0 1 8 32.4 A 2.4 2.4 0 0 1 8 27.6 M 28 47.6 A 2.4 2.4 0 0 1 28 52.4 A 2.4 2.4 0 0 1 28 47.6 M 48 27.6 A 2.4 2.4 0 0 1 48 32.4 A 2.4 2.4 0 0 1 48 27.6 M 28 7.6 A 2.4 2.4 0 0 1 28 12.4 A 2.4 2.4 0 0 1 28 7.6 M 3 9 L 18 9 A 10.05 10.05 0 0 1 20.79 3 L 35.21 3 A 10.05 10.05 0 0 1 38 9 L 53 9 L 53 46 A 9 9 0 0 1 44 55 L 12 55 A 9 9 0 0 1 3 46 L 3 9" />
<!-- crankbox 2 -->
    <path class="l2" transform="translate(9, 122)" d=" M 28 34.1 A 11.9 11.9 0 0 1 28 57.9 A 11.9 11.9 0 0 1 28 34.1 M 12 27.1 A 2.9 2.9 0 0 1 12 32.9 A 2.9 2.9 0 0 1 12 27.1 M 12 59.1 A 2.9 2.9 0 0 1 12 64.9 A 2.9 2.9 0 0 1 12 59.1 M 44 27.1 A 2.9 2.9 0 0 1 44 32.9 A 2.9 2.9 0 0 1 44 27.1 M 44 59.1 A 2.9 2.9 0 0 1 44 64.9 A 2.9 2.9 0 0 1 44 59.1 M 8 43.6 A 2.4 2.4 0 0 1 8 48.4 A 2.4 2.4 0 0 1 8 43.6 M 28 63.6 A 2.4 2.4 0 0 1 28 68.4 A 2.4 2.4 0 0 1 28 63.6 M 48 43.6 A 2.4 2.4 0 0 1 48 48.4 A 2.4 2.4 0 0 1 48 43.6 M 28 23.6 A 2.4 2.4 0 0 1 28 28.4 A 2.4 2.4 0 0 1 28 23.6 M 12 10 A 2 2 0 0 1 12 14 A 2 2 0 0 1 12 10 M 44 10 A 2 2 0 0 1 44 14 A 2 2 0 0 1 44 10 M 2.9 12 L 2.9 62 A 9.1 9.1 0 0 0 12 71.1 L 44 71.1 A 9.1 9.1 0 0 0 53.1 62 L 53.1 12 A 9.1 9.1 0 0 0 44 2.9 L 12 2.9 A 9.1 9.1 0 0 0 2.9 12" />
<!-- sawblade gasket -->
    <path class="l2" transform="translate(150, 182)" d=" M 5.1 0 A 5.1 5.1 0 0 1 5.1 10.2 A 5.1 5.1 0 0 1 5.1 0 M 20.1 0 A 5.1 5.1 0 0 1 20.1 10.2 A 5.1 5.1 0 0 1 20.1 0 M 5.1 2.2 A 2.9 2.9 0 0 1 5.1 8 A 2.9 2.9 0 0 1 5.1 2.2 M 20.1 2.2 A 2.9 2.9 0 0 1 20.1 8 A 2.9 2.9 0 0 1 20.1 2.2" />
<!---->
</svg>