<?xml version="1.0" encoding="UTF-8" standalone="no"?>
<svg
   xmlns="http://www.w3.org/2000/svg"
   viewBox="0 0 41 41"
   width="41mm"
   height="41mm"
   style="background-color: #bbbbbb;">
    <style>   
    .l1 {
      fill:none;
      stroke:#000000;
      stroke-width:0.02;
    }
    .l2 {
      fill:none;
      stroke:#000000;
      stroke-width:0.2;
    }
    </style> 
    <rect width="100%" height="100%" fill="#dddddd" />
    
    <path class="l2" transform="translate(0, 0)" d=" M 20.5 13.6 A 6.9 6.9 0 0 1 20.5 27.4 A 6.9 6.9 0 0 1 20.5 13.6 M 20.5 1.75 A 18.75 18.75 0 0 1 20.5 39.25 A 18.75 18.75 0 0 1 20.5 1.75 M 8.25 18.6 A 1.9 1.9 0 0 1 8.25 22.4 A 1.9 1.9 0 0 1 8.25 18.6 M 20.5 30.85 A 1.9 1.9 0 0 1 20.5 34.65 A 1.9 1.9 0 0 1 20.5 30.85 M 32.75 18.6 A 1.9 1.9 0 0 1 32.75 22.4 A 1.9 1.9 0 0 1 32.75 18.6 M 20.5 6.35 A 1.9 1.9 0 0 1 20.5 10.15 A 1.9 1.9 0 0 1 20.5 6.35" />
</svg>