<?xml version="1.0" encoding="UTF-8" standalone="no"?>
<svg
   xmlns="http://www.w3.org/2000/svg"
   viewBox="0 0 41 41"
   width="41mm"
   height="41mm"
   style="background-color: #bbbbbb;">
    <style>   
    .l1 {
      fill:none;
      stroke:#000000;
      stroke-width:0.02;
    }
    .l2 {
      fill:none;
      stroke:#000000;
      stroke-width:0.2;
    }
    </style> 
    <rect width="100%" height="100%" fill="#dddddd" />
    
    <path class="l2" transform="translate(0, 0)" d=" M 20.5 17.6 A 2.9 2.9 0 0 1 20.5 23.4 A 2.9 2.9 0 0 1 20.5 17.6 M 20.5 2.9 A 17.6 17.6 0 0 1 20.5 38.1 A 17.6 17.6 0 0 1 20.5 2.9 M 10.25 18.6 A 1.9 1.9 0 0 1 10.25 22.4 A 1.9 1.9 0 0 1 10.25 18.6 M 20.5 28.85 A 1.9 1.9 0 0 1 20.5 32.65 A 1.9 1.9 0 0 1 20.5 28.85 M 30.75 18.6 A 1.9 1.9 0 0 1 30.75 22.4 A 1.9 1.9 0 0 1 30.75 18.6 M 20.5 8.35 A 1.9 1.9 0 0 1 20.5 12.15 A 1.9 1.9 0 0 1 20.5 8.35" />
</svg>