<?xml version="1.0" encoding="UTF-8" standalone="no"?>
<svg
   xmlns="http://www.w3.org/2000/svg"
   viewBox="0 0 116 116"
   width="116mm"
   height="116mm"
   style="background-color: #bbbbbb;">
    <style>   
    .l1 {
      fill:none;
      stroke:#000000;
      stroke-width:0.02;
    }
    .l2 {
      fill:none;
      stroke:#000000;
      stroke-width:0.2;
    }
    </style> 
    <rect width="100%" height="100%" fill="#dddddd" />
    
    <path class="l2" transform="translate(0, 0)" d=" M 58 51.1 A 6.9 6.9 0 0 1 58 64.9 A 6.9 6.9 0 0 1 58 51.1 M 34.665 32.765 A 1.9 1.9 0 0 1 34.665 36.565 A 1.9 1.9 0 0 1 34.665 32.765 M 34.665 79.435 A 1.9 1.9 0 0 1 34.665 83.235 A 1.9 1.9 0 0 1 34.665 79.435 M 81.335 32.765 A 1.9 1.9 0 0 1 81.335 36.565 A 1.9 1.9 0 0 1 81.335 32.765 M 81.335 79.435 A 1.9 1.9 0 0 1 81.335 83.235 A 1.9 1.9 0 0 1 81.335 79.435 M 15.5 12.6 A 2.9 2.9 0 0 1 15.5 18.4 A 2.9 2.9 0 0 1 15.5 12.6 M 15.5 97.6 A 2.9 2.9 0 0 1 15.5 103.4 A 2.9 2.9 0 0 1 15.5 97.6 M 100.5 12.6 A 2.9 2.9 0 0 1 100.5 18.4 A 2.9 2.9 0 0 1 100.5 12.6 M 100.5 97.6 A 2.9 2.9 0 0 1 100.5 103.4 A 2.9 2.9 0 0 1 100.5 97.6 M 45.75 56.1 A 1.9 1.9 0 0 1 45.75 59.9 A 1.9 1.9 0 0 1 45.75 56.1 M 58 68.35 A 1.9 1.9 0 0 1 58 72.15 A 1.9 1.9 0 0 1 58 68.35 M 70.25 56.1 A 1.9 1.9 0 0 1 70.25 59.9 A 1.9 1.9 0 0 1 70.25 56.1 M 58 43.85 A 1.9 1.9 0 0 1 58 47.65 A 1.9 1.9 0 0 1 58 43.85 M 2.9 26.778 L 2.9 89.222 A 23.878 23.878 0 0 0 26.777 113.1 L 89.222 113.1 A 23.878 23.878 0 0 0 113.1 89.222 L 113.1 26.777 A 23.878 23.878 0 0 0 89.222 2.9 L 26.777 2.9 A 23.878 23.878 0 0 0 2.9 26.778" />
</svg>