<?xml version="1.0" encoding="UTF-8" standalone="no"?>
<svg
   xmlns="http://www.w3.org/2000/svg"
   viewBox="0 0 86 86"
   width="86mm"
   height="86mm"
   style="background-color: #bbbbbb;">
    <style>   
    .l1 {
      fill:none;
      stroke:#000000;
      stroke-width:0.02;
    }
    .l2 {
      fill:none;
      stroke:#000000;
      stroke-width:0.2;
    }
    </style> 
    <rect width="100%" height="100%" fill="#dddddd" />
    
    <path class="l2" transform="translate(0, 0)" d=" M 43 1.75 A 41.25 41.25 0 0 1 43 84.25 A 41.25 41.25 0 0 1 43 1.75 M 43 17.1 A 25.9 25.9 0 0 1 43 68.9 A 25.9 25.9 0 0 1 43 17.1 M 19.665 17.765 A 1.9 1.9 0 0 1 19.665 21.565 A 1.9 1.9 0 0 1 19.665 17.765 M 19.665 64.435 A 1.9 1.9 0 0 1 19.665 68.235 A 1.9 1.9 0 0 1 19.665 64.435 M 66.335 17.765 A 1.9 1.9 0 0 1 66.335 21.565 A 1.9 1.9 0 0 1 66.335 17.765 M 66.335 64.435 A 1.9 1.9 0 0 1 66.335 68.235 A 1.9 1.9 0 0 1 66.335 64.435" />
</svg>