<?xml version="1.0" encoding="UTF-8" standalone="no"?>
<svg
   xmlns="http://www.w3.org/2000/svg"
   viewBox="0 0 287.069 185.0"
   width="287.069mm"
   height="185.0mm"
   style="background-color: #bbbbbb;">
    <style>   
    .l {
      fill:#cccccc;
      stroke:#000000;
      stroke-width:0.02;
    }
    .l1 {
      fill:none;
      stroke:#000000;
      stroke-width:0.02;
    }
    .l2 {
      fill:none;
      stroke:#000000;
      stroke-width:0.08;
    }
    .l3 {
      fill:none;
      stroke:green;
      stroke-width:0.08;
    }
    </style> 
    <rect width="100%" height="100%" fill="#dddddd" />
    <path class="l2" transform="translate(-88.931, 0)" d=" M 92.5 185 A 92.5 92.5 0 0 0 112.463 182.82 C 238.179 155.083 238.179 155.083 360.292 114.314 A 23 23 0 0 0 359.136 70.334 L 117.179 3.353 A 92.5 92.5 0 0 0 92.5 0  L 92.5 4 A 88.5 88.5 0 0 1 116.111 7.208 L 358.069 74.189 A 19 19 0 0 1 359.024 110.52 C 237.11 151.222 237.11 151.222 111.6 178.914 A 88.5 88.5 0 0 1 92.5 181 z" />
</svg>