<?xml version="1.0" encoding="UTF-8" standalone="no"?>
<svg
   xmlns="http://www.w3.org/2000/svg"
   viewBox="0 0 376 188"
   width="376mm"
   height="188mm"
   style="background-color: #bbbbbb;">
    <style>   
    .l {
      fill:#cccccc;
      stroke:#000000;
      stroke-width:0.02;
    }
    .l1 {
      fill:none;
      stroke:#000000;
      stroke-width:0.02;
    }
    .l2 {
      fill:none;
      stroke:#000000;
      stroke-width:0.08;
    }
    .l3 {
      fill:none;
      stroke:green;
      stroke-width:0.08;
    }
    </style> 
    <rect width="100%" height="100%" fill="#dddddd" />
<!-- wheel mount -->
    <path class="l2" d=" M 43.9 0 A 43.9 43.9 0 0 0 43.9 87.8 A 43.9 43.9 0 0 0 43.9 0 M 43.9 18.1 A 25.8 25.8 0 0 0 43.9 69.7 A 25.8 25.8 0 0 0 43.9 18.1 M 49.344 6.628 A 2.9 2.9 0 0 0 49.344 12.428 A 2.9 2.9 0 0 0 49.344 6.628 M 12.893 25.201 A 2.9 2.9 0 0 0 12.893 31.001 A 2.9 2.9 0 0 0 12.893 25.201 M 19.293 65.607 A 2.9 2.9 0 0 0 19.293 71.407 A 2.9 2.9 0 0 0 19.293 65.607 M 59.699 72.007 A 2.9 2.9 0 0 0 59.699 77.807 A 2.9 2.9 0 0 0 59.699 72.007 M 78.272 35.556 A 2.9 2.9 0 0 0 78.272 41.356 A 2.9 2.9 0 0 0 78.272 35.556" />
<!-- sprocket mount -->
    <path class="l2" d=" M 54.1 37.2 A 16.9 16.9 0 0 0 54.1 71 A 16.9 16.9 0 0 0 54.1 37.2 M 54.1 0 A 54.1 54.1 0 1 0 103.131 31.236 A 20 20 0 0 1 76.964 5.069 A 54.1 54.1 0 0 0 54.1 0 M 59.544 16.828 A 2.9 2.9 0 0 0 59.544 22.628 A 2.9 2.9 0 0 0 59.544 16.828 M 23.093 35.401 A 2.9 2.9 0 0 0 23.093 41.201 A 2.9 2.9 0 0 0 23.093 35.401 M 29.493 75.807 A 2.9 2.9 0 0 0 29.493 81.607 A 2.9 2.9 0 0 0 29.493 75.807 M 69.899 82.207 A 2.9 2.9 0 0 0 69.899 88.007 A 2.9 2.9 0 0 0 69.899 82.207 M 88.472 45.756 A 2.9 2.9 0 0 0 88.472 51.556 A 2.9 2.9 0 0 0 88.472 45.756 M 54.1 3.2 A 2.9 2.9 0 0 0 54.1 9 A 2.9 2.9 0 0 0 54.1 3.2 M 6.1 51.2 A 2.9 2.9 0 0 0 6.1 57 A 2.9 2.9 0 0 0 6.1 51.2 M 54.1 99.2 A 2.9 2.9 0 0 0 54.1 105 A 2.9 2.9 0 0 0 54.1 99.2 M 102.1 51.2 A 2.9 2.9 0 0 0 102.1 57 A 2.9 2.9 0 0 0 102.1 51.2" />
<!-- sprocket guides -->
    <path class="l2" d=" M 54.1 37.2 A 16.9 16.9 0 0 0 54.1 71 A 16.9 16.9 0 0 0 54.1 37.2 M 54.1 0 A 54.1 54.1 0 1 0 103.131 31.236 A 20 20 0 0 1 76.964 5.069 A 54.1 54.1 0 0 0 54.1 0 M 59.544 16.828 A 2.9 2.9 0 0 0 59.544 22.628 A 2.9 2.9 0 0 0 59.544 16.828 M 23.093 35.401 A 2.9 2.9 0 0 0 23.093 41.201 A 2.9 2.9 0 0 0 23.093 35.401 M 29.493 75.807 A 2.9 2.9 0 0 0 29.493 81.607 A 2.9 2.9 0 0 0 29.493 75.807 M 69.899 82.207 A 2.9 2.9 0 0 0 69.899 88.007 A 2.9 2.9 0 0 0 69.899 82.207 M 88.472 45.756 A 2.9 2.9 0 0 0 88.472 51.556 A 2.9 2.9 0 0 0 88.472 45.756 M 59.544 10.728 A 9 9 0 0 0 59.544 28.728 A 9 9 0 0 0 59.544 10.728 M 23.093 29.301 A 9 9 0 0 0 23.093 47.301 A 9 9 0 0 0 23.093 29.301 M 29.493 69.707 A 9 9 0 0 0 29.493 87.707 A 9 9 0 0 0 29.493 69.707 M 69.899 76.107 A 9 9 0 0 0 69.899 94.107 A 9 9 0 0 0 69.899 76.107 M 88.472 39.656 A 9 9 0 0 0 88.472 57.656 A 9 9 0 0 0 88.472 39.656 M 54.1 3.2 A 2.9 2.9 0 0 0 54.1 9 A 2.9 2.9 0 0 0 54.1 3.2 M 6.1 51.2 A 2.9 2.9 0 0 0 6.1 57 A 2.9 2.9 0 0 0 6.1 51.2 M 54.1 99.2 A 2.9 2.9 0 0 0 54.1 105 A 2.9 2.9 0 0 0 54.1 99.2 M 102.1 51.2 A 2.9 2.9 0 0 0 102.1 57 A 2.9 2.9 0 0 0 102.1 51.2 M 54.1 0.1 A 6 6 0 0 0 54.1 12.1 A 6 6 0 0 0 54.1 0.1 M 6.1 48.1 A 6 6 0 0 0 6.1 60.1 A 6 6 0 0 0 6.1 48.1 M 54.1 96.1 A 6 6 0 0 0 54.1 108.1 A 6 6 0 0 0 54.1 96.1 M 102.1 48.1 A 6 6 0 0 0 102.1 60.1 A 6 6 0 0 0 102.1 48.1" />
<!-- rear fork extension -->
    <path class="l2" d=" M 15 10.1 A 4.9 4.9 0 0 0 15 19.9 A 4.9 4.9 0 0 0 15 10.1 M 35 10.1 A 4.9 4.9 0 0 0 35 19.9 A 4.9 4.9 0 0 0 35 10.1 M 49 36.1 A 2.9 2.9 0 0 0 49 41.9 A 2.9 2.9 0 0 0 49 36.1 M 61 32.9 L 64 32.9 A 2.9 2.9 0 0 0 64 27.1 L 61 27.1 A 2.9 2.9 0 0 0 61 32.9 M 9.205 28.835 L 46.682 44.534 A 6 6 0 0 0 49 45 L 64 45 A 15 15 0 0 0 70.891 16.677 L 41.891 1.677 A 15 15 0 0 0 35 0 L 15 0 A 15 15 0 0 0 9.205 28.835" />
<!-- rear fork extension brake -->
    <!--<ellipse class="l3" cx="88.94491012337913" cy="28.829278566945028" rx="15" ry="20" />
    <ellipse class="l3" cx="88.94491012337913" cy="28.829278566945028" rx="15" ry="20" transform="rotate(-69.79409802168746 88.94491012337913 28.829278566945028)" />
    <rect width="100%" height="100%" fill="#dddddd" />-->
    <path class="l2" d=" M 15 57.1 A 4.9 4.9 0 0 0 15 66.9 A 4.9 4.9 0 0 0 15 57.1 M 35 57.1 A 4.9 4.9 0 0 0 35 66.9 A 4.9 4.9 0 0 0 35 57.1 M 61 79.9 L 64 79.9 A 2.9 2.9 0 0 0 64 74.1 L 61 74.1 A 2.9 2.9 0 0 0 61 79.9 M 79.47 56.26 L 82.47 56.26 A 2.9 2.9 0 0 0 82.47 50.46 L 79.47 50.46 A 2.9 2.9 0 0 0 79.47 56.26 M 58.083 9.961 L 61.083 9.961 A 2.9 2.9 0 0 0 61.083 4.161 L 58.083 4.161 A 2.9 2.9 0 0 0 58.083 9.961 M 40 19.6 A 2.4 2.4 0 0 0 40 24.4 A 2.4 2.4 0 0 0 40 19.6 M 10.35 76.261 L 56.35 91.261 A 15 15 0 0 0 61 92 L 64 92 A 15 15 0 0 0 77.855 82.748 L 88.935 56.042 A 7 7 0 0 0 88.825 50.424 L 85.634 43.517 A 15 20 -69.794 0 1 73.463 17.169 L 67.437 4.125 A 7 7 0 0 0 61.083 0.061 L 58.083 0.061 A 7 7 0 0 0 54.351 1.138 L 34.669 13.539 A 10 10 0 0 0 32.13 15.831 L 3.194 52.746 A 15 15 0 0 0 10.35 76.261" />    
<!-- front fork extension -->
    <path class="l2" d=" M 16.5 14.1 A 2.4 2.4 0 0 0 16.5 18.9 A 2.4 2.4 0 0 0 16.5 14.1 M 16.5 29.6 A 4.9 4.9 0 0 0 16.5 39.4 A 4.9 4.9 0 0 0 16.5 29.6 M 16.5 47.6 A 2.9 2.9 0 0 0 16.5 53.4 A 2.9 2.9 0 0 0 16.5 47.6 M 0 16.5 L 0 50.5 A 16.5 16.5 0 0 0 33 50.5 L 33 16.5 A 16.5 16.5 0 0 0 0 16.5" />
<!-- plate big -->
    <path class="l2" transform="translate(-88.931, 0)" d=" M 92.5 185 A 92.5 92.5 0 0 0 112.463 182.82 C 238.179 155.083 238.179 155.083 360.292 114.314 A 23 23 0 0 0 359.136 70.334 L 117.179 3.353 A 92.5 92.5 0 0 0 92.5 0 v 4.0 a 3.569 3.569 0 1 0 1.784 6.659 a 3.569 3.569 0 1 1 0 6.181 A 3.569 3.569 0 1 0 92.5 23.5 L 92.5 27.5 a 65 65 0 0 1 0 130 L 92.5 161.5 a 3.569 3.569 0 1 0 1.784 6.659 a 3.569 3.569 0 1 1 0 6.181 A 3.569 3.569 0 1 0 92.5 181z  M 353 79.5 A 13 13 0 0 1 353 105.5 A 13 13 0 0 1 353 79.5  M 307.5 80.517 A 2.5 2.5 0 0 1 307.5 85.517 A 2.5 2.5 0 0 1 307.5 80.517 M 252 65.153 A 2.5 2.5 0 0 1 252 70.153 A 2.5 2.5 0 0 1 252 65.153 M 248.5 115.816 A 2.5 2.5 0 0 1 248.5 120.816 A 2.5 2.5 0 0 1 248.5 115.816 M 204.19 128.08 A 2.5 2.5 0 0 1 204.19 133.08 A 2.5 2.5 0 0 1 204.19 128.08 M 204.167 128.088 A 2.5 2.5 0 0 1 204.167 133.088 A 2.5 2.5 0 0 1 204.167 128.088 M 326.75 90 A 2.5 2.5 0 0 1 326.75 95 A 2.5 2.5 0 0 1 326.75 90" />
<!-- border big -->
    <path class="l2" transform="translate(-88.931, 0)" d=" M 92.5 185 A 92.5 92.5 0 0 0 112.463 182.82 C 238.179 155.083 238.179 155.083 360.292 114.314 A 23 23 0 0 0 359.136 70.334 L 117.179 3.353 A 92.5 92.5 0 0 0 92.5 0  L 92.5 4 A 88.5 88.5 0 0 1 116.111 7.208 L 358.069 74.189 A 19 19 0 0 1 359.024 110.52 C 237.11 151.222 237.11 151.222 111.6 178.914 A 88.5 88.5 0 0 1 92.5 181 z" />
<!-- plate small -->    
    <path class="l2" transform="translate(10.5, 0)" d=" M 92.5 185 A 92.5 92.5 0 0 1 0.65 103.41 A 2.16 2.16 0 0 0 -1.5 101.5 A 9 9 0 0 1 -1.5 83.5 A 2.16 2.16 0 0 0 0.65 81.59 A 92.5 92.5 0 0 1 92.5 0 h 0.15 v 4.15 h -0.15 a 3.419 3.419 0 1 0 1.709 6.379 a 3.719 3.719 0 1 1 0 6.441 A 3.419 3.419 0 1 0 92.5 23.35 h 0.15 v 4.15 h -0.15 a 65 65 0 0 0 0 130 h 0.15 v 4.15 h -0.15 a 3.419 3.419 0 1 0 1.709 6.379 a 3.719 3.719 0 1 1 0 6.441 A 3.419 3.419 0 1 0 92.5 180.85 h 0.15 v 4.15 h -0.15" />
<!-- border small -->
    <path class="l2" transform="translate(10.5, 0)" d=" M 92.5 185 A 92.5 92.5 0 0 1 0.65 103.41 A 2.16 2.16 0 0 0 -1.5 101.5 A 9 9 0 0 1 -1.5 83.5 A 2.16 2.16 0 0 0 0.65 81.59 A 92.5 92.5 0 0 1 92.5 0 h 0.15 v 4 h -0.15 A 88.5 88.5 0 0 0 92.5 181 h 0.15 v 4 z" />
<!-- support1 -->
    <path class="l2" d=" M 258.138 115.648 L 267.088 147.982 C 223.526 161.388 194.876 167.709 113.111 185.749 A 95.5 95.5 0 0 1 85 187.705 L 85 184.695 C 85 169.577 85 169.577 146.979 152.645 L 212.873 134.404 C 230.689 129.472 230.689 129.472 239.799 113.388 A 10 10 0 0 1 258.138 115.648 M 248.5 115.816 M 248.5 115.816 A 2.5 2.5 0 0 0 248.5 120.816 A 2.5 2.5 0 0 0 248.5 115.816" />
<!-- support2 -->
    <path class="l2" d=" M 267.079 147.983 C 223.526 161.388 194.876 167.709 113.111 185.749 A 95.5 95.5 0 0 1 85 187.705 L 85 184.695 A 92.5 92.5 0 0 0 112.463 182.82 C 194.153 164.796 222.761 158.484 266.284 145.088 z" />
<!-- support3 -->
    <path class="l2" d=" M 267.088 147.982 C 223.526 161.388 194.876 167.709 113.111 185.749 A 95.5 95.5 0 0 1 85 187.705 L 85 184.695 C 85 169.577 85 169.577 146.979 152.645 A 10 10 0 0 1 154.575 153.582 C 175.582 165.479 175.582 165.479 258.475 143.103 A 7 7 0 0 1 267.088 147.982 M 149.647 160.183 M 149.647 160.183 A 2.1 2.1 0 0 0 149.647 164.383 A 2.1 2.1 0 0 0 149.647 160.183 M 125.553 166.853 A 2.1 2.1 0 0 0 125.553 171.053 A 2.1 2.1 0 0 0 125.553 166.853 M 101.459 173.523 A 2.1 2.1 0 0 0 101.459 177.723 A 2.1 2.1 0 0 0 101.459 173.523" />
<!-- support4 -->
    <path class="l2" transform="translate(-77.5, -77.5)" d=" M 104.105 82.996 C 118.392 100.442 141.163 140.085 155.45 157.531 A 7.5 7.5 0 0 1 144.388 167.63 A 6.934 6.934 0 0 0 132.814 170.834 A 7.5 7.5 0 0 1 120.294 174.3 A 6.934 6.934 0 0 0 108.72 177.504 A 7.5 7.5 0 0 1 94.003 176.426 C 91.763 155.646 79.826 114.888 77.586 94.107 A 15 15 0 0 1 104.105 82.996 z M 90.826 95.303 L 93.82 95.486 A 2.9 2.9 0 0 0 94.174 89.697 L 91.18 89.514 A 2.9 2.9 0 0 0 90.826 95.303 M 105.251 99.633 A 2.9 2.9 0 0 0 105.251 105.433 A 2.9 2.9 0 0 0 105.251 99.633 M 149.647 159.883 A 2.4 2.4 0 0 0 149.647 164.683 A 2.4 2.4 0 0 0 149.647 159.883 M 125.553 166.553 A 2.4 2.4 0 0 0 125.553 171.353 A 2.4 2.4 0 0 0 125.553 166.553 M 101.459 173.223 A 2.4 2.4 0 0 0 101.459 178.023 A 2.4 2.4 0 0 0 101.459 173.223 M 106.94 86.59 L 106.659 91.181 C 106.336 96.472 106.336 96.472 118.743 103.354" />
<!-- support5 -->
    <path class="l2" transform="translate(10.5, -83.5)" d=" M -1.5 101.5 L 92.5 101.5 A 9 9 0 0 0 92.5 83.5 L -1.5 83.5 A 9 9 0 0 0 -1.5 101.5 M -1.5 90.1 A 2.4 2.4 0 0 0 -1.5 94.9 A 2.4 2.4 0 0 0 -1.5 90.1 M 91 95.4 L 94 95.4 A 2.9 2.9 0 0 0 94 89.6 L 91 89.6 A 2.9 2.9 0 0 0 91 95.4" />
<!-- aligner -->
    <path class="l2" d=" M 92.5 92.5 L 341.755 92.5 L 110.242 28.41 L 92.5 92.5 L 110.242 156.59 L 341.755 92.5 z" />
    <path class="l2" d=" M 116.111 177.792 L 358.069 110.811 M 117.179 181.647 L 359.136 114.666 M 117.445 182.611 L 359.403 115.63" />
<!-- 3 holes -->
    <path class="l2" transform="translate(-240.5, -59.653)" d=" M 307.5 80.617 A 2.4 2.4 0 0 1 307.5 85.417 A 2.4 2.4 0 0 1 307.5 80.617 M 252 65.253 A 2.4 2.4 0 0 1 252 70.053 A 2.4 2.4 0 0 1 252 65.253 M 248.5 115.916 A 2.4 2.4 0 0 1 248.5 120.716 A 2.4 2.4 0 0 1 248.5 115.916 M 309.634 75.307 L 254.134 59.943 A 8 8 0 0 0 244.019 67.102 L 240.519 117.764 A 8 8 0 0 0 252.607 125.181 L 311.607 89.882 A 8 8 0 0 0 309.634 75.307" />
<!-- rear washer -->
    <path class="l2" d=" M 15 10.1 A 4.9 4.9 0 0 0 15 19.9 A 4.9 4.9 0 0 0 15 10.1 M 35 10.1 A 4.9 4.9 0 0 0 35 19.9 A 4.9 4.9 0 0 0 35 10.1 M 15 30 L 35 30 A 15 15 0 0 0 35 0 L 15 0 A 15 15 0 0 0 15 30" />
<!-- battery lock -->
    <path class="l2" d=" M 0 10.1 L 0 50.1 A 10.1 10.1 0 0 0 10.1 60.2 L 14.1 60.2 A 10.1 10.1 0 0 0 23.872 52.653 L 23.886 52.598 A 9.9 9.9 0 0 1 33.465 45.2 L 140.735 45.2 A 9.9 9.9 0 0 1 150.314 52.598 L 150.328 52.653 A 10.1 10.1 0 0 0 160.1 60.2 L 164.1 60.2 A 10.1 10.1 0 0 0 174.2 50.1 L 174.2 10.1 A 10.1 10.1 0 0 0 164.1 0 L 160.1 0 A 10.1 10.1 0 0 0 150.328 7.547 L 150.314 7.602 A 9.9 9.9 0 0 1 140.735 15 L 33.465 15 A 9.9 9.9 0 0 1 23.886 7.602 L 23.872 7.547 A 10.1 10.1 0 0 0 14.1 0 L 10.1 0 A 10.1 10.1 0 0 0 0 10.1 M 8.1 19 L 8.1 41 A 3.9 3.9 0 0 0 15.9 41 L 15.9 19 A 3.9 3.9 0 0 0 8.1 19 M 158.1 19 L 158.1 41 A 3.9 3.9 0 0 0 165.9 41 L 165.9 19 A 3.9 3.9 0 0 0 158.1 19 M 37 34.9 L 137 34.9 A 4.9 4.9 0 0 0 137 25.1 L 37 25.1 A 4.9 4.9 0 0 0 37 34.9" />
<!-- rear fender mount -->
    <path class="l2" d=" M 11.5 10 L 11.5 70 A 6 6 0 0 1 5.999 75.979 L 5.501 76.021 A 6 6 0 0 0 6 88 L 86 88 A 6 6 0 0 0 86.499 76.021 L 86.001 75.979 A 6 6 0 0 1 80.5 70 L 80.5 10 A 10 10 0 0 0 70.5 0 L 21.5 0 A 10 10 0 0 0 11.5 10 M 19.5 7.1 A 2.9 2.9 0 0 0 19.5 12.9 A 2.9 2.9 0 0 0 19.5 7.1 M 68.5 7.1 A 2.9 2.9 0 0 0 68.5 12.9 A 2.9 2.9 0 0 0 68.5 7.1 M 46 38.1 A 2.9 2.9 0 0 0 46 43.9 A 2.9 2.9 0 0 0 46 38.1 M 6 79.6 A 2.4 2.4 0 0 0 6 84.4 A 2.4 2.4 0 0 0 6 79.6 M 46 78.1 A 3.9 3.9 0 0 0 46 85.9 A 3.9 3.9 0 0 0 46 78.1 M 86 79.6 A 2.4 2.4 0 0 0 86 84.4 A 2.4 2.4 0 0 0 86 79.6" />
<!-- L-plate1 -->
    <path class="l2" d=" M 10 20 L 115.5 20 A 10 10 0 0 0 115.5 0 L 10 0 A 10 10 0 0 0 10 20 M 10 7.1 A 2.9 2.9 0 0 0 10 12.9 A 2.9 2.9 0 0 0 10 7.1 M 52 7.1 A 2.9 2.9 0 0 0 52 12.9 A 2.9 2.9 0 0 0 52 7.1 M 115.5 7.6 A 2.4 2.4 0 0 0 115.5 12.4 A 2.4 2.4 0 0 0 115.5 7.6" />
<!-- L-plate2 -->
    <path class="l2" d=" M 10 20 L 153.783 20 A 10 10 0 0 0 153.783 0 L 10 0 A 10 10 0 0 0 10 20 M 10 7.1 A 2.9 2.9 0 0 0 10 12.9 A 2.9 2.9 0 0 0 10 7.1 M 52 7.1 A 2.9 2.9 0 0 0 52 12.9 A 2.9 2.9 0 0 0 52 7.1 M 103 7.6 A 2.4 2.4 0 0 0 103 12.4 A 2.4 2.4 0 0 0 103 7.6 M 153.783 7.6 A 2.4 2.4 0 0 0 153.783 12.4 A 2.4 2.4 0 0 0 153.783 7.6" />
<!-- pi cover -->
    <path class="l1" d=" M 0 4 L 0 112 A 4 4 0 0 0 4 116 L 161 116 A 4 4 0 0 0 165 112 L 165 4 A 4 4 0 0 0 161 0 L 4 0 A 4 4 0 0 0 0 4 M 4 2.5 A 1.5 1.5 0 0 0 4 5.5 A 1.5 1.5 0 0 0 4 2.5 M 4 110.5 A 1.5 1.5 0 0 0 4 113.5 A 1.5 1.5 0 0 0 4 110.5 M 161 2.5 A 1.5 1.5 0 0 0 161 5.5 A 1.5 1.5 0 0 0 161 2.5 M 161 110.5 A 1.5 1.5 0 0 0 161 113.5 A 1.5 1.5 0 0 0 161 110.5 M 11.65 37.6 A 1.5 1.5 0 0 0 11.65 40.6 A 1.5 1.5 0 0 0 11.65 37.6 M 60.65 37.6 A 1.5 1.5 0 0 0 60.65 40.6 A 1.5 1.5 0 0 0 60.65 37.6 M 11.65 95.6 A 1.5 1.5 0 0 0 11.65 98.6 A 1.5 1.5 0 0 0 11.65 95.6 M 60.65 95.6 A 1.5 1.5 0 0 0 60.65 98.6 A 1.5 1.5 0 0 0 60.65 95.6 M 108.5 60.95 A 1.5 1.5 0 0 0 108.5 63.95 A 1.5 1.5 0 0 0 108.5 60.95 M 159.5 60.95 A 1.5 1.5 0 0 0 159.5 63.95 A 1.5 1.5 0 0 0 159.5 60.95 M 108.5 97.75 A 1.5 1.5 0 0 0 108.5 100.75 A 1.5 1.5 0 0 0 108.5 97.75 M 159.5 97.75 A 1.5 1.5 0 0 0 159.5 100.75 A 1.5 1.5 0 0 0 159.5 97.75 M 159.5 15.25 A 1.5 1.5 0 0 0 159.5 18.25 A 1.5 1.5 0 0 0 159.5 15.25 M 80.2 45.18 A 1.5 1.5 0 0 0 80.2 48.18 A 1.5 1.5 0 0 0 80.2 45.18 M 80.2 22.02 A 1.5 1.5 0 0 0 80.2 25.02 A 1.5 1.5 0 0 0 80.2 22.02 M 144.1 45.18 A 1.5 1.5 0 0 0 144.1 48.18 A 1.5 1.5 0 0 0 144.1 45.18 M 144.1 22.02 A 1.5 1.5 0 0 0 144.1 25.02 A 1.5 1.5 0 0 0 144.1 22.02" />
<!---->
</svg>