<?xml version="1.0" encoding="UTF-8" standalone="no"?>
<svg
   xmlns="http://www.w3.org/2000/svg"
   viewBox="0 0 56 58"
   width="56mm"
   height="58mm"
   style="background-color: #bbbbbb;">
    <style>   
    .l1 {
      fill:none;
      stroke:#000000;
      stroke-width:0.02;
    }
    .l2 {
      fill:none;
      stroke:#000000;
      stroke-width:0.2;
    }
    </style> 
    <rect width="100%" height="100%" fill="#dddddd" />
    
    <path class="l2" transform="translate(0, 0)" d=" M 28 15.1 A 14.9 14.9 0 0 1 28 44.9 A 14.9 14.9 0 0 1 28 15.1 M 12 11.1 A 2.9 2.9 0 0 1 12 16.9 A 2.9 2.9 0 0 1 12 11.1 M 12 43.1 A 2.9 2.9 0 0 1 12 48.9 A 2.9 2.9 0 0 1 12 43.1 M 44 11.1 A 2.9 2.9 0 0 1 44 16.9 A 2.9 2.9 0 0 1 44 11.1 M 44 43.1 A 2.9 2.9 0 0 1 44 48.9 A 2.9 2.9 0 0 1 44 43.1 M 8 27.6 A 2.4 2.4 0 0 1 8 32.4 A 2.4 2.4 0 0 1 8 27.6 M 28 47.6 A 2.4 2.4 0 0 1 28 52.4 A 2.4 2.4 0 0 1 28 47.6 M 48 27.6 A 2.4 2.4 0 0 1 48 32.4 A 2.4 2.4 0 0 1 48 27.6 M 28 7.6 A 2.4 2.4 0 0 1 28 12.4 A 2.4 2.4 0 0 1 28 7.6 M 3 9 L 18 9 A 10.05 10.05 0 0 1 20.79 3 L 35.21 3 A 10.05 10.05 0 0 1 38 9 L 53 9 L 53 46 A 9 9 0 0 1 44 55 L 12 55 A 9 9 0 0 1 3 46 L 3 9" />
</svg>