<?xml version="1.0" encoding="UTF-8" standalone="no"?>
<svg
   xmlns="http://www.w3.org/2000/svg"
   viewBox="0 0 56 74"
   width="56mm"
   height="74mm"
   style="background-color: #bbbbbb;">
    <style>   
    .l1 {
      fill:none;
      stroke:#000000;
      stroke-width:0.02;
    }
    .l2 {
      fill:none;
      stroke:#000000;
      stroke-width:0.2;
    }
    </style> 
    <rect width="100%" height="100%" fill="#dddddd" />
    
    <path class="l2" transform="translate(0, 0)" d=" M 28 34.1 A 11.9 11.9 0 0 1 28 57.9 A 11.9 11.9 0 0 1 28 34.1 M 12 27.1 A 2.9 2.9 0 0 1 12 32.9 A 2.9 2.9 0 0 1 12 27.1 M 12 59.1 A 2.9 2.9 0 0 1 12 64.9 A 2.9 2.9 0 0 1 12 59.1 M 44 27.1 A 2.9 2.9 0 0 1 44 32.9 A 2.9 2.9 0 0 1 44 27.1 M 44 59.1 A 2.9 2.9 0 0 1 44 64.9 A 2.9 2.9 0 0 1 44 59.1 M 8 43.6 A 2.4 2.4 0 0 1 8 48.4 A 2.4 2.4 0 0 1 8 43.6 M 28 63.6 A 2.4 2.4 0 0 1 28 68.4 A 2.4 2.4 0 0 1 28 63.6 M 48 43.6 A 2.4 2.4 0 0 1 48 48.4 A 2.4 2.4 0 0 1 48 43.6 M 28 23.6 A 2.4 2.4 0 0 1 28 28.4 A 2.4 2.4 0 0 1 28 23.6 M 12 10 A 2 2 0 0 1 12 14 A 2 2 0 0 1 12 10 M 44 10 A 2 2 0 0 1 44 14 A 2 2 0 0 1 44 10 M 2.9 12 L 2.9 62 A 9.1 9.1 0 0 0 12 71.1 L 44 71.1 A 9.1 9.1 0 0 0 53.1 62 L 53.1 12 A 9.1 9.1 0 0 0 44 2.9 L 12 2.9 A 9.1 9.1 0 0 0 2.9 12" />
</svg>