<?xml version="1.0" encoding="UTF-8" standalone="no"?>
<svg
   xmlns="http://www.w3.org/2000/svg"
   viewBox="0 0 33 67"
   width="33mm"
   height="67mm"
   style="background-color: #bbbbbb;">
    <style>   
    .l {
      fill:#cccccc;
      stroke:#000000;
      stroke-width:0.02;
    }
    .l1 {
      fill:none;
      stroke:#000000;
      stroke-width:0.02;
    }
    .l2 {
      fill:none;
      stroke:#000000;
      stroke-width:0.08;
    }
    .l3 {
      fill:none;
      stroke:green;
      stroke-width:0.08;
    }
    </style> 
    <rect width="100%" height="100%" fill="#dddddd" />
    <path class="l2" d=" M 16.5 14.1 A 2.4 2.4 0 0 0 16.5 18.9 A 2.4 2.4 0 0 0 16.5 14.1 M 16.5 29.6 A 4.9 4.9 0 0 0 16.5 39.4 A 4.9 4.9 0 0 0 16.5 29.6 M 16.5 47.6 A 2.9 2.9 0 0 0 16.5 53.4 A 2.9 2.9 0 0 0 16.5 47.6 M 0 16.5 L 0 50.5 A 16.5 16.5 0 0 0 33 50.5 L 33 16.5 A 16.5 16.5 0 0 0 0 16.5" />
</svg>