<?xml version="1.0" encoding="UTF-8" standalone="no"?>
<svg
   xmlns="http://www.w3.org/2000/svg"
   viewBox="0 0 125.5 20"
   width="125.5mm"
   height="20mm"
   style="background-color: #bbbbbb;">
    <style>   
    .l {
      fill:#cccccc;
      stroke:#000000;
      stroke-width:0.02;
    }
    .l1 {
      fill:none;
      stroke:#000000;
      stroke-width:0.02;
    }
    .l2 {
      fill:none;
      stroke:#000000;
      stroke-width:0.08;
    }
    .l3 {
      fill:none;
      stroke:green;
      stroke-width:0.08;
    }
    </style> 
    <rect width="100%" height="100%" fill="#dddddd" />
    <path class="l2" d=" M 10 20 L 115.5 20 A 10 10 0 0 0 115.5 0 L 10 0 A 10 10 0 0 0 10 20 M 10 7.1 A 2.9 2.9 0 0 0 10 12.9 A 2.9 2.9 0 0 0 10 7.1 M 52 7.1 A 2.9 2.9 0 0 0 52 12.9 A 2.9 2.9 0 0 0 52 7.1 M 115.5 7.6 A 2.4 2.4 0 0 0 115.5 12.4 A 2.4 2.4 0 0 0 115.5 7.6" />
</svg>