<?xml version="1.0" encoding="UTF-8" standalone="no"?>
<svg
   xmlns="http://www.w3.org/2000/svg"
   viewBox="0 0 165 116"
   width="165mm"
   height="116mm"
   style="background-color: #bbbbbb;">
    <style>   
    .l {
      fill:#cccccc;
      stroke:#000000;
      stroke-width:0.02;
    }
    .l1 {
      fill:none;
      stroke:#000000;
      stroke-width:0.02;
    }
    .l2 {
      fill:none;
      stroke:#000000;
      stroke-width:0.08;
    }
    .l3 {
      fill:none;
      stroke:green;
      stroke-width:0.08;
    }
    </style> 
    <rect width="100%" height="100%" fill="#dddddd" />
    <path class="l1" d=" M 0 4 L 0 112 A 4 4 0 0 0 4 116 L 161 116 A 4 4 0 0 0 165 112 L 165 4 A 4 4 0 0 0 161 0 L 4 0 A 4 4 0 0 0 0 4 M 4 2.5 A 1.5 1.5 0 0 0 4 5.5 A 1.5 1.5 0 0 0 4 2.5 M 4 110.5 A 1.5 1.5 0 0 0 4 113.5 A 1.5 1.5 0 0 0 4 110.5 M 161 2.5 A 1.5 1.5 0 0 0 161 5.5 A 1.5 1.5 0 0 0 161 2.5 M 161 110.5 A 1.5 1.5 0 0 0 161 113.5 A 1.5 1.5 0 0 0 161 110.5 M 11.65 37.6 A 1.5 1.5 0 0 0 11.65 40.6 A 1.5 1.5 0 0 0 11.65 37.6 M 60.65 37.6 A 1.5 1.5 0 0 0 60.65 40.6 A 1.5 1.5 0 0 0 60.65 37.6 M 11.65 95.6 A 1.5 1.5 0 0 0 11.65 98.6 A 1.5 1.5 0 0 0 11.65 95.6 M 60.65 95.6 A 1.5 1.5 0 0 0 60.65 98.6 A 1.5 1.5 0 0 0 60.65 95.6 M 108.5 60.95 A 1.5 1.5 0 0 0 108.5 63.95 A 1.5 1.5 0 0 0 108.5 60.95 M 159.5 60.95 A 1.5 1.5 0 0 0 159.5 63.95 A 1.5 1.5 0 0 0 159.5 60.95 M 108.5 97.75 A 1.5 1.5 0 0 0 108.5 100.75 A 1.5 1.5 0 0 0 108.5 97.75 M 159.5 97.75 A 1.5 1.5 0 0 0 159.5 100.75 A 1.5 1.5 0 0 0 159.5 97.75 M 159.5 15.25 A 1.5 1.5 0 0 0 159.5 18.25 A 1.5 1.5 0 0 0 159.5 15.25 M 80.2 45.18 A 1.5 1.5 0 0 0 80.2 48.18 A 1.5 1.5 0 0 0 80.2 45.18 M 80.2 22.02 A 1.5 1.5 0 0 0 80.2 25.02 A 1.5 1.5 0 0 0 80.2 22.02 M 144.1 45.18 A 1.5 1.5 0 0 0 144.1 48.18 A 1.5 1.5 0 0 0 144.1 45.18 M 144.1 22.02 A 1.5 1.5 0 0 0 144.1 25.02 A 1.5 1.5 0 0 0 144.1 22.02" />
</svg>