<?xml version="1.0" encoding="UTF-8" standalone="no"?>
<svg
   xmlns="http://www.w3.org/2000/svg"
   viewBox="0 0 110.287 185.0"
   width="110.287mm"
   height="185.0mm"
   style="background-color: #bbbbbb;">
    <style>   
    .l {
      fill:#cccccc;
      stroke:#000000;
      stroke-width:0.02;
    }
    .l1 {
      fill:none;
      stroke:#000000;
      stroke-width:0.02;
    }
    .l2 {
      fill:none;
      stroke:#000000;
      stroke-width:0.08;
    }
    .l3 {
      fill:none;
      stroke:green;
      stroke-width:0.08;
    }
    </style> 
    <rect width="100%" height="100%" fill="#dddddd" />
   
    <path class="l2" transform="translate(10.5, 0)" d=" M 92.5 185 A 92.5 92.5 0 0 1 0.65 103.41 A 2.16 2.16 0 0 0 -1.5 101.5 A 9 9 0 0 1 -1.5 83.5 A 2.16 2.16 0 0 0 0.65 81.59 A 92.5 92.5 0 0 1 92.5 0 h 0.15 v 4.15 h -0.15 a 3.419 3.419 0 1 0 1.709 6.379 a 3.719 3.719 0 1 1 0 6.441 A 3.419 3.419 0 1 0 92.5 23.35 h 0.15 v 4.15 h -0.15 a 65 65 0 0 0 0 130 h 0.15 v 4.15 h -0.15 a 3.419 3.419 0 1 0 1.709 6.379 a 3.719 3.719 0 1 1 0 6.441 A 3.419 3.419 0 1 0 92.5 180.85 h 0.15 v 4.15 h -0.15" />
</svg>