<?xml version="1.0" encoding="UTF-8" standalone="no"?>
<svg
   xmlns="http://www.w3.org/2000/svg"
   viewBox="0 0 287.069 185.0"
   width="287.069mm"
   height="185.0mm"
   style="background-color: #bbbbbb;">
    <style>   
    .l {
      fill:#cccccc;
      stroke:#000000;
      stroke-width:0.02;
    }
    .l1 {
      fill:none;
      stroke:#000000;
      stroke-width:0.02;
    }
    .l2 {
      fill:none;
      stroke:#000000;
      stroke-width:0.08;
    }
    .l3 {
      fill:none;
      stroke:green;
      stroke-width:0.08;
    }
    </style> 
    <rect width="100%" height="100%" fill="#dddddd" />
    <path class="l2" transform="translate(-88.931, 0)" d=" M 92.5 185 A 92.5 92.5 0 0 0 112.463 182.82 C 238.179 155.083 238.179 155.083 360.292 114.314 A 23 23 0 0 0 359.136 70.334 L 117.179 3.353 A 92.5 92.5 0 0 0 92.5 0 v 4.0 a 3.569 3.569 0 1 0 1.784 6.659 a 3.569 3.569 0 1 1 0 6.181 A 3.569 3.569 0 1 0 92.5 23.5 L 92.5 27.5 a 65 65 0 0 1 0 130 L 92.5 161.5 a 3.569 3.569 0 1 0 1.784 6.659 a 3.569 3.569 0 1 1 0 6.181 A 3.569 3.569 0 1 0 92.5 181z  M 353 79.5 A 13 13 0 0 1 353 105.5 A 13 13 0 0 1 353 79.5  M 307.5 80.517 A 2.5 2.5 0 0 1 307.5 85.517 A 2.5 2.5 0 0 1 307.5 80.517 M 252 65.153 A 2.5 2.5 0 0 1 252 70.153 A 2.5 2.5 0 0 1 252 65.153 M 248.5 115.816 A 2.5 2.5 0 0 1 248.5 120.816 A 2.5 2.5 0 0 1 248.5 115.816 M 204.19 128.08 A 2.5 2.5 0 0 1 204.19 133.08 A 2.5 2.5 0 0 1 204.19 128.08 M 204.167 128.088 A 2.5 2.5 0 0 1 204.167 133.088 A 2.5 2.5 0 0 1 204.167 128.088 M 326.75 90 A 2.5 2.5 0 0 1 326.75 95 A 2.5 2.5 0 0 1 326.75 90" />
</svg>