<?xml version="1.0" encoding="UTF-8" standalone="no"?>
<svg
   xmlns="http://www.w3.org/2000/svg"
   viewBox="0 0 79 45"
   width="79mm"
   height="45mm"
   style="background-color: #bbbbbb;">
    <style>   
    .l {
      fill:#cccccc;
      stroke:#000000;
      stroke-width:0.02;
    }
    .l1 {
      fill:none;
      stroke:#000000;
      stroke-width:0.02;
    }
    .l2 {
      fill:none;
      stroke:#000000;
      stroke-width:0.08;
    }
    .l3 {
      fill:none;
      stroke:green;
      stroke-width:0.08;
    }
    </style> 
    <rect width="100%" height="100%" fill="#dddddd" />
    <path class="l2" d=" M 15 10.1 A 4.9 4.9 0 0 0 15 19.9 A 4.9 4.9 0 0 0 15 10.1 M 35 10.1 A 4.9 4.9 0 0 0 35 19.9 A 4.9 4.9 0 0 0 35 10.1 M 49 36.1 A 2.9 2.9 0 0 0 49 41.9 A 2.9 2.9 0 0 0 49 36.1 M 61 32.9 L 64 32.9 A 2.9 2.9 0 0 0 64 27.1 L 61 27.1 A 2.9 2.9 0 0 0 61 32.9 M 9.205 28.835 L 46.682 44.534 A 6 6 0 0 0 49 45 L 64 45 A 15 15 0 0 0 70.891 16.677 L 41.891 1.677 A 15 15 0 0 0 35 0 L 15 0 A 15 15 0 0 0 9.205 28.835" />
</svg>