<?xml version="1.0" encoding="UTF-8" standalone="no"?>
<svg
   xmlns="http://www.w3.org/2000/svg"
   viewBox="0 0 90 92"
   width="90mm"
   height="92mm"
   style="background-color: #bbbbbb;">
    <style>   
    .l {
      fill:#cccccc;
      stroke:#000000;
      stroke-width:0.02;
    }
    .l1 {
      fill:none;
      stroke:#000000;
      stroke-width:0.02;
    }
    .l2 {
      fill:none;
      stroke:#000000;
      stroke-width:0.08;
    }
    .l3 {
      fill:none;
      stroke:green;
      stroke-width:0.08;
    }
    </style> 
    <rect width="100%" height="100%" fill="#dddddd" />
    <!--<ellipse class="l3" cx="88.94491012337913" cy="28.829278566945028" rx="15" ry="20" />
    <ellipse class="l3" cx="88.94491012337913" cy="28.829278566945028" rx="15" ry="20" transform="rotate(-69.79409802168746 88.94491012337913 28.829278566945028)" />
    <rect width="100%" height="100%" fill="#dddddd" />-->
    <path class="l2" d=" M 15 57.1 A 4.9 4.9 0 0 0 15 66.9 A 4.9 4.9 0 0 0 15 57.1 M 35 57.1 A 4.9 4.9 0 0 0 35 66.9 A 4.9 4.9 0 0 0 35 57.1 M 61 79.9 L 64 79.9 A 2.9 2.9 0 0 0 64 74.1 L 61 74.1 A 2.9 2.9 0 0 0 61 79.9 M 79.47 56.26 L 82.47 56.26 A 2.9 2.9 0 0 0 82.47 50.46 L 79.47 50.46 A 2.9 2.9 0 0 0 79.47 56.26 M 58.083 9.961 L 61.083 9.961 A 2.9 2.9 0 0 0 61.083 4.161 L 58.083 4.161 A 2.9 2.9 0 0 0 58.083 9.961 M 40 19.6 A 2.4 2.4 0 0 0 40 24.4 A 2.4 2.4 0 0 0 40 19.6 M 10.35 76.261 L 56.35 91.261 A 15 15 0 0 0 61 92 L 64 92 A 15 15 0 0 0 77.855 82.748 L 88.935 56.042 A 7 7 0 0 0 88.825 50.424 L 85.634 43.517 A 15 20 -69.794 0 1 73.463 17.169 L 67.437 4.125 A 7 7 0 0 0 61.083 0.061 L 58.083 0.061 A 7 7 0 0 0 54.351 1.138 L 34.669 13.539 A 10 10 0 0 0 32.13 15.831 L 3.194 52.746 A 15 15 0 0 0 10.35 76.261" />    
</svg>