<?xml version="1.0" encoding="UTF-8" standalone="no"?>
<svg
   xmlns="http://www.w3.org/2000/svg"
   viewBox="0 0 108.2 108.2"
   width="108.2mm"
   height="108.2mm"
   style="background-color: #bbbbbb;">
    <style>   
    .l {
      fill:#cccccc;
      stroke:#000000;
      stroke-width:0.02;
    }
    .l1 {
      fill:none;
      stroke:#000000;
      stroke-width:0.02;
    }
    .l2 {
      fill:none;
      stroke:#000000;
      stroke-width:0.08;
    }
    .l3 {
      fill:none;
      stroke:green;
      stroke-width:0.08;
    }
    </style> 
    <rect width="100%" height="100%" fill="#dddddd" />
    <path class="l2" d=" M 54.1 37.2 A 16.9 16.9 0 0 0 54.1 71 A 16.9 16.9 0 0 0 54.1 37.2 M 54.1 0 A 54.1 54.1 0 1 0 103.131 31.236 A 20 20 0 0 1 76.964 5.069 A 54.1 54.1 0 0 0 54.1 0 M 59.544 16.828 A 2.9 2.9 0 0 0 59.544 22.628 A 2.9 2.9 0 0 0 59.544 16.828 M 23.093 35.401 A 2.9 2.9 0 0 0 23.093 41.201 A 2.9 2.9 0 0 0 23.093 35.401 M 29.493 75.807 A 2.9 2.9 0 0 0 29.493 81.607 A 2.9 2.9 0 0 0 29.493 75.807 M 69.899 82.207 A 2.9 2.9 0 0 0 69.899 88.007 A 2.9 2.9 0 0 0 69.899 82.207 M 88.472 45.756 A 2.9 2.9 0 0 0 88.472 51.556 A 2.9 2.9 0 0 0 88.472 45.756 M 59.544 10.728 A 9 9 0 0 0 59.544 28.728 A 9 9 0 0 0 59.544 10.728 M 23.093 29.301 A 9 9 0 0 0 23.093 47.301 A 9 9 0 0 0 23.093 29.301 M 29.493 69.707 A 9 9 0 0 0 29.493 87.707 A 9 9 0 0 0 29.493 69.707 M 69.899 76.107 A 9 9 0 0 0 69.899 94.107 A 9 9 0 0 0 69.899 76.107 M 88.472 39.656 A 9 9 0 0 0 88.472 57.656 A 9 9 0 0 0 88.472 39.656 M 54.1 3.2 A 2.9 2.9 0 0 0 54.1 9 A 2.9 2.9 0 0 0 54.1 3.2 M 6.1 51.2 A 2.9 2.9 0 0 0 6.1 57 A 2.9 2.9 0 0 0 6.1 51.2 M 54.1 99.2 A 2.9 2.9 0 0 0 54.1 105 A 2.9 2.9 0 0 0 54.1 99.2 M 102.1 51.2 A 2.9 2.9 0 0 0 102.1 57 A 2.9 2.9 0 0 0 102.1 51.2 M 54.1 0.1 A 6 6 0 0 0 54.1 12.1 A 6 6 0 0 0 54.1 0.1 M 6.1 48.1 A 6 6 0 0 0 6.1 60.1 A 6 6 0 0 0 6.1 48.1 M 54.1 96.1 A 6 6 0 0 0 54.1 108.1 A 6 6 0 0 0 54.1 96.1 M 102.1 48.1 A 6 6 0 0 0 102.1 60.1 A 6 6 0 0 0 102.1 48.1" />
</svg>