<?xml version="1.0" encoding="UTF-8" standalone="no"?>
<svg
   xmlns="http://www.w3.org/2000/svg"
   viewBox="0 0 79.647 105.623"
   width="79.647mm"
   height="105.623mm"
   style="background-color: #bbbbbb;">
    <style>   
    .l {
      fill:#cccccc;
      stroke:#000000;
      stroke-width:0.02;
    }
    .l1 {
      fill:none;
      stroke:#000000;
      stroke-width:0.02;
    }
    .l2 {
      fill:none;
      stroke:#000000;
      stroke-width:0.08;
    }
    .l3 {
      fill:none;
      stroke:green;
      stroke-width:0.08;
    }
    </style> 
    <rect width="100%" height="100%" fill="#dddddd" />
    <path class="l2" transform="translate(-77.5, -77.5)" d=" M 104.105 82.996 C 118.392 100.442 141.163 140.085 155.45 157.531 A 7.5 7.5 0 0 1 144.388 167.63 A 6.934 6.934 0 0 0 132.814 170.834 A 7.5 7.5 0 0 1 120.294 174.3 A 6.934 6.934 0 0 0 108.72 177.504 A 7.5 7.5 0 0 1 94.003 176.426 C 91.763 155.646 79.826 114.888 77.586 94.107 A 15 15 0 0 1 104.105 82.996 z M 90.826 95.303 L 93.82 95.486 A 2.9 2.9 0 0 0 94.174 89.697 L 91.18 89.514 A 2.9 2.9 0 0 0 90.826 95.303 M 105.251 99.633 A 2.9 2.9 0 0 0 105.251 105.433 A 2.9 2.9 0 0 0 105.251 99.633 M 149.647 159.883 A 2.4 2.4 0 0 0 149.647 164.683 A 2.4 2.4 0 0 0 149.647 159.883 M 125.553 166.553 A 2.4 2.4 0 0 0 125.553 171.353 A 2.4 2.4 0 0 0 125.553 166.553 M 101.459 173.223 A 2.4 2.4 0 0 0 101.459 178.023 A 2.4 2.4 0 0 0 101.459 173.223 M 106.94 86.59 L 106.659 91.181 C 106.336 96.472 106.336 96.472 118.743 103.354" />
</svg>