<?xml version="1.0" encoding="UTF-8" standalone="no"?>
<svg
   xmlns="http://www.w3.org/2000/svg"
   viewBox="0 0 112 18"
   width="112mm"
   height="18mm"
   style="background-color: #bbbbbb;">
    <style>   
    .l {
      fill:#cccccc;
      stroke:#000000;
      stroke-width:0.02;
    }
    .l1 {
      fill:none;
      stroke:#000000;
      stroke-width:0.02;
    }
    .l2 {
      fill:none;
      stroke:#000000;
      stroke-width:0.08;
    }
    .l3 {
      fill:none;
      stroke:green;
      stroke-width:0.08;
    }
    </style> 
    <rect width="100%" height="100%" fill="#dddddd" />
    <path class="l2" transform="translate(10.5, -83.5)" d=" M -1.5 101.5 L 92.5 101.5 A 9 9 0 0 0 92.5 83.5 L -1.5 83.5 A 9 9 0 0 0 -1.5 101.5 M -1.5 90.1 A 2.4 2.4 0 0 0 -1.5 94.9 A 2.4 2.4 0 0 0 -1.5 90.1 M 91 95.4 L 94 95.4 A 2.9 2.9 0 0 0 94 89.6 L 91 89.6 A 2.9 2.9 0 0 0 91 95.4" />
</svg>