<?xml version="1.0" encoding="UTF-8" standalone="no"?>
<svg
   xmlns="http://www.w3.org/2000/svg"
   viewBox="0 0 376 188"
   width="376mm"
   height="188mm"
   style="background-color: #bbbbbb;">
    <style>   
    .l {
      fill:#cccccc;
      stroke:#000000;
      stroke-width:0.02;
    }
    .l1 {
      fill:none;
      stroke:#000000;
      stroke-width:0.02;
    }
    .l2 {
      fill:none;
      stroke:#000000;
      stroke-width:0.08;
    }
    .l3 {
      fill:none;
      stroke:green;
      stroke-width:0.08;
    }
    </style> 
    <rect width="100%" height="100%" fill="#dddddd" />
    <path class="l2" d=" M 267.088 147.982 C 223.526 161.388 194.876 167.709 113.111 185.749 A 95.5 95.5 0 0 1 85 187.705 L 85 184.695 C 85 169.577 85 169.577 146.979 152.645 A 10 10 0 0 1 154.575 153.582 C 175.582 165.479 175.582 165.479 258.475 143.103 A 7 7 0 0 1 267.088 147.982 M 149.647 160.183 M 149.647 160.183 A 2.1 2.1 0 0 0 149.647 164.383 A 2.1 2.1 0 0 0 149.647 160.183 M 125.553 166.853 A 2.1 2.1 0 0 0 125.553 171.053 A 2.1 2.1 0 0 0 125.553 166.853 M 101.459 173.523 A 2.1 2.1 0 0 0 101.459 177.723 A 2.1 2.1 0 0 0 101.459 173.523" />
</svg>