<?xml version="1.0" encoding="UTF-8" standalone="no"?>
<svg
   xmlns="http://www.w3.org/2000/svg"
   viewBox="0 0 376 188"
   width="376mm"
   height="188mm"
   style="background-color: #bbbbbb;">
    <style>   
    .l {
      fill:#cccccc;
      stroke:#000000;
      stroke-width:0.02;
    }
    .l1 {
      fill:none;
      stroke:#000000;
      stroke-width:0.02;
    }
    .l2 {
      fill:none;
      stroke:#000000;
      stroke-width:0.08;
    }
    .l3 {
      fill:none;
      stroke:green;
      stroke-width:0.08;
    }
    </style> 
    <rect width="100%" height="100%" fill="#dddddd" />
    <path class="l2" d=" M 258.138 115.648 L 267.088 147.982 C 223.526 161.388 194.876 167.709 113.111 185.749 A 95.5 95.5 0 0 1 85 187.705 L 85 184.695 C 85 169.577 85 169.577 146.979 152.645 L 212.873 134.404 C 230.689 129.472 230.689 129.472 239.799 113.388 A 10 10 0 0 1 258.138 115.648 M 248.5 115.816 M 248.5 115.816 A 2.5 2.5 0 0 0 248.5 120.816 A 2.5 2.5 0 0 0 248.5 115.816" />
</svg>