<?xml version="1.0" encoding="UTF-8" standalone="no"?>
<svg
   xmlns="http://www.w3.org/2000/svg"
   viewBox="0 0 87.8 87.8"
   width="87.8mm"
   height="87.8mm"
   style="background-color: #bbbbbb;">
    <style>   
    .l {
      fill:#cccccc;
      stroke:#000000;
      stroke-width:0.02;
    }
    .l1 {
      fill:none;
      stroke:#000000;
      stroke-width:0.02;
    }
    .l2 {
      fill:none;
      stroke:#000000;
      stroke-width:0.08;
    }
    .l3 {
      fill:none;
      stroke:green;
      stroke-width:0.08;
    }
    </style> 
    <rect width="100%" height="100%" fill="#dddddd" />
    <path class="l2" d=" M 43.9 0 A 43.9 43.9 0 0 0 43.9 87.8 A 43.9 43.9 0 0 0 43.9 0 M 43.9 18.1 A 25.8 25.8 0 0 0 43.9 69.7 A 25.8 25.8 0 0 0 43.9 18.1 M 49.344 6.628 A 2.9 2.9 0 0 0 49.344 12.428 A 2.9 2.9 0 0 0 49.344 6.628 M 12.893 25.201 A 2.9 2.9 0 0 0 12.893 31.001 A 2.9 2.9 0 0 0 12.893 25.201 M 19.293 65.607 A 2.9 2.9 0 0 0 19.293 71.407 A 2.9 2.9 0 0 0 19.293 65.607 M 59.699 72.007 A 2.9 2.9 0 0 0 59.699 77.807 A 2.9 2.9 0 0 0 59.699 72.007 M 78.272 35.556 A 2.9 2.9 0 0 0 78.272 41.356 A 2.9 2.9 0 0 0 78.272 35.556" />
</svg>